<svg width="65" height="65" viewBox="0 0 65 65" fill="none" xmlns="http://www.w3.org/2000/svg">
<g clip-path="url(#clip0_21_2254)">
<path d="M0 0L5.05 42.75C5.05 42.75 7.67 64.57 31.88 64.57H32.56C56.86 64.57 59.39 42.75 59.39 42.75L64.45 0H0ZM55.27 40.53C55.27 40.53 53.94 60.48 32.21 60.48C10.48 60.48 9.15 40.53 9.15 40.53L4.89 4.52H59.52L55.27 40.53ZM36.13 7H40.68L34.94 20.64H29.13L23.39 7H27.94L32.04 16.67L36.13 7ZM9.88 21.44H23.49V25.5L16.46 31.66H23.75V35.54H9.54V31.66L16.99 25.12H9.87V21.44H9.88ZM35.17 21.44H39.72V29.53C39.72 29.53 39.74 35.83 32.05 35.83H31.99C24.3 35.83 24.32 29.53 24.32 29.53V21.44H28.87V28.09C28.87 28.09 28.6 32.13 32 32.13H32.06C35.45 32.13 35.19 28.09 35.19 28.09V21.44H35.17ZM55.07 25.12H47.51C47.51 25.12 44.8 24.84 44.81 28.2C44.81 31.79 47.67 31.66 47.67 31.66H50.44V28.2H55.07V35.54H46.14C46.14 35.54 40.07 35.23 40.07 28.2C40.07 21.17 46.08 21.44 46.08 21.44H55.09V25.12H55.07Z" fill="black" fill-opacity="0.75"/>
</g>
<defs>
<clipPath id="clip0_21_2254">
<rect width="64.45" height="64.57" fill="white"/>
</clipPath>
</defs>
</svg>
