<svg width="103" height="124" viewBox="0 0 103 124" fill="none" xmlns="http://www.w3.org/2000/svg">
<g clip-path="url(#clip0_20_2185)">
<path d="M53.6907 0C58.3725 1.12815 63.1006 2.09376 67.7215 3.42086C74.1745 5.272 78.183 9.6245 79.8322 16.1023C80.1518 17.3615 79.6468 18.3295 78.5928 18.6061C77.5438 18.8826 76.6167 18.2785 76.2873 17.0291C74.7576 11.2185 70.9858 7.80004 65.1354 6.4972C62.1321 5.82759 59.1581 5.02454 56.1718 4.27243C53.2905 3.54702 50.3897 3.43299 47.4986 4.12686C43.6781 5.04152 39.8501 5.94162 36.071 7.01154C30.3938 8.61765 26.5244 13.7271 26.4341 19.5838C26.3853 22.8057 26.4244 26.0276 26.4244 29.4024C43.1755 24.6981 59.829 24.7005 76.5752 29.3903C76.5752 28.0753 76.5606 26.9083 76.5801 25.7413C76.5996 24.4385 77.312 23.6306 78.4074 23.6257C79.5151 23.6209 80.2201 24.4118 80.2494 25.7195C80.2665 26.4862 80.2519 27.2528 80.2543 28.0195C80.2567 29.6135 80.1055 31.1929 81.1594 32.6413C81.5913 33.2333 81.6352 34.1722 81.6767 34.9607C81.7572 36.4503 81.7206 37.9473 81.7084 39.4393C81.6815 42.6054 79.8103 44.8399 76.7021 45.5556C76.3703 45.6333 75.9287 46.0942 75.8823 46.4266C74.9333 53.3144 71.7006 58.846 65.921 62.7739C64.6645 63.6279 64.2839 64.5062 64.3791 65.9206C64.5279 68.1114 65.6428 69.5186 67.8044 70.0111C71.5909 70.8748 75.531 71.3503 79.1271 72.7187C92.6773 77.8718 100.628 87.7462 102.595 102.056C103.178 106.299 103 110.68 102.829 114.984C102.639 119.757 98.1813 123.767 93.2653 123.985C92.9823 123.998 92.6969 124 92.4138 124C65.1427 124 37.8715 124.005 10.6004 123.998C5.38668 123.998 1.31235 120.766 0.238874 115.846C0.221796 115.768 0.18764 115.69 0.1852 115.61C-0.180758 107.116 -0.427169 98.6396 3.63252 90.7498C9.25851 79.8176 18.1318 73.2209 30.2669 70.9622C31.9406 70.6516 33.6167 70.3556 35.2781 69.982C37.891 69.3973 39.4866 66.4665 38.5498 64.0064C38.4619 63.7784 38.1887 63.5915 37.9618 63.446C31.599 59.3021 27.9443 53.494 27.0806 45.9632C27.0709 45.888 27.0197 45.8176 26.9562 45.6745C26.5366 45.575 26.0682 45.4877 25.6119 45.3543C23.0795 44.6143 21.3546 42.4259 21.2961 39.8227C21.2595 38.1292 21.2156 36.4261 21.3327 34.7399C21.3961 33.8422 21.6279 32.8669 22.089 32.11C22.633 31.2196 22.755 30.351 22.7477 29.3733C22.7233 26.2654 22.7209 23.1575 22.7428 20.0496C22.8014 11.694 28.0346 5.12158 36.2028 3.13942C40.5674 2.08163 44.9369 1.04567 49.304 0C50.7654 0 52.2268 0 53.6882 0L53.6907 0ZM82.9038 120.278C82.9673 120.116 83.0478 120.007 83.0502 119.897C83.0648 117.92 82.999 115.94 83.0966 113.97C83.1917 112.066 82.755 110.414 81.4937 108.934C80.4226 107.677 79.8493 106.165 79.7615 104.501C79.5956 101.337 78.2196 100.042 75.0089 100.042C59.4752 100.042 43.9415 100.042 28.4079 100.042C28.0419 100.042 27.6759 100.025 27.3124 100.056C25.4021 100.221 23.809 101.699 23.7504 103.572C23.6748 105.957 22.8087 107.956 21.1863 109.666C20.2714 110.63 19.9079 111.782 19.9201 113.09C19.9396 115.147 19.9201 117.204 19.9298 119.262C19.9298 119.604 19.9957 119.946 20.0274 120.278H82.9038ZM78.0219 35.099C77.9 35.0286 77.7804 34.9582 77.6584 34.8879C77.0046 35.6036 76.3873 36.3533 75.692 37.0253C72.6619 39.9707 69.1048 40.9945 64.8841 40.2739C56.1865 38.7891 47.4328 38.6484 38.7401 40.2181C33.7899 41.1109 29.7912 39.8057 26.4512 36.1931C26.0535 35.7637 25.7315 35.2639 25.3728 34.7957C25.2411 34.8952 25.1094 34.9946 24.9776 35.0965C24.9776 36.6541 24.9239 38.2166 24.9947 39.7717C25.0484 40.9702 25.8754 41.7296 27.0977 41.9019C29.5838 42.2537 30.5499 43.2581 30.7915 45.74C30.8232 46.0603 30.8573 46.3805 30.9061 46.7008C32.6798 58.5355 44.9613 65.6247 55.6083 63.429C64.6547 61.5633 71.1883 54.5809 72.2301 45.5095C72.4862 43.2751 73.5475 42.1954 75.7725 41.9116C77.1071 41.7393 77.9439 41.0187 78.0049 39.779C78.0805 38.2214 78.0219 36.659 78.0219 35.0965V35.099ZM70.693 96.3202V94.9664C70.693 88.5492 70.7028 82.1321 70.6735 75.715C70.6735 75.2225 70.5271 74.4073 70.2393 74.3005C69.4683 74.0142 68.6388 73.6794 67.7703 74.4364C66.1235 75.8678 64.4156 77.2507 62.6225 78.4929C57.2331 82.2292 51.4242 82.8575 45.2809 80.5867C42.0459 79.3906 39.5257 77.127 37.0225 74.9095C35.6343 73.677 34.373 73.6867 32.8799 74.303V96.3202H70.693ZM29.1032 74.8416C27.3246 75.4214 25.7632 75.9527 24.1871 76.4355C23.526 76.6393 23.3381 77.0202 23.3503 77.6826C23.3869 79.7011 23.3869 81.7197 23.3503 83.7358C23.3259 85.0168 22.6477 85.7301 21.562 85.7519C20.4349 85.7737 19.7127 85.0144 19.659 83.7042C19.6273 82.8988 19.6517 82.0909 19.6517 81.283C19.6517 80.4702 19.6517 79.6574 19.6517 78.7307C9.98555 84.1798 4.17658 95.0052 3.95944 103.878H19.6468C19.6468 100.92 19.6468 98.0597 19.6468 95.1993C19.6468 94.3113 19.6054 93.4209 19.6712 92.5354C19.7542 91.4024 20.53 90.7109 21.5693 90.7401C22.5842 90.7692 23.2381 91.4097 23.3357 92.5233C23.3796 93.0449 23.3601 93.5714 23.3601 94.0954C23.3625 95.2017 23.3601 96.3105 23.3601 97.213C25.3484 96.8248 27.1807 96.4682 29.1007 96.0921V74.8367L29.1032 74.8416ZM99.1304 103.912C98.4253 92.1957 90.3767 82.3311 83.9139 79.245V103.912H99.1304ZM28.3615 32.7941C30.7329 35.623 33.4215 37.3747 37.4129 36.6735C46.796 35.0262 56.228 35.031 65.6111 36.676C69.5976 37.3747 72.274 35.623 74.6356 32.7844C64.5352 28.5508 38.3619 28.5605 28.3591 32.7941H28.3615ZM39.4305 72.0685C48.2062 80.8171 57.0648 79.5701 64.1619 72.4809C61.8003 70.9112 60.7927 68.5967 60.6585 65.729C54.4909 68.1284 48.4404 68.1139 42.3118 65.7266C42.2435 68.3274 41.3896 70.4308 39.4281 72.0685H39.4305ZM17.9 107.757H3.84966C3.80574 107.956 3.75939 108.07 3.75939 108.184C3.75695 110.159 3.72035 112.134 3.76915 114.109C3.83258 116.799 5.58674 119.393 8.24603 119.914C10.8151 120.419 13.5061 120.32 16.0751 120.48C16.724 116.074 15.109 111.716 17.9049 107.757H17.9ZM99.2036 107.755H85.263C87.8662 111.733 86.256 116.11 86.8952 120.215C89.2178 120.215 91.5356 120.417 93.802 120.164C96.7029 119.842 98.9596 117.493 99.167 114.725C99.3378 112.447 99.2011 110.147 99.2011 107.755H99.2036ZM74.4673 74.958V96.1042C76.3898 96.49 78.1879 96.8491 80.0347 97.2203C80.0079 97.2931 80.0811 97.1863 80.0811 97.0796C80.0908 90.5921 80.103 84.1046 80.0713 77.6171C80.0713 77.3162 79.7493 76.8528 79.4687 76.7437C77.8585 76.1153 76.2141 75.5718 74.4673 74.9604V74.958Z" fill="black" fill-opacity="0.75"/>
<path d="M51.4585 21.8741C49.2677 21.8741 47.0793 21.8983 44.8884 21.8692C42.0168 21.8328 40.3115 20.0933 40.2895 17.2256C40.2822 16.3376 40.2798 15.4496 40.2895 14.5641C40.3237 11.8687 42.0388 10.1097 44.7835 10.0491C47.1744 9.99569 49.5678 10.0369 51.9611 10.0369C53.9885 10.0369 56.0159 10.0127 58.0433 10.0442C60.9783 10.0879 62.6861 11.8371 62.7056 14.7655C62.7105 15.6534 62.7178 16.5414 62.7056 17.427C62.6617 20.0472 60.9247 21.8158 58.2727 21.8668C56.0013 21.9105 53.7299 21.8765 51.4585 21.8765V21.8741ZM51.5098 18.1936C53.0078 18.1936 54.5033 18.2106 56.0013 18.1912C59.473 18.1451 58.946 18.7177 59.0534 15.2046C59.09 13.9891 58.6167 13.7053 57.4944 13.7247C54.0568 13.7805 50.6168 13.715 47.1768 13.7538C43.4294 13.795 44.0394 13.1157 43.9564 17.0388C43.9369 17.9534 44.3346 18.2227 45.1982 18.2057C47.3013 18.1669 49.4067 18.1936 51.5098 18.1936Z" fill="black" fill-opacity="0.75"/>
</g>
<defs>
<clipPath id="clip0_20_2185">
<rect width="103" height="124" fill="white"/>
</clipPath>
</defs>
</svg>
