<svg width="116" height="38" viewBox="0 0 116 38" fill="none" xmlns="http://www.w3.org/2000/svg">
<g clip-path="url(#clip0_21_2332)">
<path d="M39.3401 0V37.18H76.3301V0H39.3401ZM57.0401 26.73H48.4201V23.46H49.9101L49.5701 21.71H45.4801L45.1501 23.46H46.7101V26.73H40.4301V23.42H41.1301L44.1501 14.31H42.5201V10.96H54.4201V14.27H52.6401L55.3501 23.45H57.0601V26.72L57.0401 26.73ZM75.4801 14.24H74.3601V26.73H69.1901L63.3901 18.44V23.42H64.8101V26.73H58.2301V23.46H59.4801V14.25L58.2701 14.26V10.97H64.4801L70.6501 18.7V14.32H69.2401V10.97H75.4901V14.24H75.4801Z" fill="black" fill-opacity="0.75"/>
<path d="M46.1101 18.9999H49.3401L47.7401 14.5699" fill="black" fill-opacity="0.75"/>
<path d="M77.3301 0V37.18H115.11V0H77.3301ZM97.2201 26.73H88.5201V23.42H90.0101L86.0701 19.26V23.42H87.3701V26.73H78.1501V23.42H79.9301V14.24L78.1801 14.26V10.97H87.4001V13.98H85.9101V17.84L89.7101 13.99H88.6001V10.96H96.0401V13.94H94.9301L90.7301 18.44L95.5301 23.16H97.2401V26.73H97.2201ZM112.69 15.76H109.08V13.94H105.84V17.21H108.56V20.18H105.81V23.19H109.12V21.33H112.69V26.72H98.0801V23.15H99.9001V13.94H98.0801V10.96H112.69V15.76Z" fill="black" fill-opacity="0.75"/>
<path d="M0 0V37.18H38.34V0H0ZM17.21 15.8H13.9V14.27H10.41V16.88H13.35V20.26H10.41V23.42H12.19V26.73H2.64V23.5H4.13V14.57H2.64V10.96H17.21V15.79V15.8ZM37.4 26.73H31.23L28.44 20.19H26.73V23.43H28.25V26.74H18.95V23.47H20.44V14.54H18.69V10.97H30.14C30.14 10.97 35.6 11.38 35.94 15.43C36.1 17.39 33.45 18.89 33.45 18.89L35.75 23.46H37.39V26.73H37.4Z" fill="black" fill-opacity="0.75"/>
<path d="M26.77 14.28V17.81C26.77 17.81 29.71 17.95 29.71 16.06C29.71 14.17 26.77 14.28 26.77 14.28Z" fill="black" fill-opacity="0.75"/>
</g>
<defs>
<clipPath id="clip0_21_2332">
<rect width="115.11" height="37.18" fill="white"/>
</clipPath>
</defs>
</svg>
