<svg width="122" height="45" viewBox="0 0 122 45" fill="none" xmlns="http://www.w3.org/2000/svg">
<g clip-path="url(#clip0_21_2231)">
<path d="M0 43.6757C1.5236 44.4446 2.94391 44.7778 4.63967 44.7778C8.00536 44.7778 10.1746 43.0092 10.1746 40.2496C10.1746 38.3187 9.20186 37.2935 6.28378 36.217C5.09589 35.7784 4.35561 35.4765 4.06294 35.3113C3.53785 35.0123 3.28822 34.6534 3.28822 34.0981C3.28822 33.107 4.12319 32.5004 5.45742 32.5004C6.59366 32.5004 7.90207 32.8849 9.09857 33.5769L9.93354 31.1249C8.29803 30.4072 6.87772 30.1082 5.31969 30.1082C2.09172 30.1082 0.0946871 31.7315 0.0946871 34.3544C0.0946871 35.4053 0.482043 36.3109 1.17928 36.9432C1.81627 37.4985 2.42743 37.7976 4.12319 38.4042C5.68122 38.951 6.04276 39.0962 6.40429 39.3696C6.76582 39.6174 6.9638 40.0616 6.9638 40.5572C6.9638 41.685 6.10301 42.3514 4.63106 42.3514C3.34848 42.3514 2.37578 42.0438 0.878007 41.2236L0.0172158 43.6757H0ZM14.1858 32.8593V39.5661C14.1858 41.5226 14.3752 42.5735 14.8831 43.3168C15.5201 44.2823 16.6649 44.7778 18.2746 44.7778C19.2473 44.7778 20.1339 44.6411 21.1669 44.3079L20.8656 41.8558C20.1683 42.1036 19.8068 42.189 19.3334 42.189C17.9131 42.189 17.4482 41.4714 17.4482 39.4038V32.8678H20.6676V30.4157H17.4482V26.7505L14.1945 27.3571V30.4157H11.9134V32.8678H14.1945L14.1858 32.8593ZM35.4216 30.4072H32.1678V39.9249C31.0574 41.4372 29.749 42.3001 28.5008 42.3001C27.5539 42.3001 26.8567 41.8558 26.5554 41.0869C26.3316 40.5657 26.28 40.0104 26.28 38.7117V30.4072H23.0262V38.8741C23.0262 40.8904 23.1897 41.9327 23.6373 42.7871C24.3001 44.0858 25.6688 44.7778 27.442 44.7778C29.3616 44.7778 30.7217 44.1456 32.383 42.4026L32.4691 44.4702H35.5507C35.4388 42.5991 35.413 41.4628 35.413 39.5319V30.3987L35.4216 30.4072ZM48.2215 24.3155V32.1758C47.1111 30.766 45.7769 30.1082 44.0811 30.1082C40.638 30.1082 38.3827 33.0045 38.3827 37.4216C38.3827 39.438 38.8561 41.1723 39.7169 42.4966C40.7757 44.043 42.1616 44.7863 44.0811 44.7863C46.0007 44.7863 47.137 44.1541 48.3593 42.471L48.4712 44.4873H51.6131C51.5012 43.052 51.4753 41.9498 51.4753 39.549V24.3069H48.2215V24.3155ZM48.2215 39.8993C47.1972 41.5568 46.1384 42.3001 44.8559 42.3001C42.9621 42.3001 41.7398 40.3692 41.7398 37.3874C41.7398 34.4057 42.9879 32.5859 44.9333 32.5859C46.1815 32.5859 47.3521 33.4146 48.2129 34.9268V39.8908L48.2215 39.8993ZM55.2542 44.4788H58.508V30.4072H55.2542V44.4788ZM56.8897 23.8712C55.7276 23.8712 54.8582 24.7 54.8582 25.8534C54.8582 27.0068 55.6932 27.8697 56.8897 27.8697C58.0862 27.8697 58.8954 27.041 58.8954 25.8534C58.8954 24.6658 58.0604 23.8712 56.8897 23.8712ZM68.2608 30.1082C63.9826 30.1082 61.3142 32.8934 61.3142 37.3618C61.3142 41.8302 63.931 44.7863 68.2608 44.7863C72.5906 44.7863 75.2074 42.0011 75.2074 37.4473C75.2074 32.8934 72.5647 30.1082 68.2608 30.1082ZM68.2608 32.5602C70.4816 32.5602 71.8503 34.4057 71.8503 37.4387C71.8503 40.4717 70.4902 42.3172 68.2608 42.3172C66.0313 42.3172 64.6713 40.4717 64.6713 37.3789C64.6713 34.2861 66.0313 32.5517 68.2608 32.5517" fill="black" fill-opacity="0.75"/>
<path d="M78.0911 44.7266H86.062V42.8043H80.2086V30.6294H78.0997V44.7266H78.0911ZM88.653 44.7266H90.7619V30.7405H88.653V44.7266ZM89.7118 24.2899C88.851 24.2899 88.214 24.8965 88.214 25.7509C88.214 26.6565 88.8251 27.2631 89.7118 27.2631C90.5984 27.2631 91.2095 26.6565 91.2095 25.7765C91.2095 24.8965 90.5984 24.2899 89.7118 24.2899ZM95.1003 44.7266H97.2092V34.7731C98.6812 33.0046 100.153 32.1502 101.685 32.1502C102.908 32.1502 103.768 32.6713 104.104 33.6368C104.328 34.2178 104.405 35.149 104.405 36.6186V44.7266H106.514V36.6442C106.514 34.4057 106.351 33.2523 105.929 32.3979C105.292 31.1591 103.984 30.4671 102.262 30.4671C100.317 30.4671 98.8706 31.1847 97.149 32.9789L97.0629 30.7405H94.9798C95.0659 31.6803 95.0917 32.9448 95.0917 35.2943V44.7266H95.1003ZM122 38.3017C121.974 36.0376 121.776 34.7987 121.225 33.5257C120.39 31.5436 118.643 30.4671 116.198 30.4671C112.394 30.4671 110.061 33.2267 110.061 37.7463C110.061 42.266 112.592 45 116.784 45C118.505 45 119.977 44.5557 121.484 43.6245L120.674 41.9926C119.366 42.9068 118.144 43.3169 116.809 43.3169C114.029 43.3169 112.609 41.7448 112.282 38.2931H122.009L122 38.3017ZM112.333 36.6186C112.445 33.8333 113.866 32.1502 116.112 32.1502C118.359 32.1502 119.667 33.7222 119.753 36.6186H112.333Z" fill="black" fill-opacity="0.75"/>
<path fill-rule="evenodd" clip-rule="evenodd" d="M0.533778 18.4121V14.781C2.61689 15.4303 4.45899 15.7549 6.06006 15.7549C8.27229 15.7549 9.38272 15.174 9.38272 14.012C9.38272 13.5763 9.21917 13.2174 8.90067 12.9184C8.57357 12.6023 7.72139 12.1751 6.36995 11.6198C3.93391 10.6287 2.34144 9.77431 1.60116 9.07372C0.637073 8.15099 0.155029 6.9805 0.155029 5.57078C0.155029 3.75096 0.860878 2.36687 2.25536 1.41851C3.63263 0.478695 5.43168 0.000244141 7.65252 0.000244141C8.87485 0.000244141 10.6395 0.222382 12.955 0.675201V4.16106C11.2334 3.47756 9.64095 3.13581 8.16039 3.13581C6.07728 3.13581 5.04433 3.69969 5.04433 4.83601C5.04433 5.2632 5.25092 5.60495 5.6727 5.87835C6.01702 6.09195 6.98111 6.55331 8.54775 7.2539C10.8116 8.25352 12.3094 9.11644 13.0669 9.8512C13.9535 10.7227 14.4011 11.859 14.4011 13.2431C14.4011 15.2338 13.5317 16.7546 11.7843 17.8054C10.3726 18.6513 8.53914 19.0785 6.28387 19.0785C4.38152 19.0785 2.47056 18.8563 0.533778 18.4121Z" fill="black" fill-opacity="0.75"/>
<path fill-rule="evenodd" clip-rule="evenodd" d="M17.3193 0.316162H22.4927V18.7109H17.3193V0.316162Z" fill="black" fill-opacity="0.75"/>
<path fill-rule="evenodd" clip-rule="evenodd" d="M27.2441 18.7109V0.324707H40.5175V3.64823H32.2281V7.8005H39.4416V10.8335H32.2281V15.1994H40.7241V18.7109H27.2441Z" fill="black" fill-opacity="0.75"/>
<path fill-rule="evenodd" clip-rule="evenodd" d="M44.1069 18.7109V0.324707H50.8125L55.478 12.0724L60.2554 0.324707H66.6339V18.7109H61.7187V5.69019L56.2871 18.8988H53.085L47.7481 5.69019V18.7109H44.1069Z" fill="black" fill-opacity="0.75"/>
<path fill-rule="evenodd" clip-rule="evenodd" d="M71.377 18.7109V0.324707H84.6504V3.64823H76.3609V7.8005H83.5744V10.8335H76.3609V15.1994H84.8656V18.7109H71.377Z" fill="black" fill-opacity="0.75"/>
<path fill-rule="evenodd" clip-rule="evenodd" d="M88.2656 18.7109V0.324707H94.2653L100.627 12.6277V0.324707H104.276V18.7109H98.4488L91.9154 6.23699V18.7109H88.2656Z" fill="black" fill-opacity="0.75"/>
<path fill-rule="evenodd" clip-rule="evenodd" d="M107.952 18.4118V14.7807C110.018 15.43 111.86 15.7547 113.478 15.7547C115.691 15.7547 116.801 15.1737 116.801 14.0118C116.801 13.576 116.646 13.2172 116.327 12.9182C115.992 12.602 115.148 12.1749 113.78 11.6195C111.344 10.637 109.76 9.78261 109.011 9.07348C108.055 8.15075 107.573 6.98025 107.573 5.55344C107.573 3.74217 108.27 2.35808 109.665 1.40972C111.042 0.469906 112.841 -0.00854492 115.062 -0.00854492C116.31 -0.00854492 117.92 0.187962 119.908 0.580975L120.365 0.657869V4.16081C118.643 3.47731 117.042 3.13556 115.561 3.13556C113.495 3.13556 112.463 3.69945 112.463 4.83577C112.463 5.26296 112.669 5.60471 113.091 5.87811C113.427 6.08316 114.391 6.54452 115.983 7.25365C118.23 8.25327 119.728 9.11619 120.485 9.85096C121.38 10.7224 121.819 11.8587 121.819 13.2428C121.819 15.2335 120.95 16.7543 119.211 17.8052C117.791 18.651 115.949 19.0782 113.702 19.0782C111.8 19.0782 109.88 18.8561 107.952 18.4118Z" fill="black" fill-opacity="0.75"/>
</g>
<defs>
<clipPath id="clip0_21_2231">
<rect width="122" height="45" fill="white"/>
</clipPath>
</defs>
</svg>
