<svg width="123" height="37" viewBox="0 0 123 37" fill="none" xmlns="http://www.w3.org/2000/svg">
<g clip-path="url(#clip0_21_2338)">
<path d="M11.0741 8.22939C11.9808 7.73248 12.9722 6.41141 12.9722 4.71463C12.9722 2.73909 11.7511 1.09079 9.96186 0.399956C9.28484 0.145438 8.30558 0 7.27796 0H0V17.4405H7.24169C8.42648 17.4405 9.57499 17.3193 10.5784 16.8709C12.1501 16.1558 13.4679 14.762 13.4679 12.3501C13.4679 9.92617 11.8962 8.56875 11.0741 8.22939ZM3.28838 3.12693H6.97572C8.58364 3.12693 9.46619 3.79352 9.46619 5.11459C9.46619 6.43565 8.70454 7.02953 6.91527 7.02953H3.28838V3.12693ZM7.1208 14.3378H3.28838V9.8171H7.03617C8.8617 9.8171 9.99813 10.3746 9.99813 12.1199C9.99813 13.8651 9.01887 14.3378 7.1208 14.3378Z" fill="black" fill-opacity="0.75"/>
<path d="M21.5197 0L14.7979 17.4405H18.4247L19.803 13.7076H26.2347L27.5524 17.4405H31.1551L24.7355 0H21.5197ZM20.8789 10.7988L23.0793 4.86007L25.1949 10.7988" fill="black" fill-opacity="0.75"/>
<path d="M43.4504 16.8224C45.4089 15.574 45.9287 13.9742 46.1101 12.9804C46.2189 12.3138 46.2552 11.4654 46.2552 10.9806V0H42.8338V10.3019C42.8338 12.035 42.592 13.55 41.4072 14.2409C40.5488 14.7499 40.0774 14.8105 39.4729 14.8105C38.8684 14.8105 38.3123 14.7499 37.4539 14.2409C36.2691 13.5379 36.0273 12.0229 36.0273 10.3019V0H32.606V10.9685C32.606 11.4533 32.6422 12.3138 32.751 12.9683C32.9324 13.9742 33.4522 15.574 35.4108 16.8103C36.1603 17.2708 37.5506 17.8526 39.485 17.8526C41.4193 17.8526 42.7129 17.2708 43.4625 16.8103" fill="black" fill-opacity="0.75"/>
<path d="M57.0511 17.4405L60.7747 5.44182L64.6072 17.4405H67.6417L72.9974 0H69.4672L66.0821 11.926L62.2618 0H59.2273L55.5641 11.8896L52.1669 0H48.5884L53.9804 17.4405" fill="black" fill-opacity="0.75"/>
<path d="M87.6498 14.3378H78.6551V10.0231H86.1749V6.92045H78.6551V3.12693H87.3717V0H75.3184V17.4405H87.6498" fill="black" fill-opacity="0.75"/>
<path d="M104.527 5.46606C104.527 2.39973 103.052 0 98.1802 0H91.2407V17.4405H94.6621V11.0897H98.0835L101.916 17.4405H105.76L101.348 10.1686C103.234 9.22322 104.515 7.67188 104.515 5.46606M97.8417 8.08395H94.6621V3.01785H97.9505C100.042 3.01785 101.106 3.9026 101.106 5.46606C101.106 6.76289 100.054 8.08395 97.8538 8.08395" fill="black" fill-opacity="0.75"/>
<path d="M122.988 0H118.587L111.72 7.02952V0H108.323V17.4405H111.72V11.429L113.34 9.79285L118.829 17.4526H123L115.722 7.39312" fill="black" fill-opacity="0.75"/>
<path d="M43.2325 26.0334H39.4L39.2912 26.5182C40.4881 26.6394 40.5848 26.7606 40.3309 28.0575L39.1099 34.2507C38.8439 35.5354 38.7351 35.6566 37.5624 35.7657L37.4536 36.2505H42.0477L42.1444 35.7657C40.7541 35.6324 40.609 35.5475 40.8629 34.2507L41.3344 31.8752L42.4466 32.1782C42.6038 32.1903 42.7731 32.1903 42.9665 32.1903C45.0096 32.0328 46.811 30.8572 46.811 28.7241C46.811 26.7606 45.3119 26.0334 43.2325 26.0334ZM42.4587 31.4995C41.9993 31.4995 41.6608 31.4026 41.4553 31.3056L42.1565 27.5484C42.2532 27.0636 42.3499 26.8334 42.5071 26.7485C42.6522 26.6879 42.8577 26.6152 43.1357 26.6152C44.2117 26.6152 44.9129 27.2939 44.9129 28.5907C44.9129 30.3239 43.7402 31.4995 42.4587 31.4995Z" fill="black" fill-opacity="0.75"/>
<path d="M53.0131 35.0385C52.9164 35.0385 52.8922 34.893 52.9769 34.3961C53.3033 32.4933 53.7385 30.6269 54.0408 29.4027L53.9682 29.3421C53.7264 29.3421 53.4726 29.3058 53.1582 29.2452C52.8076 29.1846 52.4812 29.1361 52.1669 29.1361C50.9579 29.1361 49.6764 29.8148 48.9268 30.4693C47.8388 31.4146 47.1255 33.0387 47.1255 34.5658C47.1255 35.802 47.6212 36.4444 48.1652 36.4444C48.673 36.4444 49.2895 36.0808 49.7852 35.6687C50.3051 35.2324 50.9458 34.6143 51.514 33.8144H51.5624L51.3448 34.8931C51.0788 36.2262 51.369 36.4565 51.7196 36.4565C52.2152 36.4565 53.3517 35.8748 54.3551 34.6749L54.1133 34.2628C53.7143 34.6628 53.1582 35.0506 53.0252 35.0506M51.7558 32.5782C51.4052 33.3417 49.8698 35.1839 49.3016 35.1839C49.0719 35.1839 48.9268 34.9052 48.9268 34.2507C48.9268 32.8206 49.483 30.8935 50.5106 30.1542C50.7403 29.9845 51.0184 29.8997 51.369 29.8997C51.7196 29.8997 52.1185 29.9966 52.324 30.1057C52.2394 30.6147 51.9734 31.851 51.7679 32.5782" fill="black" fill-opacity="0.75"/>
<path d="M60.6779 29.1361C60.013 29.1361 59.1547 30.2391 58.3809 31.6934H58.3205L58.4776 30.9662C58.7315 29.7421 58.6348 29.1361 58.1875 29.1361C57.6434 29.1361 56.6037 29.827 55.7212 30.7481L55.9509 31.1602C56.2894 30.845 56.8213 30.5299 56.9664 30.5299C57.0994 30.5299 57.0994 30.736 57.0027 31.2329C56.6884 32.9175 56.3015 34.6507 55.9146 36.299L56.0476 36.4202C56.4707 36.299 57.0873 36.1657 57.5951 36.1051C57.7523 35.1961 57.994 33.9962 58.2117 33.0872C58.3809 32.5539 58.804 31.8268 59.1909 31.2814C59.5173 30.8208 59.7108 30.7238 59.8679 30.7238C60.0614 30.7238 60.279 30.8208 60.4724 31.0268C60.5812 31.1238 60.7142 31.0996 60.8593 31.0147C61.0285 30.8693 61.1857 30.6996 61.3671 30.4087C61.5605 30.13 61.5847 29.7906 61.4154 29.5361C61.2582 29.3058 60.9802 29.124 60.69 29.124" fill="black" fill-opacity="0.75"/>
<path d="M67.7142 30.4209C68.0527 30.4209 68.3066 30.4936 68.4395 30.5785C68.5242 30.6148 68.633 30.5663 68.7418 30.4694C68.9352 30.2876 69.1045 29.9482 69.1045 29.6937C69.1045 29.3907 68.8022 29.1241 68.3428 29.1241C67.5449 29.1241 66.5536 30.0815 65.6589 30.9542C65.2358 31.3784 64.8368 31.7904 64.3774 32.3237H64.3412C64.861 30.0573 65.3446 27.8757 65.8644 25.5972C65.937 25.27 65.9249 25.1245 65.7556 25.1245C65.4897 25.1245 64.4862 25.5366 63.0596 25.682L62.9508 26.1547H63.3982C64.0389 26.2032 64.0994 26.3001 63.9664 26.9425C63.2894 30.2633 62.6244 33.2569 61.9111 36.3475L62.0199 36.4445C62.4793 36.3233 63.0476 36.19 63.6037 36.1294C63.7488 35.3294 63.918 34.4447 64.1477 33.366C64.2686 33.1479 64.5104 32.8934 64.7885 32.6025C65.1149 33.6205 65.5018 34.6023 65.8282 35.3416C66.1909 36.1415 66.5415 36.4445 66.9404 36.4445C67.3636 36.4445 68.1494 36.1415 68.9715 34.9537L68.6813 34.578C68.3066 35.0022 67.9801 35.2082 67.823 35.2082C67.5812 35.2082 67.3515 34.7841 66.9404 33.7902C66.5898 33.0509 66.215 32.1298 66.0095 31.4268C66.4206 30.9542 67.1218 30.433 67.7263 30.433" fill="black" fill-opacity="0.75"/>
<path d="M76.1043 30.4572C76.1043 29.7421 75.5845 29.124 74.5568 29.124C73.7589 29.124 72.7676 29.5846 72.1147 30.0815C70.9179 31.0147 70.2529 32.6267 70.2529 34.1053C70.2529 35.9596 71.2685 36.4323 72.1389 36.4323C73.1061 36.4323 74.303 36.0081 75.7174 34.5416L75.4273 34.1174C74.6656 34.8567 73.7589 35.3052 73.1303 35.3052C72.2719 35.3052 71.9938 34.5295 71.9938 33.7175C71.9938 33.5963 71.9938 33.4508 72.0059 33.269C73.5776 32.8569 76.1043 32.057 76.1043 30.4572ZM73.36 29.9967C73.5171 29.8876 73.7227 29.827 73.904 29.827C74.2062 29.827 74.5689 30.0815 74.5689 30.6754C74.5689 31.4874 73.9645 32.154 72.0664 32.7115C72.284 31.0753 72.9852 30.2391 73.36 30.0088" fill="black" fill-opacity="0.75"/>
<path d="M81.0972 26.9909L80.9279 26.8455L79.3079 27.9362L78.9573 29.4028H78.0022L77.5791 29.9603L77.6516 30.1178H78.7881L77.9055 34.2628C77.5428 35.9354 77.8693 36.4565 78.377 36.4565C79.2475 36.4565 80.6015 35.4385 81.1697 34.6749L80.9279 34.2992C80.529 34.6749 79.8157 35.1476 79.586 35.1476C79.4288 35.1476 79.3442 34.9415 79.5014 34.2143L80.3597 30.1178L81.8588 30.033L82.3062 29.4028H80.529" fill="black" fill-opacity="0.75"/>
<path d="M86.4652 26.9909L86.2839 26.8455L84.6639 27.9362L84.3133 29.4028H83.3582L82.9351 29.9603L83.0076 30.1178H84.144L83.2615 34.2628C82.8988 35.9354 83.2252 36.4565 83.733 36.4565C84.6034 36.4565 85.9454 35.4385 86.5257 34.6749L86.2839 34.2992C85.8849 34.6749 85.1716 35.1476 84.9419 35.1476C84.7848 35.1476 84.7002 34.9415 84.8573 34.2143L85.7157 30.1178L87.2148 30.033L87.6621 29.4028H85.8849" fill="black" fill-opacity="0.75"/>
</g>
<defs>
<clipPath id="clip0_21_2338">
<rect width="123" height="36.4445" fill="white"/>
</clipPath>
</defs>
</svg>
