<svg width="122" height="39" viewBox="0 0 122 39" fill="none" xmlns="http://www.w3.org/2000/svg">
<g clip-path="url(#clip0_21_2404)">
<path d="M61.33 4.46994L61.79 3.93994H53.29L53.84 4.46994H61.33Z" fill="black" fill-opacity="0.75"/>
<path d="M44.8204 18.61L41.3804 15.48L52.7204 3.03003L56.1604 6.15003L44.8204 18.6V18.61ZM42.1404 15.45L44.7904 17.86L55.4104 6.20003L52.7604 3.80003L42.1404 15.46V15.45Z" fill="black" fill-opacity="0.75"/>
<path d="M55.71 17.19L52.27 14.06L63.61 1.62L67.05 4.75L55.71 17.2V17.19ZM53.03 14.03L55.68 16.44L66.3 4.78L63.65 2.36999L53.03 14.03Z" fill="black" fill-opacity="0.75"/>
<path d="M66.8702 15.58L63.4302 12.45L74.7702 0L78.2102 3.13L66.8702 15.58ZM64.1902 12.42L66.8402 14.83L77.4602 3.17L74.8102 0.76L64.1902 12.42Z" fill="black" fill-opacity="0.75"/>
<path d="M73.11 30.6001C73.11 31.5701 72.35 32.3801 71.33 32.3801C70.31 32.3801 69.54 31.5701 69.54 30.6001C69.54 29.6301 70.31 28.8101 71.33 28.8101C72.35 28.8101 73.11 29.6101 73.11 30.6001Z" fill="black" fill-opacity="0.75"/>
<path d="M31.8001 22.4V30.94C31.8001 32.89 31.7201 34.83 30.2101 36.3C28.9401 37.55 26.9501 37.99 25.1801 37.99C23.4101 37.99 21.4101 37.55 20.1501 36.3C18.6401 34.83 18.5601 32.9 18.5601 30.94V22.4H22.5101V30.4C22.5101 32.37 22.6501 34.53 25.1901 34.53C27.7301 34.53 27.8701 32.38 27.8701 30.4V22.4H31.8201H31.8001Z" fill="black" fill-opacity="0.75"/>
<path d="M38.24 37.59H34.29V22.4H38.24V37.59Z" fill="black" fill-opacity="0.75"/>
<path d="M51.6801 27.5C50.8701 26.41 49.5701 25.83 48.2201 25.83C45.8001 25.83 44.1701 27.68 44.1701 30.04C44.1701 32.4 45.8201 34.17 48.2801 34.17C49.5701 34.17 50.8601 33.55 51.6801 32.56V37.29C50.3701 37.69 49.4301 37.99 48.2001 37.99C46.0901 37.99 44.0701 37.19 42.5001 35.76C40.8301 34.25 40.0601 32.27 40.0601 30.02C40.0601 27.94 40.8501 25.95 42.3001 24.46C43.7901 22.93 45.9401 22 48.0801 22C49.3501 22 50.5101 22.28 51.6801 22.77V27.5Z" fill="black" fill-opacity="0.75"/>
<path d="M62.8804 22.4H67.7703L61.7304 29.59L68.3204 37.58H63.2004L58.1003 31H58.0604V37.58H54.1104V22.4H58.0604V28.66H58.1003L62.8703 22.4H62.8804Z" fill="black" fill-opacity="0.75"/>
<path d="M84.2002 26.31C83.4802 25.7 82.5502 25.3 81.5802 25.3C80.8602 25.3 79.8902 25.72 79.8902 26.57C79.8902 27.42 80.9602 27.8 81.6402 28.02L82.6502 28.32C84.7602 28.94 86.3902 30.02 86.3902 32.47C86.3902 33.98 86.0302 35.53 84.8302 36.56C83.6402 37.56 82.0502 37.99 80.5202 37.99C78.6102 37.99 76.7402 37.35 75.1802 36.26L76.8702 33.08C77.8602 33.95 79.0202 34.65 80.3702 34.65C81.3002 34.65 82.2802 34.19 82.2802 33.12C82.2802 32.05 80.7302 31.63 79.8802 31.39C77.4002 30.68 75.7702 30.04 75.7702 27.1C75.7702 24.16 77.9602 22 81.0102 22C82.5402 22 84.4102 22.48 85.7602 23.25L84.1902 26.31H84.2002Z" fill="black" fill-opacity="0.75"/>
<path d="M94.3003 37.59H90.3503V25.75H87.0903V22.4H97.5603V25.75H94.3003V37.59Z" fill="black" fill-opacity="0.75"/>
<path d="M102.94 25.75V28.29H107.39V31.63H102.94V34.25H107.63V37.59H98.9902V22.41H107.63V25.76H102.94V25.75Z" fill="black" fill-opacity="0.75"/>
<path d="M11.9802 32.28C12.4402 31.64 12.6902 30.81 12.6902 30.05C12.6902 27.77 10.8002 25.72 8.42023 25.72C6.04023 25.72 4.11023 27.63 4.11023 29.73C4.11023 32.35 6.07023 34.26 8.42023 34.26C8.82023 34.26 9.22023 34.2 9.63023 34.06L7.19023 31.65L10.9202 31.18L11.9902 32.28H11.9802ZM13.7702 38.53L12.5602 37.1C11.3902 37.8 10.0202 38.09 8.39023 38.09C3.52024 38.09 -0.00976562 34.63 -0.00976562 29.71C-0.00976562 25.12 4.02024 21.9 8.39023 21.9C13.1202 21.9 16.7902 25.1 16.7902 30.03C16.7902 32.04 16.1002 33.8 14.8402 35.37L17.4002 37.97L13.7702 38.53Z" fill="black" fill-opacity="0.75"/>
<path d="M114.01 29.37H114.67C116.1 29.37 117.51 29.37 117.51 27.52C117.51 25.67 116.2 25.59 114.67 25.59H114.01V29.37ZM110.06 22.4H116.1C119.36 22.4 121.62 23.91 121.62 27.39C121.62 30.87 119.69 32.55 116.24 32.55H114V37.58H110.05V22.4H110.06Z" fill="black" fill-opacity="0.75"/>
<path d="M46.7304 4.46994H51.7204L52.2304 3.93994H46.1904V10.4699L46.7304 9.89994V4.46994Z" fill="black" fill-opacity="0.75"/>
<path d="M74.4104 6.55005V17.38H46.7304V16.17L46.1904 16.67V17.92H74.9504V6.55005H74.4104Z" fill="black" fill-opacity="0.75"/>
<path d="M71.4998 3.93994H66.0698L66.3798 4.46994H71.0198L71.4998 3.93994Z" fill="black" fill-opacity="0.75"/>
</g>
<defs>
<clipPath id="clip0_21_2404">
<rect width="121.62" height="38.53" fill="white"/>
</clipPath>
</defs>
</svg>
