<svg width="127" height="32" viewBox="0 0 127 32" fill="none" xmlns="http://www.w3.org/2000/svg">
<g clip-path="url(#clip0_21_2257)">
<path d="M0 14.6C0 6.55 6.53 0 14.6 0C22.67 0 29.2 6.53 29.2 14.6C29.2 18.34 27.79 21.75 25.48 24.32L30.16 29.53C30.12 29.6 27.57 31.88 27.57 31.88L22.82 26.67C20.47 28.25 17.65 29.2 14.6 29.2C6.53 29.2 0 22.67 0 14.6ZM14.6 25.62C16.71 25.62 18.67 24.81 20.32 23.79L14.71 17.68L17.3 15.33L22.93 21.49C24.51 19.6 25.22 17.27 25.22 14.63C25.22 8.63 20.56 3.61 14.53 3.61C8.5 3.61 3.85 8.6 3.85 14.62C3.92 20.62 8.56 25.61 14.6 25.61V25.62ZM45.69 25.14H42.02V23.12H41.98C40.79 24.55 39.12 25.47 37.1 25.47C33.58 25.47 32.04 22.99 32.04 19.62V10.22H35.91V18.16C35.91 19.99 35.95 22.45 38.42 22.45C41.23 22.45 41.83 19.42 41.83 17.5V10.22H45.7V25.13L45.69 25.14ZM56.07 9.9C60.49 9.9 63.88 12.89 63.88 17.79C63.88 22.08 61.02 25.49 56.07 25.49C51.12 25.49 48.29 22.08 48.29 17.79C48.29 12.89 51.68 9.9 56.07 9.9ZM56.07 22.48C59.06 22.48 59.83 19.82 59.83 17.33C59.83 15.04 58.62 12.91 56.07 12.91C53.52 12.91 52.33 15.11 52.33 17.33C52.33 19.79 53.1 22.48 56.07 22.48ZM74.03 9.9C78.45 9.9 81.84 12.89 81.84 17.79C81.84 22.08 78.98 25.49 74.03 25.49C69.08 25.49 66.25 22.08 66.25 17.79C66.25 12.89 69.64 9.9 74.03 9.9ZM74.03 22.48C77.02 22.48 77.79 19.82 77.79 17.33C77.79 15.04 76.58 12.91 74.03 12.91C71.48 12.91 70.29 15.11 70.29 17.33C70.31 19.79 71.08 22.48 74.03 22.48ZM84.63 3.45H88.5V16.18H88.54L93.16 10.22H97.73L92.19 16.88L98.41 25.13H93.48L88.53 17.92H88.49V25.15H84.62V3.45H84.63ZM111.65 24.3C110.22 25.09 108.62 25.49 106.53 25.49C101.6 25.49 98.75 22.65 98.75 17.79C98.75 13.5 101.04 9.94 105.65 9.94C111.17 9.94 112.73 13.72 112.73 18.93H102.46C102.64 21.33 104.31 22.69 106.7 22.69C108.59 22.69 110.2 22.01 111.65 21.17V24.29V24.3ZM109.06 16.23C108.95 14.34 108.09 12.73 105.92 12.73C103.75 12.73 102.64 14.25 102.47 16.23H109.07H109.06ZM115.33 10.25H118.78V13.61H118.82C119 12.22 121.85 9.89 124.16 9.89C125.46 9.89 125.83 10.15 126.23 10.29V13.87C125.88 13.67 124.98 13.25 123.44 13.28C119.31 13.32 119.22 17.55 119.22 19.66V25.11H115.33V10.25Z" fill="black" fill-opacity="0.75"/>
</g>
<defs>
<clipPath id="clip0_21_2257">
<rect width="126.24" height="31.88" fill="white"/>
</clipPath>
</defs>
</svg>
