<svg width="126" height="126" viewBox="0 0 126 126" fill="none" xmlns="http://www.w3.org/2000/svg">
<g clip-path="url(#clip0_20_2148)">
<path d="M88.7435 73.8355C89.1607 73.5339 89.5989 73.299 89.9355 72.9623C100.246 62.6669 110.539 52.3539 120.857 42.069C121.527 41.4027 121.853 40.761 121.825 39.7932C121.751 37.4367 121.8 35.0803 121.8 32.6782C111.851 42.6336 101.953 52.5328 92.0179 62.474C90.854 61.2783 89.925 60.3245 88.9398 59.3111C89.2483 58.9884 89.5709 58.6378 89.9039 58.3011C100.204 47.9952 110.497 37.6822 120.818 27.4008C121.52 26.6995 121.888 26.0227 121.825 25.0128C121.74 23.7153 121.804 22.4073 121.804 21.0713C119.837 20.8013 118.28 20.9135 116.815 22.5406C113.856 25.8158 110.616 28.835 107.489 31.9594C107.184 32.2645 106.862 32.552 106.497 32.8957C105.558 31.8998 104.667 30.953 103.706 29.9361C106.56 27.1203 109.488 24.2273 112.415 21.3378C112.341 21.2151 112.271 21.0959 112.198 20.9731C109.509 20.9731 106.816 20.9416 104.131 21.0082C103.741 21.0187 103.317 21.45 102.995 21.7726C98.2198 26.5276 93.4589 31.2966 88.6944 36.0586C88.3578 36.3953 88.0073 36.7144 87.6111 37.0966C86.661 36.0656 85.7565 35.0838 84.7994 34.0458C89.0275 29.8309 93.3256 25.5493 97.9183 20.9731C94.8016 20.9731 92.074 20.9451 89.3535 21.0082C89.0064 21.0152 88.6313 21.4395 88.3333 21.7376C83.5619 26.4926 78.7974 31.2581 74.0435 36.0341C73.7069 36.3707 73.465 36.8055 73.125 37.2719C72.0276 36.0446 71.1371 35.0487 70.2467 34.0564C74.3836 29.9361 78.6852 25.651 82.9869 21.3659C82.9378 21.2326 82.8887 21.0994 82.8432 20.9661C82.4049 20.9661 81.9702 20.9661 81.532 20.9661C79.169 20.9766 76.5467 20.349 74.5203 21.1835C72.4974 22.0146 71.067 24.2974 69.3982 25.9666C67.7961 27.5691 66.2185 29.1997 64.5672 30.8829C63.5575 29.7993 62.6705 28.8455 61.7169 27.8181C63.8871 25.7421 66.1413 23.5856 68.3991 21.429C68.3114 21.2852 68.2203 21.1415 68.1326 20.9942H58.8807V16.7617C59.347 16.7617 59.8063 16.7617 60.269 16.7617C81.1779 16.7617 102.09 16.7617 122.999 16.7617C125.404 16.7617 126.011 17.3718 126.011 19.7879C126.011 54.1844 126.011 88.5808 126.011 122.977C126.011 125.379 125.397 125.993 122.985 125.993C89.8689 125.993 56.7527 126 23.6365 125.993C10.174 125.993 0.0141094 115.862 0.0106036 102.446C8.60605e-05 76.0552 -0.00692563 49.6678 0.0141094 23.2805C0.0211211 11.8454 7.76553 2.25829 19.0438 0.434845C23.6926 -0.319079 28.5412 0.147302 33.3021 0.0982094C33.9437 0.0911961 34.5922 0.308607 35.2268 0.469911C41.4462 2.05841 45.9862 7.69005 46.1791 14.1107C46.2492 16.4706 46.2036 18.8376 46.2071 21.2011C46.2071 45.4879 46.2141 69.7748 46.2036 94.0617C46.2001 101.352 41.6846 107.162 34.778 108.793C33.7649 109.031 32.7061 109.158 31.6649 109.172C28.2537 109.221 24.839 109.203 21.4278 109.189C19.6959 109.182 18.9281 108.425 18.9141 106.724C18.8931 104.185 18.8966 101.647 18.9141 99.1112C18.9246 97.3369 19.6889 96.604 21.5084 96.597C24.6567 96.5865 27.8084 96.597 30.9567 96.59C32.6185 96.5865 33.5826 95.815 33.5966 94.514C33.6106 93.2026 32.6465 92.3785 31.0023 92.3996C27.7278 92.4416 24.4078 92.2137 21.1859 92.6661C15.8605 93.413 12.2495 98.3293 12.6351 103.701C13.0138 108.986 17.4417 113.317 22.774 113.369C31.4335 113.453 40.0964 113.408 48.7594 113.369C49.2467 113.369 49.8321 113.05 50.1967 112.696C51.862 111.093 53.4677 109.424 55.1435 107.727C56.1672 108.786 57.0927 109.743 58.2181 110.908C57.3487 111.581 56.4547 112.275 55.5607 112.966C55.6378 113.106 55.7149 113.246 55.7921 113.387C58.5161 113.387 61.2437 113.418 63.9677 113.348C64.3498 113.338 64.753 112.857 65.0826 112.531C70.5341 107.092 75.9752 101.643 81.4198 96.1972C81.7563 95.8606 82.1069 95.5415 82.4856 95.1803C83.4777 96.1727 84.4173 97.116 85.469 98.168C80.4417 103.193 75.4458 108.186 70.2361 113.39C73.2021 113.39 75.8911 113.411 78.5801 113.362C78.9026 113.355 79.2707 113.036 79.5336 112.777C93.4308 98.8903 107.321 85.0006 121.197 71.0933C121.502 70.7882 121.765 70.2868 121.776 69.873C121.828 67.2956 121.804 64.7183 121.804 62.0638C111.132 72.7414 100.527 83.349 89.8689 94.0126C88.7435 92.8204 87.8495 91.8736 86.8503 90.8181C87.1343 90.52 87.4744 90.1448 87.832 89.7906C98.8438 78.7728 109.849 67.7515 120.885 56.7582C121.562 56.0815 121.853 55.4257 121.825 54.4719C121.762 52.1225 121.804 49.7695 121.804 47.2588C111.777 57.2912 101.876 67.1975 91.9338 77.1422C90.8435 76.0131 89.939 75.0733 88.747 73.839L88.7435 73.8355ZM42.0001 69.5714C42.0001 68.4107 42.0176 67.6779 42.0001 66.9485C41.8809 62.3127 38.8028 58.2941 34.3398 57.1089C33.1338 56.7898 31.8402 56.7407 30.5816 56.6951C28.8111 56.6285 27.0371 56.6776 25.2807 56.6776V52.5468C31.2547 52.3189 37.1901 51.9191 41.9159 56.8564C42.5365 48.9805 38.049 44.0748 30.55 44.0748C28.8111 44.0748 27.0757 44.0748 25.2947 44.0748V40.1263C28.2957 40.1263 31.2266 39.9335 34.1225 40.1789C37.1235 40.4349 39.6301 42.076 41.9475 44.1589C42.7609 36.1112 37.0568 30.9214 30.1223 31.4509C28.5271 31.5737 26.9179 31.4685 25.3088 31.4685V27.3377C31.2792 27.1027 37.1866 26.731 41.8949 31.6192C41.8949 30.1815 42.0492 28.9963 41.8704 27.8637C41.0114 22.4635 36.7764 18.9042 31.2722 18.8657C29.2774 18.8516 27.2826 18.8657 25.3228 18.8657V14.7349C31.3038 14.4964 37.2111 14.1457 42.0141 19.1287C42.0141 17.3789 42.0316 16.0358 42.0141 14.6893C41.9265 8.7771 37.4004 4.23953 31.5036 4.1694C28.7936 4.13784 26.0801 4.15537 23.3665 4.16239C12.5615 4.20096 4.23514 12.4976 4.22463 23.2945C4.2071 44.9094 4.21762 66.5242 4.22463 88.1425C4.22463 88.5037 4.2702 88.8684 4.30526 89.4224C4.61378 89.0542 4.77855 88.8579 4.93982 88.6615C8.93297 83.6891 14.062 80.5928 20.4181 80.0282C24.5831 79.66 28.8111 79.7161 32.9936 79.93C34.8412 80.0247 36.7063 80.8452 38.4487 81.5992C39.6897 82.1322 40.7415 83.1 41.8949 83.8855C41.8949 82.0024 42.1228 80.1088 41.8528 78.2889C41.0535 72.8747 36.7764 69.326 31.2757 69.2874C29.2809 69.2734 27.2861 69.2874 25.3193 69.2874V65.1496C31.2652 64.9497 37.1655 64.5324 42.0071 69.582L42.0001 69.5714ZM23.1597 104.981C26.1361 104.981 28.9794 105.037 31.8156 104.971C37.4635 104.838 41.9861 100.17 42.0036 94.5351C42.0211 88.8298 37.4846 84.1204 31.7806 84.0047C28.6323 83.9416 25.4806 83.9311 22.3323 84.0082C12.7088 84.2431 4.53314 92.4066 4.22112 102.032C3.86703 112.994 12.2775 121.778 23.2438 121.785C55.7009 121.81 88.1545 121.792 120.612 121.792C120.987 121.792 121.362 121.743 121.74 121.718V117.595H120.012C88.1265 117.595 56.2373 117.595 24.3517 117.595C23.7381 117.595 23.1281 117.595 22.5146 117.577C15.233 117.321 9.24149 111.644 8.46319 104.269C7.71995 97.2141 12.3967 90.1308 19.433 88.8053C23.7066 87.9987 28.2186 88.1671 32.6044 88.3634C35.6124 88.5002 37.7545 91.3826 37.8036 94.3562C37.8632 97.8629 35.1146 100.717 31.5562 100.777C28.7725 100.822 25.9889 100.787 23.1597 100.787V104.981ZM99.7518 113.047C99.8149 113.162 99.8815 113.274 99.9446 113.39C102.557 113.39 105.168 113.418 107.78 113.362C108.187 113.352 108.66 113.033 108.972 112.724C113.039 108.691 117.085 104.634 121.127 100.577C121.393 100.311 121.762 99.9633 121.765 99.6478C121.814 96.9231 121.793 94.1984 121.793 91.4738C121.67 91.4142 121.544 91.3511 121.421 91.2915C117.853 94.9278 114.284 98.5642 110.942 101.966C109.873 100.994 108.888 100.1 107.707 99.0236C108.057 98.7641 108.45 98.5467 108.758 98.2416C112.846 94.1669 116.93 90.0852 120.997 85.993C121.32 85.6703 121.747 85.2425 121.758 84.8533C121.825 82.1672 121.793 79.4776 121.793 76.9248C109.638 89.0858 97.4906 101.236 85.3393 113.39C86.5208 113.39 87.839 113.239 89.1081 113.418C92.323 113.871 94.7245 112.826 96.8104 110.29C98.7982 107.874 101.2 105.802 103.359 103.635C104.422 104.624 105.396 105.532 106.42 106.486C104.155 108.709 101.946 110.876 99.7413 113.043L99.7518 113.047ZM114.638 113.281H121.709V106.205C119.335 108.583 116.997 110.922 114.638 113.281Z" fill="black" fill-opacity="0.75"/>
<path d="M99.4574 34.4069C100.257 35.2661 101.144 36.2199 101.922 37.058C86.647 52.3398 71.302 67.6883 55.9113 83.0824C55.147 82.2899 54.2215 81.3326 53.4011 80.4805C68.7252 65.1495 84.0737 49.7975 99.4609 34.4034L99.4574 34.4069Z" fill="black" fill-opacity="0.75"/>
<path d="M62.2814 91.5685C61.4189 90.7023 60.4794 89.759 59.6169 88.8929C67.9819 80.5261 76.3188 72.1838 84.6942 63.8065C85.5286 64.7007 86.4366 65.672 87.2745 66.5697C78.9937 74.8524 70.6568 83.1946 62.2814 91.572V91.5685Z" fill="black" fill-opacity="0.75"/>
<path d="M87.3375 81.1292C78.92 89.5486 70.5831 97.8874 62.2146 106.258C61.3907 105.427 60.4757 104.497 59.6624 103.677C68.0308 95.303 76.3922 86.9432 84.7852 78.5483C85.5846 79.3584 86.5031 80.2876 87.3375 81.1327V81.1292Z" fill="black" fill-opacity="0.75"/>
<path d="M80.6344 38.7061C81.3321 39.453 82.219 40.4033 82.9763 41.2098C76.799 47.3885 70.5446 53.6443 64.2411 59.9492C63.5469 59.2058 62.6564 58.2555 61.8992 57.4455C68.0765 51.2633 74.3344 45.0075 80.6344 38.7061Z" fill="black" fill-opacity="0.75"/>
<path d="M65.8887 38.6255C66.6951 39.439 67.6136 40.3613 68.42 41.1783C63.5433 46.0595 58.6842 50.9267 53.7866 55.829C53.0013 55.0014 52.1073 54.0546 51.3149 53.2165C56.1355 48.3879 60.9946 43.5242 65.8852 38.6255H65.8887Z" fill="black" fill-opacity="0.75"/>
<path d="M53.8569 41.1783C52.9909 40.3052 52.0724 39.3829 51.259 38.5624C53.324 36.4935 55.3749 34.4421 57.4644 32.3486C58.2672 33.1622 59.1998 34.1055 60.0587 34.9786C58.0183 37.0195 55.9884 39.0498 53.8569 41.1783Z" fill="black" fill-opacity="0.75"/>
<path d="M60.1006 64.3711C57.9936 66.4786 55.9637 68.5054 53.8952 70.5708C53.0328 69.6907 52.1037 68.7404 51.2764 67.8988C53.3308 65.8474 55.3852 63.7925 57.4712 61.7096C58.2951 62.5407 59.2101 63.4699 60.1006 64.3711Z" fill="black" fill-opacity="0.75"/>
<path d="M51.2765 97.2597C52.6087 95.9237 53.9479 94.5806 55.3327 93.192C56.132 94.0722 57.0015 95.0295 57.7658 95.8711C56.5177 97.1159 55.1539 98.473 53.7446 99.8756C53.0294 99.1182 52.1389 98.1749 51.2729 97.2597H51.2765Z" fill="black" fill-opacity="0.75"/>
<path d="M54.5125 20.91H50.4702V16.8704H54.5125V20.91Z" fill="black" fill-opacity="0.75"/>
<path d="M20.9333 18.806H16.9016V14.7523H20.9333V18.806Z" fill="black" fill-opacity="0.75"/>
<path d="M16.8701 31.3947V27.3691H20.9159V31.3947H16.8701Z" fill="black" fill-opacity="0.75"/>
<path d="M20.9019 44.0292H16.8877V39.944H20.9019V44.0292Z" fill="black" fill-opacity="0.75"/>
<path d="M20.9508 52.5432V56.5899H16.884V52.5432H20.9508Z" fill="black" fill-opacity="0.75"/>
<path d="M16.8667 65.1321H20.9195V69.2103H16.8667V65.1321Z" fill="black" fill-opacity="0.75"/>
</g>
<defs>
<clipPath id="clip0_20_2148">
<rect width="126" height="126" fill="white"/>
</clipPath>
</defs>
</svg>
