<svg width="103" height="33" viewBox="0 0 103 33" fill="none" xmlns="http://www.w3.org/2000/svg">
<g clip-path="url(#clip0_21_2220)">
<path d="M80.0024 12.4347C81.0781 9.30766 84.0752 6.97522 87.8142 6.97522C91.5532 6.97522 94.5281 9.32237 95.5147 12.4495C95.5147 12.4495 95.5815 12.6408 95.678 13.1337C95.218 13.1337 79.9208 13.1337 79.7947 13.1337C79.9134 12.6555 79.995 12.4421 80.0024 12.4347ZM96.1305 22.6842L95.5147 23.2214C93.5637 24.9799 91.212 26.0247 88.608 26.0247C84.5055 26.0247 81.0188 23.3832 79.6908 19.7411C79.6908 19.7337 79.5722 19.3953 79.5128 19.0936H80.0173H96.6201C100.671 19.0936 104.232 15.915 102.6 10.897C102.466 10.4628 102.073 9.59461 102.021 9.46953C99.4689 3.87756 94.4687 0.00732422 87.8216 0.00732422C78.63 0.00732422 71.9829 7.39462 71.9829 16.511C71.9829 25.6274 79.4312 33.0147 88.6229 33.0147C93.2076 33.0147 97.3768 31.1752 100.389 28.2026L100.967 27.6214C102.332 26.2087 102.191 24.1485 100.878 22.7946C99.5579 21.4261 97.6068 21.4702 96.1453 22.7063" fill="black" fill-opacity="0.75"/>
<path d="M33.2206 0.198616C35.1123 -0.345866 37.1821 0.566509 37.7385 2.43541L42.9909 20.0796L47.583 2.74444C48.0578 0.94176 49.6751 0.0367432 51.5594 0.0367432C53.4437 0.0367432 55.0016 0.934402 55.5506 2.715L60.9439 20.0796L65.4099 2.50163C65.907 0.52972 68.2438 -0.397371 70.1727 0.294268C72.0199 0.956476 73.014 2.86216 72.4873 4.73842L65.447 29.8508C64.9129 31.7565 63.3253 32.8749 61.3297 32.8528C59.3044 32.8381 57.8504 31.5799 57.2495 29.6595L51.5594 11.4782L46.7818 29.711C46.2773 31.6314 44.7417 32.8307 42.7387 32.8528C40.706 32.8749 39.1926 31.6388 38.5917 29.711L30.6463 4.53975C30.0528 2.6635 31.3214 0.743098 33.2206 0.198616Z" fill="black" fill-opacity="0.75"/>
<path d="M8.03436 12.4348C9.11005 9.30769 12.1072 6.97525 15.8462 6.97525C19.5851 6.97525 22.56 9.32241 23.5467 12.4495C23.5467 12.4495 23.6134 12.6408 23.7099 13.1338C23.2499 13.1338 7.95275 13.1338 7.82664 13.1338C7.94533 12.6555 8.02694 12.4421 8.03436 12.4348ZM24.1624 22.6843L23.5467 23.2214C21.5956 24.9799 19.2439 26.0247 16.6399 26.0247C12.5375 26.0247 9.05071 23.3833 7.72277 19.7411C7.72277 19.7338 7.60408 19.3953 7.54473 19.0936H8.04919H24.652C28.7026 19.0936 32.2635 15.9151 30.6314 10.897C30.4979 10.4629 30.1047 9.59465 30.0528 9.46957C27.486 3.87023 22.4932 0 15.8387 0C6.65449 0 0 7.38729 0 16.5037C0 25.6201 7.44829 33.0074 16.6399 33.0074C21.2246 33.0074 25.3939 31.1679 28.4059 28.1953L28.9845 27.614C30.3495 26.2013 30.2086 24.1411 28.8955 22.7873C27.575 21.4187 25.6239 21.4629 24.1624 22.699" fill="black" fill-opacity="0.75"/>
</g>
<defs>
<clipPath id="clip0_21_2220">
<rect width="103" height="33" fill="white"/>
</clipPath>
</defs>
</svg>
