<svg width="132" height="132" viewBox="0 0 132 132" fill="none" xmlns="http://www.w3.org/2000/svg">
<g clip-path="url(#clip0_20_2139)">
<path d="M35.5681 0C37.0298 0.304802 38.5173 0.52178 39.9506 0.929905C49.751 3.71704 56.3518 10.1876 60.414 19.2929C66.3924 32.6991 64.8403 49.7189 53.4672 61.273C51.8531 62.9132 50.0325 64.3468 48.168 65.9974C48.6483 65.9974 49.0512 65.9974 49.454 65.9974C54.0482 65.9974 58.6424 65.9922 63.2366 66C65.1967 66.0026 65.9379 66.7749 65.9869 68.7251C66.2116 77.8279 62.6065 84.8693 54.7197 89.5602C51.8738 91.2521 48.7438 92.1252 45.4305 92.3163C45.1749 92.3318 44.9166 92.3447 44.661 92.3757C44.5835 92.386 44.5112 92.448 44.2917 92.5591C44.4957 94.5351 44.6945 96.5706 44.9218 98.6035C46.0632 108.84 47.215 119.077 48.3539 129.314C48.5321 130.91 47.6076 131.979 45.978 131.982C37.3035 132 28.6316 132.003 19.9571 131.982C18.3999 131.979 17.4521 130.915 17.62 129.399C18.4825 121.549 19.3657 113.702 20.2438 105.854C20.706 101.716 21.1709 97.5806 21.628 93.4425C21.6616 93.148 21.6331 92.8484 21.6331 92.4868C20.2283 92.2853 18.8234 92.1717 17.4625 91.872C8.27407 89.8546 1.62681 82.7125 0.229698 73.4263C0.193544 73.1783 0.0799153 72.9433 0.00244141 72.7031C0.00244141 70.9853 0.00244141 69.265 0.00244141 67.5472C0.642892 66.359 1.62939 65.9509 2.97486 65.9793C6.32431 66.0465 9.67635 66.0026 13.0258 66.0026C14.5908 66.0026 16.1557 66.0026 17.8137 66.0026C15.9646 64.3623 14.1053 62.9649 12.5429 61.2885C2.05292 50.034 -0.214485 36.8914 4.34098 22.5476C7.43993 12.7862 13.7231 5.5536 23.4719 1.78232C25.685 0.927322 28.0945 0.581191 30.4135 0C32.1309 0 33.8508 0 35.5681 0ZM28.611 65.5066C29.0939 65.597 29.5045 65.6952 29.9229 65.7494C37.2519 66.7258 43.5944 64.4915 49.0047 59.625C61.1732 48.6831 62.9164 28.4551 52.881 15.0128C48.2919 8.86767 42.2774 4.99049 34.5067 4.46871C26.6586 3.94176 20.0863 6.96395 14.9704 12.7888C6.81756 22.0723 4.85489 32.9341 7.94351 44.6897C10.1334 53.0227 14.9652 59.5036 22.7617 63.5383C23.1852 63.7579 23.6397 63.9206 24.213 64.166C24.213 60.9217 24.1846 57.9176 24.2208 54.9135C24.2595 51.7879 26.3875 49.0809 29.4193 48.5849C31.0049 48.3241 32.6964 48.3318 34.2872 48.5669C37.2467 49.006 39.4831 51.7492 39.5787 54.7094C39.6174 55.9364 38.9847 56.8792 37.8846 57.1246C36.7767 57.3725 35.94 56.9179 35.4338 55.9338C35.2453 55.567 35.2221 55.1098 35.1394 54.6887C34.9225 53.5832 34.2666 52.8341 33.1432 52.8625C31.6066 52.9012 29.7782 52.1728 28.7995 54.1411C28.6884 54.3633 28.6213 54.6319 28.6187 54.8799C28.6084 58.398 28.611 61.9136 28.611 65.504V65.5066ZM6.73234 79.1788C10.2522 84.6033 14.8748 87.721 21.0159 87.8915C28.9105 88.1136 36.8154 88.062 44.7152 87.9251C52.4316 87.7934 59.1977 82.2217 61.0286 74.7308C61.3669 73.3514 61.4676 71.9152 61.6846 70.461H4.31774C4.514 71.9281 4.69994 73.3049 4.89879 74.785C5.49017 74.785 5.95502 74.785 6.41986 74.785C9.29673 74.785 12.1736 74.7721 15.0505 74.7928C16.4966 74.8031 17.4005 75.5238 17.5451 76.6991C17.7233 78.1507 16.7704 79.1581 15.1331 79.1711C12.4447 79.1943 9.7564 79.1788 6.73492 79.1788H6.73234ZM43.6719 127.552C43.6461 127.193 43.6383 126.979 43.6151 126.769C42.3884 115.636 41.1514 104.506 39.9531 93.3728C39.855 92.4687 39.4289 92.3705 38.6929 92.3731C34.9148 92.3964 31.1366 92.4222 27.361 92.3576C26.31 92.3395 26.1034 92.7399 26.0001 93.6802C25.0343 102.638 24.0142 111.591 23.0173 120.547C22.7591 122.866 22.5293 125.191 22.2839 127.552H43.6693H43.6719Z" fill="black" fill-opacity="0.75"/>
<path d="M128.614 0C131.111 1.0229 132.013 2.87754 132 5.56651C131.927 22.4882 131.964 39.4099 131.964 56.3342C131.964 59.9634 130.324 61.6062 126.701 61.6062C111.157 61.6062 95.6129 61.6062 80.0691 61.6062C76.389 61.6062 74.7673 59.9608 74.7673 56.2308C74.7673 39.3944 74.8008 22.5579 74.7311 5.7215C74.7182 3.01444 75.5317 1.05906 78.0961 0H128.614ZM101.07 43.9613V4.48679H79.2685V43.9613H101.07ZM105.682 4.44288V43.9328H127.493V4.44546H105.682V4.44288ZM79.2246 57.1349H127.486V48.4997H79.2246V57.1349Z" fill="black" fill-opacity="0.75"/>
<path d="M118.788 76.9702H123.188C123.188 76.2212 123.16 75.5108 123.194 74.803C123.258 73.5115 124.082 72.6772 125.28 72.6384C126.53 72.5971 127.457 73.4366 127.555 74.7617C127.604 75.4436 127.563 76.1307 127.563 77.0271C128.351 77.0271 129.064 76.9961 129.771 77.0348C131.052 77.1046 131.912 77.9492 131.951 79.1245C131.989 80.274 131.16 81.2401 129.916 81.377C129.2 81.457 128.467 81.3925 127.659 81.3925C127.406 83.2109 128.129 85.7914 125.278 85.7217C122.649 85.6571 123.271 83.2497 123.157 81.4932H118.785V82.9888C118.785 90.2498 118.785 97.5108 118.785 104.772C118.785 108.293 117.083 110.005 113.589 110.018C112.44 110.023 111.291 110.018 109.984 110.018C109.984 110.821 110.015 111.496 109.979 112.167C109.835 114.82 108.068 116.551 105.408 116.564C99.7371 116.589 94.0686 116.584 88.3975 116.569C85.296 116.561 83.5631 114.802 83.558 111.658C83.5476 102.163 83.5528 92.6675 83.5528 83.1722C83.5528 82.6582 83.5528 82.1467 83.5528 81.5268H79.1445C79.1445 82.2423 79.1807 82.9604 79.1368 83.6707C79.0593 84.9003 78.127 85.7966 76.9804 85.8018C75.901 85.8043 74.9299 84.9674 74.8034 83.8154C74.7234 83.0973 74.7879 82.3611 74.7879 81.4157C74.0467 81.4157 73.3805 81.4467 72.7168 81.408C71.3093 81.3253 70.3616 80.398 70.3796 79.1659C70.3977 77.9105 71.3274 77.0736 72.7813 77.0271C73.3753 77.0064 73.9719 77.0245 74.7595 77.0245C74.7595 76.3064 74.7414 75.6787 74.7621 75.0536C74.8137 73.5296 75.684 72.6126 77.0217 72.641C78.313 72.6694 79.1058 73.5528 79.1471 75.0329C79.1626 75.6296 79.1497 76.2263 79.1497 76.9212H83.5476C83.5476 76.3684 83.545 75.8647 83.5476 75.361C83.576 70.9336 86.267 68.2369 90.714 68.2111C94.1512 68.193 97.5859 68.2059 101.023 68.2059C104.46 68.2059 107.895 68.2007 111.332 68.2059C116.136 68.2162 118.754 70.8174 118.778 75.5935C118.778 76.0145 118.778 76.4355 118.778 76.9702H118.788ZM105.659 112.131V72.6668C105.372 72.6539 104.951 72.6178 104.533 72.6178C100.024 72.6126 95.5148 72.6126 91.0084 72.6178C88.6144 72.6204 87.9611 73.2816 87.9585 75.6942C87.9559 87.3748 87.9585 99.0581 87.9585 110.739V112.131H105.661H105.659ZM114.302 105.531V81.5319H110.059V105.531H114.302ZM109.992 76.9005H114.374C114.32 75.4101 114.834 73.8163 113.274 72.9949C112.675 72.6798 111.616 72.6875 111.022 73.0156C109.46 73.8757 110.116 75.4746 109.992 76.9031V76.9005Z" fill="black" fill-opacity="0.75"/>
<path d="M42.0966 13.0212C41.6189 13.8323 41.3994 14.46 40.9758 14.8888C33.0425 22.8627 25.0885 30.8186 17.1242 38.7641C16.0241 39.8619 14.7561 39.9032 13.8238 38.963C12.8864 38.0176 12.9303 36.7622 14.0304 35.6592C21.9741 27.6956 29.9332 19.7449 37.8846 11.7865C38.6284 11.0426 39.5632 10.7042 40.4516 11.2079C41.1076 11.5799 41.5285 12.3677 42.0992 13.0238L42.0966 13.0212Z" fill="black" fill-opacity="0.75"/>
<path d="M28.8824 13.0161C28.4485 13.7781 28.2393 14.411 27.821 14.8423C25.0035 17.7199 22.1551 20.569 19.2885 23.4C18.2375 24.4384 17.0159 24.4694 16.0863 23.5783C15.154 22.6871 15.1798 21.331 16.2231 20.2771C19.0561 17.4125 21.9097 14.5711 24.7608 11.7246C25.5045 10.9806 26.4574 10.7094 27.3355 11.2415C27.9553 11.6161 28.3452 12.3755 28.8849 13.0187L28.8824 13.0161Z" fill="black" fill-opacity="0.75"/>
<path d="M25.308 79.1685C24.9232 79.1685 24.5358 79.1917 24.151 79.1633C22.9115 79.0781 22.0257 78.1947 21.9973 77.04C21.9689 75.8983 22.8288 74.9271 24.0555 74.8108C24.7786 74.7411 25.512 74.7592 26.2403 74.7928C27.6322 74.8522 28.5955 75.7821 28.5877 77.0116C28.5774 78.2567 27.627 79.1246 26.2093 79.1737C25.9097 79.184 25.6101 79.1737 25.308 79.1737C25.308 79.1737 25.308 79.1685 25.308 79.1659V79.1685Z" fill="black" fill-opacity="0.75"/>
<path d="M95.6364 26.3577C93.4259 26.3809 92.3825 25.6757 92.3877 24.1879C92.3929 22.7 93.462 21.9742 95.6494 21.9794C96.1194 21.9794 96.5971 21.9613 97.0594 22.0388C98.2318 22.2351 98.9988 23.1624 98.9627 24.2654C98.9239 25.3916 98.1208 26.2311 96.9225 26.3499C96.499 26.3913 96.0677 26.3577 95.639 26.3577H95.6364Z" fill="black" fill-opacity="0.75"/>
<path d="M111.08 26.3654C110.695 26.3654 110.307 26.3912 109.923 26.3602C108.655 26.2595 107.795 25.3993 107.771 24.2395C107.748 23.1081 108.598 22.1395 109.837 22.0181C110.643 21.938 111.47 21.9406 112.275 22.0181C113.525 22.1369 114.38 23.0823 114.367 24.2163C114.354 25.4148 113.45 26.2853 112.107 26.3705C111.767 26.3912 111.423 26.3731 111.08 26.3731C111.08 26.3731 111.08 26.368 111.08 26.3654Z" fill="black" fill-opacity="0.75"/>
</g>
<defs>
<clipPath id="clip0_20_2139">
<rect width="132" height="132" fill="white"/>
</clipPath>
</defs>
</svg>
