<svg width="104" height="38" viewBox="0 0 104 38" fill="none" xmlns="http://www.w3.org/2000/svg">
<g clip-path="url(#clip0_21_2438)">
<path d="M91.3862 21.7746C89.8143 21.7746 88.5314 23.0575 88.5314 24.6293C88.5314 26.2011 89.8143 27.484 91.3862 27.484C92.958 27.484 94.2409 26.2011 94.2409 24.6293C94.2409 23.0575 92.958 21.7746 91.3862 21.7746ZM91.3862 34.2684C86.0697 34.2684 81.7471 29.9574 81.7471 24.6293C81.7471 19.3012 86.0581 14.9902 91.3862 14.9902C96.7142 14.9902 101.025 19.3012 101.025 24.6293C101.025 29.9458 96.7142 34.2684 91.3862 34.2684ZM54.0781 21.7746H53.3616C51.7897 21.7746 50.5068 23.0575 50.5068 24.6293V33.9101H43.6994V24.6293C43.6994 19.3012 48.0104 14.9902 53.3038 14.9902H54.0781V21.7746ZM28.5589 34.2684C23.2308 34.2684 18.9198 29.9574 18.9198 24.6293C18.9198 19.3012 23.2308 14.9902 28.5589 14.9902C33.887 14.9902 38.198 19.3012 38.198 24.6293C38.198 29.9574 33.887 34.2684 28.5589 34.2684ZM91.3862 12.1355C84.9832 12.1355 79.713 16.955 78.9733 23.1615C78.2451 16.955 72.9749 12.1355 66.5719 12.1355V2.85473H63.7172V24.6293C63.7172 26.2011 65.0001 27.484 66.5719 27.484C68.1438 27.484 69.4267 26.2011 69.4267 24.6293C69.4267 23.0459 68.1438 21.7746 66.5719 21.7746V14.9902C71.9 14.9902 76.211 19.3012 76.211 24.6293C76.211 29.9574 71.9 34.2684 66.5719 34.2684C61.2439 34.2684 56.9329 29.9574 56.9329 24.6293V2.85473H54.0781V12.1355H53.3038C46.9702 12.1355 41.7115 16.9088 40.9487 23.069C40.1743 16.9088 34.9272 12.1355 28.5589 12.1355C27.3222 12.1355 26.1202 12.3204 24.9876 12.6556V12.4938C24.9876 5.60545 19.3821 0 12.4938 0C5.60545 0 0.0115576 5.60545 0 12.4938V36.7648H2.85473V12.4938C2.85473 7.17729 7.17729 2.85473 12.4938 2.85473C17.8103 2.85473 22.1213 7.17729 22.1329 12.4938H15.3485C15.3485 10.9104 14.0656 9.63906 12.4938 9.63906C10.9104 9.63906 9.63906 10.922 9.63906 12.4938V15.3485H20.1912C18.2957 17.0475 16.9782 19.2897 16.3887 21.7746H9.65062L9.6275 36.7648H12.5054V24.6293H16.0535C16.0535 31.5292 21.6474 37.1231 28.5473 37.1231C34.6844 37.1231 39.7814 32.6965 40.8331 26.8599V36.7648H53.35V24.6293H54.0666C54.0666 31.5292 59.6605 37.1231 66.5604 37.1231C72.9633 37.1231 78.2336 32.3036 78.9617 26.1087C79.6898 32.3151 84.9717 37.1231 91.3746 37.1231C98.2745 37.1231 103.868 31.5292 103.868 24.6293C103.868 17.7294 98.2745 12.1355 91.3746 12.1355H91.3862ZM28.5589 21.7746C26.9871 21.7746 25.7042 23.0459 25.7042 24.6293C25.7042 26.2011 26.9755 27.484 28.5589 27.484C30.1307 27.484 31.4136 26.2127 31.4136 24.6293C31.4136 23.0575 30.1423 21.7746 28.5589 21.7746Z" fill="black" fill-opacity="0.75"/>
</g>
<defs>
<clipPath id="clip0_21_2438">
<rect width="103.88" height="37.1231" fill="white"/>
</clipPath>
</defs>
</svg>
