<svg width="127" height="133" viewBox="0 0 127 133" fill="none" xmlns="http://www.w3.org/2000/svg">
<g clip-path="url(#clip0_20_2087)">
<path d="M98.6949 133C96.3831 132.251 95.1054 130.631 94.4892 128.32C93.9774 126.402 93.2149 124.553 92.6788 122.642C92.4142 121.698 91.9302 121.487 91.0181 121.49C76.5905 121.518 62.1665 121.507 47.7389 121.507C35.832 121.507 23.9286 121.514 12.0217 121.507C6.05082 121.504 1.52133 118.083 0.299302 112.62C0.066038 111.576 0.0172963 110.473 0.0172963 109.397C-0.000111422 80.7817 -0.00359297 52.1697 0.00685168 23.5577C0.00685168 16.259 4.78006 11.5308 12.0809 11.5135C14.1663 11.51 16.2518 11.4996 18.3372 11.5135C21.8745 11.5412 23.9773 13.6469 24.0261 17.1956C24.0435 18.3543 24.0261 19.5129 24.0261 20.7478H89.6254C89.6254 20.3073 89.6254 19.8528 89.6254 19.4019C89.6254 16.2868 89.5628 13.1682 89.6463 10.053C89.7821 4.86693 93.295 0.92272 98.385 0.110983C102.967 -0.620968 107.733 2.23399 109.241 6.75058C109.658 7.9994 109.811 9.37311 109.846 10.6983C109.93 14.0215 109.874 17.3448 109.874 20.8311C112.659 20.8311 115.34 20.8137 118.017 20.838C119.229 20.8484 120.465 20.8137 121.649 21.0254C124.535 21.5388 126.589 23.8248 126.906 26.7075C126.972 27.3076 126.986 27.9182 126.986 28.5218C126.989 56.9603 126.986 85.3989 127 113.837C127 115.995 126.627 117.969 125.026 119.547C123.619 120.931 121.892 121.507 119.943 121.504C116.075 121.504 112.207 121.528 108.342 121.486C107.503 121.476 107.113 121.736 106.877 122.548C106.302 124.494 105.536 126.392 105.014 128.348C104.394 130.662 103.113 132.275 100.784 132.997H98.6984L98.6949 133ZM24.0295 24.7996C24.0295 25.4136 24.0295 25.9617 24.0295 26.5098C24.0295 39.2305 24.0295 51.9546 24.0295 64.6753C24.0295 75.4499 24.0365 86.2245 24.0261 96.9991C24.0226 100.784 21.9232 102.851 18.1318 102.862C15.7435 102.869 13.3516 102.823 10.9633 102.879C7.43648 102.962 4.41449 105.769 4.00715 109.255C3.45359 113.966 6.86551 117.605 11.8929 117.608C37.8269 117.619 63.7575 117.612 89.6916 117.608C90.0606 117.608 90.4297 117.556 90.9693 117.518C88.9257 112.627 89.6672 107.604 89.6533 102.667C89.5941 77.2676 89.6254 51.8644 89.6254 26.4647V24.7996H24.0295ZM105.964 109.304V107.611C105.964 87.619 105.964 67.6274 105.964 47.6358C105.964 47.1605 105.937 46.6783 105.996 46.21C106.118 45.2179 106.751 44.6386 107.705 44.5345C108.67 44.427 109.418 44.8918 109.707 45.8354C109.867 46.3592 109.871 46.942 109.871 47.497C109.878 67.447 109.864 87.3935 109.888 107.344C109.892 110.729 109.926 114.094 108.663 117.317C108.642 117.372 108.722 117.466 108.784 117.605C112.621 117.605 116.486 117.65 120.347 117.584C121.986 117.556 122.937 116.488 123.059 114.837C123.097 114.32 123.08 113.799 123.08 113.279C123.08 86.45 123.08 59.621 123.08 32.7921C123.08 31.1894 123.097 29.5902 123.073 27.9876C123.038 25.7327 122.042 24.7441 119.79 24.7371C116.837 24.7233 113.881 24.7302 110.929 24.7371C110.598 24.7371 110.268 24.7996 109.878 24.8412C109.878 25.7986 109.878 26.6624 109.878 27.5262C109.878 30.728 109.899 33.9299 109.864 37.1317C109.85 38.4604 109.056 39.2617 107.911 39.2652C106.755 39.2652 106.017 38.4638 105.971 37.1387C105.954 36.6634 105.968 36.1882 105.968 35.7095C105.968 33.6003 105.968 31.4947 105.968 29.3127H101.832V109.304H105.968H105.964ZM3.91315 101.741C7.14055 98.907 10.7718 98.8376 14.4518 98.9625C15.451 98.9972 16.4502 98.9695 17.4494 98.966C19.9492 98.966 20.1198 98.7995 20.1198 96.3365C20.1198 70.243 20.1198 44.146 20.1198 18.0525C20.1198 17.7507 20.1128 17.4454 20.1198 17.1436C20.1441 15.9572 19.5662 15.3952 18.372 15.4056C16.3736 15.4195 14.3752 15.4056 12.3768 15.4091C6.84462 15.4091 3.91663 18.3092 3.91663 23.8005C3.91663 49.2037 3.91663 74.6069 3.91663 100.007C3.91663 100.468 3.91663 100.926 3.91663 101.738L3.91315 101.741ZM93.6501 29.3196V109.304H97.7166V29.3196H93.6501ZM93.6118 16.2729H105.947C105.947 14.0146 106.048 11.8569 105.923 9.7096C105.735 6.49387 103.127 4.03438 99.9935 3.92684C96.7661 3.81583 93.9704 6.08107 93.6536 9.36964C93.4343 11.6279 93.6118 13.9244 93.6118 16.2763V16.2729ZM93.8207 113.286C93.8938 113.602 93.9252 113.81 93.9913 114.011C95.4884 118.659 96.968 123.311 98.5278 127.939C98.6844 128.404 99.3808 129.059 99.7254 129.004C100.213 128.924 100.829 128.345 101.003 127.845C102.149 124.584 103.193 121.289 104.262 118C104.763 116.46 105.237 114.913 105.745 113.286H93.8207ZM93.6153 25.2471H105.863V20.335H93.6153V25.2471Z" fill="black" fill-opacity="0.75"/>
<path d="M55.9102 88.9789C55.9346 88.5626 55.9729 88.2296 55.9729 87.8966C55.9729 81.4929 55.9659 75.0857 55.9868 68.682C55.9868 67.9743 55.8371 67.5095 55.1582 67.1244C49.4276 63.8706 43.7213 60.575 38.0081 57.2899C37.8584 57.2032 37.6983 57.1442 37.27 56.9465C37.27 58.2612 37.27 59.4372 37.27 60.6097C37.27 61.2584 37.2874 61.9106 37.2422 62.5558C37.1621 63.6694 36.5076 64.2938 35.4178 64.4048C34.4047 64.5054 33.5099 63.7318 33.4125 62.6113C33.3219 61.581 33.3637 60.5369 33.3637 59.4997C33.3637 58.1155 33.3359 56.728 33.3881 55.3473C33.4577 53.4463 34.2724 51.8992 35.9366 50.9348C42.4262 47.1744 48.9263 43.4349 55.4437 39.7231C57.1149 38.7726 58.8835 38.8073 60.5442 39.7578C67.0199 43.4522 73.4886 47.164 79.9329 50.9105C81.6807 51.9269 82.5232 53.5469 82.5267 55.5624C82.5337 62.875 82.5371 70.191 82.5267 77.5036C82.5267 79.5225 81.6493 81.1252 79.9051 82.1416C73.4573 85.8846 66.992 89.5998 60.5129 93.2908C58.8487 94.2378 57.0766 94.2448 55.4089 93.2943C48.8914 89.579 42.3914 85.843 35.9053 82.0757C34.2411 81.1113 33.4368 79.5468 33.3881 77.6458C33.3359 75.6997 33.3394 73.7502 33.3777 71.8041C33.4055 70.465 34.1889 69.6533 35.3169 69.6464C36.4449 69.6394 37.2282 70.4546 37.2561 71.7867C37.2979 73.5594 37.1899 75.3424 37.3153 77.1046C37.3605 77.736 37.7435 78.6067 38.2483 78.9016C43.9233 82.2526 49.6504 85.5134 55.3636 88.7916C55.5029 88.8714 55.67 88.8991 55.9102 88.9789ZM59.8862 89.0413C60.2239 88.9234 60.391 88.8887 60.5303 88.8089C66.2052 85.5481 71.8766 82.2734 77.5585 79.023C78.3837 78.5512 78.6308 77.899 78.6274 76.9867C78.603 70.6246 78.6169 64.2625 78.61 57.9005C78.61 57.6299 78.5577 57.3558 78.516 56.943C72.3954 60.4606 66.421 63.8844 60.4676 67.343C60.1751 67.513 59.9105 68.0125 59.9071 68.3594C59.8757 75.1967 59.8827 82.034 59.8827 89.0413H59.8862ZM76.5524 53.4914C76.0893 53.2 75.7446 52.9711 75.386 52.7629C70.0558 49.6964 64.7116 46.6541 59.4057 43.5459C58.3787 42.9458 57.564 42.9354 56.5334 43.539C51.4539 46.5153 46.3325 49.4293 41.2285 52.364C40.6402 52.7005 40.0587 53.0439 39.3381 53.4637C39.6723 53.6996 39.8638 53.8557 40.0762 53.9771C45.7789 57.2622 51.4922 60.5299 57.1775 63.8497C57.8982 64.2695 58.3578 64.0336 58.9392 63.6971C64.454 60.5161 69.9757 57.3489 75.494 54.1748C75.8212 53.9875 76.1276 53.7689 76.5524 53.4914Z" fill="black" fill-opacity="0.75"/>
</g>
<defs>
<clipPath id="clip0_20_2087">
<rect width="127" height="133" fill="white"/>
</clipPath>
</defs>
</svg>
