<svg width="101" height="46" viewBox="0 0 101 46" fill="none" xmlns="http://www.w3.org/2000/svg">
<g clip-path="url(#clip0_21_2449)">
<path d="M71.8499 0.430054C68.8199 0.430054 66.2599 1.63005 64.7599 4.31005H64.6699V0.730054H56.8999V22.6201H64.6699V13.7901C64.6699 10.0301 65.7399 7.17005 70.0499 7.17005C71.2399 7.17005 72.2699 7.30005 73.3399 7.90005V0.430054H71.8499Z" fill="black" fill-opacity="0.75"/>
<path d="M14.85 0C11.82 0 9.65 0.9 7.85 3.54H7.76V0.73H0V22.62H7.77V11.27C7.77 8.54 8.67 6.19 11.83 6.19C15.67 6.19 15.33 9.86 15.33 11.95V22.62H23.1V9.09C23.09 3.71 20.74 0 14.85 0Z" fill="black" fill-opacity="0.75"/>
<path d="M39.9998 16.6C36.8398 16.6 35.0098 14.47 35.0098 11.69C35.0098 8.91 36.8498 6.74 39.9998 6.74C43.1498 6.74 44.9898 9 44.9898 11.69C44.9898 14.38 43.1498 16.6 39.9998 16.6ZM39.9998 0C32.9598 0 26.8198 4.23 26.8198 11.69C26.8198 19.15 33.0098 23.34 40.0098 23.34C47.0098 23.34 53.1998 19.11 53.1998 11.69C53.1998 4.27 47.0498 0 39.9998 0Z" fill="black" fill-opacity="0.75"/>
<path d="M92.6598 13.12C92.1298 15.17 90.4298 16.6 87.8398 16.6C85.2498 16.6 83.5498 15.17 83.0198 13.12L82.9998 13.04C82.8798 12.59 82.8498 12.19 82.8498 11.69C82.8498 9 84.6798 6.74 87.8398 6.74C90.9998 6.74 92.8298 9 92.8298 11.69C92.8298 12.19 92.7698 12.67 92.6598 13.12ZM92.5798 0.72V2.86C90.9598 0.94 88.3098 0 85.7898 0C79.2998 0 74.8198 5.38 74.8198 11.65C74.8198 12.15 74.8498 12.64 74.8998 13.12C75.5498 18.75 79.8898 23.34 85.8698 23.34C88.4298 23.34 91.1198 22.36 92.4898 20.18H92.5798V22.61H100.35V0.73H92.5798V0.72Z" fill="black" fill-opacity="0.75"/>
<path d="M70.48 38.73C70.48 39.5 69.73 39.95 69.02 39.95C68.42 39.95 68.11 39.6 68.11 39.01C68.11 37.74 69.52 37.66 70.48 37.55V38.73ZM69.42 33.04C68.29 33.04 67 33.39 66.21 34.19L67.11 35.57C67.62 34.98 68.38 34.68 69.21 34.68C69.74 34.68 70.49 34.8 70.49 35.47V36.21C68.5 36.49 65.78 36.6 65.78 39.27C65.78 40.69 66.71 41.71 68.17 41.71C69.13 41.71 69.81 41.35 70.49 40.71L70.56 41.48H72.78V35.3C72.78 33.44 70.94 33.05 69.43 33.05M61.44 32.18V33.26H60.49V34.95H61.44V41.48H63.73V34.92H65.27V33.26H63.73V32.54C63.73 31.74 64.08 31.37 64.86 31.37C65.08 31.37 65.37 31.4 65.59 31.47V29.97C65.24 29.87 64.73 29.84 64.3 29.84C62.81 29.84 61.45 30.51 61.45 32.18M78.33 39.99C77.3 39.99 76.64 39.07 76.64 37.34C76.64 35.61 76.99 34.72 78.35 34.72C79.06 34.72 79.51 35.28 79.66 35.76L81.23 34.99C80.76 33.67 79.57 33.07 78.06 33.07C75.99 33.07 74.25 34.6 74.25 37.29C74.25 39.98 75.51 41.71 78.08 41.71C79.41 41.71 80.76 41.2 81.31 39.93L79.87 39.01C79.62 39.63 79.09 39.98 78.33 39.98M84.22 36.66C84.25 35.67 84.57 34.69 85.8 34.69C86.88 34.69 87.09 35.79 87.09 36.66H84.22ZM85.89 33.06C83.22 33.06 81.81 34.82 81.81 37.37C81.81 39.69 83.22 41.75 85.71 41.75C87.1 41.75 88.23 41.42 89.22 40.42L88.18 39.12C87.55 39.79 86.97 40.03 86.13 40.03C84.89 40.03 84.24 39.27 84.24 38.07H89.41C89.44 37.86 89.44 37.64 89.44 37.43C89.44 35.1 88.31 33.07 85.89 33.07M36.19 33.09C35.18 33.09 34.47 33.4 33.72 34.06L33.59 33.27H31.44V41.49H33.73V36.33C33.73 35.41 34.26 34.82 35.22 34.82C35.83 34.82 36.07 35.26 36.07 35.82V41.49H38.36V35.36C38.36 33.98 37.65 33.09 36.2 33.09M42.81 38.76V34.91H44.63V33.27H42.81V31.28H41.53C41.23 32.38 40.67 33.29 39.51 33.62V34.95H40.52V39.72C40.52 41.32 41.98 41.73 43.04 41.73C43.75 41.73 44.48 41.53 44.93 41.32V39.79C44.78 39.87 44.27 40.05 43.85 40.05C42.97 40.05 42.81 39.52 42.81 38.77M26.77 41.5H29.37V30.58H26.77V41.5ZM57.24 34.48L57.14 33.28H55V41.5H57.29V36.91C57.29 35.91 57.99 35.18 58.98 35.18C59.2 35.18 59.4 35.21 59.64 35.3V33.11C59.51 33.09 59.52 33.09 59.39 33.09C58.44 33.09 57.65 33.66 57.24 34.47M48.11 36.67C48.14 35.68 48.46 34.7 49.69 34.7C50.77 34.7 50.98 35.8 50.98 36.67H48.11ZM49.78 33.07C47.11 33.07 45.7 34.83 45.7 37.38C45.7 39.7 47.11 41.76 49.6 41.76C50.99 41.76 52.12 41.43 53.11 40.43L52.07 39.13C51.44 39.8 50.86 40.04 50.02 40.04C48.78 40.04 48.13 39.28 48.13 38.08H53.3C53.33 37.87 53.33 37.65 53.33 37.44C53.33 35.11 52.2 33.08 49.78 33.08" fill="black" fill-opacity="0.75"/>
<path d="M12.91 33.9199C11.37 33.9199 10.33 35.2499 10.33 37.2299C10.33 39.4999 11.28 40.8599 12.86 40.8599C14.44 40.8599 15.31 39.5799 15.31 37.3499C15.31 35.2399 14.39 33.9199 12.91 33.9199ZM12.88 41.6599C11.77 41.6599 10.92 41.2199 10.33 40.3499V41.5199H9.47998V29.5699H10.33V34.4999C10.96 33.5899 11.86 33.1299 12.99 33.1299C14.98 33.1299 16.17 34.7299 16.17 37.4099C16.17 40.0899 14.94 41.6499 12.87 41.6499M17.95 45.1399C17.67 45.1399 17.38 45.0799 17.15 44.9799L17.09 44.9499V44.0899L17.23 44.1599C17.46 44.2699 17.74 44.3299 17.97 44.3299C18.45 44.3299 18.74 44.2799 19.16 43.1599L19.78 41.4999L16.65 33.2499H17.58L17.6 33.3099C19.22 37.5799 19.75 39.0499 20.24 40.4799C20.68 39.1899 21.18 37.7699 22.76 33.3199L22.78 33.2499H23.71L20.02 43.2899C19.45 44.8499 18.88 45.1399 17.96 45.1399" fill="black" fill-opacity="0.75"/>
</g>
<defs>
<clipPath id="clip0_21_2449">
<rect width="100.35" height="45.16" fill="white"/>
</clipPath>
</defs>
</svg>
