<svg width="136" height="26" viewBox="0 0 136 26" fill="none" xmlns="http://www.w3.org/2000/svg">
<g clip-path="url(#clip0_21_2260)">
<path d="M1.35113 1.75717C1.35113 2.12185 1.04713 2.42022 0.675567 2.42022C0.304005 2.42022 0 2.12185 0 1.75717C0 1.39249 0.304005 1.09412 0.675567 1.09412C1.04713 1.09412 1.35113 1.39249 1.35113 1.75717Z" fill="black" fill-opacity="0.75"/>
<path d="M5.63246 1.75713C5.63246 2.17982 5.27779 2.52793 4.84711 2.52793C4.41644 2.52793 4.06177 2.17982 4.06177 1.75713C4.06177 1.33443 4.41644 0.986328 4.84711 0.986328C5.27779 0.986328 5.63246 1.33443 5.63246 1.75713Z" fill="black" fill-opacity="0.75"/>
<path d="M9.91403 1.74891C9.91403 2.23791 9.50869 2.62745 9.01891 2.62745C8.52912 2.62745 8.12378 2.22962 8.12378 1.74891C8.12378 1.26819 8.52912 0.870361 9.01891 0.870361C9.50869 0.870361 9.91403 1.26819 9.91403 1.74891Z" fill="black" fill-opacity="0.75"/>
<path d="M14.2037 1.74885C14.2037 2.29587 13.7477 2.74343 13.1904 2.74343C12.633 2.74343 12.177 2.29587 12.177 1.74885C12.177 1.20183 12.633 0.754272 13.1904 0.754272C13.7477 0.754272 14.2037 1.20183 14.2037 1.74885Z" fill="black" fill-opacity="0.75"/>
<path d="M18.4853 1.74881C18.4853 2.35385 17.9786 2.85114 17.3621 2.85114C16.7457 2.85114 16.239 2.35385 16.239 1.74881C16.239 1.14377 16.7457 0.646484 17.3621 0.646484C17.9786 0.646484 18.4853 1.14377 18.4853 1.74881Z" fill="black" fill-opacity="0.75"/>
<path d="M22.9778 1.72399C22.9778 2.39533 22.4204 2.93406 21.7449 2.93406C21.0693 2.93406 20.512 2.39533 20.512 1.72399C20.512 1.05265 21.0693 0.513916 21.7449 0.513916C22.4204 0.513916 22.9778 1.05265 22.9778 1.72399Z" fill="black" fill-opacity="0.75"/>
<path d="M27.5294 1.75714C27.5294 2.4865 26.9298 3.08325 26.1783 3.08325C25.4267 3.08325 24.8271 2.49479 24.8271 1.75714C24.8271 1.01949 25.4267 0.43103 26.1783 0.43103C26.9298 0.43103 27.5294 1.01949 27.5294 1.75714Z" fill="black" fill-opacity="0.75"/>
<path d="M1.35113 5.51169C1.35113 5.87637 1.04713 6.17474 0.675567 6.17474C0.304005 6.17474 0 5.87637 0 5.51169C0 5.14701 0.304005 4.84863 0.675567 4.84863C1.04713 4.84863 1.35113 5.14701 1.35113 5.51169Z" fill="black" fill-opacity="0.75"/>
<path d="M5.63246 5.51165C5.63246 5.93434 5.27779 6.28245 4.84711 6.28245C4.41644 6.28245 4.06177 5.93434 4.06177 5.51165C4.06177 5.08895 4.41644 4.74084 4.84711 4.74084C5.27779 4.74084 5.63246 5.08895 5.63246 5.51165Z" fill="black" fill-opacity="0.75"/>
<path d="M9.91403 5.51173C9.91403 6.00073 9.50869 6.39027 9.01891 6.39027C8.52912 6.39027 8.12378 5.99244 8.12378 5.51173C8.12378 5.03101 8.52912 4.63318 9.01891 4.63318C9.50869 4.63318 9.91403 5.03101 9.91403 5.51173Z" fill="black" fill-opacity="0.75"/>
<path d="M14.2037 5.51167C14.2037 6.05869 13.7477 6.50625 13.1904 6.50625C12.633 6.50625 12.177 6.05869 12.177 5.51167C12.177 4.96465 12.633 4.51709 13.1904 4.51709C13.7477 4.51709 14.2037 4.96465 14.2037 5.51167Z" fill="black" fill-opacity="0.75"/>
<path d="M18.4853 5.51163C18.4853 6.11667 17.9786 6.61396 17.3621 6.61396C16.7457 6.61396 16.239 6.11667 16.239 5.51163C16.239 4.90659 16.7457 4.4093 17.3621 4.4093C17.9786 4.4093 18.4853 4.90659 18.4853 5.51163Z" fill="black" fill-opacity="0.75"/>
<path d="M22.9778 5.48681C22.9778 6.15815 22.4204 6.69688 21.7449 6.69688C21.0693 6.69688 20.512 6.15815 20.512 5.48681C20.512 4.81546 21.0609 4.27673 21.7449 4.27673C22.4289 4.27673 22.9778 4.82375 22.9778 5.48681Z" fill="black" fill-opacity="0.75"/>
<path d="M27.5294 5.51165C27.5294 6.24101 26.9298 6.83776 26.1783 6.83776C25.4267 6.83776 24.8271 6.2493 24.8271 5.51165C24.8271 4.77401 25.4267 4.18555 26.1783 4.18555C26.9298 4.18555 27.5294 4.77401 27.5294 5.51165Z" fill="black" fill-opacity="0.75"/>
<path d="M1.35113 9.2662C1.35113 9.63088 1.04713 9.92926 0.675567 9.92926C0.304005 9.92926 0 9.63088 0 9.2662C0 8.90152 0.304005 8.60315 0.675567 8.60315C1.04713 8.60315 1.35113 8.90152 1.35113 9.2662Z" fill="black" fill-opacity="0.75"/>
<path d="M5.63246 9.26616C5.63246 9.68886 5.27779 10.037 4.84711 10.037C4.41644 10.037 4.06177 9.68886 4.06177 9.26616C4.06177 8.84346 4.41644 8.49536 4.84711 8.49536C5.27779 8.49536 5.63246 8.84346 5.63246 9.26616Z" fill="black" fill-opacity="0.75"/>
<path d="M9.91403 9.26624C9.91403 9.75524 9.50869 10.1448 9.01891 10.1448C8.52912 10.1448 8.12378 9.74696 8.12378 9.26624C8.12378 8.78553 8.52912 8.3877 9.01891 8.3877C9.50869 8.3877 9.91403 8.78553 9.91403 9.26624Z" fill="black" fill-opacity="0.75"/>
<path d="M14.2037 9.26619C14.2037 9.81321 13.7477 10.2608 13.1904 10.2608C12.633 10.2608 12.177 9.81321 12.177 9.26619C12.177 8.71917 12.633 8.27161 13.1904 8.27161C13.7477 8.27161 14.2037 8.71917 14.2037 9.26619Z" fill="black" fill-opacity="0.75"/>
<path d="M18.4853 9.26627C18.4853 9.8713 17.9786 10.3686 17.3621 10.3686C16.7457 10.3686 16.239 9.8713 16.239 9.26627C16.239 8.66123 16.7457 8.16394 17.3621 8.16394C17.9786 8.16394 18.4853 8.66123 18.4853 9.26627Z" fill="black" fill-opacity="0.75"/>
<path d="M22.9778 9.24132C22.9778 9.91267 22.4204 10.4514 21.7449 10.4514C21.0693 10.4514 20.512 9.90438 20.512 9.24132C20.512 8.57827 21.0693 8.03125 21.7449 8.03125C22.4204 8.03125 22.9778 8.56998 22.9778 9.24132Z" fill="black" fill-opacity="0.75"/>
<path d="M27.5294 9.26617C27.5294 9.99553 26.9298 10.5923 26.1783 10.5923C25.4267 10.5923 24.8271 10.0038 24.8271 9.26617C24.8271 8.52852 25.4267 7.94006 26.1783 7.94006C26.9298 7.94006 27.5294 8.52852 27.5294 9.26617Z" fill="black" fill-opacity="0.75"/>
<path d="M1.35113 13.029C1.35113 13.3937 1.04713 13.6921 0.675567 13.6921C0.304005 13.6921 0 13.3937 0 13.029C0 12.6643 0.304005 12.366 0.675567 12.366C1.04713 12.366 1.35113 12.6643 1.35113 13.029Z" fill="black" fill-opacity="0.75"/>
<path d="M5.63246 13.0291C5.63246 13.4518 5.27779 13.7999 4.84711 13.7999C4.41644 13.7999 4.06177 13.4518 4.06177 13.0291C4.06177 12.6064 4.41644 12.2583 4.84711 12.2583C5.27779 12.2583 5.63246 12.6064 5.63246 13.0291Z" fill="black" fill-opacity="0.75"/>
<path d="M9.91403 13.0291C9.91403 13.5181 9.50869 13.9076 9.01891 13.9076C8.52912 13.9076 8.12378 13.5098 8.12378 13.0291C8.12378 12.5483 8.52912 12.1505 9.01891 12.1505C9.50869 12.1505 9.91403 12.5483 9.91403 13.0291Z" fill="black" fill-opacity="0.75"/>
<path d="M14.2037 13.029C14.2037 13.576 13.7477 14.0236 13.1904 14.0236C12.633 14.0236 12.177 13.576 12.177 13.029C12.177 12.482 12.633 12.0344 13.1904 12.0344C13.7477 12.0344 14.2037 12.482 14.2037 13.029Z" fill="black" fill-opacity="0.75"/>
<path d="M18.4853 13.0291C18.4853 13.6341 17.9786 14.1314 17.3621 14.1314C16.7457 14.1314 16.239 13.6341 16.239 13.0291C16.239 12.424 16.7457 11.9268 17.3621 11.9268C17.9786 11.9268 18.4853 12.424 18.4853 13.0291Z" fill="black" fill-opacity="0.75"/>
<path d="M22.9778 12.996C22.9778 13.6673 22.4204 14.206 21.7449 14.206C21.0693 14.206 20.512 13.6673 20.512 12.996C20.512 12.3246 21.0693 11.7859 21.7449 11.7859C22.4204 11.7859 22.9778 12.3246 22.9778 12.996Z" fill="black" fill-opacity="0.75"/>
<path d="M27.5294 13.0291C27.5294 13.7585 26.9298 14.3552 26.1783 14.3552C25.4267 14.3552 24.8271 13.7668 24.8271 13.0291C24.8271 12.2915 25.4267 11.703 26.1783 11.703C26.9298 11.703 27.5294 12.2915 27.5294 13.0291Z" fill="black" fill-opacity="0.75"/>
<path d="M1.35113 16.7835C1.35113 17.1482 1.04713 17.4466 0.675567 17.4466C0.304005 17.4466 0 17.1482 0 16.7835C0 16.4189 0.304005 16.1205 0.675567 16.1205C1.04713 16.1205 1.35113 16.4189 1.35113 16.7835Z" fill="black" fill-opacity="0.75"/>
<path d="M5.63246 16.7836C5.63246 17.2063 5.27779 17.5544 4.84711 17.5544C4.41644 17.5544 4.06177 17.2063 4.06177 16.7836C4.06177 16.3609 4.41644 16.0128 4.84711 16.0128C5.27779 16.0128 5.63246 16.3609 5.63246 16.7836Z" fill="black" fill-opacity="0.75"/>
<path d="M9.91403 16.7836C9.91403 17.2726 9.50869 17.6621 9.01891 17.6621C8.52912 17.6621 8.12378 17.2643 8.12378 16.7836C8.12378 16.3029 8.52912 15.905 9.01891 15.905C9.50869 15.905 9.91403 16.3029 9.91403 16.7836Z" fill="black" fill-opacity="0.75"/>
<path d="M14.2037 16.7836C14.2037 17.3307 13.7477 17.7782 13.1904 17.7782C12.633 17.7782 12.177 17.3307 12.177 16.7836C12.177 16.2366 12.633 15.7891 13.1904 15.7891C13.7477 15.7891 14.2037 16.2366 14.2037 16.7836Z" fill="black" fill-opacity="0.75"/>
<path d="M18.4853 16.7836C18.4853 17.3886 17.9786 17.8859 17.3621 17.8859C16.7457 17.8859 16.239 17.3886 16.239 16.7836C16.239 16.1786 16.7457 15.6813 17.3621 15.6813C17.9786 15.6813 18.4853 16.1786 18.4853 16.7836Z" fill="black" fill-opacity="0.75"/>
<path d="M22.9778 16.7588C22.9778 17.4301 22.4204 17.9689 21.7449 17.9689C21.0693 17.9689 20.512 17.4218 20.512 16.7588C20.512 16.0957 21.0693 15.5487 21.7449 15.5487C22.4204 15.5487 22.9778 16.0957 22.9778 16.7588Z" fill="black" fill-opacity="0.75"/>
<path d="M27.5294 16.7836C27.5294 17.513 26.9298 18.1097 26.1783 18.1097C25.4267 18.1097 24.8271 17.5213 24.8271 16.7836C24.8271 16.046 25.4267 15.4575 26.1783 15.4575C26.9298 15.4575 27.5294 16.046 27.5294 16.7836Z" fill="black" fill-opacity="0.75"/>
<path d="M1.35113 20.5465C1.35113 20.9112 1.04713 21.2095 0.675567 21.2095C0.304005 21.2095 0 20.9112 0 20.5465C0 20.1818 0.304005 19.8834 0.675567 19.8834C1.04713 19.8834 1.35113 20.1818 1.35113 20.5465Z" fill="black" fill-opacity="0.75"/>
<path d="M5.63246 20.5464C5.63246 20.9691 5.27779 21.3172 4.84711 21.3172C4.41644 21.3172 4.06177 20.9691 4.06177 20.5464C4.06177 20.1237 4.41644 19.7756 4.84711 19.7756C5.27779 19.7756 5.63246 20.1237 5.63246 20.5464Z" fill="black" fill-opacity="0.75"/>
<path d="M9.91403 20.5464C9.91403 21.0354 9.50869 21.4249 9.01891 21.4249C8.52912 21.4249 8.12378 21.0271 8.12378 20.5464C8.12378 20.0657 8.52912 19.6678 9.01891 19.6678C9.50869 19.6678 9.91403 20.0657 9.91403 20.5464Z" fill="black" fill-opacity="0.75"/>
<path d="M14.2037 20.5465C14.2037 21.0935 13.7477 21.541 13.1904 21.541C12.633 21.541 12.177 21.0935 12.177 20.5465C12.177 19.9994 12.633 19.5519 13.1904 19.5519C13.7477 19.5519 14.2037 19.9994 14.2037 20.5465Z" fill="black" fill-opacity="0.75"/>
<path d="M18.4853 20.5464C18.4853 21.1515 17.9786 21.6487 17.3621 21.6487C16.7457 21.6487 16.239 21.1515 16.239 20.5464C16.239 19.9414 16.7457 19.4441 17.3621 19.4441C17.9786 19.4441 18.4853 19.9414 18.4853 20.5464Z" fill="black" fill-opacity="0.75"/>
<path d="M22.9778 20.5133C22.9778 21.1846 22.4204 21.7234 21.7449 21.7234C21.0693 21.7234 20.512 21.1846 20.512 20.5133C20.512 19.842 21.0693 19.3032 21.7449 19.3032C22.4204 19.3032 22.9778 19.842 22.9778 20.5133Z" fill="black" fill-opacity="0.75"/>
<path d="M27.5294 20.5464C27.5294 21.2758 26.9298 21.8726 26.1783 21.8726C25.4267 21.8726 24.8271 21.2841 24.8271 20.5464C24.8271 19.8088 25.4267 19.2203 26.1783 19.2203C26.9298 19.2203 27.5294 19.8088 27.5294 20.5464Z" fill="black" fill-opacity="0.75"/>
<path d="M1.35113 24.301C1.35113 24.6657 1.04713 24.964 0.675567 24.964C0.304005 24.964 0 24.6657 0 24.301C0 23.9363 0.304005 23.6379 0.675567 23.6379C1.04713 23.6379 1.35113 23.9363 1.35113 24.301Z" fill="black" fill-opacity="0.75"/>
<path d="M5.63246 24.301C5.63246 24.7236 5.27779 25.0718 4.84711 25.0718C4.41644 25.0718 4.06177 24.7236 4.06177 24.301C4.06177 23.8783 4.41644 23.5302 4.84711 23.5302C5.27779 23.5302 5.63246 23.8783 5.63246 24.301Z" fill="black" fill-opacity="0.75"/>
<path d="M9.91403 24.3009C9.91403 24.7899 9.50869 25.1795 9.01891 25.1795C8.52912 25.1795 8.12378 24.7816 8.12378 24.3009C8.12378 23.8202 8.52912 23.4224 9.01891 23.4224C9.50869 23.4224 9.91403 23.8202 9.91403 24.3009Z" fill="black" fill-opacity="0.75"/>
<path d="M14.2037 24.301C14.2037 24.848 13.7477 25.2956 13.1904 25.2956C12.633 25.2956 12.177 24.848 12.177 24.301C12.177 23.754 12.633 23.3064 13.1904 23.3064C13.7477 23.3064 14.2037 23.754 14.2037 24.301Z" fill="black" fill-opacity="0.75"/>
<path d="M18.4853 24.3009C18.4853 24.906 17.9786 25.4033 17.3621 25.4033C16.7457 25.4033 16.239 24.906 16.239 24.3009C16.239 23.6959 16.7457 23.1986 17.3621 23.1986C17.9786 23.1986 18.4853 23.6959 18.4853 24.3009Z" fill="black" fill-opacity="0.75"/>
<path d="M22.9778 24.2761C22.9778 24.9475 22.4204 25.4862 21.7449 25.4862C21.0693 25.4862 20.512 24.9475 20.512 24.2761C20.512 23.6048 21.0693 23.066 21.7449 23.066C22.4204 23.066 22.9778 23.6048 22.9778 24.2761Z" fill="black" fill-opacity="0.75"/>
<path d="M27.5294 24.301C27.5294 25.0303 26.9298 25.6271 26.1783 25.6271C25.4267 25.6271 24.8271 25.0386 24.8271 24.301C24.8271 23.5633 25.4267 22.9749 26.1783 22.9749C26.9298 22.9749 27.5294 23.5633 27.5294 24.301Z" fill="black" fill-opacity="0.75"/>
<path d="M43.5572 0.497298C44.199 0.555315 44.8577 0.687926 45.5333 0.886842C46.9857 1.30125 48.168 2.04719 49.0716 3.09978C49.9751 4.16067 50.4227 5.36246 50.4227 6.72172C50.4227 7.80747 50.0934 8.7689 49.4262 9.62258C48.7591 10.468 47.8133 11.1642 46.5804 11.7112V11.7858C47.4333 11.9847 48.0835 12.1836 48.5396 12.3743C48.9871 12.5732 49.4685 12.8633 49.9667 13.2611C50.8956 13.949 51.512 14.7032 51.8076 15.5155C52.1116 16.3277 52.2636 17.2311 52.2636 18.2091C52.2636 19.1871 52.1454 19.9414 51.9089 20.6127C51.6725 21.2757 51.284 21.9802 50.7605 22.7179C49.4769 24.2678 47.7626 25.1795 45.6008 25.453C44.8493 25.5524 43.8359 25.6022 42.5523 25.6022H29.9446V0.406128H40.5172C41.8937 0.406128 42.907 0.439281 43.5488 0.497298H43.5572ZM39.5461 10.3022C40.9732 10.3022 42.0034 10.1199 42.6368 9.7469C43.2617 9.37393 43.5741 8.68601 43.5741 7.67486C43.5741 6.76316 43.2786 6.10839 42.6875 5.71885C42.0963 5.32101 41.0999 5.13039 39.6981 5.13039H36.7256V10.3022H39.5461ZM39.9599 20.9359C41.1843 20.9359 42.1808 20.8779 42.9323 20.7536C43.6839 20.6293 44.2919 20.3558 44.7564 19.9248C45.2208 19.4938 45.4573 18.8473 45.4573 17.9853C45.4573 16.7836 45.0013 15.9879 44.0808 15.6232C43.1688 15.2585 41.7923 15.0679 39.9599 15.0679H36.7256V20.9359H39.9599Z" fill="black" fill-opacity="0.75"/>
<path d="M74.7177 1.73223C76.7867 2.89257 78.408 4.46733 79.5734 6.45649C80.7387 8.45394 81.3214 10.642 81.3214 13.029C81.3214 15.416 80.7387 17.6372 79.5734 19.6264C78.408 21.6073 76.7867 23.1654 74.7177 24.3009C72.6488 25.4364 70.3097 26 67.7003 26C65.0909 26 62.7771 25.4281 60.6828 24.2843C58.5886 23.1406 56.9503 21.5824 55.7681 19.6098C54.5859 17.6372 54.0032 15.4492 54.0032 13.0373C54.0032 10.6254 54.6027 8.42078 55.7934 6.42333C56.9841 4.42588 58.6224 2.85942 60.7082 1.71565C62.7855 0.571884 65.1247 0 67.7087 0C70.2928 0 72.6573 0.580172 74.7262 1.73223H74.7177ZM72.6826 18.2423C73.7973 16.9908 74.3546 15.2502 74.3546 13.0373C74.3546 10.8244 73.7973 9.08384 72.6826 7.83232C71.5679 6.57252 69.9043 5.95091 67.7003 5.95091C65.4962 5.95091 63.8158 6.5891 62.6758 7.8489C61.5357 9.11699 60.9615 10.8492 60.9615 13.0373C60.9615 15.2254 61.5273 16.9576 62.6758 18.2257C63.8158 19.4938 65.4878 20.132 67.7003 20.132C69.9128 20.132 71.5679 19.5021 72.6826 18.2506V18.2423Z" fill="black" fill-opacity="0.75"/>
<path d="M97.4674 0.447569C97.9403 0.472433 98.4723 0.547027 99.0465 0.671349C100.879 1.01945 102.348 1.81512 103.471 3.07492C104.586 4.32643 105.144 5.85975 105.144 7.65828C105.144 9.20817 104.713 10.4928 103.843 11.4957C102.982 12.5069 101.639 13.2694 99.8319 13.7832V13.8578C100.659 14.0816 101.31 14.5126 101.791 15.1508C102.264 15.789 102.855 16.8333 103.556 18.292L104.08 19.4358C104.654 20.6873 105.211 21.9388 105.735 23.182C106.258 24.4253 106.604 25.2292 106.748 25.6022H99.4434L97.1887 19.7673C96.6145 18.5572 96.1669 17.7118 95.8545 17.2145C95.542 16.7255 95.1367 16.3443 94.63 16.0708C94.1571 15.8221 93.49 15.7061 92.6371 15.7061H91.058V25.6022H84.2854V0.406128H95.0522C96.1838 0.406128 96.9861 0.422704 97.459 0.447569H97.4674ZM94.4949 10.4928C95.6011 10.4928 96.5132 10.3105 97.2394 9.93753C97.9656 9.56456 98.3287 8.82691 98.3287 7.72459C98.3287 5.90119 97.1465 4.98949 94.7905 4.98949H91.0664V10.4928H94.4949Z" fill="black" fill-opacity="0.75"/>
<path d="M128.814 25.5939L126.855 20.6044H117.557L115.598 25.5939H108.445L118.047 0.406128H126.398L135.992 25.5939H128.805H128.814ZM125.275 15.8387L122.227 6.68028H122.151L119.136 15.8387H125.267H125.275Z" fill="black" fill-opacity="0.75"/>
</g>
<defs>
<clipPath id="clip0_21_2260">
<rect width="136" height="26" fill="white"/>
</clipPath>
</defs>
</svg>
