<svg width="124" height="39" viewBox="0 0 124 39" fill="none" xmlns="http://www.w3.org/2000/svg">
<g clip-path="url(#clip0_21_2188)">
<path d="M50.8503 32.942C50.8503 33.0113 50.7194 32.734 50.7019 32.708C50.3963 32.266 49.8724 32.0753 49.401 32.0753C47.9254 32.0753 47.1309 33.176 47.1309 34.58C47.1309 35.984 47.7246 36.9807 49.2089 36.9807C49.8113 36.9807 50.5186 36.738 50.8154 36.1573H50.8416C50.8154 37.2493 50.8154 38.3327 49.497 38.3327C48.8422 38.3327 48.3969 38.0813 48.362 37.4313H47.3928C47.4015 38.5493 48.1524 38.9913 49.2001 38.9913C50.99 38.9913 51.7671 38.2633 51.7671 36.4867V33.0807C51.7671 32.7947 51.7933 32.5 51.8282 32.214H50.8765L50.8503 32.942ZM48.1087 34.528C48.1087 33.7653 48.3969 32.7427 49.4795 32.7427C50.4836 32.7427 50.8503 33.592 50.8503 34.528C50.8503 35.464 50.4836 36.3133 49.4795 36.3133C48.3969 36.3133 48.1087 35.2907 48.1087 34.528Z" fill="black" fill-opacity="0.75"/>
<path d="M55.3207 34.1813C55.3207 33.3927 55.7747 32.7427 56.543 32.7427C57.4336 32.7427 57.809 33.3667 57.7916 34.1813H55.3207ZM58.7607 34.814V34.3633C58.7607 33.02 58.071 32.1013 56.6129 32.0753C55.0675 32.0753 54.3428 33.2627 54.3428 34.684C54.3428 36.1053 54.9627 37.2147 56.5343 37.2147C57.7043 37.2147 58.5599 36.66 58.6996 35.568H57.7305C57.6257 36.27 57.2677 36.556 56.543 36.556C55.6001 36.556 55.2508 35.6807 55.3207 34.8313H58.7607V34.814Z" fill="black" fill-opacity="0.75"/>
<path d="M62.1572 34.658C62.1572 33.6353 62.358 33.02 63.528 32.9767C63.6502 32.9767 63.7987 32.9767 63.9296 33.0287V32.162C63.8248 32.162 63.7288 32.1533 63.6066 32.1533C62.9343 32.1533 62.3144 32.4913 62.1747 33.1587H62.1572V32.2227H61.2317V37.0673H62.1572V34.6667V34.658Z" fill="black" fill-opacity="0.75"/>
<path d="M67.3785 32.2227H66.4705V37.0673H67.396V34.58C67.396 34.4673 67.361 33.826 67.4658 33.5747C67.7452 32.9247 68.2953 32.786 68.6707 32.786C69.5526 32.786 69.7534 33.3667 69.7534 34.2073V37.076H70.6789V34.5887C70.6789 34.476 70.6527 33.9907 70.7749 33.5487C70.9495 32.9507 71.5695 32.7947 71.8576 32.7947C72.9403 32.7947 73.0363 33.5487 73.0363 34.216V37.0847H73.9618V33.67C73.9618 32.8033 73.272 32.0927 72.1457 32.0927C71.4298 32.0927 70.871 32.4047 70.5217 33.0027C70.2685 32.4047 69.7272 32.0927 68.8017 32.0927C68.304 32.0927 67.7016 32.3267 67.4134 32.9333H67.396V32.24L67.3785 32.2227Z" fill="black" fill-opacity="0.75"/>
<path d="M78.9559 34.0687C77.7947 34.0687 76.5811 34.4673 76.5811 35.828C76.5811 36.7727 77.4367 37.206 78.2836 37.206C78.9559 37.206 79.4973 36.946 79.8029 36.3393H79.8203C79.829 36.5647 79.8465 36.7726 79.8727 36.998C79.8814 37.1106 80.0473 37.0673 80.1346 37.0673H80.7545C80.7284 36.66 80.7196 36.2527 80.7196 36.0447V33.7306C80.7196 32.3786 79.7243 32.084 78.7289 32.084C77.7336 32.084 76.9303 32.4567 76.8779 33.5227H77.8471C77.8558 33.02 78.2924 32.7513 78.7638 32.7513C79.7417 32.7513 79.7941 33.2453 79.7941 34.086H78.9559V34.0687ZM79.7941 34.7013C79.8116 35.6027 79.6108 36.5387 78.5194 36.5387C77.978 36.5387 77.5589 36.2353 77.5589 35.6373C77.5589 34.9353 78.3098 34.7273 78.8686 34.7013H79.7941Z" fill="black" fill-opacity="0.75"/>
<path d="M84.8145 32.2227H83.9065V37.0673H84.832V34.4327C84.832 33.488 85.0852 33.2713 85.2249 33.1413C85.6178 32.7513 86.1242 32.786 86.1242 32.786C86.9013 32.786 87.2418 33.2193 87.2418 34.0253V37.076H88.1673V33.7307C88.1673 32.1793 86.6568 32.0927 86.3163 32.0927C85.8274 32.0927 85.1463 32.344 84.8407 32.9507H84.8233V32.24L84.8145 32.2227Z" fill="black" fill-opacity="0.75"/>
<path d="M104.364 34.0687C103.202 34.0687 101.989 34.4673 101.989 35.828C101.989 36.7727 102.844 37.206 103.691 37.206C104.364 37.206 104.905 36.946 105.211 36.3393H105.228C105.237 36.5647 105.254 36.7726 105.28 36.998C105.289 37.1106 105.455 37.0673 105.542 37.0673H106.162C106.136 36.66 106.127 36.2527 106.127 36.0447V33.7306C106.127 32.3786 105.132 32.084 104.137 32.084C103.141 32.084 102.338 32.4567 102.286 33.5227H103.255C103.264 33.02 103.7 32.7513 104.172 32.7513C105.149 32.7513 105.202 33.2453 105.202 34.086H104.364V34.0687ZM105.202 34.7013C105.219 35.6027 105.018 36.5387 103.927 36.5387C103.386 36.5387 102.967 36.2353 102.967 35.6373C102.967 34.9353 103.718 34.7273 104.276 34.7013H105.202Z" fill="black" fill-opacity="0.75"/>
<path d="M112.396 32.8727H112.379C112.1 32.292 111.488 32.0754 110.86 32.0754C109.341 32.0754 108.668 33.332 108.668 34.6407C108.668 35.8887 109.244 37.206 110.694 37.206C111.401 37.206 112.047 36.9634 112.379 36.2874H112.396V36.3394L112.423 37.0587H113.366C113.348 36.7814 113.313 36.4867 113.313 36.2007V30.0907H112.388V32.8727H112.396ZM109.646 34.632C109.646 33.722 109.917 32.708 111.026 32.708C112.073 32.708 112.405 33.748 112.405 34.632C112.405 35.516 112.143 36.5734 111.026 36.5734C109.987 36.5734 109.646 35.542 109.646 34.632Z" fill="black" fill-opacity="0.75"/>
<path d="M116.823 34.1813C116.823 33.3927 117.277 32.7427 118.045 32.7427C118.945 32.7427 119.311 33.3667 119.294 34.1813H116.823ZM120.263 34.814V34.3633C120.263 33.02 119.573 32.1013 118.115 32.0753C116.57 32.0753 115.854 33.2627 115.854 34.684C115.854 36.1053 116.474 37.2147 118.045 37.2147C119.215 37.2147 120.071 36.66 120.211 35.568H119.241C119.137 36.27 118.779 36.556 118.054 36.556C117.111 36.556 116.762 35.6807 116.832 34.8313H120.272L120.263 34.814Z" fill="black" fill-opacity="0.75"/>
<path d="M124 35.7847H122.769V37.0673H124V35.7847Z" fill="black" fill-opacity="0.75"/>
<path d="M98.0947 37.0673H99.0551V30.9833H97.4486L95.4753 35.9926H95.4579L93.4497 30.9833H91.7209V37.0673H92.6901V31.5899H92.7076L94.934 37.0673H95.8421L98.0772 31.5899H98.0947V37.0673Z" fill="black" fill-opacity="0.75"/>
<path d="M1.4581 30.0907H0V37.0674H1.4581V34.4327L1.47557 34.4067L2.95113 37.0674H4.65371L2.85509 34.2854L4.54021 32.162H2.91621L1.47557 34.1987L1.4581 34.1814V30.0907Z" fill="black" fill-opacity="0.75"/>
<path d="M6.59204 31.3387H8.14619V30.0907H6.59204V31.3387ZM6.64443 37.0674H8.10253V32.2227H6.64443V37.0674Z" fill="black" fill-opacity="0.75"/>
<path d="M9.99707 32.2227V33.1847H10.975V35.5681C10.975 36.6167 11.2194 37.2061 12.3545 37.2061C12.5553 37.2061 13.3324 37.1367 13.4983 37.0587V36.2094C13.3411 36.2181 13.1839 36.2354 13.0355 36.2354C12.5291 36.2354 12.4331 36.0621 12.4331 35.4294V33.1761H13.5332V32.2141H12.4331V30.7407L10.975 31.2607V32.2141H9.99707V32.2227Z" fill="black" fill-opacity="0.75"/>
<path d="M19.6973 33.9213C19.706 32.786 18.7805 32.0753 17.5407 32.0753C16.0913 32.0753 15.3579 33.358 15.3579 34.6407C15.3579 35.9233 16.0913 37.206 17.5407 37.206C18.8853 37.206 19.6536 36.53 19.6973 35.2907H18.2741C18.2654 35.6893 18.0995 36.2353 17.532 36.2353C16.9121 36.2353 16.9033 35.0047 16.8597 34.5627C16.8771 34.19 16.8859 33.0287 17.5145 33.0287C18.082 33.0287 18.2479 33.514 18.2567 33.904H19.6973V33.9213Z" fill="black" fill-opacity="0.75"/>
<path d="M23.2683 37.0674V34.1554C23.2858 33.4534 23.6874 33.046 24.1415 33.046C24.8574 33.046 25.0059 33.6354 25.0146 34.1554V37.0674H26.4727V33.9127C26.4727 33.748 26.4552 33.436 26.3766 33.1414C26.202 32.4394 25.2591 32.0754 24.7701 32.0754C24.028 32.0754 23.5739 32.3614 23.2683 32.812L23.2509 32.7947V30.0994H21.8015V37.0674H23.2596H23.2683Z" fill="black" fill-opacity="0.75"/>
<path d="M30.2971 34.06C30.3146 33.5313 30.463 33.0373 31.1353 33.0373C31.8425 33.0373 31.991 33.5313 31.991 34.06H30.2971ZM33.5014 35.022C33.5014 34.7013 33.5014 34.398 33.4578 34.0947C33.4229 33.7827 33.353 33.4967 33.2133 33.228C32.803 32.3787 32.0433 32.0667 31.1353 32.0667C29.651 32.0667 28.7866 33.1846 28.7866 34.6493C28.7866 36.27 29.4589 37.206 31.1353 37.206C32.2704 37.206 33.2133 36.8073 33.3443 35.6113H32.0346C31.8949 36.0533 31.6417 36.2353 31.144 36.2353C30.3932 36.2353 30.3058 35.646 30.3058 35.022H33.5102H33.5014Z" fill="black" fill-opacity="0.75"/>
<path d="M37.1422 32.2227H35.6929V37.0673H37.151V34.1553C37.1684 33.4533 37.5701 33.046 38.0241 33.046C38.74 33.046 38.8885 33.6353 38.8972 34.1553V37.0673H40.3553V33.9127C40.3553 33.748 40.3379 33.4447 40.2593 33.1413C40.0846 32.4393 39.1417 32.0753 38.6527 32.0753C37.9106 32.0753 37.4566 32.3613 37.151 32.812L37.1335 32.786V32.2227H37.1422Z" fill="black" fill-opacity="0.75"/>
<path d="M44.4329 35.7847H43.1931V37.0673H44.4329V35.7847Z" fill="black" fill-opacity="0.75"/>
<path d="M108.668 17.914H93.5369C93.5369 20.9387 93.9473 23.7813 97.4921 23.7813C99.8845 23.7813 101.081 22.8974 101.727 20.7567H107.935C107.341 26.5373 102.871 28.444 97.4921 28.444C89.5817 28.444 86.4036 23.9287 86.4036 16.094C86.4036 9.05668 90.4548 3.65735 97.4921 3.65735C101.814 3.65735 105.403 5.14802 107.341 9.24735C107.987 10.556 108.31 11.9513 108.493 13.442C108.677 14.8893 108.677 16.38 108.677 17.914M93.5457 13.2513H101.552C101.552 10.686 100.862 8.31135 97.5009 8.31135C94.3227 8.31135 93.633 10.686 93.5457 13.2513Z" fill="black" fill-opacity="0.75"/>
<path d="M65.405 12.168C65.4487 6.67333 61.0394 3.26733 55.0848 3.26733C48.161 3.26733 44.6772 9.464 44.6772 15.6607C44.6772 21.8573 48.161 28.054 55.0848 28.054C61.4935 28.054 65.1693 24.7953 65.405 18.8327H58.6209C58.5773 20.7393 57.7827 23.4 55.0935 23.4C52.1162 23.4 52.0725 17.4807 51.8892 15.34C51.9852 13.52 52.0289 7.93 55.0062 7.93C57.7041 7.93 58.49 10.2613 58.5423 12.168H65.4225H65.405Z" fill="black" fill-opacity="0.75"/>
<path d="M7.14209 27.326V18.2434H14.6422V27.326H21.7843V4.48071H14.6422V13.5287H7.17702V4.48071H0V27.326H7.14209Z" fill="black" fill-opacity="0.75"/>
<path d="M30.533 10.582H23.8449C23.8886 7.644 25.1459 5.83267 27.0056 4.758C28.909 3.64 31.3712 3.26733 33.8858 3.26733C38.5831 3.26733 43.8306 4.992 43.8306 12.0293V24.7953C43.8742 25.9567 44.0663 26.6587 44.1536 27.3607H37.8846C37.7449 26.286 37.6489 25.22 37.6489 24.2407H37.5529C35.9725 26.9447 33.554 28.0627 30.3933 28.0627C26.0277 28.0627 22.771 25.5493 22.771 20.982C22.771 19.3527 23.5131 15.392 27.7478 13.572C30.533 12.3587 34.0691 12.22 36.8544 12.3153V10.1227C36.8544 9.14333 36.1122 7.23667 33.65 7.23667C31.1878 7.23667 30.4457 9.516 30.533 10.5907M36.8544 16.3713C34.4358 16.328 29.4678 16.276 29.4678 20.0547C29.4678 22.0133 30.9084 23.4087 32.8555 23.4087C36.7147 23.4087 36.8544 19.1187 36.8544 16.3713Z" fill="black" fill-opacity="0.75"/>
<path d="M32.2966 0H26.5515V2.03667H32.2966V0Z" fill="black" fill-opacity="0.75"/>
<path d="M40.3728 0H34.6277V2.03667H40.3728V0Z" fill="black" fill-opacity="0.75"/>
<path d="M73.4814 4.51538H66.3394V27.3607H73.4814V4.51538Z" fill="black" fill-opacity="0.75"/>
<path d="M72.9664 15.21H72.9141V14.5427H72.9664L80.1959 4.51538H88.5603L80.3792 14.5774L88.927 27.3607H80.2046L72.9664 15.21Z" fill="black" fill-opacity="0.75"/>
<path d="M109.489 4.43727C109.585 6.12727 109.716 8.04261 109.716 8.99594L109.76 27.3173H116.666V15.9639C116.71 14.4646 116.849 13.1819 117.591 11.9079C118.29 10.9546 119.818 10.3133 120.979 10.2266H123.991V4.16861C120.516 4.08194 117.548 4.99194 116.063 8.58861H115.967L115.828 4.43727H109.471H109.489Z" fill="black" fill-opacity="0.75"/>
</g>
<defs>
<clipPath id="clip0_21_2188">
<rect width="124" height="39" fill="white"/>
</clipPath>
</defs>
</svg>
