<svg width="113" height="63" viewBox="0 0 113 63" fill="none" xmlns="http://www.w3.org/2000/svg">
<g clip-path="url(#clip0_21_2317)">
<path d="M102.45 19.48H94C93.7349 19.48 93.52 19.6949 93.52 19.96V21.63C93.52 21.8951 93.7349 22.11 94 22.11H102.45C102.715 22.11 102.93 21.8951 102.93 21.63V19.96C102.93 19.6949 102.715 19.48 102.45 19.48Z" fill="black" fill-opacity="0.75"/>
<path d="M0 0V62.47H112.45V0H0ZM89.12 15.38C89.12 15.25 89.23 15.14 89.36 15.14H105.13C106.36 15.14 107.36 16.14 107.36 17.37V21.86C107.36 23.18 106.29 24.24 104.98 24.24C106.3 24.24 107.36 25.31 107.36 26.62V33.13C107.36 33.26 107.25 33.37 107.12 33.37H103.17C103.04 33.37 102.93 33.26 102.93 33.13V26.87C102.93 26.61 102.72 26.39 102.45 26.39H93.99C93.73 26.39 93.51 26.6 93.51 26.87V33.13C93.51 33.26 93.4 33.37 93.27 33.37H89.35C89.22 33.37 89.11 33.26 89.11 33.13V15.38H89.12ZM67.81 29V17.38C67.81 16.15 68.81 15.15 70.04 15.15H85.62C85.75 15.15 85.86 15.26 85.86 15.39V19.24C85.86 19.37 85.75 19.48 85.62 19.48H72.66C72.4 19.48 72.18 19.69 72.18 19.96V21.64C72.18 21.9 72.39 22.12 72.66 22.12H85.86V26.43H72.66C72.4 26.43 72.18 26.64 72.18 26.91V28.54C72.18 28.8 72.39 29.02 72.66 29.02H85.86V33.17C85.86 33.3 85.75 33.41 85.62 33.41H70.04C68.81 33.41 67.81 32.41 67.81 31.18V29.03V29ZM47.06 15.38C47.06 15.25 47.17 15.14 47.3 15.14H64.88C65.01 15.14 65.12 15.25 65.12 15.38V19.23C65.12 19.36 65.01 19.47 64.88 19.47H58.84C58.58 19.47 58.36 19.68 58.36 19.95V33.15C58.36 33.28 58.25 33.39 58.12 33.39H54.23C54.1 33.39 53.99 33.28 53.99 33.15V19.95C53.99 19.69 53.78 19.47 53.51 19.47H47.29C47.16 19.47 47.05 19.36 47.05 19.23V15.38H47.06ZM26.47 29V15.38C26.47 15.25 26.58 15.14 26.71 15.14H30.59C30.72 15.14 30.83 15.25 30.83 15.38V28.52C30.83 28.78 31.04 29 31.31 29H39.69C39.95 29 40.17 28.79 40.17 28.52V15.38C40.17 15.25 40.28 15.14 40.41 15.14H44.29C44.42 15.14 44.53 15.25 44.53 15.38V31.15C44.53 32.38 43.53 33.38 42.3 33.38H28.71C27.48 33.38 26.48 32.38 26.48 31.15V29H26.47ZM5.19 29.24C5.19 29.11 5.3 29 5.43 29H18.5C18.76 29 18.97 28.79 18.97 28.53V26.89C18.97 26.63 18.76 26.42 18.5 26.42H7.43C6.2 26.42 5.2 25.42 5.2 24.19V17.37C5.2 16.14 6.2 15.14 7.43 15.14H23.01C23.14 15.14 23.25 15.25 23.25 15.38V19.23C23.25 19.36 23.14 19.47 23.01 19.47H10.04C9.78 19.47 9.56 19.68 9.56 19.95V21.62C9.56 21.88 9.77 22.1 10.04 22.1H21.02C22.25 22.1 23.25 23.1 23.25 24.33V31.15C23.25 32.38 22.25 33.38 21.02 33.38H5.44C5.31 33.38 5.2 33.27 5.2 33.14V29.23L5.19 29.24ZM111.57 61.59H0.88V47.54H111.57V61.59Z" fill="black" fill-opacity="0.75"/>
<path d="M67.76 54.07H66.57V56.53C66.57 57.05 66.89 57.33 67.27 57.33C67.53 57.33 67.71 57.25 67.83 57.17V57.88C67.65 57.93 67.39 58 67.13 58C66.27 58 65.74 57.59 65.74 56.69V54.06H64.73V53.39H65.74V52.35L66.57 52.09V53.4H67.76V54.07Z" fill="black" fill-opacity="0.75"/>
<path d="M72.69 56.88C72.49 57.05 71.85 57.33 71.31 57.33C70.52 57.33 69.83 56.72 69.83 55.83H73.04C73.04 54.38 72.55 53.29 71.06 53.29C69.79 53.29 68.95 54.23 68.95 55.57C68.95 57.03 69.68 58 71.28 58C72.02 58 72.38 57.82 72.7 57.71V56.88M69.83 55.22C69.89 54.64 70.23 53.97 71.04 53.97C71.75 53.97 72.16 54.54 72.16 55.22H69.83Z" fill="black" fill-opacity="0.75"/>
<path d="M77.44 54.16C77.12 54.03 76.8 53.97 76.54 53.97C75.62 53.97 75.09 54.8 75.09 55.65C75.09 56.45 75.52 57.33 76.59 57.33C76.87 57.33 77.23 57.24 77.48 57.07L77.54 57.81C77.19 57.97 76.8 57.99 76.5 57.99C75.14 57.99 74.21 56.92 74.21 55.64C74.21 54.27 75.13 53.28 76.5 53.28C76.84 53.28 77.27 53.36 77.51 53.46L77.44 54.15" fill="black" fill-opacity="0.75"/>
<path d="M78.9399 51.28H79.7699V54.04H79.7899C80.0899 53.57 80.6099 53.29 81.2399 53.29C82.3999 53.29 82.9199 54.01 82.9199 55.22V57.89H82.0899V55.56C82.0899 54.51 81.8599 54 81.1399 53.96C80.1999 53.96 79.7699 54.72 79.7699 55.81V57.89H78.9399V51.28Z" fill="black" fill-opacity="0.75"/>
<path d="M84.77 53.4H85.57V54.11H85.59C85.84 53.6 86.44 53.29 87.06 53.29C88.22 53.29 88.74 54.01 88.74 55.22V57.89H87.91V55.56C87.91 54.51 87.68 54 86.96 53.96C86.02 53.96 85.59 54.72 85.59 55.81V57.89H84.76V53.39" fill="black" fill-opacity="0.75"/>
<path d="M91.5799 51.46V52.39H90.6499V51.46H91.5799ZM91.5299 53.4V57.9H90.6999V53.4H91.5299Z" fill="black" fill-opacity="0.75"/>
<path d="M93.49 51.28H94.32V55.23L96.12 53.4H97.25L95.16 55.39L97.52 57.9H96.32L94.32 55.59V57.9H93.49V51.28Z" fill="black" fill-opacity="0.75"/>
<path d="M18.68 51.45V52.58H17.5V51.45H18.68ZM18.68 53.41V57.95H17.5V53.41H18.68Z" fill="black" fill-opacity="0.75"/>
<path d="M23.8899 53.4101H25.0099V54.0301H25.0299C25.3999 53.5101 25.8999 53.3101 26.5199 53.3101C27.5999 53.3101 28.0599 54.0701 28.0599 55.0901V57.9601H26.8799V55.5401C26.8799 54.9901 26.8799 54.2401 26.1099 54.2401C25.2499 54.2401 25.0699 55.1701 25.0699 55.7501V57.9701H23.8899V53.4301" fill="black" fill-opacity="0.75"/>
<path d="M32.96 55.71C32.96 57.02 33.83 58.0601 35.33 58.0601C36.83 58.0601 37.71 57.02 37.71 55.71C37.71 54.21 36.68 53.3 35.33 53.3C33.98 53.3 32.96 54.21 32.96 55.71ZM34.19 55.57C34.19 54.89 34.56 54.2201 35.33 54.2201C36.1 54.2201 36.48 54.87 36.48 55.57C36.48 56.33 36.24 57.14 35.33 57.14C34.42 57.14 34.19 56.32 34.19 55.57Z" fill="black" fill-opacity="0.75"/>
<path d="M42.2301 53.41H43.6201L44.5101 54.89L45.3901 53.41H46.6401L45.2801 55.57L46.8101 57.95H45.4001L44.3901 56.25L43.3701 57.95H42.0701L43.6301 55.57L42.2301 53.41Z" fill="black" fill-opacity="0.75"/>
<path d="M52.3701 50.58V58.08H59.8701V50.58H52.3701ZM58.7301 55.23H56.9001V57.03H55.2401V55.23H53.5101V53.47H55.2401V51.67H56.9001V53.47H58.7301V55.23Z" fill="black" fill-opacity="0.75"/>
</g>
<defs>
<clipPath id="clip0_21_2317">
<rect width="112.45" height="62.47" fill="white"/>
</clipPath>
</defs>
</svg>
