<svg width="132" height="38" viewBox="0 0 132 38" fill="none" xmlns="http://www.w3.org/2000/svg">
<g clip-path="url(#clip0_21_2368)">
<path d="M36.96 0H0.31C0.13 0 0 0.15 0 0.31V36.96C0 37.14 0.12 37.27 0.31 37.27H36.96C37.14 37.27 37.27 37.15 37.27 36.96V0.31C37.27 0.13 37.15 0 36.96 0ZM12.51 25.73C11.53 25.36 8.76 21.18 10.6 15.49C10.72 15.09 11.25 13.74 12.11 13.61C12.6 13.55 13.06 13.86 13.52 14.59C13.74 14.9 13.92 15.05 14.01 15.05H14.04C14.22 14.96 14.38 14.34 14.53 13.73C14.75 12.87 15.05 11.73 15.64 10.66C15.73 10.51 16.47 9.21 17.39 9.09C18.04 9 18.56 9.49 18.93 10.57C19.11 11.06 19.21 11.28 19.36 11.25C19.39 11.25 19.42 11.25 19.48 11.22C19.73 11.1 20.03 10.76 20.4 10.36C21.08 9.62 21.97 8.58 23.35 8.24C23.44 8.24 23.53 8.21 23.6 8.21C24.31 8.15 24.95 8.46 25.26 9.04C25.69 9.84 25.48 10.88 24.65 11.84L24.59 11.9H24.5C24.22 11.87 23.92 11.9 23.73 11.93C21.39 12.24 15.64 14.14 12.57 25.49L12.51 25.74V25.73ZM26.01 18.17C25.33 18.88 23.24 19.98 21.28 20.48C20.57 20.63 20.42 20.76 20.42 20.82C20.42 20.85 20.48 20.94 20.91 21.13C20.97 21.16 21.03 21.16 21.06 21.19C22.38 21.84 23.03 22.64 23 23.59C22.97 25.34 20.63 27.13 18.97 27.83C17.19 28.6 14.79 29.09 13.44 28.81L13.47 28.63C16.3 16.49 21.19 14.09 23.83 13.75C24.17 13.72 24.44 13.72 24.66 13.72C25.52 13.75 26.69 14.27 27.06 15.2C27.34 15.81 27.34 16.83 26.01 18.18V18.17Z" fill="black" fill-opacity="0.75"/>
<path d="M50.0198 8.94995C50.0198 8.82995 50.1398 8.69995 50.2698 8.69995H58.1098C61.2198 8.69995 63.5798 10.88 63.5798 13.87C63.5798 15.5 62.8698 16.82 61.6698 17.53C61.4898 17.62 61.5198 17.9 61.7298 17.96C63.9698 18.64 65.1098 20.42 65.1098 22.6C65.1098 26.04 62.4398 28.53 58.7798 28.53H50.2898C50.1698 28.53 50.0398 28.41 50.0398 28.28L50.0098 8.93995L50.0198 8.94995ZM57.2498 16.64C58.6298 16.64 59.6798 15.69 59.6798 14.43C59.6798 13.17 58.6298 12.31 57.2798 12.31H54.5098C54.3898 12.31 54.2598 12.43 54.2598 12.56V16.4C54.2598 16.52 54.3798 16.65 54.5098 16.65H57.2498V16.64ZM58.0498 24.97C59.7698 24.97 60.9698 23.86 60.9698 22.33C60.9698 20.95 59.7998 19.87 58.0198 19.87H54.5198C54.3998 19.87 54.2698 19.99 54.2698 20.12V24.7299C54.2698 24.85 54.3898 24.9799 54.5198 24.9799H58.0598L58.0498 24.97Z" fill="black" fill-opacity="0.75"/>
<path d="M79.2299 8.32996C85.0699 8.32996 89.8398 12.79 89.8398 18.63C89.8398 24.47 85.0399 28.96 79.2299 28.96C73.4199 28.96 68.5898 24.53 68.5898 18.63C68.5898 12.73 73.3599 8.32996 79.2299 8.32996ZM79.2299 25.06C82.8899 25.06 85.5898 22.29 85.5898 18.6C85.5898 14.91 82.8799 12.2 79.2299 12.2C75.5799 12.2 72.8298 14.97 72.8298 18.6C72.8298 22.29 75.5699 25.06 79.2299 25.06Z" fill="black" fill-opacity="0.75"/>
<path d="M95.1299 8.69995H108.1C108.22 8.69995 108.35 8.81995 108.35 8.94995V12.3C108.35 12.42 108.23 12.55 108.1 12.55H99.3399C99.2199 12.55 99.0899 12.67 99.0899 12.8V16.21C99.0899 16.33 99.2099 16.46 99.3399 16.46H105.27C105.39 16.46 105.52 16.58 105.52 16.71V19.97C105.52 20.09 105.4 20.22 105.27 20.22H99.3399C99.2199 20.22 99.0899 20.34 99.0899 20.47V24.5C99.0899 24.62 99.2099 24.75 99.3399 24.75H108.32C108.44 24.75 108.57 24.87 108.57 25V28.35C108.57 28.47 108.45 28.6 108.32 28.6H95.1299C95.0099 28.6 94.8799 28.48 94.8799 28.35V8.94995C94.8799 8.79995 94.9999 8.69995 95.1299 8.69995Z" fill="black" fill-opacity="0.75"/>
<path d="M114.46 8.69995H118C118.06 8.69995 118.15 8.72995 118.18 8.78995L127.19 20.47C127.34 20.65 127.62 20.56 127.62 20.32V8.94995C127.62 8.82995 127.74 8.69995 127.87 8.69995H131.62C131.74 8.69995 131.87 8.81995 131.87 8.94995V28.32C131.87 28.44 131.75 28.57 131.62 28.57H128.39C128.33 28.57 128.24 28.5399 128.21 28.4799L118.89 16.46C118.74 16.28 118.46 16.37 118.46 16.61V28.32C118.46 28.44 118.34 28.57 118.21 28.57H114.46C114.34 28.57 114.21 28.4499 114.21 28.32V8.94995C114.21 8.79995 114.3 8.69995 114.46 8.69995Z" fill="black" fill-opacity="0.75"/>
</g>
<defs>
<clipPath id="clip0_21_2368">
<rect width="131.87" height="37.26" fill="white"/>
</clipPath>
</defs>
</svg>
