<svg width="129" height="29" viewBox="0 0 129 29" fill="none" xmlns="http://www.w3.org/2000/svg">
<g clip-path="url(#clip0_21_2243)">
<path d="M55.1753 14.1141C55.1753 14.1141 57.7931 13.2093 57.7931 10.2019C57.7931 6.68004 55.3246 4.94128 51.925 4.94128H43.0176V24.0676H52.6981C55.676 24.0676 58.5924 21.9651 58.5924 18.7449C58.5924 14.9214 55.1665 14.1407 55.1665 14.1141H55.1753ZM47.6646 8.90672H51.1169C52.1886 8.90672 52.9001 9.62529 52.9001 10.7076C52.9001 11.5503 52.2413 12.4552 51.0202 12.4552H47.6206V8.90672H47.647H47.6646ZM51.152 20.0667H47.6997V16.3053H51.0642C52.7596 16.3053 53.5677 17.0594 53.5677 18.1683C53.5677 19.5522 52.5575 20.0667 51.152 20.0667Z" fill="black" fill-opacity="0.75"/>
<path d="M68.8438 4.45337C63.3623 4.45337 60.1472 8.8801 60.1472 14.469C60.1472 20.0578 63.3623 24.4846 68.8438 24.4846C74.3254 24.4846 77.5405 20.0933 77.5405 14.469C77.5405 8.87123 74.3517 4.45337 68.8438 4.45337ZM68.8438 19.9159C66.1646 19.9159 64.8206 17.4763 64.8206 14.469C64.8206 11.4616 66.1646 9.05753 68.8438 9.05753C71.5231 9.05753 72.8935 11.4971 72.8935 14.469C72.8935 17.4763 71.5231 19.9159 68.8438 19.9159Z" fill="black" fill-opacity="0.75"/>
<path d="M87.6426 12.4286L86.9838 12.2778C85.3762 11.9496 84.0937 11.5237 84.0937 10.3527C84.0937 9.09302 85.3147 8.57849 86.3865 8.57849C87.9677 8.57849 89.3644 9.35916 90.2604 10.3527L93.212 7.40749C91.868 5.87277 89.6982 4.40015 86.2986 4.40015C82.3105 4.40015 79.2974 6.65343 79.2974 10.4148C79.2974 13.848 81.7395 15.5335 84.7174 16.1634L85.3762 16.3142C87.8447 16.8287 88.7758 17.2191 88.7758 18.4167C88.7758 19.6143 87.7656 20.3151 86.2108 20.3151C84.366 20.3151 82.697 19.499 81.4144 17.8489L78.4014 20.8562C80.0704 22.87 82.1875 24.4402 86.2635 24.4402C89.8124 24.4402 93.5897 22.391 93.5897 18.2126C93.6161 13.848 90.3395 13.0052 87.6339 12.4375L87.6426 12.4286Z" fill="black" fill-opacity="0.75"/>
<path d="M104.184 19.9159C102.102 19.9159 99.9233 18.1683 99.9233 14.3537C99.9233 10.956 101.953 9.05757 104.061 9.05757C105.73 9.05757 106.714 9.83823 107.487 11.1955L111.299 8.64062C109.393 5.72199 107.127 4.48889 103.999 4.48889C98.2806 4.48889 95.1797 8.96885 95.1797 14.3892C95.1797 20.0756 98.6056 24.529 103.938 24.529C107.689 24.529 109.481 23.2072 111.413 20.3772L107.575 17.7602C106.802 19.0199 105.967 19.9248 104.175 19.9248L104.184 19.9159Z" fill="black" fill-opacity="0.75"/>
<path d="M124.019 4.90576V11.9406H118.274V4.90576H113.293V24.041H118.274V16.4827H124.019V24.041H129V4.90576H124.019Z" fill="black" fill-opacity="0.75"/>
<path d="M14.3626 0C6.43902 0 0 6.5026 0 14.5044C0 22.5063 6.43902 29.0089 14.3626 29.0089C22.2862 29.0089 28.7252 22.5063 28.7252 14.5044C28.7252 6.5026 22.2862 0 14.3626 0ZM14.3626 27.6516C7.1857 27.6516 1.34402 21.7522 1.34402 14.5044C1.34402 7.25665 7.17692 1.3573 14.3626 1.3573C21.5483 1.3573 27.3812 7.25665 27.3812 14.5044C27.3812 21.7522 21.5395 27.6516 14.3626 27.6516Z" fill="black" fill-opacity="0.75"/>
<path d="M20.2921 5.4469H19.3082V10.4148H9.44324V5.4469H8.43303C5.54294 7.39857 3.61035 10.7075 3.61035 14.5044C3.61035 18.3013 5.54294 21.6014 8.43303 23.5619H9.44324V18.594H19.3082V23.5619H20.2921C23.2085 21.6103 25.1147 18.3013 25.1147 14.5044C25.1147 10.7075 23.2085 7.40744 20.2921 5.4469ZM8.07286 21.6014C6.07879 19.8271 4.91924 17.2722 4.91924 14.5044C4.91924 11.7366 6.07879 9.18168 8.07286 7.40744V21.6014ZM19.3082 17.2101H9.44324V11.7632H19.3082V17.2101ZM20.6522 21.5748V18.5674V10.4059V7.39857C22.62 9.17281 23.7795 11.7277 23.7795 14.4689C23.7795 17.2101 22.62 19.7917 20.6522 21.5659V21.5748Z" fill="black" fill-opacity="0.75"/>
</g>
<defs>
<clipPath id="clip0_21_2243">
<rect width="129" height="29" fill="white"/>
</clipPath>
</defs>
</svg>
