<svg width="124" height="32" viewBox="0 0 124 32" fill="none" xmlns="http://www.w3.org/2000/svg">
<g clip-path="url(#clip0_21_2224)">
<path d="M9.32012 6.17004C10.2201 6.17004 10.7001 6.65004 10.7601 7.62004V30.12C10.6901 31.08 10.2101 31.57 9.32012 31.57C8.43012 31.57 7.91012 31.09 7.87012 30.12V7.62004C7.90012 6.66004 8.39012 6.17004 9.32012 6.17004Z" fill="black" fill-opacity="0.75"/>
<path d="M10.76 1.45C10.76 2.34 10.28 2.83 9.31 2.9H1.44C0.48 2.83 0 2.35 0 1.45C0 0.55 0.48 0.03 1.44 0H9.31C10.27 0.03 10.76 0.52 10.76 1.45Z" fill="black" fill-opacity="0.75"/>
<path d="M15.8599 6.12C16.2699 6.12 16.6499 6.28 16.9899 6.58C29.3399 18.9 35.7999 25.33 36.3499 25.88C36.6199 26.16 36.8099 26.29 36.9199 26.29C37.0899 26.29 37.1599 26.15 37.1299 25.88V7.57C37.1999 6.61 37.6799 6.12 38.5699 6.12C39.4599 6.12 39.9999 6.6 40.0699 7.57V30.07C39.9999 30.9 39.6199 31.38 38.9299 31.51C38.7899 31.54 38.6499 31.56 38.5199 31.56C38.1399 31.56 37.7799 31.4 37.4399 31.1L18.3899 12.06C18.0399 11.72 17.7699 11.54 17.5599 11.54C17.3499 11.54 17.2699 11.73 17.2999 12.11V30.12C17.2299 31.09 16.7499 31.57 15.8499 31.57C14.9499 31.57 14.4399 31.09 14.3999 30.12V7.57C14.4299 6.64 14.9199 6.16 15.8499 6.12" fill="black" fill-opacity="0.75"/>
<path d="M53.7801 10.9799C53.7801 9.87994 53.0601 9.23994 51.6101 9.06994H43.8701C42.8701 8.99994 42.3701 8.51994 42.3701 7.62994C42.3701 6.73994 42.8701 6.24994 43.8701 6.18994H66.3201C67.3201 6.25994 67.8201 6.73994 67.8201 7.62994C67.8201 8.51994 67.3201 9.00994 66.3201 9.06994H58.8901C57.4101 9.06994 56.6701 9.65994 56.6701 10.8299V30.1199C56.6001 31.0799 56.1201 31.5599 55.2301 31.5599C54.3401 31.5599 53.8201 31.0799 53.7801 30.1199V10.9799Z" fill="black" fill-opacity="0.75"/>
<path d="M71.69 6.17004C72.55 6.17004 73.02 6.63004 73.08 7.56004V18.81C73.08 21.56 74.04 23.91 75.97 25.86C77.9 27.8 80.24 28.78 82.99 28.78C85.74 28.78 88.11 27.8 90.09 25.84C92.07 23.88 93.06 21.54 93.06 18.82V7.57004C93.13 6.64004 93.59 6.18004 94.45 6.18004C95.31 6.18004 95.77 6.64004 95.84 7.57004V18.82C95.84 22.33 94.58 25.33 92.05 27.83C89.52 30.32 86.5 31.57 82.99 31.57C79.48 31.57 76.49 30.32 74.01 27.83C71.53 25.33 70.29 22.33 70.29 18.82V7.57004C70.36 6.64004 70.82 6.18004 71.68 6.18004" fill="black" fill-opacity="0.75"/>
<path d="M98.8299 16.1401C99.4499 13.2501 100.92 10.8701 103.24 8.99005C105.56 7.11005 108.22 6.18005 111.21 6.18005C114.72 6.18005 117.72 7.42005 120.22 9.90005C122.71 12.3801 123.96 15.3701 123.96 18.8801C123.96 22.3901 122.71 25.3801 120.22 27.8601C117.72 30.3401 114.72 31.5801 111.21 31.5801C108.22 31.5801 105.57 30.6601 103.29 28.8201C101 26.9801 99.5099 24.5801 98.8299 21.6201C98.6199 20.6901 99.0899 20.2301 100.22 20.2301C101.08 20.2301 101.54 20.6901 101.61 21.6201C102.26 23.7201 103.48 25.4401 105.25 26.7801C107.02 28.1201 109.01 28.7901 111.21 28.7901C113.96 28.7901 116.3 27.8201 118.23 25.8701C120.16 23.9301 121.12 21.5901 121.12 18.8801C121.12 16.1701 120.16 13.7901 118.23 11.8601C116.3 9.93005 113.96 8.97005 111.21 8.97005C108.97 8.97005 106.98 9.64005 105.22 10.9801C103.47 12.3201 102.3 14.0401 101.71 16.1401C101.5 17.0701 101.02 17.5301 100.26 17.5301C99.0899 17.5301 98.6099 17.0701 98.8199 16.1401" fill="black" fill-opacity="0.75"/>
</g>
<defs>
<clipPath id="clip0_21_2224">
<rect width="123.96" height="31.57" fill="white"/>
</clipPath>
</defs>
</svg>
