<svg width="134" height="124" viewBox="0 0 134 124" fill="none" xmlns="http://www.w3.org/2000/svg">
<g clip-path="url(#clip0_20_2125)">
<path d="M134 88.6081C133.329 89.6034 132.403 89.9411 131.211 89.9094C128.698 89.8461 126.178 89.8883 123.536 89.8883V91.4358C123.536 101.35 123.536 111.268 123.536 121.183C123.536 123.399 122.959 123.997 120.758 123.997C84.134 124 47.5104 123.997 10.8868 123.997C8.56266 123.997 8.02444 123.455 8.02444 121.13C8.02094 106.214 8.01046 91.2951 8.0489 76.3794C8.0489 75.2434 7.7728 74.737 6.64044 74.3606C2.75405 73.0558 0.153805 69.3911 0.0734215 65.2761C0.0209972 62.6876 0.0454619 60.0991 0.0629366 57.5105C0.0734215 56.1143 0.901725 55.2174 2.07253 55.2526C3.19092 55.2878 3.95981 56.153 3.97379 57.4894C3.99825 60.0322 3.94233 62.5786 3.99476 65.1249C4.07165 68.7404 7.08779 71.3606 10.747 70.8999C10.747 70.4497 10.747 69.9819 10.747 69.5106C10.747 61.6993 10.747 53.8915 10.747 46.0802C10.747 45.6406 10.719 45.1974 10.7785 44.7648C10.9148 43.773 11.5089 43.1786 12.491 43.0731C13.4766 42.9676 14.2035 43.4248 14.5006 44.3815C14.6509 44.8703 14.6614 45.4155 14.6649 45.936C14.6753 53.7473 14.6718 61.5551 14.6718 69.3664C14.6718 69.8799 14.6718 70.3934 14.6718 70.9702H36.7005V69.4614C36.7005 61.52 36.7005 53.5785 36.7005 45.637C36.7005 45.3311 36.7075 45.0216 36.7005 44.7156C36.6691 43.7202 36.9347 42.8867 37.9203 42.4541C38.9233 42.0145 39.6677 42.4647 40.3632 43.1646C44.2741 47.1072 48.1954 51.0427 52.1133 54.9783C54.3361 57.2116 56.5589 59.4414 58.7747 61.6747C59.8266 62.7368 61.0673 63.289 62.5597 62.9619C63.9996 62.6419 65.1879 61.8892 65.5968 60.3839C66.0407 58.7556 65.6807 57.2468 64.4714 56.0193C61.4902 53.0017 58.4951 49.9946 55.5034 46.9876C50.8446 42.3064 46.1649 37.6463 41.541 32.93C40.3597 31.7237 39.0841 31.0097 37.3786 31.182C37.0326 31.2172 36.6796 31.2102 36.3336 31.182C34.4323 31.0378 32.8037 31.4599 31.0772 32.508C26.6455 35.1985 21.9378 35.1281 17.5901 32.3462C15.5141 31.0167 13.508 30.9851 11.3971 31.3966C7.02488 32.2512 4.0367 36.0109 3.98777 40.4986C3.95981 42.9535 3.99126 45.4119 3.97728 47.8703C3.9668 49.351 3.2713 50.181 2.07603 50.2092C0.824836 50.2408 0.0629366 49.3756 0.0664316 47.8492C0.0699265 44.909 -0.136276 41.9441 0.181765 39.0391C0.894735 32.5255 5.58147 28.1257 12.4386 27.1937C9.94666 20.8912 11.2608 14.3073 11.128 7.84652C11.0406 3.80545 14.6194 0.320076 18.6561 0.133674C22.3537 -0.0386608 26.0689 -0.0245927 29.77 0.0914693C34.2191 0.232151 37.6302 3.36583 37.8329 7.84301C38.0566 12.7422 37.9063 17.6661 37.728 22.5688C37.6721 24.0952 37.0046 25.597 36.5992 27.1832C36.9487 27.1972 37.3646 27.243 37.7805 27.2324C40.2898 27.1656 42.3239 28.1504 44.0749 29.9229C49.6109 35.522 55.1749 41.0895 60.7283 46.671C61.0604 47.0052 61.4099 47.3182 61.8537 47.7367C63.5313 46.0345 65.1529 44.392 66.7746 42.7531C67.0822 42.4436 67.3722 42.1059 67.7252 41.8527C68.6164 41.2091 69.5251 41.2196 70.336 41.9934C71.1538 42.7742 71.1538 43.8785 70.2731 44.807C68.7667 46.3932 67.208 47.9266 65.6562 49.4671C65.3172 49.8047 64.9153 50.079 64.6706 50.2795C66.4601 52.5093 68.1062 54.5597 69.8851 56.772C73.2752 53.3042 76.8785 49.6148 80.4853 45.9325C81.3101 45.0884 82.1594 44.2654 82.9772 43.4143C83.6972 42.6687 84.4346 41.9617 85.5879 42.4119C86.7797 42.8762 86.909 43.8891 86.9055 45.0075C86.8881 51.2819 86.8985 57.5563 86.8985 63.8306C86.8985 66.1519 86.8985 68.4731 86.8985 70.9069H108.924C108.924 70.4427 108.924 69.9362 108.924 69.4333C108.924 61.5797 108.924 53.7262 108.931 45.8727C108.931 45.3557 108.952 44.807 109.112 44.3217C109.431 43.3685 110.241 42.8058 111.14 43.1259C111.797 43.358 112.342 44.0931 112.779 44.7156C112.988 45.011 112.842 45.5667 112.842 46.0063C112.842 53.8176 112.842 61.6255 112.842 69.4368V70.935H119.608C119.608 70.4602 119.608 69.9925 119.608 69.5282C119.608 60.0956 119.608 50.6629 119.608 41.2302C119.608 35.0332 115.697 31.1293 109.535 31.2137C108.938 31.2207 108.253 31.4493 107.76 31.794C102.877 35.2266 96.8207 35.2301 91.9767 31.801C91.4804 31.4493 90.8164 31.2313 90.2048 31.1609C89.1703 31.0413 88.1183 31.0625 87.0733 31.0695C84.7806 31.08 82.8689 31.8714 81.3241 33.6721C80.0729 35.1317 78.647 36.4365 77.27 37.78C76.2389 38.7894 75.1101 38.8492 74.2713 38.0016C73.443 37.168 73.5129 36.0074 74.5159 34.9804C76.2879 33.1656 78.0738 31.3614 79.8772 29.5783C81.4744 27.9991 83.3966 27.1902 85.6508 27.2324C86.3463 27.2465 87.0418 27.2324 87.7199 27.2324C87.7758 27.1093 87.8562 27.0108 87.8352 26.9651C86.57 24.3203 86.3359 21.5137 86.3918 18.6262C86.4582 15.38 86.3918 12.1338 86.4093 8.88757C86.4337 3.74918 89.8588 0.172361 94.9614 0.052782C98.2292 -0.0245927 101.504 -0.0245927 104.772 0.052782C109.878 0.172361 113.292 3.74215 113.313 8.8946C113.327 12.4046 113.275 15.9146 113.331 19.4246C113.373 22.0975 113.034 24.6685 111.741 27.1656C112.157 27.2816 112.506 27.4047 112.866 27.4786C119.167 28.7904 123.498 34.073 123.522 40.6253C123.561 50.2338 123.533 59.8423 123.533 69.4509C123.533 69.9257 123.533 70.3969 123.533 71.0159C126.122 71.0159 128.593 71.0511 131.064 71.0019C132.274 70.9772 133.294 71.2199 134 72.2856V88.6081ZM40.6953 89.8918V119.945H119.545V89.8918H117.944C107.264 89.8918 96.5831 89.8918 85.899 89.8848C85.3398 89.8848 84.7526 89.8778 84.2249 89.7125C83.2743 89.4135 82.8444 88.675 82.9458 87.6796C83.0506 86.6738 83.6517 86.104 84.6338 85.9739C85.0637 85.9176 85.5041 85.9457 85.9409 85.9457C100.109 85.9457 114.278 85.9457 128.447 85.9457H129.981V75.0465H40.7092V85.9457H42.3379C52.9765 85.9457 63.6117 85.9457 74.2503 85.9457C74.6872 85.9457 75.124 85.9211 75.5574 85.9668C76.5465 86.0688 77.1651 86.6245 77.2909 87.6234C77.4237 88.6785 76.9554 89.4346 75.9489 89.7406C75.4631 89.8883 74.9178 89.8848 74.4006 89.8848C63.72 89.8918 53.0394 89.8918 42.3554 89.8918H40.6918H40.6953ZM22.3468 119.98C22.3468 119.4 22.3468 118.886 22.3468 118.376C22.3468 107.016 22.3468 95.6563 22.3468 84.2962C22.3468 82.5483 23.0597 81.5776 24.3144 81.5705C25.5761 81.5635 26.2576 82.5026 26.2681 84.2751C26.2681 84.5389 26.2681 84.8027 26.2681 85.063C26.2681 96.1592 26.2681 107.259 26.2681 118.355C26.2681 118.869 26.2681 119.382 26.2681 119.973H36.6236V75.064H12.0576V119.98H22.3468ZM40.6638 70.9667H82.8654V49.0063C80.3875 51.521 78.1367 53.8388 75.8545 56.1213C72.9467 59.0264 70.1367 62.044 67.0577 64.7556C63.3111 68.0546 59.2884 67.7416 55.7725 64.214C51.1102 59.5363 46.4584 54.8481 41.7997 50.1705C41.4816 49.8504 41.1496 49.548 40.6638 49.0872V70.9667ZM24.4857 3.99186C24.4857 3.99186 24.4857 3.99186 24.4857 3.99537C22.8291 3.99537 21.1725 3.95317 19.5193 4.00593C16.7443 4.09385 14.9934 5.91919 14.9689 8.70116C14.9479 10.8923 14.9479 13.0834 14.9689 15.278C14.9969 18.0776 16.7164 19.924 19.4984 19.9873C22.8081 20.0612 26.1213 20.0612 29.431 19.9908C32.2025 19.9346 33.95 18.0952 34.0024 15.2991C34.0409 13.108 34.0409 10.9134 34.0024 8.72227C33.9535 5.86995 32.1676 4.07275 29.3192 3.99889C27.708 3.95669 26.0968 3.99186 24.4857 3.99186ZM90.3586 15.8232C90.3586 17.5711 90.2502 19.502 90.376 21.4152C90.8548 28.6427 98.7429 32.7928 104.796 29.0015C108.826 26.4762 109.941 22.5125 109.196 17.1948C104.723 17.7012 100.536 16.9873 97.3834 14.1631C94.881 14.754 92.7141 15.2675 90.355 15.8267L90.3586 15.8232ZM90.3446 11.4058C92.4555 11.7504 94.168 11.1736 95.7408 10.0095C97.0654 9.02825 97.8517 9.05287 98.9422 10.21C101.577 13.013 104.859 13.7411 108.501 13.2663C108.833 13.2241 109.326 12.6684 109.35 12.3202C109.448 11.0119 109.431 9.68945 109.375 8.3776C109.273 5.95436 107.55 4.1044 105.146 4.0411C101.619 3.94614 98.0824 3.94965 94.556 4.0411C92.2074 4.1044 90.5018 5.91216 90.3515 8.26857C90.2886 9.26741 90.3411 10.2768 90.3411 11.4058H90.3446ZM15.3219 23.2652C16.4158 27.6439 20.435 30.651 25.0204 30.4083C29.1829 30.1867 33.0518 26.8842 33.5656 23.2793C27.5123 24.3379 21.4381 24.3379 15.3219 23.2652Z" fill="black" fill-opacity="0.75"/>
</g>
<defs>
<clipPath id="clip0_20_2125">
<rect width="134" height="124" fill="white"/>
</clipPath>
</defs>
</svg>
