<svg width="108" height="28" viewBox="0 0 108 28" fill="none" xmlns="http://www.w3.org/2000/svg">
<g clip-path="url(#clip0_22_5349)">
<path d="M43.8301 0H35.4001C30.7501 0.06 27.0201 3.85 27.0401 8.5V18.76C27.0201 23.41 30.7601 27.2 35.4001 27.26H43.8501C48.5001 27.2 52.2301 23.41 52.2101 18.76V8.52C52.2401 3.85 48.4901 0.05 43.8301 0ZM46.1101 17.94C46.1301 20.27 44.2601 22.17 41.9301 22.2H37.1101C34.7801 22.17 32.9101 20.27 32.9301 17.94V9.71C32.9101 7.38 34.7801 5.48 37.1101 5.45H41.9301C44.2601 5.48 46.1301 7.38 46.1101 9.71V17.95V17.94Z" fill="black" fill-opacity="0.75"/>
<path d="M70.1802 21.41H61.9702C61.6402 21.41 61.3702 21.14 61.3702 20.81V0.0100098H54.4502V23.22C54.4502 25.46 56.2602 27.27 58.5002 27.27H70.1802V21.41Z" fill="black" fill-opacity="0.75"/>
<path d="M72.8701 4.31002C72.8701 1.94002 74.7901 0.0200195 77.1601 0.0200195H89.1901V6.09002H80.0601C79.8101 6.09002 79.6101 6.29002 79.6001 6.54002V11.34H89.1701V16.72H79.5801V27.27H72.8501L72.8701 4.31002Z" fill="black" fill-opacity="0.75"/>
<path d="M91.3699 4.31002C91.3699 1.94002 93.2899 0.0200195 95.6599 0.0200195H107.7V6.09002H98.5699C98.3299 6.10002 98.1399 6.30002 98.1299 6.54002V11.34H107.7V16.72H98.1099V27.27H91.3599L91.3799 4.31002H91.3699Z" fill="black" fill-opacity="0.75"/>
<path d="M9.91 2.89996C8.63 0.31996 5.5 -0.73004 2.93 0.53996C1.14 1.42996 0.02 3.24996 0.03 5.24996L0 27.02H6.26V9.02996L15.24 24.81C16.76 27.24 19.96 27.98 22.39 26.46C23.91 25.51 24.83 23.85 24.83 22.06V0.05996H18.34V18.76L9.91 2.89996Z" fill="black" fill-opacity="0.75"/>
</g>
<defs>
<clipPath id="clip0_22_5349">
<rect width="107.7" height="27.27" fill="white"/>
</clipPath>
</defs>
</svg>
