<svg width="100" height="47" viewBox="0 0 100 47" fill="none" xmlns="http://www.w3.org/2000/svg">
<g clip-path="url(#clip0_21_2375)">
<path fill-rule="evenodd" clip-rule="evenodd" d="M85.0499 5.63C88.7599 8.53 90.8399 12.69 90.1899 17.5C89.6199 21.95 86.8899 26.84 82.3199 28.55C77.9999 30.39 72.6499 30.92 67.7999 29.77C67.3899 29.73 67.2699 29.24 67.1499 28.87C66.9899 27.81 67.4799 26.71 67.8799 25.73L68.1699 25.49C74.2099 26.55 80.8099 26.02 85.7099 22.63C87.7899 21.04 89.0499 18.67 88.3599 16.06C86.6899 9.98 80.0799 7.58 74.8199 5.99C63.8899 3.34 51.1199 4.48 42.5599 11.62C42.2699 11.62 42.1499 11.33 42.1099 11.13C42.1899 9.29 42.8799 7.7 44.1899 6.4C49.0299 2.32 55.0699 1.06 61.2699 0.2C62.7799 0.04 64.2499 0 65.7199 0C72.7799 0.04 79.4699 1.71 85.0499 5.63Z" fill="black" fill-opacity="0.75"/>
<path d="M0 45.6799V39.0299H1.02V40.0899C1.39 39.6799 1.79 39.3599 2.33 39.1499C2.86 38.9499 3.43 38.8199 4.12 38.8199C4.77 38.8199 5.3 38.8999 5.79 39.0599C6.28 39.2199 6.65 39.4699 6.89 39.7499C7.01 39.9099 7.13 40.0799 7.18 40.3199C7.22 40.5199 7.26 40.8899 7.26 41.3799V45.6199H6.16V41.4999C6.16 40.7299 6 40.1899 5.67 39.9099C5.34 39.6199 4.73 39.4999 3.92 39.4999C3.06 39.4999 2.37 39.6999 1.88 40.0699C1.39 40.4799 1.15 41.0099 1.15 41.6599V45.5799H0V45.6599V45.6799Z" fill="black" fill-opacity="0.75"/>
<path d="M16.1502 42.22C15.8602 42.3 15.5002 42.34 15.0502 42.38C14.6002 42.42 13.9102 42.46 12.8902 42.5C12.2002 42.62 11.7102 42.83 11.3402 43.03C10.9702 43.27 10.8102 43.56 10.8102 43.89C10.8102 44.26 11.0102 44.58 11.3802 44.79C11.7502 45 12.2802 45.12 12.8902 45.12C13.8702 45.12 14.6402 44.96 15.2602 44.59C15.8302 44.22 16.1202 43.73 16.1202 43.08V42.22H16.1602H16.1502ZM16.1902 44.75C15.7002 45.12 15.1702 45.4 14.6002 45.61C14.0302 45.82 13.4202 45.9 12.7602 45.9C11.8202 45.9 11.0902 45.74 10.5202 45.37C9.9502 45 9.7002 44.55 9.7002 43.98C9.7002 43.61 9.8202 43.29 10.0702 43C10.3102 42.71 10.6802 42.51 11.1702 42.35C11.7402 42.19 12.6402 42.06 13.9402 41.98C14.1802 41.98 14.3902 41.94 14.5102 41.94C14.5902 41.94 14.6702 41.9 14.8002 41.9C15.7002 41.78 16.1102 41.49 16.1102 41.08C16.1102 40.55 15.9502 40.18 15.5802 39.98C15.2102 39.78 14.6402 39.65 13.8302 39.65C13.0202 39.65 12.3602 39.77 11.9102 40.02C11.4602 40.26 11.2202 40.63 11.2202 41.12H10.1602C10.2002 40.47 10.5302 39.94 11.1802 39.57C11.8302 39.2 12.7302 39 13.8302 39C14.9302 39 15.7902 39.16 16.3602 39.53C16.9302 39.86 17.2202 40.39 17.2202 41.04V44.67C17.2202 44.96 17.2602 45.12 17.3402 45.2C17.4202 45.28 17.6302 45.28 17.8702 45.28H18.2802V45.85C18.1602 45.89 17.9902 45.89 17.8702 45.89H17.5002C17.0502 45.89 16.7302 45.81 16.5202 45.65C16.3102 45.49 16.1902 45.28 16.1902 44.96V44.76V44.75Z" fill="black" fill-opacity="0.75"/>
<path d="M21.6999 37.16V39.08H23.4099V39.69H21.6999V44.54C21.6999 44.83 21.7399 45.03 21.8599 45.11C21.9399 45.19 22.1499 45.23 22.3899 45.23C22.5099 45.23 22.6299 45.23 22.7599 45.19C22.8799 45.19 23.1299 45.15 23.4099 45.11V45.72C23.1699 45.76 22.9199 45.8 22.7199 45.84C22.5199 45.88 22.3099 45.88 22.1099 45.88C21.5799 45.88 21.2099 45.8 20.9699 45.59C20.7699 45.39 20.6399 45.06 20.6399 44.53V39.68H19.3799V39.07H20.6399V37.15H21.6999V37.16Z" fill="black" fill-opacity="0.75"/>
<path d="M32.9602 39.04V45.69H31.9402V44.63C31.5702 45.04 31.1702 45.36 30.6302 45.57C30.1402 45.77 29.5302 45.9 28.8402 45.9C27.7802 45.9 27.0002 45.7 26.4702 45.33C25.9402 44.92 25.7002 44.35 25.7002 43.58V39.09H26.7602V43.37C26.7602 44.02 26.9202 44.51 27.2902 44.8C27.6602 45.09 28.2302 45.21 29.0402 45.21C29.9402 45.21 30.6302 45.01 31.1602 44.64C31.6902 44.23 31.9302 43.7 31.9302 43.05V39.13H32.9502V39.05L32.9602 39.04Z" fill="black" fill-opacity="0.75"/>
<path d="M35.9399 45.6799V39.0299H36.9599V40.1699C37.1999 39.7199 37.6099 39.3999 38.0599 39.1499C38.5499 38.9499 39.1199 38.8199 39.8099 38.8199H39.9299V39.6399H39.8099C38.8699 39.6399 38.1799 39.8399 37.7299 40.2099C37.2799 40.6199 37.0399 41.1899 37.0399 41.9599V45.6299H35.9399V45.6699V45.6799Z" fill="black" fill-opacity="0.75"/>
<path d="M42.62 42.38C42.62 43.28 42.91 43.97 43.44 44.46C43.97 44.95 44.75 45.19 45.76 45.19C46.77 45.19 47.55 44.95 48.08 44.46C48.61 43.97 48.9 43.28 48.9 42.38C48.9 41.48 48.61 40.79 48.08 40.3C47.55 39.81 46.77 39.57 45.76 39.57C44.75 39.57 44.01 39.81 43.44 40.3C42.91 40.79 42.62 41.48 42.62 42.38ZM41.52 42.38C41.52 41.28 41.89 40.42 42.62 39.81C43.35 39.2 44.41 38.91 45.76 38.91C47.11 38.91 48.17 39.2 48.9 39.81C49.63 40.42 50 41.28 50 42.38C50 43.48 49.63 44.34 48.9 44.95C48.17 45.56 47.11 45.85 45.76 45.85C44.41 45.85 43.35 45.56 42.62 44.95C41.89 44.34 41.52 43.48 41.52 42.38Z" fill="black" fill-opacity="0.75"/>
<path d="M66.2798 45.68V36.51H67.3798V42.3L71.9898 39.04H73.3798L69.8698 41.48L73.7898 45.68H72.5598L69.1398 42.01L67.3798 43.2V45.68H66.2798Z" fill="black" fill-opacity="0.75"/>
<path d="M76.1498 42.38C76.1498 43.28 76.4398 43.97 76.9698 44.46C77.4998 44.95 78.2798 45.19 79.2898 45.19C80.2998 45.19 81.0798 44.95 81.6098 44.46C82.1398 43.97 82.4298 43.28 82.4298 42.38C82.4298 41.48 82.1398 40.79 81.6098 40.3C81.0798 39.81 80.2998 39.57 79.2898 39.57C78.2798 39.57 77.5398 39.81 76.9698 40.3C76.3998 40.79 76.1498 41.48 76.1498 42.38ZM75.0498 42.38C75.0498 41.28 75.4198 40.42 76.1498 39.81C76.8798 39.2 77.9398 38.91 79.2898 38.91C80.6398 38.91 81.6998 39.2 82.4298 39.81C83.1598 40.42 83.5298 41.28 83.5298 42.38C83.5298 43.48 83.1598 44.34 82.4298 44.95C81.6998 45.56 80.6398 45.85 79.2898 45.85C77.9398 45.85 76.8798 45.56 76.1498 44.95C75.4198 44.34 75.0498 43.48 75.0498 42.38Z" fill="black" fill-opacity="0.75"/>
<path d="M86.02 45.6799V39.0299H87.04V40.1699C87.28 39.7199 87.69 39.3999 88.14 39.1499C88.63 38.9499 89.2 38.8199 89.89 38.8199H90.01V39.6399H89.89C88.95 39.6399 88.26 39.8399 87.81 40.2099C87.36 40.6199 87.12 41.1899 87.12 41.9599V45.6299H86.02V45.6699V45.6799Z" fill="black" fill-opacity="0.75"/>
<path d="M92.0601 45.68V36.51H93.1201V42.3L97.7701 39.04H99.1201L95.6501 41.48L99.5701 45.68H98.3401L94.8801 42.01L93.1201 43.2V45.68H92.0601Z" fill="black" fill-opacity="0.75"/>
<path fill-rule="evenodd" clip-rule="evenodd" d="M60.1199 12.56L60.0799 12.76C57.4699 13.74 54.5299 15.62 53.4699 18.39C53.0199 20.06 54.2899 21.49 55.6299 22.47C56.6899 23.37 58.0399 23.65 59.2999 24.14C59.3799 24.18 59.4999 24.34 59.3399 24.43C56.4399 24.88 53.8299 23.7 51.8299 21.62C50.8099 20.48 50.1999 18.81 50.8499 17.34C52.4799 14.24 55.7399 12.57 59.0499 12.28C59.4599 12.32 59.8199 12.28 60.1099 12.57L60.1199 12.56Z" fill="black" fill-opacity="0.75"/>
<path fill-rule="evenodd" clip-rule="evenodd" d="M60.1199 12.56L60.0799 12.76C57.4699 13.74 54.5299 15.62 53.4699 18.39C53.0199 20.06 54.2899 21.49 55.6299 22.47C56.6899 23.37 58.0399 23.65 59.2999 24.14C59.3799 24.18 59.4999 24.34 59.3399 24.43C56.4399 24.88 53.8299 23.7 51.8299 21.62C50.8099 20.48 50.1999 18.81 50.8499 17.34C52.4799 14.24 55.7399 12.57 59.0499 12.28C59.4599 12.32 59.8199 12.28 60.1099 12.57L60.1199 12.56Z" fill="black" fill-opacity="0.75"/>
<path fill-rule="evenodd" clip-rule="evenodd" d="M67.59 25.17L67.51 25.62C62.86 30.88 60 36.92 58.58 43.49C58.38 44.55 58.29 45.73 57.89 46.71C57.6 46.95 57.12 46.75 56.87 46.63L54.5 45.2C53.97 44.91 54.3 44.18 54.26 43.73C55.69 37.86 57.48 32.11 61.32 27.17C62.75 25.46 64.62 24.27 66.79 24.72C67.08 24.84 67.44 24.84 67.61 25.17H67.59Z" fill="black" fill-opacity="0.75"/>
</g>
<defs>
<clipPath id="clip0_21_2375">
<rect width="99.57" height="46.82" fill="white"/>
</clipPath>
</defs>
</svg>
