<svg width="96" height="46" viewBox="0 0 96 46" fill="none" xmlns="http://www.w3.org/2000/svg">
<g clip-path="url(#clip0_21_2390)">
<path d="M13.1602 15.13C12.9702 18.01 11.5302 19.44 8.8502 19.44H4.5202C3.3302 19.44 2.3302 19.01 1.4702 18.17C0.630195 17.33 0.200195 16.31 0.200195 15.12V4.31C0.210195 3.16 0.620195 2.14 1.4602 1.28C2.3002 0.43 3.3202 0 4.5202 0H8.8602C11.5702 0 13.0102 1.43 13.1702 4.31H10.9902C10.8202 2.88 10.1102 2.16 8.8402 2.16H6.6802C6.0902 2.16 5.5802 2.37 5.1502 2.79C4.7202 3.22 4.5202 3.71 4.5202 4.31V15.13C4.5202 15.71 4.7302 16.22 5.1502 16.63C5.5802 17.06 6.0902 17.26 6.6802 17.26H8.8402C10.1102 17.26 10.8202 16.54 10.9902 15.11H13.1502L13.1602 15.13ZM19.4002 0H23.7402C24.9302 0 25.9302 0.43 26.7902 1.28C27.6402 2.13 28.0602 3.14 28.0602 4.33V15.14C28.0602 16.31 27.6302 17.32 26.7902 18.17C25.9502 19.02 24.9302 19.45 23.7402 19.45H19.4002C18.2102 19.45 17.2102 19.02 16.3502 18.18C15.5002 17.33 15.0802 16.32 15.0802 15.13V4.33C15.0802 3.14 15.5102 2.14 16.3502 1.28C17.2102 0.43 18.2302 0 19.4002 0ZM19.4002 4.31V15.13C19.4002 15.71 19.6102 16.22 20.0302 16.65C20.4602 17.08 20.9702 17.28 21.5602 17.28C22.1502 17.28 22.6802 17.07 23.0902 16.65C23.5002 16.23 23.7202 15.73 23.7202 15.13V4.31C23.7202 3.72 23.5102 3.22 23.0702 2.79C22.6402 2.36 22.1302 2.16 21.5402 2.16C20.9502 2.16 20.4402 2.37 20.0102 2.79C19.6102 3.22 19.3902 3.73 19.3902 4.31M30.5502 19.45V0.01H39.2002C40.3902 0.01 41.3902 0.44 42.2502 1.28C43.1002 2.13 43.5202 3.14 43.5202 4.33V5.5C43.5202 6.46 43.1902 7.39 42.5302 8.3C41.8702 9.2 40.7702 9.64 39.2102 9.64H41.3602C41.9502 9.64 42.4602 9.85 42.8902 10.27C43.3202 10.69 43.5202 11.21 43.5202 11.8V19.46H39.2102V12.98C39.2102 12.39 38.9902 11.88 38.5602 11.45C38.1302 11.02 37.6202 10.82 37.0302 10.82H34.8702V19.47H30.5602L30.5502 19.45ZM34.8602 8.63H37.0202C37.6102 8.63 38.1202 8.42 38.5502 7.98C38.9802 7.55 39.2002 7.04 39.2002 6.45V4.29C39.2002 3.7 38.9802 3.2 38.5502 2.77C38.1202 2.34 37.6102 2.14 37.0202 2.14H34.8602V8.63ZM46.6002 19.43V0.01H57.3902V2.18H50.9102V8.66H55.2502V10.81H50.9102V17.29H57.3902V19.45H46.6002V19.43ZM60.4002 0.01H64.7102V4.33H66.8702V6.49H64.7102V15.14C64.7102 15.83 64.9402 16.37 65.4002 16.74C65.8602 17.11 66.2802 17.29 66.6802 17.29H66.8902V19.45H64.7302C63.5402 19.45 62.5302 19.02 61.6802 18.18C60.8402 17.33 60.4102 16.32 60.4102 15.13V6.49H58.2502V4.33H60.4102V0.01H60.4002ZM82.0102 12.98H73.3602V15.14C73.3602 15.72 73.5702 16.23 73.9902 16.66C74.4102 17.09 74.9302 17.29 75.5202 17.29H77.6802C79.1102 17.29 79.8302 16.57 79.8302 15.14H81.9902C81.6502 18.02 80.2102 19.45 77.6802 19.45H73.3402C72.1502 19.45 71.1502 19.02 70.2902 18.18C69.4402 17.33 69.0202 16.32 69.0202 15.13V8.65C69.0202 7.45 69.4502 6.43 70.3002 5.59C71.1502 4.75 72.1602 4.32 73.3302 4.32H77.6702C78.8602 4.32 79.8602 4.75 80.7202 5.6C81.5702 6.45 81.9902 7.47 81.9902 8.66V12.96H82.0002L82.0102 12.98ZM73.3702 10.8H77.7102V8.65C77.7102 8.06 77.4902 7.55 77.0602 7.12C76.6302 6.69 76.1202 6.49 75.5302 6.49C74.9402 6.49 74.4302 6.7 74.0002 7.12C73.5702 7.54 73.3702 8.06 73.3702 8.65V10.8ZM95.6702 8.66H93.5202C93.3502 7.21 92.6402 6.5 91.3602 6.5C90.7702 6.5 90.2602 6.71 89.8302 7.13C89.4002 7.56 89.2002 8.07 89.2002 8.66V15.15C89.2002 15.73 89.4102 16.24 89.8302 16.65C90.2602 17.08 90.7702 17.28 91.3602 17.28C92.6402 17.28 93.3602 16.56 93.5202 15.13H95.6702C95.4902 18.01 94.0602 19.44 91.3602 19.44H89.2002C88.0102 19.44 87.0102 19.01 86.1502 18.17C85.3102 17.32 84.8802 16.31 84.8802 15.12V8.64C84.8802 7.44 85.3102 6.42 86.1502 5.58C87.0002 4.74 88.0102 4.31 89.2002 4.31H91.3602C94.0702 4.3 95.5102 5.74 95.6702 8.64" fill="black" fill-opacity="0.75"/>
<path d="M95.82 45.78H0V23.1H95.82V45.78ZM0.98 44.8H94.84V24.07H0.98V44.8Z" fill="black" fill-opacity="0.75"/>
<path d="M12.9299 37.9099C12.9299 38.0999 13.0399 38.1999 13.2599 38.1999C13.6499 38.1999 14.1099 38.0899 14.6699 37.8799C15.2199 37.6599 15.5199 37.5599 15.5799 37.5599C15.7599 37.5599 15.8599 37.6599 15.8599 37.8499C15.8599 38.1399 15.5599 38.4799 14.9599 38.8699C14.3499 39.2599 13.8199 39.4499 13.3199 39.4499C12.8199 39.4499 12.4199 39.3099 12.0899 39.0499C11.7599 38.7899 11.6099 38.5099 11.6099 38.2199C11.6099 37.9299 11.6799 37.5899 11.7899 37.1499C11.9099 36.7099 12.0799 36.1299 12.3099 35.4099C12.5399 34.6899 12.7099 34.0899 12.8499 33.6199C12.3799 33.7299 12.0499 33.7899 11.8999 33.7899C11.7299 33.7899 11.5799 33.7099 11.4199 33.5399C11.2699 33.3699 11.1899 33.2199 11.1899 33.0599C11.1899 32.8099 11.8499 32.5899 13.1599 32.3699C13.3399 31.5299 13.4399 30.7899 13.4399 30.1399C13.4399 29.8399 13.5399 29.6899 13.7399 29.6899C13.9199 29.6899 14.1299 29.7999 14.3699 30.0099C14.6199 30.2299 14.7599 30.4799 14.7599 30.7399C14.7599 31.0199 14.6799 31.4999 14.4999 32.1699C15.0799 32.1099 15.5299 32.0999 15.8799 32.0999C16.4899 32.0999 16.7899 32.2199 16.7899 32.4999C16.7899 32.6499 16.6199 32.7799 16.2899 32.8699C15.9599 32.9599 15.2699 33.1299 14.2199 33.3399C13.9999 34.1399 13.7399 35.0499 13.4199 36.0699C13.0999 37.0799 12.9399 37.6999 12.9399 37.9199" fill="black" fill-opacity="0.75"/>
<path d="M18.88 28.2799C18.88 27.8899 19 27.6899 19.24 27.6899C19.43 27.6899 19.64 27.8399 19.85 28.1399C20.07 28.4399 20.18 28.7299 20.18 29.0199C20.18 29.6799 20.01 30.7999 19.68 32.3699C19.35 33.9499 18.92 35.5299 18.4 37.0999C19.41 35.2799 20.25 33.9599 20.94 33.1499C21.62 32.3399 22.21 31.9199 22.69 31.9199C22.95 31.9199 23.26 32.1399 23.61 32.5999C23.95 33.0499 24.13 33.5099 24.13 33.9599C24.13 34.4099 24.01 35.0899 23.74 35.9999C23.12 38.2899 22.53 39.4199 21.96 39.4199C21.74 39.4199 21.63 39.2699 21.63 38.9699C21.63 38.6699 21.75 38.1599 21.99 37.4399C22.53 35.8699 22.79 34.8199 22.79 34.2699C22.79 34.0899 22.75 33.9399 22.65 33.8199C22.55 33.6999 22.44 33.6399 22.32 33.6399C22.18 33.6399 22.03 33.7099 21.84 33.8499C21.65 33.9899 21.41 34.2399 21.15 34.5899C20.81 35.0399 20.45 35.5499 20.09 36.1199C19.72 36.6899 19.5 37.0299 19.43 37.1399C19.36 37.2599 19.22 37.4699 19.04 37.7699C18.86 38.0699 18.71 38.2899 18.63 38.4499C18.53 38.5999 18.42 38.7499 18.3 38.9299C18.07 39.2599 17.89 39.4299 17.76 39.4299C17.63 39.4299 17.48 39.3199 17.28 39.0899C17.08 38.8599 16.98 38.6799 16.98 38.5099C16.98 38.3599 17.04 38.0599 17.15 37.6299C17.66 35.6999 17.98 34.3599 18.1 33.6499C18.62 31.0499 18.89 29.2499 18.89 28.2999" fill="black" fill-opacity="0.75"/>
<path d="M31.2498 34.42C31.2498 34.96 30.9598 35.4 30.3798 35.74C29.7998 36.08 29.1398 36.25 28.4098 36.25C27.6798 36.25 27.0198 36.17 26.4298 36C26.2898 36.44 26.2198 36.84 26.2198 37.19C26.2198 37.54 26.3298 37.81 26.5498 38C26.7698 38.19 27.1298 38.29 27.6198 38.29C28.1098 38.29 28.6398 38.21 29.1598 38.03C29.6798 37.85 29.9698 37.77 30.0298 37.77C30.2898 37.77 30.4198 37.87 30.4198 38.07C30.4198 38.35 30.1198 38.64 29.4998 38.95C28.8798 39.27 28.2898 39.42 27.6898 39.42C26.8998 39.42 26.2598 39.19 25.7698 38.72C25.2698 38.25 25.0298 37.66 25.0298 36.94C25.0298 36.22 25.2198 35.48 25.6098 34.69C25.9998 33.9 26.4898 33.24 27.0998 32.72C27.7098 32.18 28.2998 31.92 28.9098 31.92C29.5198 31.92 30.0398 32.21 30.5398 32.77C31.0098 33.32 31.2598 33.87 31.2598 34.41M28.9698 33.1C28.5998 33.1 28.2098 33.29 27.7998 33.68C27.3998 34.07 27.0598 34.55 26.7698 35.13C27.1698 35.23 27.6398 35.27 28.1498 35.27C28.6598 35.27 29.1098 35.19 29.4998 35.02C29.8898 34.85 30.0798 34.63 30.0798 34.36C30.0798 34.09 29.9598 33.81 29.7098 33.53C29.4598 33.24 29.2098 33.1 28.9798 33.1" fill="black" fill-opacity="0.75"/>
<path d="M40.9402 39.4C40.2802 39.4 39.6902 39.07 39.1902 38.42C38.6902 37.76 38.4502 37.1 38.4502 36.42C38.4502 35.5 38.6202 34.57 38.9602 33.62C39.3002 32.67 39.7202 31.84 40.2302 31.14C40.7402 30.44 41.3002 29.86 41.9102 29.4C42.5302 28.96 43.1002 28.72 43.6202 28.72C44.4702 28.72 45.1802 29.11 45.7402 29.88C46.3102 30.65 46.5802 31.52 46.5802 32.5C46.5802 33.48 46.3202 34.48 45.7802 35.55C45.2402 36.62 44.5302 37.52 43.6302 38.28C42.7502 39.02 41.8502 39.4 40.9402 39.4ZM42.7702 37.31C43.4302 36.72 44.0002 35.99 44.4802 35.11C44.9502 34.24 45.2002 33.42 45.2002 32.64C45.2002 31.86 45.0502 31.23 44.7602 30.75C44.4602 30.27 44.1102 30.02 43.7102 30.02C43.3102 30.02 42.8002 30.34 42.1902 30.96C41.5802 31.58 41.0302 32.41 40.5502 33.43C40.0702 34.45 39.8202 35.41 39.8202 36.35C39.8202 36.9 39.9302 37.36 40.1802 37.7C40.4302 38.04 40.7002 38.22 41.0302 38.22C41.5302 38.21 42.1002 37.92 42.7702 37.31Z" fill="black" fill-opacity="0.75"/>
<path d="M48.2701 33.76L48.2301 32.63C48.2301 32.16 48.3401 31.91 48.5601 31.91C48.7501 31.91 48.9301 32.03 49.1101 32.28C49.2901 32.53 49.3701 32.82 49.3701 33.16C49.3701 33.5 49.3601 33.75 49.3301 33.92C50.2101 32.58 51.0401 31.92 51.8201 31.92C52.3201 31.92 52.5601 32.04 52.5601 32.28C52.5601 32.4 52.5001 32.51 52.3901 32.61C52.2801 32.71 52.1001 32.83 51.8701 32.95C51.3301 33.18 50.8801 33.54 50.5201 34.01C50.1501 34.49 49.8401 35.03 49.6201 35.64C49.3901 36.25 49.2101 36.76 49.0701 37.17C48.9301 37.58 48.8401 37.91 48.7701 38.13C48.7001 38.35 48.6201 38.58 48.5201 38.81C48.3501 39.21 48.1801 39.42 47.9501 39.42C47.7801 39.42 47.6301 39.32 47.5401 39.13C47.4301 38.94 47.3901 38.74 47.3901 38.55C47.3901 38.36 47.4701 37.98 47.6501 37.43C48.0501 36.19 48.2601 34.96 48.2601 33.75" fill="black" fill-opacity="0.75"/>
<path d="M54.2401 31.92C54.4301 31.92 54.6101 32.03 54.7801 32.26C54.9601 32.49 55.0401 32.71 55.0401 32.94C55.0401 33.17 54.8901 33.82 54.6001 34.94C54.3101 36.04 53.9401 37.28 53.5001 38.66C53.3301 39.17 53.1101 39.42 52.8501 39.42C52.7101 39.42 52.5901 39.36 52.4801 39.24C52.3801 39.13 52.3301 38.99 52.3301 38.84C52.3301 38.69 52.3701 38.47 52.4401 38.15C52.5201 37.83 52.6301 37.41 52.7701 36.88C52.9201 36.36 53.0301 35.92 53.1101 35.58C53.1901 35.24 53.2901 34.86 53.3701 34.45C53.4701 34.04 53.5401 33.69 53.5901 33.43C53.6401 33.17 53.7101 32.92 53.7801 32.64C53.9501 32.16 54.0801 31.91 54.2301 31.91M54.3101 29.76C54.3101 29.55 54.3901 29.37 54.5601 29.18C54.7301 29 54.8901 28.9 55.0601 28.9C55.2301 28.9 55.4201 29.11 55.6501 29.51C55.8801 29.92 55.9901 30.25 55.9901 30.53C55.9901 30.63 55.9501 30.72 55.8501 30.81C55.7501 30.9 55.6701 30.93 55.5601 30.93C55.3101 30.93 55.0501 30.78 54.7501 30.49C54.4601 30.21 54.3101 29.97 54.3101 29.76Z" fill="black" fill-opacity="0.75"/>
<path d="M61.9798 35.35C61.9798 35.75 61.7998 36.22 61.4398 36.73C61.1598 37.35 60.8698 38.23 60.5598 39.39C60.2398 40.55 59.9798 41.37 59.7698 41.87C59.3398 42.89 58.6998 43.41 57.8098 43.41C57.0898 43.41 56.4898 43.22 55.9998 42.83C55.4998 42.44 55.2598 42.06 55.2598 41.67C55.2598 41.5 55.3198 41.35 55.3998 41.19C55.4998 41.02 55.6098 40.94 55.6998 40.94C55.8098 40.94 55.9198 41.02 56.0598 41.17C56.1998 41.32 56.3098 41.49 56.4298 41.67C56.5498 41.85 56.7198 42.01 56.9498 42.17C57.1798 42.32 57.4198 42.4 57.6398 42.4C57.8598 42.4 58.0298 42.36 58.1398 42.3C58.2498 42.23 58.3598 42.12 58.4598 41.98C58.5598 41.83 58.6498 41.69 58.7198 41.54C58.7898 41.39 58.8698 41.18 58.9498 40.92C59.0298 40.66 59.0998 40.42 59.1598 40.23C59.2198 40.04 59.2798 39.76 59.3698 39.42C59.4598 39.08 59.5398 38.79 59.5898 38.58C58.7998 39.16 58.1598 39.46 57.6698 39.46C57.1798 39.46 56.7498 39.27 56.3898 38.87C56.0298 38.47 55.8398 38 55.8398 37.48C55.8398 36.96 56.0298 36.24 56.4298 35.37C56.8298 34.49 57.3698 33.7 58.0398 33.01C58.7198 32.31 59.3798 31.96 60.0198 31.96C60.4298 31.96 60.7798 32.11 61.0698 32.43C61.5398 32.94 61.7598 33.67 61.7598 34.62C61.7598 34.74 61.7598 34.83 61.7498 34.87C61.8998 35.01 61.9698 35.17 61.9698 35.34M57.0898 37.59C57.0898 37.77 57.1498 37.91 57.2598 38C57.3698 38.11 57.5098 38.17 57.6898 38.17C58.1998 38.17 58.7898 37.87 59.4798 37.27C60.1698 36.66 60.6498 35.97 60.9298 35.18C60.8898 35.04 60.8598 34.85 60.8198 34.57C60.7898 34.29 60.7598 34.09 60.7198 33.92C60.6898 33.75 60.6198 33.59 60.5298 33.42C60.4298 33.25 60.2998 33.17 60.1398 33.17C59.7398 33.17 59.2998 33.45 58.7998 34.01C58.2998 34.57 57.8998 35.21 57.5698 35.9C57.2498 36.6 57.0898 37.17 57.0898 37.58" fill="black" fill-opacity="0.75"/>
<path d="M64.7401 31.92C64.9301 31.92 65.1101 32.03 65.2801 32.26C65.4501 32.49 65.5401 32.71 65.5401 32.94C65.5401 33.17 65.3901 33.82 65.1001 34.94C64.8101 36.04 64.4401 37.28 64.0001 38.66C63.8301 39.17 63.6101 39.42 63.3501 39.42C63.2101 39.42 63.0901 39.36 62.9801 39.24C62.8801 39.13 62.8301 38.99 62.8301 38.84C62.8301 38.69 62.8701 38.47 62.9401 38.15C63.0201 37.83 63.1301 37.41 63.2701 36.88C63.4101 36.36 63.5301 35.92 63.6101 35.58C63.6901 35.24 63.7901 34.86 63.8701 34.45C63.9701 34.04 64.0401 33.69 64.0901 33.43C64.1401 33.17 64.2101 32.92 64.2801 32.64C64.4301 32.16 64.5801 31.91 64.7301 31.91M64.8001 29.76C64.8001 29.55 64.8801 29.37 65.0501 29.18C65.2201 29 65.3801 28.9 65.5501 28.9C65.7201 28.9 65.9101 29.11 66.1401 29.51C66.3701 29.92 66.4801 30.25 66.4801 30.53C66.4801 30.63 66.4401 30.72 66.3401 30.81C66.2401 30.9 66.1601 30.93 66.0501 30.93C65.8001 30.93 65.5401 30.78 65.2401 30.49C64.9501 30.21 64.8001 29.97 64.8001 29.76Z" fill="black" fill-opacity="0.75"/>
<path d="M70.3199 33.13C70.9299 32.33 71.4199 31.93 71.8199 31.93C72.2199 31.93 72.5799 32.14 72.9199 32.55C73.2599 32.96 73.4399 33.4 73.4399 33.87C73.4399 34.6 73.2699 35.48 72.9399 36.53C72.3299 38.47 71.7799 39.44 71.2999 39.44C71.0799 39.44 70.9699 39.29 70.9699 38.99C70.9699 38.78 71.0799 38.34 71.2899 37.69C71.5099 37.04 71.6999 36.39 71.8999 35.77C72.0799 35.14 72.1799 34.67 72.1799 34.35C72.1799 34.03 72.1399 33.8 72.0399 33.65C71.9399 33.5 71.8499 33.42 71.7499 33.42C71.6499 33.42 71.5599 33.45 71.4599 33.52C71.3599 33.58 71.2399 33.69 71.1199 33.82C70.9999 33.95 70.8699 34.1 70.7599 34.23C70.6499 34.37 70.5099 34.56 70.3499 34.81C70.1799 35.06 70.0499 35.28 69.9399 35.46C69.8299 35.64 69.6599 35.89 69.4599 36.22C69.2599 36.55 69.0899 36.8 68.9799 36.98C68.8699 37.16 68.7199 37.38 68.5399 37.67C68.3599 37.96 68.2099 38.19 68.1099 38.35C67.9999 38.52 67.8899 38.69 67.7499 38.89C67.4999 39.26 67.2999 39.46 67.1599 39.46C67.0099 39.46 66.8399 39.35 66.6499 39.12C66.4599 38.9 66.3599 38.69 66.3599 38.53C66.3599 38.47 66.3899 38.35 66.4699 38.12C66.6599 37.54 66.8699 36.81 67.0999 35.94C67.3299 35.07 67.4599 34.09 67.4899 33C67.5199 32.26 67.6299 31.9 67.8099 31.9C68.0299 31.9 68.2499 32.01 68.4699 32.24C68.6899 32.47 68.7999 32.72 68.7999 33C68.7999 33.28 68.7199 33.81 68.5499 34.6C68.3799 35.4 68.1799 36.13 67.9699 36.82C68.9299 35.18 69.7199 33.95 70.3299 33.15" fill="black" fill-opacity="0.75"/>
<path d="M79.83 32.6C80.22 33.05 80.41 33.47 80.41 33.84C80.41 34.21 80.29 34.58 80.04 34.97C80.16 35.12 80.22 35.25 80.22 35.36C80.22 35.65 80.15 36.13 80.03 36.82C79.91 37.51 79.82 37.96 79.81 38.17C79.78 38.38 79.77 38.54 79.74 38.68C79.71 38.8 79.7 38.93 79.67 39.05C79.63 39.3 79.53 39.42 79.39 39.42C79.21 39.42 79.06 39.27 78.95 38.95C78.84 38.63 78.77 38.22 78.74 37.71C77.84 38.85 77 39.42 76.25 39.42C75.78 39.42 75.33 39.23 74.89 38.83C74.45 38.43 74.21 38.02 74.21 37.59C74.21 36.98 74.43 36.24 74.87 35.34C75.31 34.44 75.89 33.66 76.59 32.96C77.29 32.27 77.97 31.91 78.59 31.91C79.02 31.91 79.44 32.14 79.83 32.6ZM79.27 34.58C79.27 33.64 79.08 33.17 78.71 33.17C78.31 33.17 77.86 33.45 77.33 34.01C76.8 34.57 76.37 35.21 75.99 35.91C75.63 36.61 75.44 37.18 75.44 37.59C75.44 37.77 75.51 37.91 75.65 38C75.79 38.11 75.95 38.17 76.15 38.17C76.63 38.17 77.16 37.85 77.76 37.21C78.35 36.58 78.77 35.79 79 34.87C79.03 34.72 79.12 34.62 79.26 34.59L79.27 34.58Z" fill="black" fill-opacity="0.75"/>
<path d="M84.6301 28.9499C84.6301 30.8499 84.2301 33.2999 83.4401 36.3399C82.9301 38.3899 82.5901 39.4299 82.3801 39.4299C82.2401 39.4299 82.0801 39.3199 81.8801 39.0999C81.7001 38.8799 81.6001 38.7099 81.6001 38.5899C81.6001 38.4699 81.7501 37.8499 82.0401 36.7199C82.3301 35.5899 82.6201 34.1999 82.9201 32.5399C83.2101 30.8899 83.3601 29.4099 83.3601 28.0899C83.3601 27.9499 83.3901 27.8399 83.4201 27.7899C83.4601 27.7299 83.5401 27.6899 83.6801 27.6899C83.8001 27.6899 84.0001 27.8399 84.2401 28.1199C84.4901 28.4099 84.6101 28.6899 84.6101 28.9599" fill="black" fill-opacity="0.75"/>
</g>
<defs>
<clipPath id="clip0_21_2390">
<rect width="95.82" height="45.78" fill="white"/>
</clipPath>
</defs>
</svg>
