<svg width="1439" height="285" viewBox="0 0 1439 285" fill="none" xmlns="http://www.w3.org/2000/svg">
<g clip-path="url(#clip0_21_4197)">
<path d="M1439.99 126.822L1432.51 119.368L1426.44 125.419L1425.02 126.833H1425L1417.52 119.379L1425.01 111.914L1417.52 104.45L1425.01 96.9854L1417.52 89.5209L1410.03 96.9854L1417.52 104.45L1410.03 111.914L1402.54 104.45L1410.03 96.9854L1402.54 89.5209L1395.06 96.9854L1402.54 104.45L1395.06 111.914L1402.54 119.379L1395.07 126.833H1395.05L1387.57 119.379L1395.06 111.914L1387.57 104.45L1395.06 96.9854L1387.57 89.5209L1380.08 96.9854L1387.57 104.45L1380.08 111.914L1387.57 119.379L1380.09 126.833H1380.07L1378.05 124.823L1372.59 119.379L1380.08 111.914L1372.59 104.45L1365.1 111.914L1357.61 104.45L1365.1 96.9854L1357.61 89.5209L1350.12 96.9854L1357.61 104.45L1350.12 111.914L1357.61 119.379L1350.13 126.833H1350.11L1342.63 119.379H1342.62L1335.15 126.833L1335.21 126.916L1335.13 126.843H1335.12V126.833L1327.63 119.368L1320.14 126.833H1319.95L1312.46 119.368L1304.97 126.833L1304.96 126.843L1304.88 126.916L1304.93 126.843L1297.46 119.389L1297.44 119.368L1289.96 126.822H1289.94L1282.46 119.368L1289.95 111.904L1282.46 104.439L1289.95 96.9749L1282.46 89.5105L1274.97 96.9749L1282.46 104.439L1274.97 111.904L1267.48 104.439L1259.99 111.904L1267.48 119.368L1262.02 124.812L1260 126.822H1259.98L1252.5 119.368L1259.99 111.904L1252.5 104.439L1259.99 96.9749L1252.5 89.5105L1245.01 96.9749L1252.5 104.439L1245.01 111.904L1252.5 119.368L1245.02 126.822H1245L1237.52 119.368L1245.01 111.904L1237.52 104.439L1245.01 96.9749L1237.52 89.5105L1230.03 96.9749L1237.52 104.439L1230.03 111.904L1222.55 104.439L1230.03 96.9749L1222.55 89.5105L1215.06 96.9749L1222.55 104.439L1215.06 111.904L1222.55 119.368L1215.07 126.822H1215.05L1213.63 125.409L1207.56 119.358L1200.08 126.812H1200.07L1192.58 119.358L1200.07 111.893L1192.58 104.429L1185.09 111.893L1177.6 104.429L1170.11 111.893L1162.62 104.429L1155.13 111.893L1162.62 119.358L1170.11 111.893L1177.6 119.358L1170.11 126.822H1170.1L1162.61 119.358L1155.12 126.822H1155.11L1147.62 119.358L1140.14 126.822H1140.12L1132.64 119.358L1140.12 111.893L1132.64 104.429L1125.16 111.883L1132.64 119.347L1125.15 126.812L1117.66 119.347L1125.14 111.893L1117.65 104.429L1110.16 111.893L1102.67 104.429L1095.18 111.893L1087.69 104.429L1080.2 111.893L1087.69 119.358L1080.21 126.822L1072.72 119.358L1080.21 111.893L1072.72 104.429L1072.65 104.502L1065.17 111.956L1072.58 119.337L1065.1 126.801L1057.62 119.347L1065.1 111.883H1065.11L1065.18 111.956L1065.26 111.883L1065.18 111.81L1057.77 104.418L1057.68 104.502L1050.27 111.893L1050.18 111.977L1050.11 111.904L1042.62 104.439L1050.11 96.9749L1042.62 89.5105L1035.13 96.9749L1042.62 104.439L1035.13 111.904L1038.03 114.793L1042.62 119.368L1035.14 126.822L1027.66 119.358L1035.15 111.893L1027.66 104.429L1035.15 96.9644L1027.66 89.5L1020.17 96.9644L1027.66 104.429L1020.19 111.883L1027.66 119.337L1020.17 126.801L1012.69 119.337L1020.16 111.883L1012.69 104.429L1005.2 111.893L1012.69 119.358L1005.21 126.812H1005.19L997.708 119.358L990.229 126.812H990.219L982.73 119.358L990.219 111.893L997.708 119.358L1005.2 111.893L997.708 104.429L1005.2 96.9644L997.708 89.5L990.219 96.9644L997.708 104.429L990.219 111.893L982.73 104.429L975.241 111.893L967.752 104.429L960.263 111.893L967.752 119.358L960.263 126.822H960.252L952.763 119.358L960.252 111.893L952.763 104.429L945.274 111.893L952.763 119.358L945.274 126.822L937.785 119.347L945.274 111.883L937.785 104.418L930.296 111.883L922.807 104.418L915.318 111.883L922.807 119.347L915.318 126.812L907.829 119.337L915.318 111.872L907.829 104.408L900.34 111.872L892.851 104.408L885.362 111.872L877.873 104.408L885.362 96.9435L877.873 89.479L870.384 96.9435L877.873 104.408L870.384 111.872L877.873 119.337L885.362 111.872L892.851 119.337L885.362 126.801L877.873 119.337L870.384 126.801L862.895 119.337L870.384 111.872L862.895 104.408L870.384 96.9435L862.895 89.479L855.406 96.9435L862.895 104.408L855.406 111.872L847.917 104.408L855.406 96.9435L847.917 89.479L840.428 96.9435L847.917 104.408L840.428 111.872L847.917 119.337L840.428 126.801L832.939 119.337L837.624 114.668L840.428 111.872L832.939 104.408L840.428 96.9435L832.939 89.479L825.45 96.9435L832.939 104.408L825.45 111.872L825.377 111.946L825.303 111.862L817.888 104.471L817.804 104.387L810.388 111.778L810.315 111.851L810.388 111.925L802.899 104.46L802.826 104.387L795.337 111.851L802.826 119.316L795.337 126.78L787.848 119.305L795.337 111.841L787.848 104.377L780.359 111.841L787.848 119.305L780.359 126.77L772.87 119.305L765.381 126.77L772.87 134.234L765.381 141.699L757.892 134.234L765.381 126.77L757.892 119.295L765.381 111.83L772.87 119.295L780.359 111.83L772.87 104.366L765.381 111.83L757.892 104.366L750.403 111.83L742.914 104.366L735.425 111.83L742.914 119.295L735.425 126.759L727.936 119.295L720.447 126.759L712.958 119.295L705.469 126.759L697.98 119.295L705.469 111.83L712.958 119.295L720.447 111.83L712.958 104.366L705.469 111.83L697.98 104.366L690.491 111.83L683.002 104.366L690.491 96.9016L683.002 89.4372L675.513 96.9016L683.002 104.366L675.513 111.83L683.002 119.295L675.513 126.759L683.002 134.224L675.513 141.688L668.024 134.224L674.578 127.691L675.513 126.759L668.024 119.295L661.953 125.346L660.535 126.759L653.046 119.295L660.535 111.83L653.046 104.366L660.535 96.9016L653.046 89.4372L645.557 96.9016L653.046 104.366L645.557 111.83L638.068 104.366L645.557 96.9016L638.068 89.4372L630.578 96.9016L638.068 104.366L630.578 111.83L638.068 119.295L630.578 126.759L630.81 126.99L638.068 134.224L630.578 141.688L628.604 139.72L623.089 134.224L630.578 126.759L623.089 119.295L630.578 111.83L623.089 104.366L630.578 96.9016L623.089 89.4372L615.601 96.9016L623.089 104.366L615.601 111.83L623.089 119.295L615.601 126.759L613.573 124.739L608.112 119.295L615.601 111.83L608.112 104.366L600.622 111.83L593.134 104.366L600.622 96.9016L593.134 89.4372L585.645 96.9016L593.134 104.366L585.645 111.83L593.134 119.295L585.645 126.759L578.156 119.295H578.145L570.667 126.759L570.708 126.833L570.635 126.759V126.749L570.582 126.697L570.53 126.749L566.78 123.011L563.083 119.326L555.646 126.738L563.135 134.203L555.646 141.678L548.157 134.213L555.646 126.749H555.447L547.958 119.274L540.469 126.738L540.395 126.812L540.437 126.738L532.959 119.284H532.948L525.459 126.738L517.97 119.274L525.459 111.81L517.97 104.345L525.459 96.8807L517.97 89.4162L510.481 96.8807L517.97 104.345L510.481 111.81L502.992 104.345L495.503 111.81L502.992 119.274L497.53 124.718L495.503 126.738L488.014 119.274L480.525 126.738L488.014 134.203L482.5 139.699L480.525 141.667L473.036 134.203L480.525 126.738L473.036 119.274L480.525 111.81L473.036 104.345L480.525 96.8807L473.036 89.4162L465.547 96.8807L473.036 104.345L465.547 111.81L458.058 104.345L465.547 96.8807L458.058 89.4162L450.569 96.8807L458.058 104.345L450.569 111.81L458.058 119.274L450.569 126.738L449.141 125.325L443.07 119.274L435.581 126.738L436.264 127.419L443.07 134.203L435.581 141.667L428.092 134.203L435.581 126.738L428.092 119.274L435.581 111.81L428.092 104.345L435.581 96.8807L428.092 89.4162L420.603 96.8807L428.092 104.345L420.603 111.81L413.114 104.345L405.625 111.81L398.136 104.345L390.647 111.81L398.136 119.274L405.625 111.81L413.114 119.274L405.625 126.738L398.136 119.274L390.647 126.738L383.158 119.274L375.669 126.738L368.18 119.274L375.669 111.81L368.18 104.345L360.691 111.81L353.202 104.345L345.713 111.81L338.224 104.345L330.735 111.81L338.224 119.274L345.713 111.81L353.202 119.274L345.713 126.738L353.202 134.203L345.713 141.667L338.224 134.203L345.713 126.738L338.224 119.264L330.735 126.728L323.246 119.264L330.735 111.799L323.246 104.335L315.757 111.799L323.246 119.264L315.757 126.738L308.268 119.274L315.757 111.81L308.268 104.345L308.194 104.418L300.705 111.883L300.789 111.799L300.716 111.726L293.3 104.335L293.216 104.418L285.801 111.81L285.717 111.893L285.643 111.82L278.154 104.356L285.643 96.8911L278.154 89.4267L270.665 96.8911L278.154 104.356L270.665 111.82L273.617 114.762L278.154 119.284L270.665 126.749L263.176 119.284L270.665 111.82L263.176 104.356L270.665 96.8911L263.176 89.4267L255.687 96.8911L263.176 104.356L255.687 111.82L248.198 104.356L240.709 111.82L248.198 119.284L240.709 126.749L233.22 119.284L225.731 126.749L218.242 119.284L225.731 111.82L233.22 119.284L240.709 111.82L233.22 104.356L240.709 96.8911L233.22 89.4267L225.731 96.8911L233.22 104.356L225.731 111.82L218.242 104.356L210.753 111.82L203.264 104.356L195.775 111.82L203.264 119.284L195.775 126.749L188.286 119.274L195.775 111.81L188.286 104.345L180.797 111.81L188.286 119.274L180.797 126.738L173.308 119.274L165.819 126.738L158.33 119.274L165.819 111.81L158.33 104.345L165.819 96.8807L158.33 89.4162L150.841 96.8807L143.352 89.4162L135.863 96.8807L143.352 104.345L150.841 96.8807L158.33 104.345L150.841 111.81L143.352 104.345L135.863 111.81L128.374 104.345L120.885 111.81L113.396 104.345L105.907 111.81L113.396 119.274L105.907 126.738L98.418 119.274L90.929 126.738H90.908L83.419 119.264L90.908 111.799L83.419 104.335L90.908 96.8702L83.419 89.4058L75.93 96.8702L83.419 104.335L75.93 111.799L68.441 104.335L75.93 96.8702L68.441 89.4058L60.952 96.8702L68.441 104.335L60.9625 111.789L53.484 104.335L45.995 111.799L38.506 104.335L31.017 111.799L38.506 119.264L31.017 126.728L38.506 134.192L31.017 141.657L23.528 134.192L16.039 141.657L8.54995 134.192L16.0284 126.738L23.5069 134.192H23.5175L31.0065 126.738H30.9854L23.5069 119.284L16.0284 126.738L8.53944 119.274L16.0284 111.81L23.5069 119.264L30.9854 111.81L23.4964 104.345L30.9854 96.8807L23.4964 89.4162L16.0074 96.8807L23.4964 104.345L16.0074 111.81L8.51843 104.345L1.02943 111.81L8.51843 119.274L1.02943 126.738H0.304688L0.304688 435L1440 435V126.833L1439.99 126.822ZM8.19283 149.215L15.6818 141.751L23.1708 149.215L15.6818 156.68L8.19283 149.215ZM29.8196 186.538L22.3306 179.073L29.8196 171.609L37.3086 179.073L29.8196 186.538ZM60.6579 111.883L68.1364 119.337L60.6474 126.801L53.1689 119.347L60.6579 111.883ZM45.7324 126.864L45.7849 126.812L53.2214 134.224L53.2739 134.276L45.7849 141.741L38.2959 134.276L45.7324 126.864ZM45.7324 171.598L38.2434 164.134L45.7324 156.669L53.2214 164.134L45.7324 171.598ZM60.7524 156.669L53.2634 149.205L60.6894 141.803L60.7524 141.741L68.1889 149.153L68.2414 149.205L60.7524 156.669ZM75.7304 141.741L68.2414 134.276L75.7199 126.822L83.0199 134.098L83.1459 134.224L90.4458 126.948L97.8193 134.297L90.4563 141.636L90.2043 141.385L83.1459 134.349L83.0199 134.475L75.7199 141.751L75.7304 141.741ZM90.5929 186.538L83.1039 179.073L90.5929 171.609L98.0819 179.073L90.5929 186.538ZM105.571 156.669L98.0819 149.205L105.571 141.741L113.06 149.205L105.571 156.669ZM120.549 156.669L113.06 149.205L120.549 141.741L113.06 134.276L120.549 126.812L128.038 134.276L120.549 141.741L128.038 149.205L120.549 156.669ZM141.976 165.181L135.537 171.598L128.048 164.134L135.537 156.669L143.026 164.134L141.976 165.181ZM135.537 126.812L143.026 134.276L135.537 141.741L128.048 134.276L135.537 126.812L128.048 119.337L135.537 111.872L143.026 119.337L135.537 126.801V126.812ZM150.526 141.741L143.037 134.276L150.526 126.812L158.015 134.276L150.526 141.741ZM165.504 186.538L158.015 179.073L165.504 171.609L172.993 179.073L165.504 186.538ZM165.504 156.669L158.015 149.205L165.504 141.741L172.993 149.205L165.504 156.669ZM173.003 134.276L180.492 126.812L187.971 134.276L180.482 141.751L172.993 134.287L173.003 134.276ZM195.47 156.669L187.981 149.205L195.47 141.741L202.959 149.205L195.47 156.669ZM278.259 119.735L285.318 112.699L292.418 119.777L292.807 120.164L286.137 126.812L285.318 127.628L284.498 126.812L277.829 120.164L278.259 119.735ZM210.48 171.598L202.991 164.134L210.48 156.669L217.969 164.134L210.48 171.598ZM210.48 141.741L202.991 134.276L210.48 126.812L217.958 134.266H217.969L210.48 141.741ZM217.969 134.276L225.448 126.822L232.926 134.276L225.437 141.751L217.948 134.287L217.969 134.276ZM240.426 156.669L232.937 149.205L240.426 141.741L247.915 149.205L240.426 156.669ZM247.915 134.276L255.404 126.812L262.893 134.276L255.404 141.741L247.915 134.276ZM270.34 171.598L262.851 164.134L270.34 156.669L277.829 164.134L270.34 171.598ZM270.382 141.741L262.893 134.276L270.382 126.812L277.871 134.276L270.382 141.741ZM285.517 156.659L278.028 149.195L285.517 141.73L293.006 149.195L285.517 156.659ZM300.348 126.801L300.432 126.717L300.506 126.791L307.984 134.255L300.495 141.72L293.006 134.255L300.485 126.801H300.338H300.348ZM300.495 186.517L293.006 179.052L300.495 171.588L307.984 179.052L300.495 186.517ZM315.473 156.649L307.984 149.184L315.473 141.72L322.962 149.184L315.473 156.649ZM330.451 156.649L322.962 149.184L330.451 141.72L322.962 134.255L330.441 126.801H330.451L336.869 133.198L337.93 134.255L330.441 141.72L337.93 149.184L330.441 156.649H330.451ZM360.418 171.598L352.929 164.134L360.418 156.669L367.907 164.134L360.418 171.598ZM360.418 141.73L352.929 134.266L360.418 126.801L367.907 134.266L360.418 141.73ZM375.396 156.649L367.907 149.184L375.396 141.72L382.885 149.184L375.396 156.649ZM397.863 149.184L390.374 156.649L382.885 149.184L390.374 141.72L382.885 134.255L390.374 126.791L397.863 134.255L390.374 141.72L397.863 149.184ZM397.863 149.184L405.352 141.72L412.841 149.184L405.352 156.649L397.863 149.184ZM420.33 186.517L412.841 179.052L420.33 171.588L427.819 179.052L420.33 186.517ZM420.33 141.73L412.841 134.266L420.33 126.801L427.819 134.266L420.33 141.73ZM450.296 156.649L442.807 149.184L448.29 143.719L450.296 141.72L457.785 149.184L450.296 156.649ZM465.274 141.72L457.785 134.255L465.274 126.791L472.763 134.255L465.274 141.72ZM480.252 171.588L472.763 164.134L480.252 156.669L487.741 164.134L480.252 171.598V171.588ZM510.219 141.72L517.708 149.184L510.219 156.649L502.73 149.184L510.219 141.72L502.73 134.255L510.219 126.791L512.477 129.042L512.834 129.398L512.908 129.471L517.708 134.255L512.414 139.532L510.219 141.72ZM525.197 156.649L517.708 149.184L525.197 141.72L532.686 149.184L525.197 156.649ZM532.728 179.052L532.707 179.042L532.77 178.979L532.717 179.063L532.728 179.052ZM540.217 156.659L540.133 156.753L540.185 156.669L532.707 149.215L532.696 149.195L532.717 149.174L540.185 141.73L540.091 141.584L540.227 141.72L540.206 141.741L547.674 149.184L540.206 156.628L540.227 156.649L540.217 156.659ZM555.394 171.588L554.817 171.012L547.905 164.123L549.355 162.679L555.394 156.659L558.966 160.218L561.318 162.564L562.883 164.123L555.394 171.588ZM577.861 179.052L577.809 178.969L577.872 179.031L577.851 179.052H577.861ZM577.882 149.215L570.404 156.669L570.456 156.753L570.372 156.669L570.393 156.649L562.925 149.205L570.393 141.762L570.372 141.741L570.509 141.604L570.414 141.751L577.882 149.195L577.903 149.215H577.893V149.236L577.882 149.215ZM577.903 149.195L585.392 141.73L592.881 149.195L585.392 156.659L577.903 149.195ZM600.286 186.443L600.213 186.517L592.808 179.136L592.724 179.052L600.213 171.588L607.702 179.052L600.286 186.443ZM600.37 141.73L598.175 139.542L592.881 134.266L597.492 129.67L597.755 129.408L598.112 129.052L600.37 126.801L607.859 134.266L600.37 141.73ZM615.348 156.649L607.859 149.184L615.348 141.72L622.837 149.184L615.348 156.649ZM630.337 171.588L622.848 164.123L630.337 156.659L637.826 164.123L630.337 171.588ZM645.315 141.72L637.826 134.255L645.315 126.791L652.804 134.255L645.315 141.72ZM660.293 156.649L652.804 149.184L660.293 141.72L662.31 143.719L667.792 149.184L660.304 156.649H660.293ZM690.26 186.517L682.771 179.052L690.26 171.588L697.748 179.052L690.26 186.517ZM690.26 141.73L682.771 134.266L690.26 126.801L697.748 134.266L690.26 141.73ZM705.237 156.649L697.748 149.184L705.237 141.72L712.727 149.184L705.237 156.649ZM720.216 156.649L712.727 149.184L720.216 141.72L712.727 134.255L720.216 126.791L727.705 134.255L720.216 141.72L727.705 149.184L720.216 156.649ZM750.182 141.73L742.693 134.266L750.182 126.801L757.671 134.266L750.182 141.73ZM765.16 171.598L757.671 164.134L765.16 156.669L772.649 164.134L765.16 171.598ZM780.149 156.649L772.66 149.184L780.149 141.72L772.66 134.255L773.615 133.303L780.138 126.801L787.617 134.255L780.128 141.72L787.617 149.184L780.128 156.649H780.149ZM855.207 126.791L862.696 134.255L855.207 141.73L847.718 134.266L855.207 126.801V126.791ZM810.094 126.791L810.168 126.707L810.241 126.791H810.094L817.573 134.245L810.084 141.709L802.595 134.245L810.073 126.791H810.094ZM795.274 186.506L787.785 179.042L795.274 171.577L802.763 179.042L795.274 186.506ZM825.083 156.638L817.667 149.247L810.252 156.638L802.763 149.174L810.252 141.709L817.667 149.1L825.083 141.709L832.572 149.174L825.083 156.638ZM832.729 119.316L825.24 126.78L817.751 119.316L825.24 111.851L832.729 119.316ZM840.229 141.709L832.74 134.245L840.229 126.78L847.718 134.245L840.229 141.72V141.709ZM855.207 171.567L847.718 164.102L855.207 156.638L862.696 164.102L855.207 171.567ZM862.696 149.163L870.185 141.699L877.674 149.163L870.185 156.628L862.696 149.163ZM885.152 186.496L877.663 179.031L885.152 171.567L892.641 179.031L885.152 186.496ZM885.152 141.709L877.663 134.245L885.142 126.78L892.62 134.245L885.131 141.709H885.152ZM900.13 141.709L892.641 134.245H892.652L900.13 126.78L907.619 134.245L900.13 141.709ZM930.107 111.841L937.596 119.295L930.107 126.759L922.629 119.305L930.118 111.841H930.107ZM915.129 156.628L907.64 149.163L915.129 141.699L922.618 149.163L915.129 156.628ZM922.608 134.234L930.086 126.77L937.575 134.234L930.086 141.699L922.597 134.234H922.608ZM945.075 171.556L937.586 164.092L945.075 156.628L952.564 164.092L945.075 171.556ZM960.063 156.638L952.574 149.174L960.063 141.709L967.552 149.174L960.063 156.638ZM990.04 126.791L997.519 134.234L990.03 141.709L982.541 134.245L990.019 126.791H990.04ZM967.573 134.245L975.062 126.78L982.541 134.224H982.551L975.062 141.699L967.573 134.234V134.245ZM990.03 186.485L982.541 179.021L990.03 171.556L997.519 179.021L990.03 186.485ZM1005.01 156.628L997.519 149.163L1005.01 141.699L1012.5 149.163L1005.01 156.628ZM1012.5 134.234L1019.99 126.77L1027.47 134.234L1019.99 141.699L1012.5 134.234ZM1034.92 171.556L1027.43 164.092L1034.92 156.628L1042.41 164.092L1034.92 171.556ZM1034.96 141.699L1027.47 134.234L1034.96 126.77L1042.45 134.234L1034.96 141.699ZM1065.01 126.686L1065.09 126.759H1064.95L1065.02 126.686H1065.01ZM1050.11 156.617L1042.62 149.153L1050.11 141.688L1057.6 149.153L1050.11 156.617ZM1065.09 141.688L1057.6 134.224L1065.09 126.759L1072.58 134.224L1065.09 141.688ZM1080.07 156.617L1072.58 149.153L1080.07 141.688L1087.55 149.153L1080.07 156.617ZM1095.04 156.617L1087.55 149.153L1095.04 141.688L1087.55 134.224L1095.04 126.759L1101.42 133.114L1102.53 134.224L1095.04 141.688L1102.53 149.153L1095.04 156.617ZM1102.53 119.284L1110.03 111.82L1117.52 119.284L1110.03 126.749L1102.54 119.284H1102.53ZM1110.03 171.556L1102.54 164.092L1110.03 156.628L1117.52 164.092L1110.03 171.556ZM1110.03 141.688L1102.54 134.224L1110.03 126.759L1117.52 134.224L1110.03 141.688ZM1125.01 141.688L1117.52 134.224L1125.01 126.759L1132.5 134.224L1125.01 141.688ZM1139.99 156.607L1132.5 149.142L1139.99 141.678L1147.48 149.142L1139.99 156.607ZM1162.46 149.142L1154.97 156.607L1147.48 149.142L1154.97 141.678L1147.48 134.213L1154.97 126.749L1162.46 134.213L1154.97 141.678L1162.46 149.142ZM1162.46 149.142L1169.94 141.678L1177.43 149.142L1169.94 156.607L1162.46 149.142ZM1184.92 186.464L1177.43 179L1184.92 171.536L1192.41 179L1184.92 186.464ZM1184.92 141.688L1177.43 134.224L1184.92 126.759L1192.41 134.224L1184.92 141.688ZM1199.9 126.759L1200.58 127.44L1207.39 134.224L1199.9 141.688L1192.41 134.224L1199.9 126.759ZM1199.9 171.536L1192.41 164.071L1199.9 156.607L1207.39 164.071L1199.9 171.536ZM1214.88 156.617L1207.39 149.153L1212.87 143.688L1214.89 141.688L1222.38 149.153L1214.89 156.617H1214.88ZM1229.86 141.688L1222.37 134.224L1229.86 126.759L1237.35 134.224L1229.86 141.688ZM1244.83 171.556L1237.35 164.102L1244.83 156.638L1252.32 164.102L1244.83 171.567V171.556ZM1246.81 139.72L1244.83 141.688L1237.35 134.224L1244.39 127.199L1244.83 126.759L1252.32 134.224L1246.81 139.72ZM1259.81 156.607L1252.32 149.142L1259.81 141.678L1267.3 149.142L1259.81 156.607ZM1274.79 186.464L1267.3 179L1274.79 171.536L1282.28 179L1274.79 186.464ZM1276.99 139.5L1274.79 141.688L1267.3 134.224L1274.79 126.759L1277.05 129.01L1277.41 129.366L1277.48 129.439L1282.28 134.224L1276.99 139.5ZM1289.77 156.617L1282.28 149.153L1289.77 141.688L1297.26 149.153L1289.77 156.617ZM1319.75 126.78L1327.22 134.234L1319.76 141.678L1317.58 139.511L1312.28 134.224L1319.75 126.78ZM1297.3 179.021L1297.28 179.01L1297.34 178.948L1297.29 179.031L1297.3 179.021ZM1304.79 156.628L1304.69 156.722L1304.75 156.638L1297.27 149.184L1297.26 149.163L1297.28 149.142L1304.75 141.699L1304.65 141.552L1304.79 141.688L1304.77 141.709L1312.24 149.153L1304.77 156.596L1304.79 156.617V156.628ZM1320.45 170.834L1319.76 171.525L1319.73 171.546L1312.25 164.082L1319.73 156.617L1319.77 156.649L1325.81 162.668L1327.22 164.082L1320.45 170.834ZM1342.44 179.021L1342.39 178.937L1342.45 179L1342.43 179.021H1342.44ZM1342.46 149.184L1334.99 156.638L1335.04 156.722L1334.94 156.628L1334.97 156.607L1327.5 149.163L1334.97 141.72L1334.94 141.699L1335.08 141.563L1334.99 141.709L1342.45 149.153L1342.48 149.174H1342.46V149.195V149.184ZM1349.97 156.628L1342.49 149.163L1349.97 141.699L1357.46 149.163L1349.97 156.628ZM1361.92 129.806L1362.35 129.377L1362.7 129.021L1364.96 126.77L1372.45 134.234L1364.96 141.699L1362.77 139.511L1357.47 134.234L1361.92 129.806ZM1364.96 186.485L1357.47 179.021L1364.96 171.556L1372.45 179.021L1364.96 186.485ZM1379.94 156.628L1372.45 149.163L1379.94 141.699L1387.43 149.163L1379.94 156.628ZM1394.93 126.77L1395.38 127.22L1402.42 134.234L1394.93 141.699L1392.95 139.731L1387.44 134.234L1394.93 126.77ZM1394.93 171.567L1387.44 164.102L1394.93 156.638L1402.42 164.102L1394.93 171.567ZM1409.91 141.699L1402.42 134.234L1409.91 126.77L1417.4 134.234L1409.91 141.699ZM1424.89 156.628L1417.4 149.163L1424.89 141.699L1426.9 143.698L1432.39 149.163L1424.9 156.628H1424.89Z" fill="white"/>
<path d="M1432.51 119.358L1440 111.893L1432.51 104.429L1440 96.9644L1432.51 89.5L1425.02 96.9644L1432.51 104.429L1425.02 111.893L1432.51 119.358Z" fill="white"/>
<path d="M1432.52 59.6173L1425.03 67.0866L1432.52 74.556L1440.01 67.0867L1432.52 59.6173Z" fill="white"/>
<path d="M795.347 96.9539L802.836 104.418H802.846L810.335 96.9539L802.846 89.4895L795.347 96.9539Z" fill="white"/>
<path d="M810.335 52.1464L817.824 59.6108L825.313 52.1464L817.824 44.6819L810.335 52.1464L802.846 44.6819L795.347 52.1464L802.846 59.6108L810.335 52.1464Z" fill="white"/>
<path d="M825.313 82.0146L817.824 74.5502L810.335 82.0146L802.846 74.5502L795.347 82.0146L802.846 89.479L810.335 82.0146L817.824 89.479L825.313 82.0146Z" fill="white"/>
<path d="M907.702 59.613L900.208 67.0824L907.702 74.5517L915.196 67.0824L907.702 59.613Z" fill="white"/>
<path d="M832.804 59.6096L825.311 67.0789L832.804 74.5483L840.298 67.0789L832.804 59.6096Z" fill="white"/>
<path d="M832.777 29.7029L825.283 37.1723L832.777 44.6416L840.271 37.1723L832.777 29.7029Z" fill="white"/>
<path d="M840.302 82.0041L832.813 74.5502L825.324 82.0146L832.813 89.479L840.302 82.0251L847.791 89.479L855.28 82.0146L847.791 74.5502L840.302 82.0041Z" fill="white"/>
<path d="M847.791 59.6108L840.291 67.0753L847.791 74.5502L855.28 67.0753L847.791 59.6108L855.28 52.1464L847.791 44.6819L840.291 52.1464L847.791 59.6108Z" fill="white"/>
<path d="M862.779 74.538L855.285 82.0074L862.779 89.4767L870.273 82.0074L862.779 74.538Z" fill="white"/>
<path d="M862.733 59.5637L855.239 67.0331L862.733 74.5025L870.227 67.0331L862.733 59.5637Z" fill="white"/>
<path d="M862.79 29.7604L855.295 37.2285L862.788 44.6992L870.283 37.2311L862.79 29.7604Z" fill="white"/>
<path d="M877.747 74.5502L885.246 67.0753L877.747 59.6108L885.246 52.1464L877.747 44.6819L870.258 52.1464L877.747 59.6108L870.258 67.0753L877.747 74.5502Z" fill="white"/>
<path d="M892.781 89.541L885.287 97.0103L892.781 104.48L900.275 97.0104L892.781 89.541Z" fill="white"/>
<path d="M892.689 74.4892L885.195 81.9585L892.689 89.4279L900.183 81.9585L892.689 74.4892Z" fill="white"/>
<path d="M892.693 44.6349L885.199 52.1042L892.693 59.5736L900.187 52.1042L892.693 44.6349Z" fill="white"/>
<path d="M907.728 89.4882L900.234 96.9576L907.728 104.427L915.222 96.9576L907.728 89.4882Z" fill="white"/>
<path d="M907.702 74.5135L900.209 81.9842L907.704 89.4523L915.197 81.9816L907.702 74.5135Z" fill="white"/>
<path d="M930.18 82.0146L937.669 89.479L945.158 82.0146L937.669 74.5501L930.18 82.0041L922.702 74.5397L915.202 82.0146L922.702 89.479L930.18 82.0146Z" fill="white"/>
<path d="M930.18 67.0857L937.669 74.5502L945.158 67.0752L937.669 59.6108L930.18 67.0752L922.702 59.6108L915.202 67.0752L922.702 74.5397L930.18 67.0857Z" fill="white"/>
<path d="M922.652 29.7016L915.158 37.171L922.652 44.6404L930.146 37.171L922.652 29.7016Z" fill="white"/>
<path d="M937.635 44.6274L930.141 52.0968L937.635 59.5662L945.129 52.0968L937.635 44.6274Z" fill="white"/>
<path d="M937.716 89.5262L930.222 96.9955L937.716 104.465L945.21 96.9955L937.716 89.5262Z" fill="white"/>
<path d="M697.812 29.7451L690.318 37.2145L697.812 44.6838L705.306 37.2145L697.812 29.7451Z" fill="white"/>
<path d="M832.853 14.85L825.359 22.3193L832.853 29.7887L840.347 22.3193L832.853 14.85Z" fill="white"/>
<path d="M742.765 -0.00378052L735.271 7.46561L742.765 14.935L750.259 7.46559L742.765 -0.00378052Z" fill="white"/>
<path d="M637.89 -0.00632813L630.396 7.46301L637.89 14.9324L645.384 7.46304L637.89 -0.00632813Z" fill="white"/>
<path d="M547.949 0.00368164L540.455 7.47302L547.949 14.9424L555.443 7.47305L547.949 0.00368164Z" fill="white"/>
<path d="M202.98 -0.00455061L195.486 7.46481L202.98 14.9342L210.474 7.46482L202.98 -0.00455061Z" fill="white"/>
<path d="M98.1053 -0.0071288L90.6113 7.46223L98.1053 14.9316L105.599 7.46224L98.1053 -0.0071288Z" fill="white"/>
<path d="M907.699 -0.000591171L900.205 7.46875L907.699 14.9381L915.193 7.46878L907.699 -0.000591171Z" fill="white"/>
<path d="M555.447 111.883L562.884 119.295L570.331 111.872L570.383 111.925L570.425 111.883L562.936 104.408L555.447 111.883Z" fill="white"/>
<path d="M615.411 82.0041L622.9 89.4686L630.4 82.0041L622.911 74.5397L630.4 67.0857L622.9 59.6108L615.411 67.0857L622.9 74.5397L615.411 82.0041Z" fill="white"/>
<path d="M562.941 44.6666L555.447 52.136L562.941 59.6053L570.435 52.1359L562.941 44.6666Z" fill="white"/>
<path d="M577.956 89.4895H577.946H577.924L570.436 96.9539L577.924 104.418L570.436 111.883L577.924 119.347H577.935H577.956L585.445 111.883L577.956 104.418L585.445 96.9539L577.956 89.4895ZM577.946 104.439L577.924 104.418H577.935H577.956H577.946V104.439Z" fill="white"/>
<path d="M577.956 59.6108L577.946 59.6318L577.914 59.6004L570.425 67.0753L577.914 74.5397L570.425 82.0041L562.936 74.5397L555.447 82.0041L562.936 89.4686L570.425 82.0041L577.914 89.4686L577.935 89.4581L577.956 89.479L585.456 82.0146L577.956 74.5502L577.946 74.5606L577.925 74.5397L577.935 74.5188L577.956 74.5502L585.456 67.0857L577.956 59.6108L585.456 52.1464L577.956 44.6819L585.456 37.2175L577.956 29.7531L570.467 37.2175L577.956 44.6819L570.467 52.1464L577.956 59.6108Z" fill="white"/>
<path d="M600.433 82.0146L607.922 89.479L615.411 82.0146L607.922 74.5502L615.411 67.0857L607.922 59.6108L600.433 67.0857L607.922 74.5502L600.433 82.0146L592.944 74.5502L585.455 82.0146L592.944 89.479L600.433 82.0146Z" fill="white"/>
<path d="M607.93 44.6788L600.436 52.1482L607.929 59.6176L615.423 52.1482L607.93 44.6788Z" fill="white"/>
<path d="M622.887 29.722L615.393 37.1914L622.887 44.6607L630.38 37.1914L622.887 29.722Z" fill="white"/>
<path d="M637.918 74.5711L630.424 82.0404L637.918 89.5098L645.412 82.0404L637.918 74.5711Z" fill="white"/>
<path d="M637.9 44.6749L630.406 52.1443L637.9 59.6136L645.394 52.1443L637.9 44.6749Z" fill="white"/>
<path d="M652.868 74.5362L645.374 82.0055L652.868 89.4749L660.362 82.0055L652.868 74.5362Z" fill="white"/>
<path d="M652.875 59.6142L645.381 67.0836L652.875 74.553L660.369 67.0836L652.875 59.6142Z" fill="white"/>
<path d="M652.902 29.7735L645.408 37.2428L652.902 44.7122L660.396 37.2429L652.902 29.7735Z" fill="white"/>
<path d="M667.855 119.347L675.344 111.883L667.855 104.418L675.344 96.9539L667.855 89.4895L660.366 96.9539L667.855 104.418L660.366 111.883L667.855 119.347Z" fill="white"/>
<path d="M667.856 59.6107L660.362 67.0801L667.856 74.5495L675.35 67.0801L667.856 59.6107Z" fill="white"/>
<path d="M682.834 89.479L690.323 82.0146L682.834 74.5502L690.323 67.0857L682.834 59.6108L675.345 67.0857L682.834 74.5502L675.345 82.0146L682.834 89.479Z" fill="white"/>
<path d="M682.842 44.6779L675.348 52.1473L682.842 59.6166L690.336 52.1473L682.842 44.6779Z" fill="white"/>
<path d="M682.838 14.8057L675.344 22.2751L682.838 29.7445L690.332 22.2751L682.838 14.8057Z" fill="white"/>
<path d="M607.765 14.81L600.271 22.2793L607.765 29.7487L615.259 22.2793L607.765 14.81Z" fill="white"/>
<path d="M697.797 89.4445L690.303 96.9138L697.797 104.383L705.291 96.9139L697.797 89.4445Z" fill="white"/>
<path d="M697.789 74.4973L690.295 81.9667L697.789 89.436L705.283 81.9667L697.789 74.4973Z" fill="white"/>
<path d="M712.799 74.5387L705.305 82.0081L712.799 89.4775L720.293 82.0081L712.799 74.5387Z" fill="white"/>
<path d="M712.805 59.6064L705.312 67.0757L712.805 74.5451L720.299 67.0757L712.805 59.6064Z" fill="white"/>
<path d="M712.77 29.7028L705.276 37.1721L712.77 44.6415L720.264 37.1722L712.77 29.7028Z" fill="white"/>
<path d="M727.812 104.457L720.318 111.926L727.812 119.395L735.306 111.926L727.812 104.457Z" fill="white"/>
<path d="M727.749 89.4331L720.255 96.9025L727.749 104.372L735.243 96.9025L727.749 89.4331Z" fill="white"/>
<path d="M727.749 74.4934L720.255 81.9628L727.749 89.4321L735.243 81.9627L727.749 74.4934Z" fill="white"/>
<path d="M742.8 59.6517L735.306 67.1211L742.8 74.5905L750.294 67.1211L742.8 59.6517Z" fill="white"/>
<path d="M727.794 44.681L720.3 52.1504L727.794 59.6197L735.288 52.1503L727.794 44.681Z" fill="white"/>
<path d="M750.255 96.9539L742.766 89.479L735.267 96.9539L742.766 104.418L750.255 96.9539L757.744 104.418L765.233 96.9539L757.744 89.479L750.255 96.9539Z" fill="white"/>
<path d="M750.255 82.0041L742.766 74.5397L735.267 82.0041L742.766 89.479L750.255 82.0041L757.744 89.479L765.233 82.0041L757.744 74.5397L765.233 67.0752L757.744 59.6108L750.255 67.0752L757.744 74.5397L750.255 82.0041Z" fill="white"/>
<path d="M757.715 44.6278L750.221 52.0971L757.715 59.5665L765.209 52.0971L757.715 44.6278Z" fill="white"/>
<path d="M772.69 89.4362L765.196 96.9055L772.69 104.375L780.184 96.9056L772.69 89.4362Z" fill="white"/>
<path d="M772.697 59.5745L765.203 67.0439L772.697 74.5132L780.191 67.0439L772.697 59.5745Z" fill="white"/>
<path d="M772.693 29.7024L765.199 37.1717L772.693 44.6411L780.187 37.1717L772.693 29.7024Z" fill="white"/>
<path d="M787.68 89.4358L780.186 96.9052L787.679 104.375L795.173 96.9051L787.68 89.4358Z" fill="white"/>
<path d="M787.729 74.5685L780.233 82.0366L787.726 89.5072L795.221 82.0392L787.729 74.5685Z" fill="white"/>
<path d="M787.668 44.6312L780.174 52.1006L787.668 59.5699L795.162 52.1006L787.668 44.6312Z" fill="white"/>
<path d="M802.763 74.4664L810.178 67.0752L802.773 59.6841L802.689 59.6108L795.2 67.0752L802.689 74.5397L802.763 74.4664Z" fill="white"/>
<path d="M83.1131 44.6924L75.6191 52.1618L83.1131 59.6311L90.607 52.1618L83.1131 44.6924Z" fill="white"/>
<path d="M98.1033 44.6819L90.6143 52.1464L98.1033 59.6108L90.6143 67.0857L98.1033 74.5502L105.592 67.0857L98.1033 59.6108L105.592 52.1464L98.1033 44.6819Z" fill="white"/>
<path d="M68.1365 74.5397L60.6475 82.0042L68.1365 89.4686L75.6255 82.0042L68.1365 74.5397L75.6255 67.0858L68.1365 59.6108L60.6475 67.0858L68.1365 74.5397Z" fill="white"/>
<path d="M98.1033 74.5606L90.6143 82.0251L98.1033 89.4895L90.6143 96.954L98.1033 104.418L105.592 96.954L98.1033 89.4895L105.592 82.0251L98.1033 74.5606Z" fill="white"/>
<path d="M83.1199 74.5571L75.626 82.0265L83.1199 89.4959L90.6139 82.0265L83.1199 74.5571Z" fill="white"/>
<path d="M300.358 96.9539L307.847 104.418L315.347 96.9539L307.847 89.4895L300.358 96.9539Z" fill="white"/>
<path d="M307.848 74.5502L300.359 82.0146L292.87 74.5502L300.359 67.0857L292.87 59.6108L285.381 67.0857L292.87 74.5502L285.381 82.0146L292.87 89.479L300.359 82.0146L307.848 89.479L315.347 82.0146L307.848 74.5502Z" fill="white"/>
<path d="M307.873 44.7032L300.379 52.1726L307.873 59.642L315.367 52.1726L307.873 44.7032Z" fill="white"/>
<path d="M232.965 44.6789L225.471 52.1483L232.965 59.6176L240.459 52.1483L232.965 44.6789Z" fill="white"/>
<path d="M203.013 29.7609L195.519 37.2303L203.013 44.6996L210.506 37.2303L203.013 29.7609Z" fill="white"/>
<path d="M270.392 82.0251L277.871 89.479L285.37 82.0146L277.871 74.5502L270.392 82.0041L262.903 74.5502L255.414 82.0146L262.903 89.479L270.392 82.0251Z" fill="white"/>
<path d="M262.903 74.5502L270.392 67.0753L262.903 59.6108L270.392 52.1464L262.903 44.6819L255.414 52.1464L262.903 59.6108L255.414 67.0753L262.903 74.5502Z" fill="white"/>
<path d="M247.923 89.4633L240.429 96.9327L247.923 104.402L255.417 96.9327L247.923 89.4633Z" fill="white"/>
<path d="M247.926 74.537L240.432 82.0064L247.926 89.4758L255.42 82.0064L247.926 74.537Z" fill="white"/>
<path d="M247.935 59.6331L240.441 67.1024L247.935 74.5718L255.429 67.1024L247.935 59.6331Z" fill="white"/>
<path d="M247.91 29.7295L240.416 37.1988L247.91 44.6682L255.404 37.1988L247.91 29.7295Z" fill="white"/>
<path d="M232.932 59.5947L225.438 67.064L232.932 74.5334L240.426 67.064L232.932 59.5947Z" fill="white"/>
<path d="M38.2 44.6776L30.7061 52.147L38.2 59.6164L45.694 52.147L38.2 44.6776Z" fill="white"/>
<path d="M53.1678 89.4725L45.6738 96.9419L53.1678 104.411L60.6617 96.9419L53.1678 89.4725Z" fill="white"/>
<path d="M53.16 74.5358L45.666 82.0052L53.16 89.4746L60.6539 82.0052L53.16 74.5358Z" fill="white"/>
<path d="M53.1668 59.6139L45.6729 67.0833L53.1668 74.5527L60.6608 67.0833L53.1668 59.6139Z" fill="white"/>
<path d="M53.1629 29.7313L45.6689 37.2007L53.1629 44.67L60.6568 37.2007L53.1629 29.7313Z" fill="white"/>
<path d="M38.1785 89.4834L30.6846 96.9528L38.1785 104.422L45.6725 96.9528L38.1785 89.4834Z" fill="white"/>
<path d="M38.1801 59.6108L30.7646 67.002L23.3386 59.6108L15.8496 67.0753L23.3386 74.5397L30.7541 67.1486L38.1801 74.5502L45.6691 67.0753L38.1801 59.6108Z" fill="white"/>
<path d="M217.973 89.4987L210.479 96.968L217.973 104.437L225.467 96.968L217.973 89.4987Z" fill="white"/>
<path d="M217.955 74.5201L210.461 81.9894L217.955 89.4588L225.449 81.9894L217.955 74.5201Z" fill="white"/>
<path d="M217.958 44.6658L210.464 52.1351L217.958 59.6045L225.452 52.1351L217.958 44.6658Z" fill="white"/>
<path d="M202.984 89.4991L195.49 96.9684L202.984 104.438L210.478 96.9685L202.984 89.4991Z" fill="white"/>
<path d="M187.995 74.5345L180.501 82.0038L187.995 89.4732L195.489 82.0038L187.995 74.5345Z" fill="white"/>
<path d="M188.002 59.6125L180.508 67.0819L188.002 74.5513L195.496 67.0819L188.002 59.6125Z" fill="white"/>
<path d="M187.987 29.7299L180.493 37.1993L187.987 44.6686L195.481 37.1993L187.987 29.7299Z" fill="white"/>
<path d="M173.024 104.407L165.53 111.876L173.024 119.346L180.518 111.876L173.024 104.407Z" fill="white"/>
<path d="M173.014 89.4796L165.519 96.9476L173.011 104.418L180.506 96.9502L173.014 89.4796Z" fill="white"/>
<path d="M173.026 74.538L165.53 82.006L173.023 89.4767L180.518 82.0086L173.026 74.538Z" fill="white"/>
<path d="M158.031 59.5955L150.537 67.0649L158.031 74.5343L165.525 67.0649L158.031 59.5955Z" fill="white"/>
<path d="M173.016 44.6627L165.522 52.1321L173.016 59.6015L180.51 52.1321L173.016 44.6627Z" fill="white"/>
<path d="M143.048 89.4791L150.537 82.0042L158.026 89.4791L165.525 82.0042L158.026 74.5397L150.537 82.0042L143.048 74.5397L150.537 67.0753L143.048 59.6108L135.559 67.0753L143.048 74.5397L135.559 82.0042L143.048 89.4791Z" fill="white"/>
<path d="M143.05 44.6593L135.556 52.1286L143.05 59.598L150.544 52.1286L143.05 44.6593Z" fill="white"/>
<path d="M128.064 89.4821L120.57 96.9515L128.064 104.421L135.558 96.9515L128.064 89.4821Z" fill="white"/>
<path d="M128.071 59.6099L120.577 67.0793L128.071 74.5487L135.565 67.0793L128.071 59.6099Z" fill="white"/>
<path d="M128.067 29.7483L120.573 37.2176L128.067 44.687L135.561 37.2176L128.067 29.7483Z" fill="white"/>
<path d="M8.21172 89.48L0.717773 96.9493L8.21172 104.419L15.7057 96.9493L8.21172 89.48Z" fill="white"/>
<path d="M8.20782 59.6078L0.713867 67.0772L8.20782 74.5465L15.7018 67.0772L8.20782 59.6078Z" fill="white"/>
<path d="M8.21368 29.7461L0.719727 37.2155L8.21368 44.6849L15.7076 37.2155L8.21368 29.7461Z" fill="white"/>
<path d="M113.083 89.4752L105.589 96.9445L113.083 104.414L120.577 96.9445L113.083 89.4752Z" fill="white"/>
<path d="M113.083 74.5249L105.589 81.9943L113.083 89.4636L120.577 81.9943L113.083 74.5249Z" fill="white"/>
<path d="M113.09 44.6737L105.596 52.143L113.09 59.6124L120.584 52.143L113.09 44.6737Z" fill="white"/>
<path d="M277.891 44.6758L270.397 52.1451L277.891 59.6145L285.385 52.1451L277.891 44.6758Z" fill="white"/>
<path d="M292.811 29.7307L285.317 37.2001L292.811 44.6694L300.305 37.2001L292.811 29.7307Z" fill="white"/>
<path d="M277.835 14.8314L270.341 22.3008L277.835 29.7702L285.329 22.3008L277.835 14.8314Z" fill="white"/>
<path d="M143.051 14.8451L135.557 22.3144L143.051 29.7838L150.545 22.3144L143.051 14.8451Z" fill="white"/>
<path d="M83.1209 14.8529L75.627 22.3223L83.1209 29.7917L90.6149 22.3223L83.1209 14.8529Z" fill="white"/>
<path d="M367.929 -0.00572553L360.435 7.46364L367.929 14.933L375.422 7.46364L367.929 -0.00572553Z" fill="white"/>
<path d="M532.738 119.358L532.759 119.337H532.77L540.259 111.883L532.77 104.418L540.259 96.9539L547.748 104.418L540.259 111.883L547.748 119.347L555.237 111.883L547.748 104.418L555.237 96.9539L547.748 89.4895L540.259 96.9539L532.77 89.4895L532.749 89.5104H532.738L525.249 96.9644L532.738 104.429L525.249 111.893L532.738 119.358ZM532.759 104.397H532.77L532.749 104.439H532.738L532.759 104.397Z" fill="white"/>
<path d="M532.738 74.5502L525.238 82.0146L532.738 89.479L532.759 89.4581L532.769 89.4686L540.269 82.0041L547.758 89.4686L555.247 82.0041L547.758 74.5397L540.269 82.0041L532.769 74.5397L540.269 67.0752L532.769 59.6003L532.748 59.6317L532.738 59.6108L525.238 67.0857L532.738 74.5502L532.759 74.5187L532.769 74.5397L532.748 74.5606L532.738 74.5502Z" fill="white"/>
<path d="M562.814 59.5862L555.32 67.0555L562.814 74.5249L570.308 67.0555L562.814 59.5862Z" fill="white"/>
<path d="M577.819 119.347L574.069 123.074L577.819 119.347Z" fill="white"/>
<path d="M532.709 29.7274L525.215 37.1967L532.709 44.6661L540.203 37.1967L532.709 29.7274Z" fill="white"/>
<path d="M502.771 74.5502L495.282 82.0146L502.771 89.479L510.26 82.0146L517.749 89.479L525.238 82.0146L517.749 74.5502L510.26 82.0146L502.771 74.5502L510.26 67.0857L502.771 59.6108L495.282 67.0857L502.771 74.5502Z" fill="white"/>
<path d="M502.771 59.6108L510.26 52.1464L517.749 59.6108L525.238 52.1464L517.749 44.6819L510.26 52.1464L502.771 44.6819L495.282 52.1464L502.771 59.6108Z" fill="white"/>
<path d="M487.783 119.358L495.272 111.883L487.783 104.418L495.272 96.9539L487.783 89.4895L480.294 96.9539L487.783 104.418L480.294 111.883L487.783 119.358Z" fill="white"/>
<path d="M487.764 59.5786L480.271 67.048L487.764 74.5174L495.258 67.048L487.764 59.5786Z" fill="white"/>
<path d="M487.803 29.7575L480.308 37.2256L487.8 44.6963L495.296 37.2282L487.803 29.7575Z" fill="white"/>
<path d="M472.807 74.5354L465.313 82.0048L472.807 89.4742L480.301 82.0048L472.807 74.5354Z" fill="white"/>
<path d="M202.98 59.6108L195.48 67.0753L202.98 74.5397L195.48 82.0146L202.98 89.4791L210.469 82.0146L202.98 74.5397L210.469 67.0753L202.98 59.6108Z" fill="white"/>
<path d="M472.81 44.6812L465.316 52.1505L472.81 59.6199L480.304 52.1505L472.81 44.6812Z" fill="white"/>
<path d="M457.797 74.5149L450.303 81.9843L457.797 89.4537L465.291 81.9843L457.797 74.5149Z" fill="white"/>
<path d="M457.847 59.6349L450.353 67.1043L457.846 74.5736L465.34 67.1043L457.847 59.6349Z" fill="white"/>
<path d="M457.8 29.7209L450.306 37.1902L457.8 44.6596L465.294 37.1902L457.8 29.7209Z" fill="white"/>
<path d="M442.839 89.4895L435.35 96.9539L442.839 104.418L435.35 111.883L442.839 119.347L450.328 111.883L442.839 104.418L450.328 96.9539L442.839 89.4895Z" fill="white"/>
<path d="M435.35 67.0753L442.839 74.5502L450.328 67.0753L442.839 59.6108L450.328 52.1464L442.839 44.6819L435.35 52.1464L442.839 59.6108L435.35 67.0753Z" fill="white"/>
<path d="M427.865 74.5324L420.371 82.0018L427.865 89.4711L435.359 82.0018L427.865 74.5324Z" fill="white"/>
<path d="M427.869 44.6781L420.375 52.1475L427.869 59.6169L435.363 52.1475L427.869 44.6781Z" fill="white"/>
<path d="M427.865 14.806L420.371 22.2753L427.865 29.7447L435.359 22.2753L427.865 14.806Z" fill="white"/>
<path d="M487.828 14.8073L480.334 22.2767L487.828 29.746L495.322 22.2767L487.828 14.8073Z" fill="white"/>
<path d="M412.894 89.5009L405.398 96.9689L412.891 104.44L420.386 96.9715L412.894 89.5009Z" fill="white"/>
<path d="M412.872 89.479L420.371 82.0146L412.882 74.5502L420.371 67.0857L412.882 59.6108L420.371 52.1464L412.882 44.6819L405.383 52.1464L412.872 59.6108L405.383 67.0857L412.872 74.5502L405.383 82.0146L412.872 89.479Z" fill="white"/>
<path d="M397.895 74.5363L390.401 82.0057L397.895 89.475L405.389 82.0057L397.895 74.5363Z" fill="white"/>
<path d="M397.902 59.6039L390.408 67.0733L397.902 74.5427L405.396 67.0733L397.902 59.6039Z" fill="white"/>
<path d="M397.877 29.7213L390.383 37.1907L397.877 44.66L405.371 37.1907L397.877 29.7213Z" fill="white"/>
<path d="M382.928 104.437L375.434 111.907L382.928 119.376L390.421 111.907L382.928 104.437Z" fill="white"/>
<path d="M382.928 89.5079L375.434 96.9773L382.928 104.447L390.421 96.9773L382.928 89.5079Z" fill="white"/>
<path d="M382.928 74.5682L375.434 82.0375L382.928 89.5069L390.421 82.0375L382.928 74.5682Z" fill="white"/>
<path d="M367.953 59.6288L360.459 67.0982L367.953 74.5675L375.447 67.0982L367.953 59.6288Z" fill="white"/>
<path d="M382.93 44.7034L375.437 52.1728L382.93 59.6421L390.424 52.1728L382.93 44.7034Z" fill="white"/>
<path d="M360.439 96.9539L367.928 104.418L375.417 96.9539L367.928 89.479L360.439 96.9539L352.95 89.479L345.461 96.9539L352.95 104.418L360.439 96.9539Z" fill="white"/>
<path d="M352.95 89.479L360.439 82.0041L367.928 89.479L375.417 82.0041L367.928 74.5397L360.439 82.0041L352.95 74.5397L360.439 67.0752L352.95 59.6108L345.461 67.0752L352.95 74.5397L345.461 82.0041L352.95 89.479Z" fill="white"/>
<path d="M352.939 44.6507L345.445 52.12L352.939 59.5894L360.433 52.12L352.939 44.6507Z" fill="white"/>
<path d="M337.965 89.4735L330.471 96.9429L337.965 104.412L345.459 96.9429L337.965 89.4735Z" fill="white"/>
<path d="M337.971 59.6118L330.478 67.0812L337.971 74.5505L345.465 67.0812L337.971 59.6118Z" fill="white"/>
<path d="M337.968 29.7397L330.474 37.209L337.968 44.6784L345.462 37.209L337.968 29.7397Z" fill="white"/>
<path d="M322.983 89.477L315.489 96.9464L322.983 104.416L330.477 96.9464L322.983 89.477Z" fill="white"/>
<path d="M322.972 74.5163L315.479 81.9857L322.972 89.455L330.466 81.9857L322.972 74.5163Z" fill="white"/>
<path d="M322.99 44.6651L315.496 52.1344L322.99 59.6038L330.484 52.1344L322.99 44.6651Z" fill="white"/>
<path d="M308.005 59.6108L307.921 59.6841L300.516 67.0752L307.931 74.4664L308.005 74.5397L315.494 67.0752L308.005 59.6108Z" fill="white"/>
<path d="M23.1971 74.5472L15.7031 82.0165L23.1971 89.4859L30.691 82.0165L23.1971 74.5472Z" fill="white"/>
<path d="M23.1932 44.6855L15.6992 52.1548L23.1932 59.6242L30.6871 52.1548L23.1932 44.6855Z" fill="white"/>
<path d="M1327.6 44.6805L1320.1 52.1499L1327.6 59.6192L1335.09 52.1499L1327.6 44.6805Z" fill="white"/>
<path d="M1342.62 89.5H1342.61H1342.59L1335.1 96.9644L1327.61 89.5L1320.12 96.9644L1327.61 104.429L1320.12 111.893L1327.61 119.358L1335.1 111.893L1327.61 104.429L1335.1 96.9644L1342.59 104.429L1335.1 111.893L1342.59 119.358H1342.6H1342.62L1350.11 111.893L1342.62 104.429L1350.11 96.9644L1342.62 89.5ZM1342.61 104.45L1342.59 104.429H1342.6H1342.62H1342.61V104.45Z" fill="white"/>
<path d="M1342.62 74.5606L1350.11 67.0962L1342.62 59.6213L1342.6 59.6422L1342.58 59.6108L1335.08 67.0857L1342.58 74.5502L1335.08 82.0146L1327.59 74.5502L1320.1 82.0146L1327.59 89.479L1335.08 82.0146L1342.58 89.479L1342.59 89.4686L1342.62 89.4895L1350.11 82.0251L1342.62 74.5606L1342.6 74.5711L1342.58 74.5502L1342.59 74.5292L1342.62 74.5606Z" fill="white"/>
<path d="M1342.62 29.7643L1335.13 37.2337L1342.62 44.7031L1350.12 37.2337L1342.62 29.7643Z" fill="white"/>
<path d="M1365.09 82.0251L1372.58 89.4895L1380.08 82.0251L1372.58 74.5606L1380.08 67.0857L1372.58 59.6213L1365.09 67.0857L1372.58 74.5606L1365.09 82.0251L1357.6 74.5606L1350.11 82.0251L1357.6 89.4895L1365.09 82.0251Z" fill="white"/>
<path d="M1365.09 52.1569L1372.58 59.6213L1380.08 52.1569L1372.58 44.6924L1365.09 52.1569L1357.6 44.6924L1350.11 52.1569L1357.6 59.6213L1365.09 52.1569Z" fill="white"/>
<path d="M1387.57 59.6322L1380.08 67.1015L1387.57 74.5709L1395.07 67.1015L1387.57 59.6322Z" fill="white"/>
<path d="M1387.5 29.6941L1380.01 37.1635L1387.5 44.6328L1395 37.1635L1387.5 29.6941Z" fill="white"/>
<path d="M1402.62 74.6269L1395.12 82.0962L1402.62 89.5656L1410.11 82.0962L1402.62 74.6269Z" fill="white"/>
<path d="M1402.54 44.6924L1395.06 52.1569L1402.54 59.6213L1395.06 67.0857L1402.54 74.5606L1410.03 67.0857L1402.54 59.6213L1410.03 52.1569L1402.54 44.6924Z" fill="white"/>
<path d="M1417.52 74.5501L1410.03 82.0194L1417.52 89.4888L1425.02 82.0195L1417.52 74.5501Z" fill="white"/>
<path d="M1417.53 59.6177L1410.04 67.0871L1417.53 74.5564L1425.03 67.0871L1417.53 59.6177Z" fill="white"/>
<path d="M1417.59 29.8189L1410.1 37.2882L1417.59 44.7576L1425.08 37.2882L1417.59 29.8189Z" fill="white"/>
<path d="M1065.01 96.9644L1072.5 104.429H1072.51L1080 96.9644L1072.51 89.5L1065.01 96.9644Z" fill="white"/>
<path d="M967.592 44.6309L960.098 52.1003L967.592 59.5696L975.086 52.1003L967.592 44.6309Z" fill="white"/>
<path d="M1057.53 89.4895L1065.01 82.0251L1072.51 89.4895L1080 82.0251L1072.51 74.5606L1065.01 82.0251L1057.53 74.5606L1065.01 67.0857L1057.53 59.6213L1050.04 67.0857L1057.53 74.5606L1050.04 82.0251L1057.53 89.4895Z" fill="white"/>
<path d="M1057.53 44.6893L1050.03 52.1587L1057.53 59.6281L1065.02 52.1587L1057.53 44.6893Z" fill="white"/>
<path d="M1035.05 82.0355L1042.54 89.4895L1050.03 82.0251L1042.54 74.5606L1035.05 82.0146L1027.56 74.5606L1020.07 82.0251L1027.56 89.4895L1035.05 82.0355Z" fill="white"/>
<path d="M1027.56 74.5606L1035.06 67.0857L1027.56 59.6213L1035.06 52.1569L1027.56 44.6924L1020.07 52.1569L1027.56 59.6213L1020.07 67.0857L1027.56 74.5606Z" fill="white"/>
<path d="M1012.63 89.5505L1005.14 97.0199L1012.63 104.489L1020.13 97.0199L1012.63 89.5505Z" fill="white"/>
<path d="M1012.63 74.6033L1005.14 82.0727L1012.63 89.5421L1020.13 82.0727L1012.63 74.6033Z" fill="white"/>
<path d="M1012.59 59.6186L1005.09 67.088L1012.59 74.5574L1020.08 67.088L1012.59 59.6186Z" fill="white"/>
<path d="M997.652 59.6714L990.158 67.1408L997.652 74.6102L1005.15 67.1408L997.652 59.6714Z" fill="white"/>
<path d="M982.619 89.4917L975.125 96.9611L982.619 104.43L990.113 96.961L982.619 89.4917Z" fill="white"/>
<path d="M982.614 89.4895L990.103 82.0251L982.614 74.5606L990.103 67.0962L982.614 59.6213L975.125 67.0962L982.614 74.5606L975.125 82.0251L982.614 89.4895Z" fill="white"/>
<path d="M982.614 59.6213L990.103 52.1569L982.614 44.6924L990.103 37.228L982.614 29.7531L975.125 37.228L982.614 44.6924L975.125 52.1569L982.614 59.6213Z" fill="white"/>
<path d="M967.682 89.5401L960.188 97.0095L967.682 104.479L975.176 97.0095L967.682 89.5401Z" fill="white"/>
<path d="M967.682 74.6003L960.188 82.0697L967.682 89.539L975.176 82.0697L967.682 74.6003Z" fill="white"/>
<path d="M952.693 74.6007L945.199 82.0701L952.693 89.5395L960.187 82.0701L952.693 74.6007Z" fill="white"/>
<path d="M952.648 59.616L945.154 67.0854L952.648 74.5548L960.142 67.0854L952.648 59.616Z" fill="white"/>
<path d="M952.601 29.702L945.107 37.1714L952.601 44.6407L960.095 37.1713L952.601 29.702Z" fill="white"/>
<path d="M1042.55 59.6108L1050.04 52.1464L1042.56 44.6819L1050.04 37.228L1042.55 29.7635L1035.06 37.228L1042.54 44.6819L1035.06 52.1464L1042.55 59.6108Z" fill="white"/>
<path d="M1072.45 29.7041L1064.96 37.1735L1072.45 44.6429L1079.95 37.1735L1072.45 29.7041Z" fill="white"/>
<path d="M1012.54 14.8123L1005.04 22.2817L1012.54 29.751L1020.03 22.2817L1012.54 14.8123Z" fill="white"/>
<path d="M967.595 14.8093L960.102 22.2786L967.596 29.748L975.089 22.2787L967.595 14.8093Z" fill="white"/>
<path d="M1117.6 0.00130092L1110.11 7.47064L1117.6 14.94L1125.1 7.47067L1117.6 0.00130092Z" fill="white"/>
<path d="M1327.39 0.00076704L1319.9 7.4702L1327.39 14.9396L1334.88 7.47013L1327.39 0.00076704Z" fill="white"/>
<path d="M1402.55 0.00763332L1395.05 7.47697L1402.55 14.9463L1410.04 7.477L1402.55 0.00763332Z" fill="white"/>
<path d="M1207.51 0.00731434L1200.01 7.47675L1207.51 14.9461L1215 7.47668L1207.51 0.00731434Z" fill="white"/>
<path d="M1312.48 104.496L1304.99 111.965L1312.48 119.434L1319.98 111.965L1312.48 104.496Z" fill="white"/>
<path d="M1312.47 44.7409L1304.98 52.2104L1312.47 59.6797L1319.97 52.2103L1312.47 44.7409Z" fill="white"/>
<path d="M1297.44 104.418L1304.92 96.9539L1297.44 89.4895L1297.4 89.5104L1297.39 89.5L1289.9 96.9644L1297.39 104.429L1297.41 104.408L1297.44 104.418Z" fill="white"/>
<path d="M1297.39 119.368L1297.41 119.337L1297.44 119.358L1304.92 111.893L1297.44 104.418L1297.4 104.45L1297.39 104.429L1289.9 111.893L1297.39 119.368Z" fill="white"/>
<path d="M1297.39 74.5606L1289.9 82.0251L1297.39 89.4895L1297.41 89.4686L1297.44 89.479L1304.92 82.0146L1312.41 89.479L1319.9 82.0146L1312.41 74.5502L1304.92 82.0146L1297.44 74.5502L1304.89 67.1067L1312.37 74.5606L1319.86 67.0962L1312.37 59.6213L1304.9 67.0648L1297.44 59.6108L1297.4 59.6422L1297.39 59.6213L1289.9 67.0962L1297.39 74.5606L1297.41 74.5292L1297.44 74.5502L1297.4 74.5711L1297.39 74.5606Z" fill="white"/>
<path d="M1297.33 29.6995L1289.84 37.1688L1297.33 44.6382L1304.83 37.1688L1297.33 29.6995Z" fill="white"/>
<path d="M1267.43 89.4895L1274.92 82.0251L1282.41 89.4895L1289.9 82.0251L1282.41 74.5606L1274.92 82.0251L1267.43 74.5606L1274.92 67.0857L1267.43 59.6213L1259.94 67.0857L1267.43 74.5606L1259.94 82.0251L1267.43 89.4895Z" fill="white"/>
<path d="M1274.92 52.1569L1282.41 59.6213L1289.9 52.1569L1282.41 44.6924L1274.92 52.1569L1267.43 44.6924L1259.94 52.1569L1267.43 59.6213L1274.92 52.1569Z" fill="white"/>
<path d="M1252.39 59.5612L1244.89 67.0305L1252.39 74.4999L1259.88 67.0306L1252.39 59.5612Z" fill="white"/>
<path d="M1252.48 29.7923L1244.99 37.2603L1252.48 44.731L1259.97 37.263L1252.48 29.7923Z" fill="white"/>
<path d="M1237.46 74.5494L1229.97 82.0188L1237.46 89.4881L1244.96 82.0188L1237.46 74.5494Z" fill="white"/>
<path d="M1237.46 74.5606L1244.95 67.0857L1237.46 59.6213L1244.95 52.1569L1237.46 44.6924L1229.97 52.1569L1237.46 59.6213L1229.97 67.0857L1237.46 74.5606Z" fill="white"/>
<path d="M1222.54 74.6231L1215.04 82.0925L1222.54 89.5619L1230.03 82.0924L1222.54 74.6231Z" fill="white"/>
<path d="M1222.48 59.6279L1214.99 67.0973L1222.48 74.5667L1229.98 67.0973L1222.48 59.6279Z" fill="white"/>
<path d="M1222.42 29.7034L1214.93 37.1728L1222.42 44.6422L1229.92 37.1728L1222.42 29.7034Z" fill="white"/>
<path d="M1207.55 104.485L1200.05 111.955L1207.55 119.424L1215.04 111.955L1207.55 104.485Z" fill="white"/>
<path d="M1207.51 89.5109L1200.02 96.9804L1207.51 104.45L1215.01 96.9803L1207.51 89.5109Z" fill="white"/>
<path d="M1207.51 59.6314L1200.02 67.1008L1207.51 74.5702L1215 67.1007L1207.51 59.6314Z" fill="white"/>
<path d="M1192.48 89.4307L1184.98 96.9001L1192.48 104.369L1199.97 96.9001L1192.48 89.4307Z" fill="white"/>
<path d="M1192.58 74.6091L1185.08 82.0785L1192.58 89.5479L1200.07 82.0785L1192.58 74.6091Z" fill="white"/>
<path d="M1192.53 44.6816L1185.03 52.1509L1192.53 59.6203L1200.02 52.1509L1192.53 44.6816Z" fill="white"/>
<path d="M1192.52 14.8199L1185.03 22.2892L1192.52 29.7586L1200.02 22.2893L1192.52 14.8199Z" fill="white"/>
<path d="M1087.54 14.8181L1080.05 22.2874L1087.54 29.7568L1095.03 22.2875L1087.54 14.8181Z" fill="white"/>
<path d="M1282.4 14.8155L1274.91 22.2849L1282.4 29.7542L1289.9 22.2849L1282.4 14.8155Z" fill="white"/>
<path d="M1372.47 14.8288L1364.98 22.2981L1372.47 29.7675L1379.96 22.2982L1372.47 14.8288Z" fill="white"/>
<path d="M1177.57 89.5356L1170.08 97.0037L1177.57 104.474L1185.06 97.0063L1177.57 89.5356Z" fill="white"/>
<path d="M1177.54 89.4895L1185.03 82.0251L1177.54 74.5606L1185.03 67.0857L1177.54 59.6213L1185.03 52.1569L1177.54 44.6924L1170.05 52.1569L1177.54 59.6213L1170.05 67.0857L1177.54 74.5502L1170.04 82.0251L1177.54 89.4895Z" fill="white"/>
<path d="M1162.56 74.5607L1155.07 82.0301L1162.56 89.4995L1170.06 82.0301L1162.56 74.5607Z" fill="white"/>
<path d="M1162.56 59.6284L1155.06 67.0977L1162.56 74.5671L1170.05 67.0977L1162.56 59.6284Z" fill="white"/>
<path d="M1162.5 29.6934L1155.01 37.1628L1162.5 44.6321L1170 37.1628L1162.5 29.6934Z" fill="white"/>
<path d="M1147.58 104.423L1140.09 111.892L1147.58 119.362L1155.08 111.892L1147.58 104.423Z" fill="white"/>
<path d="M1147.6 89.5106L1140.1 96.9786L1147.59 104.449L1155.09 96.9813L1147.6 89.5106Z" fill="white"/>
<path d="M1147.6 74.5794L1140.1 82.0475L1147.6 89.5182L1155.09 82.0501L1147.6 74.5794Z" fill="white"/>
<path d="M1125.09 67.0857L1132.58 74.5502L1140.08 67.0857L1132.59 59.6213L1140.08 52.1569L1132.59 44.6924L1125.09 52.1569L1132.58 59.6213L1125.09 67.0857Z" fill="white"/>
<path d="M1147.53 44.6262L1140.04 52.0956L1147.53 59.5649L1155.02 52.0956L1147.53 44.6262Z" fill="white"/>
<path d="M1125.09 96.9644L1132.58 104.429L1140.08 96.9644L1132.58 89.4895L1125.09 96.9644L1117.61 89.4895L1110.12 96.9644L1117.61 104.429L1125.09 96.9644Z" fill="white"/>
<path d="M1117.61 89.4895L1125.09 82.0146L1132.58 89.4895L1140.08 82.0146L1132.58 74.5502L1125.09 82.0146L1117.61 74.5502L1125.09 67.0857L1117.61 59.6213L1110.12 67.0857L1117.61 74.5502L1110.12 82.0146L1117.61 89.4895Z" fill="white"/>
<path d="M1117.55 44.6228L1110.06 52.0921L1117.55 59.5615L1125.05 52.0922L1117.55 44.6228Z" fill="white"/>
<path d="M1102.62 89.4979L1095.13 96.9673L1102.62 104.437L1110.12 96.9673L1102.62 89.4979Z" fill="white"/>
<path d="M1102.63 59.6257L1095.13 67.0952L1102.63 74.5645L1110.12 67.0951L1102.63 59.6257Z" fill="white"/>
<path d="M1102.62 29.7536L1095.13 37.223L1102.62 44.6924L1110.12 37.2229L1102.62 29.7536Z" fill="white"/>
<path d="M1087.64 89.4805L1080.15 96.9499L1087.64 104.419L1095.13 96.9498L1087.64 89.4805Z" fill="white"/>
<path d="M1087.62 74.5224L1080.13 81.9931L1087.62 89.4612L1095.11 81.9905L1087.62 74.5224Z" fill="white"/>
<path d="M1087.69 44.7313L1080.19 52.2008L1087.69 59.6701L1095.18 52.2007L1087.69 44.7313Z" fill="white"/>
<path d="M1072.58 59.6946L1065.17 67.0857L1072.59 74.4769L1072.66 74.5502L1080.15 67.0857L1072.66 59.6213L1072.58 59.6946Z" fill="white"/>
</g>
<defs>
<clipPath id="clip0_21_4197">
<rect width="1440" height="435" fill="white"/>
</clipPath>
</defs>
</svg>
