<svg width="40" height="40" viewBox="0 0 40 40" fill="none" xmlns="http://www.w3.org/2000/svg">
<path fill-rule="evenodd" clip-rule="evenodd" d="M19.5995 10.691C17.2367 10.691 14.9706 11.6297 13.2998 13.3005C11.6291 14.9712 10.6904 17.2373 10.6904 19.6001C10.6904 21.963 11.6291 24.229 13.2998 25.8998C14.9706 27.5706 17.2367 28.5092 19.5995 28.5092C21.9624 28.5092 24.2284 27.5706 25.8992 25.8998C27.57 24.229 28.5086 21.963 28.5086 19.6001C28.5086 17.2373 27.57 14.9712 25.8992 13.3005C24.2284 11.6297 21.9624 10.691 19.5995 10.691ZM14.2541 19.6001C14.2541 21.0178 14.8172 22.3775 15.8197 23.3799C16.8222 24.3824 18.1818 24.9456 19.5995 24.9456C21.0172 24.9456 22.3769 24.3824 23.3793 23.3799C24.3818 22.3775 24.945 21.0178 24.945 19.6001C24.945 18.1824 24.3818 16.8228 23.3793 15.8203C22.3769 14.8179 21.0172 14.2547 19.5995 14.2547C18.1818 14.2547 16.8222 14.8179 15.8197 15.8203C14.8172 16.8228 14.2541 18.1824 14.2541 19.6001Z" fill="#6CC72B"/>
<path d="M30.2906 7.1272C29.818 7.1272 29.3648 7.31492 29.0307 7.64908C28.6965 7.98324 28.5088 8.43645 28.5088 8.90902C28.5088 9.38158 28.6965 9.8348 29.0307 10.169C29.3648 10.5031 29.818 10.6908 30.2906 10.6908C30.7632 10.6908 31.2164 10.5031 31.5505 10.169C31.8847 9.8348 32.0724 9.38158 32.0724 8.90902C32.0724 8.43645 31.8847 7.98324 31.5505 7.64908C31.2164 7.31492 30.7632 7.1272 30.2906 7.1272Z" fill="#6CC72B"/>
<path fill-rule="evenodd" clip-rule="evenodd" d="M7.12727 0C5.237 0 3.42415 0.750907 2.08753 2.08753C0.750907 3.42415 0 5.237 0 7.12727V32.0727C0 33.963 0.750907 35.7758 2.08753 37.1125C3.42415 38.4491 5.237 39.2 7.12727 39.2H32.0727C33.963 39.2 35.7758 38.4491 37.1125 37.1125C38.4491 35.7758 39.2 33.963 39.2 32.0727V7.12727C39.2 5.237 38.4491 3.42415 37.1125 2.08753C35.7758 0.750907 33.963 0 32.0727 0H7.12727ZM32.0727 3.56364H7.12727C6.18214 3.56364 5.27571 3.93909 4.6074 4.6074C3.93909 5.27571 3.56364 6.18214 3.56364 7.12727V32.0727C3.56364 33.0179 3.93909 33.9243 4.6074 34.5926C5.27571 35.2609 6.18214 35.6364 7.12727 35.6364H32.0727C33.0179 35.6364 33.9243 35.2609 34.5926 34.5926C35.2609 33.9243 35.6364 33.0179 35.6364 32.0727V7.12727C35.6364 6.18214 35.2609 5.27571 34.5926 4.6074C33.9243 3.93909 33.0179 3.56364 32.0727 3.56364Z" fill="#6CC72B"/>
</svg>
