<svg width="40" height="40" viewBox="0 0 40 40" fill="none" xmlns="http://www.w3.org/2000/svg">
<path fill-rule="evenodd" clip-rule="evenodd" d="M19.6 10.6909C17.2372 10.6909 14.9711 11.6296 13.3003 13.3003C11.6296 14.9711 10.6909 17.2372 10.6909 19.6C10.6909 21.9628 11.6296 24.2289 13.3003 25.8997C14.9711 27.5705 17.2372 28.5091 19.6 28.5091C21.9628 28.5091 24.2289 27.5705 25.8997 25.8997C27.5705 24.2289 28.5091 21.9628 28.5091 19.6C28.5091 17.2372 27.5705 14.9711 25.8997 13.3003C24.2289 11.6296 21.9628 10.6909 19.6 10.6909ZM14.2546 19.6C14.2546 21.0177 14.8177 22.3773 15.8202 23.3798C16.8227 24.3823 18.1823 24.9455 19.6 24.9455C21.0177 24.9455 22.3773 24.3823 23.3798 23.3798C24.3823 22.3773 24.9455 21.0177 24.9455 19.6C24.9455 18.1823 24.3823 16.8227 23.3798 15.8202C22.3773 14.8177 21.0177 14.2546 19.6 14.2546C18.1823 14.2546 16.8227 14.8177 15.8202 15.8202C14.8177 16.8227 14.2546 18.1823 14.2546 19.6Z" fill="#6CC72B"/>
<path d="M30.2909 7.1272C29.8183 7.1272 29.3651 7.31492 29.0309 7.64908C28.6968 7.98324 28.509 8.43645 28.509 8.90902C28.509 9.38158 28.6968 9.8348 29.0309 10.169C29.3651 10.5031 29.8183 10.6908 30.2909 10.6908C30.7634 10.6908 31.2166 10.5031 31.5508 10.169C31.8849 9.8348 32.0727 9.38158 32.0727 8.90902C32.0727 8.43645 31.8849 7.98324 31.5508 7.64908C31.2166 7.31492 30.7634 7.1272 30.2909 7.1272Z" fill="#6CC72B"/>
<path fill-rule="evenodd" clip-rule="evenodd" d="M7.12727 0C5.237 0 3.42415 0.750907 2.08753 2.08753C0.750907 3.42415 0 5.237 0 7.12727V32.0727C0 33.963 0.750907 35.7758 2.08753 37.1125C3.42415 38.4491 5.237 39.2 7.12727 39.2H32.0727C33.963 39.2 35.7758 38.4491 37.1125 37.1125C38.4491 35.7758 39.2 33.963 39.2 32.0727V7.12727C39.2 5.237 38.4491 3.42415 37.1125 2.08753C35.7758 0.750907 33.963 0 32.0727 0H7.12727ZM32.0727 3.56364H7.12727C6.18214 3.56364 5.27571 3.93909 4.6074 4.6074C3.93909 5.27571 3.56364 6.18214 3.56364 7.12727V32.0727C3.56364 33.0179 3.93909 33.9243 4.6074 34.5926C5.27571 35.2609 6.18214 35.6364 7.12727 35.6364H32.0727C33.0179 35.6364 33.9243 35.2609 34.5926 34.5926C35.2609 33.9243 35.6364 33.0179 35.6364 32.0727V7.12727C35.6364 6.18214 35.2609 5.27571 34.5926 4.6074C33.9243 3.93909 33.0179 3.56364 32.0727 3.56364Z" fill="#6CC72B"/>
</svg>
