<svg width="40" height="40" viewBox="0 0 40 40" fill="none" xmlns="http://www.w3.org/2000/svg">
<path fill-rule="evenodd" clip-rule="evenodd" d="M19.5995 10.6909C17.2367 10.6909 14.9706 11.6296 13.2998 13.3003C11.6291 14.9711 10.6904 17.2372 10.6904 19.6C10.6904 21.9628 11.6291 24.2289 13.2998 25.8997C14.9706 27.5705 17.2367 28.5091 19.5995 28.5091C21.9624 28.5091 24.2284 27.5705 25.8992 25.8997C27.57 24.2289 28.5086 21.9628 28.5086 19.6C28.5086 17.2372 27.57 14.9711 25.8992 13.3003C24.2284 11.6296 21.9624 10.6909 19.5995 10.6909ZM14.2541 19.6C14.2541 21.0177 14.8172 22.3773 15.8197 23.3798C16.8222 24.3823 18.1818 24.9455 19.5995 24.9455C21.0172 24.9455 22.3769 24.3823 23.3793 23.3798C24.3818 22.3773 24.945 21.0177 24.945 19.6C24.945 18.1823 24.3818 16.8227 23.3793 15.8202C22.3769 14.8177 21.0172 14.2546 19.5995 14.2546C18.1818 14.2546 16.8222 14.8177 15.8197 15.8202C14.8172 16.8227 14.2541 18.1823 14.2541 19.6Z" fill="#6CC72B"/>
<path d="M30.2906 7.1272C29.818 7.1272 29.3648 7.31492 29.0307 7.64908C28.6965 7.98324 28.5088 8.43645 28.5088 8.90902C28.5088 9.38158 28.6965 9.8348 29.0307 10.169C29.3648 10.5031 29.818 10.6908 30.2906 10.6908C30.7632 10.6908 31.2164 10.5031 31.5505 10.169C31.8847 9.8348 32.0724 9.38158 32.0724 8.90902C32.0724 8.43645 31.8847 7.98324 31.5505 7.64908C31.2164 7.31492 30.7632 7.1272 30.2906 7.1272Z" fill="#6CC72B"/>
<path fill-rule="evenodd" clip-rule="evenodd" d="M7.12727 0C5.237 0 3.42415 0.750907 2.08753 2.08753C0.750907 3.42415 0 5.237 0 7.12727V32.0727C0 33.963 0.750907 35.7758 2.08753 37.1125C3.42415 38.4491 5.237 39.2 7.12727 39.2H32.0727C33.963 39.2 35.7758 38.4491 37.1125 37.1125C38.4491 35.7758 39.2 33.963 39.2 32.0727V7.12727C39.2 5.237 38.4491 3.42415 37.1125 2.08753C35.7758 0.750907 33.963 0 32.0727 0H7.12727ZM32.0727 3.56364H7.12727C6.18214 3.56364 5.27571 3.93909 4.6074 4.6074C3.93909 5.27571 3.56364 6.18214 3.56364 7.12727V32.0727C3.56364 33.0179 3.93909 33.9243 4.6074 34.5926C5.27571 35.2609 6.18214 35.6364 7.12727 35.6364H32.0727C33.0179 35.6364 33.9243 35.2609 34.5926 34.5926C35.2609 33.9243 35.6364 33.0179 35.6364 32.0727V7.12727C35.6364 6.18214 35.2609 5.27571 34.5926 4.6074C33.9243 3.93909 33.0179 3.56364 32.0727 3.56364Z" fill="#6CC72B"/>
</svg>
