<svg width="185" height="58" viewBox="0 0 185 58" fill="none" xmlns="http://www.w3.org/2000/svg">
<path d="M41.8925 0L32.8245 9.01764L42.4967 18.6346L32.8245 28.2515L41.8925 37.2692L60.6343 18.6346L41.8925 0Z" fill="#6CC72B"/>
<path d="M18.7416 0.000206439L0 18.6346L18.7416 37.269L37.4832 18.6346L18.7416 0.000206439Z" fill="#6CC72B"/>
<path d="M71.4912 6.13065H77.7122L82.8051 20.4591L88.2849 6.13065H92.0904L97.472 20.2964L102.571 6.13065H108.832L99.5898 31.3146H95.5625L90.1616 16.9639L84.5969 31.3146H80.6158L71.4897 6.13065H71.4912Z" fill="#1D1D1B"/>
<path d="M111.956 6.13066H118.45L125.03 21.933L132.29 6.13066H138.802L122.939 40.5261H116.376L121.583 29.4339L111.956 6.12918V6.13066Z" fill="#1D1D1B"/>
<path d="M166.367 20.5509H145.951C146.245 22.3414 147.033 23.7649 148.314 24.8215C149.594 25.878 151.228 26.4078 153.215 26.4078C155.59 26.4078 157.631 25.5821 159.338 23.9306L164.692 26.43C163.358 28.3122 161.759 29.7047 159.897 30.6073C158.035 31.51 155.824 31.9613 153.263 31.9613C149.289 31.9613 146.053 30.7153 143.555 28.2234C141.056 25.7315 139.807 22.6107 139.807 18.861C139.807 15.1113 141.053 11.8277 143.544 9.28993C146.036 6.75214 149.158 5.48251 152.914 5.48251C156.903 5.48251 160.146 6.75214 162.645 9.28993C165.143 11.8292 166.392 15.1808 166.392 19.3478L166.368 20.5509H166.367ZM160.012 15.5745C159.592 14.1702 158.765 13.0278 157.528 12.1488C156.291 11.2698 154.858 10.8289 153.225 10.8289C151.453 10.8289 149.899 11.3231 148.561 12.3101C147.722 12.9272 146.945 14.0148 146.229 15.5745H160.01H160.012Z" fill="#1D1D1B"/>
<path d="M171.405 6.13065H176.852V9.30177C177.441 8.05137 178.226 7.10285 179.203 6.45471C180.181 5.80658 181.253 5.48251 182.416 5.48251C183.24 5.48251 184.1 5.69856 185 6.13065L183.021 11.5702C182.277 11.2003 181.662 11.0153 181.181 11.0153C180.203 11.0153 179.377 11.6176 178.702 12.8206C178.026 14.0237 177.69 16.3854 177.69 19.9042L177.714 21.1309V31.3161H171.405V6.13065Z" fill="#1D1D1B"/>
<path d="M73.9438 50.069H75.2595V52.413L77.1168 50.069H78.6795L76.2908 53.104L78.9117 56.87H77.3684L75.2595 53.8483V56.87H73.9438V50.069Z" fill="#1D1D1B"/>
<path d="M80.5459 50.069H81.8526V54.4669C81.8526 54.8457 81.8854 55.1135 81.9523 55.2704C82.0193 55.4272 82.1294 55.553 82.2827 55.6462C82.436 55.7395 82.6221 55.7868 82.8379 55.7868C83.067 55.7868 83.265 55.735 83.4302 55.63C83.5954 55.5249 83.71 55.3917 83.774 55.2304C83.838 55.0691 83.8692 54.7599 83.8692 54.3041V50.0676H85.1759V54.1221C85.1759 54.8057 85.1372 55.2807 85.0598 55.5456C84.9825 55.8105 84.8336 56.0665 84.6163 56.3136C84.3976 56.5607 84.146 56.7427 83.8603 56.8611C83.5745 56.9795 83.2442 57.0387 82.8646 57.0387C82.3691 57.0387 81.9375 56.9248 81.5699 56.6984C81.2023 56.4719 80.9403 56.1878 80.7811 55.8475C80.6233 55.5071 80.5444 54.9315 80.5444 54.1206V50.0661L80.5459 50.069ZM81.8288 48.2149C82.0148 48.2149 82.1726 48.28 82.3036 48.4088C82.4345 48.539 82.4985 48.6943 82.4985 48.8764C82.4985 49.0584 82.433 49.2182 82.3036 49.3484C82.1726 49.4771 82.0148 49.5422 81.8288 49.5422C81.6428 49.5422 81.4895 49.4771 81.3585 49.3484C81.229 49.2182 81.1635 49.0613 81.1635 48.8764C81.1635 48.6914 81.229 48.539 81.3585 48.4088C81.488 48.28 81.6458 48.2149 81.8288 48.2149ZM83.8886 48.2149C84.0746 48.2149 84.2324 48.28 84.3633 48.4088C84.4928 48.539 84.5583 48.6943 84.5583 48.8764C84.5583 49.0584 84.4928 49.2182 84.3633 49.3484C84.2338 49.4771 84.0746 49.5422 83.8886 49.5422C83.7025 49.5422 83.5492 49.4771 83.4183 49.3484C83.2888 49.2182 83.2233 49.0613 83.2233 48.8764C83.2233 48.6914 83.2888 48.539 83.4183 48.4088C83.5478 48.28 83.7055 48.2149 83.8886 48.2149Z" fill="#1D1D1B"/>
<path d="M93.7259 51.2647L92.8151 52.1274C92.1959 51.4763 91.4994 51.1507 90.724 51.1507C90.0707 51.1507 89.52 51.3727 89.0721 51.8166C88.6241 52.2606 88.4008 52.8081 88.4008 53.4592C88.4008 53.912 88.5006 54.3159 88.6985 54.6666C88.8964 55.0188 89.1762 55.2941 89.5394 55.4953C89.901 55.6966 90.3043 55.7957 90.7479 55.7957C91.1259 55.7957 91.4712 55.7261 91.7837 55.5856C92.0962 55.445 92.44 55.1905 92.8151 54.8191L93.6976 55.735C93.1916 56.2248 92.7153 56.5652 92.2659 56.7546C91.8164 56.944 91.303 57.0387 90.727 57.0387C89.6644 57.0387 88.7938 56.7028 88.1166 56.0339C87.4394 55.3636 87.1001 54.5039 87.1001 53.4562C87.1001 52.7785 87.2549 52.1762 87.5629 51.6479C87.871 51.1211 88.313 50.6979 88.8875 50.3768C89.462 50.0557 90.0811 49.8959 90.7449 49.8959C91.3089 49.8959 91.8521 50.0143 92.3745 50.251C92.8969 50.4878 93.3464 50.8252 93.7259 51.2617V51.2647Z" fill="#1D1D1B"/>
<path d="M95.6221 50.069H96.9422V52.6349H99.2252V50.069H100.541V56.87H99.2252V53.8883H96.9422V56.87H95.6221V50.069Z" fill="#1D1D1B"/>
<path d="M102.861 50.069H106.595V51.3357H104.154V52.5654H106.595V53.8084H104.154V55.5974H106.595V56.8685H102.861V50.0676V50.069Z" fill="#1D1D1B"/>
<path d="M112.432 52.7193C112.618 52.7193 112.776 52.7829 112.907 52.9117C113.036 53.0404 113.102 53.1973 113.102 53.3822C113.102 53.5672 113.036 53.7211 112.907 53.8513C112.777 53.9815 112.618 54.0466 112.432 54.0466C112.246 54.0466 112.093 53.9815 111.962 53.8513C111.831 53.7211 111.767 53.5657 111.767 53.3822C111.767 53.1987 111.832 53.0404 111.962 52.9117C112.093 52.7829 112.249 52.7193 112.432 52.7193Z" fill="#1D1D1B"/>
<path d="M118.526 56.87V50.069H119.602C120.226 50.069 120.683 50.109 120.972 50.1889C121.381 50.2969 121.707 50.4967 121.949 50.7897C122.192 51.0827 122.313 51.4275 122.313 51.8255C122.313 52.0845 122.257 52.3197 122.147 52.5299C122.037 52.7415 121.859 52.9383 121.61 53.1233C122.025 53.3171 122.329 53.5598 122.521 53.8513C122.713 54.1428 122.81 54.4876 122.81 54.8842C122.81 55.2807 122.71 55.6152 122.512 55.9289C122.314 56.2426 122.058 56.4779 121.744 56.6332C121.43 56.7886 120.997 56.867 120.445 56.867H118.526V56.87ZM119.829 51.3032V52.737H120.113C120.43 52.737 120.666 52.6704 120.82 52.5387C120.973 52.4056 121.05 52.2265 121.05 51.9972C121.05 51.7841 120.978 51.6154 120.832 51.4911C120.686 51.3668 120.463 51.3032 120.165 51.3032H119.829ZM119.829 53.8927V55.6359H120.155C120.695 55.6359 121.059 55.5678 121.248 55.4331C121.436 55.297 121.531 55.1002 121.531 54.8412C121.531 54.5483 121.421 54.3174 121.201 54.1472C120.981 53.9771 120.613 53.8927 120.101 53.8927H119.83H119.829Z" fill="#1D1D1B"/>
<path d="M128.032 49.8989C128.999 49.8989 129.831 50.2466 130.528 50.9436C131.224 51.6405 131.572 52.4899 131.572 53.4902C131.572 54.4906 131.229 55.3222 130.542 56.0103C129.855 56.6969 129.021 57.0417 128.042 57.0417C127.063 57.0417 126.162 56.6895 125.484 55.9836C124.805 55.2778 124.464 54.4388 124.464 53.468C124.464 52.8184 124.622 52.2191 124.939 51.6746C125.256 51.1285 125.691 50.6965 126.244 50.3783C126.798 50.0587 127.395 49.9003 128.033 49.9003L128.032 49.8989ZM128.018 51.1655C127.386 51.1655 126.853 51.3845 126.421 51.8225C125.99 52.2606 125.774 52.8169 125.774 53.4917C125.774 54.2434 126.045 54.8383 126.588 55.2763C127.009 55.6181 127.494 55.7898 128.041 55.7898C128.658 55.7898 129.184 55.5678 129.618 55.1239C130.053 54.68 130.27 54.1324 130.27 53.4828C130.27 52.8332 130.051 52.2872 129.614 51.8388C129.176 51.3905 128.643 51.1655 128.017 51.1655H128.018Z" fill="#1D1D1B"/>
<path d="M133.565 50.069H135.107C136.101 50.069 136.84 50.1919 137.323 50.436C137.807 50.6817 138.204 51.0797 138.517 51.6317C138.829 52.1836 138.986 52.8273 138.986 53.5642C138.986 54.0881 138.898 54.569 138.724 55.0085C138.548 55.448 138.307 55.812 137.999 56.102C137.691 56.392 137.358 56.5918 136.997 56.7028C136.639 56.8138 136.015 56.8685 135.13 56.8685H133.564V50.0676L133.565 50.069ZM134.857 51.318V55.6078H135.462C136.057 55.6078 136.488 55.5397 136.756 55.4036C137.024 55.2674 137.243 55.0395 137.414 54.7184C137.584 54.3973 137.67 54.0022 137.67 53.5332C137.67 52.811 137.468 52.2517 137.061 51.8536C136.695 51.4955 136.109 51.3165 135.299 51.3165H134.857V51.318Z" fill="#1D1D1B"/>
<path d="M140.986 50.069H144.72V51.3357H142.279V52.5654H144.72V53.8084H142.279V55.5974H144.72V56.8685H140.986V50.0676V50.069Z" fill="#1D1D1B"/>
<path d="M146.69 50.069H147.939L150.865 54.5438V50.069H152.167V56.87H150.914L147.991 52.4085V56.87H146.689V50.069H146.69Z" fill="#1D1D1B"/>
<path d="M158.359 52.7193C158.545 52.7193 158.702 52.7829 158.833 52.9117C158.963 53.0404 159.028 53.1973 159.028 53.3822C159.028 53.5672 158.963 53.7211 158.833 53.8513C158.704 53.9815 158.545 54.0466 158.359 54.0466C158.173 54.0466 158.019 53.9815 157.888 53.8513C157.757 53.7211 157.693 53.5657 157.693 53.3822C157.693 53.1987 157.759 53.0404 157.888 52.9117C158.018 52.7829 158.176 52.7193 158.359 52.7193Z" fill="#1D1D1B"/>
<path d="M164.644 56.87V50.069H165.72C166.343 50.069 166.8 50.109 167.089 50.1889C167.498 50.2969 167.824 50.4967 168.067 50.7897C168.309 51.0827 168.43 51.4275 168.43 51.8255C168.43 52.0845 168.375 52.3197 168.264 52.5299C168.154 52.7415 167.976 52.9383 167.727 53.1233C168.142 53.3171 168.446 53.5598 168.638 53.8513C168.83 54.1428 168.927 54.4876 168.927 54.8842C168.927 55.2807 168.827 55.6152 168.629 55.9289C168.431 56.2426 168.175 56.4779 167.861 56.6332C167.547 56.7886 167.116 56.867 166.562 56.867H164.644V56.87ZM165.946 51.3032V52.737H166.23C166.547 52.737 166.784 52.6704 166.937 52.5387C167.092 52.4056 167.168 52.2265 167.168 51.9972C167.168 51.7841 167.095 51.6154 166.949 51.4911C166.803 51.3668 166.58 51.3032 166.282 51.3032H165.946ZM165.946 53.8927V55.6359H166.272C166.812 55.6359 167.177 55.5678 167.366 55.4331C167.553 55.297 167.648 55.1002 167.648 54.8412C167.648 54.5483 167.538 54.3174 167.318 54.1472C167.098 53.9771 166.73 53.8927 166.218 53.8927H165.947H165.946Z" fill="#1D1D1B"/>
<path d="M173.006 50.069H174.326L176.958 56.87H175.605L175.069 55.4687H172.279L171.722 56.87H170.369L173.006 50.069ZM173.675 51.8714L172.756 54.2064H174.585L173.673 51.8714H173.675Z" fill="#1D1D1B"/>
<path d="M178.73 50.069H180.272C181.266 50.069 182.004 50.1919 182.488 50.436C182.972 50.6817 183.369 51.0797 183.681 51.6317C183.994 52.1836 184.15 52.8273 184.15 53.5642C184.15 54.0881 184.062 54.569 183.888 55.0085C183.713 55.448 183.472 55.812 183.164 56.102C182.855 56.392 182.522 56.5918 182.162 56.7028C181.803 56.8138 181.18 56.8685 180.294 56.8685H178.729V50.0676L178.73 50.069ZM180.022 51.318V55.6078H180.626C181.221 55.6078 181.653 55.5397 181.921 55.4036C182.189 55.2674 182.408 55.0395 182.579 54.7184C182.748 54.3973 182.835 54.0022 182.835 53.5332C182.835 52.811 182.632 52.2517 182.226 51.8536C181.86 51.4955 181.273 51.3165 180.464 51.3165H180.022V51.318Z" fill="#1D1D1B"/>
</svg>
