<svg width="185" height="57" viewBox="0 0 185 57" fill="none" xmlns="http://www.w3.org/2000/svg">
<path d="M41.8924 0L32.8244 9.01105L42.4967 18.621L32.8244 28.2309L41.8924 37.2419L60.6342 18.621L41.8924 0Z" fill="#6CC72B"/>
<path d="M18.7416 0.000208268L6.10352e-05 18.621L18.7416 37.2417L37.4832 18.621L18.7416 0.000208268Z" fill="#6CC72B"/>
<path d="M71.4911 6.12619H77.7121L82.8049 20.4442L88.2847 6.12619H92.0903L97.4718 20.2816L102.571 6.12619H108.832L99.5896 31.2918H95.5624L90.1615 16.9516L84.5968 31.2918H80.6157L71.4896 6.12619H71.4911Z" fill="#1D1D1B"/>
<path d="M111.956 6.12617H118.45L125.03 21.917L132.29 6.12617H138.803L122.939 40.4965H116.376L121.583 29.4124L111.956 6.12469V6.12617Z" fill="#1D1D1B"/>
<path d="M166.367 20.5359H145.951C146.245 22.3251 147.033 23.7476 148.314 24.8033C149.594 25.8591 151.228 26.3885 153.215 26.3885C155.59 26.3885 157.631 25.5634 159.338 23.9132L164.693 26.4107C163.358 28.2915 161.759 29.683 159.897 30.585C158.036 31.4869 155.824 31.9379 153.263 31.9379C149.289 31.9379 146.053 30.6929 143.555 28.2028C141.056 25.7127 139.807 22.5942 139.807 18.8472C139.807 15.1003 141.053 11.8191 143.544 9.28315C146.036 6.74722 149.158 5.47852 152.914 5.47852C156.903 5.47852 160.146 6.74722 162.645 9.28315C165.143 11.8206 166.392 15.1698 166.392 19.3337L166.368 20.5359H166.367ZM160.012 15.5631C159.592 14.1598 158.765 13.0183 157.528 12.14C156.291 11.2616 154.858 10.821 153.225 10.821C151.453 10.821 149.899 11.3148 148.561 12.3011C147.722 12.9177 146.945 14.0046 146.229 15.5631H160.01H160.012Z" fill="#1D1D1B"/>
<path d="M171.405 6.12618H176.852V9.29498C177.441 8.0455 178.225 7.09767 179.203 6.45001C180.181 5.80235 181.252 5.47852 182.416 5.47852C183.239 5.47852 184.1 5.6944 185 6.12618L183.021 11.5618C182.276 11.1921 181.662 11.0073 181.181 11.0073C180.203 11.0073 179.377 11.6091 178.702 12.8113C178.026 14.0134 177.69 16.3734 177.69 19.8897L177.713 21.1155V31.2932H171.405V6.12618Z" fill="#1D1D1B"/>
<path d="M73.9438 50.0325H75.2595V52.3747L77.1168 50.0325H78.6795L76.2908 53.0652L78.9117 56.8285H77.3684L75.2595 53.809V56.8285H73.9438V50.0325Z" fill="#1D1D1B"/>
<path d="M80.5458 50.0325H81.8525V54.4271C81.8525 54.8056 81.8852 55.0733 81.9522 55.23C82.0192 55.3868 82.1293 55.5124 82.2826 55.6056C82.4359 55.6988 82.6219 55.7461 82.8377 55.7461C83.0669 55.7461 83.2649 55.6943 83.4301 55.5893C83.5953 55.4843 83.7099 55.3513 83.7739 55.1901C83.8379 55.0289 83.8691 54.7199 83.8691 54.2644V50.031H85.1758V54.0826C85.1758 54.7657 85.1371 55.2404 85.0597 55.505C84.9823 55.7697 84.8335 56.0255 84.6162 56.2725C84.3974 56.5194 84.1459 56.7013 83.8602 56.8196C83.5744 56.9379 83.244 56.997 82.8645 56.997C82.3689 56.997 81.9373 56.8832 81.5697 56.6569C81.2021 56.4307 80.9402 56.1468 80.781 55.8067C80.6232 55.4666 80.5443 54.8914 80.5443 54.0811V50.0295L80.5458 50.0325ZM81.8287 48.1797C82.0147 48.1797 82.1725 48.2448 82.3034 48.3734C82.4344 48.5035 82.4984 48.6588 82.4984 48.8407C82.4984 49.0225 82.4329 49.1822 82.3034 49.3124C82.1725 49.441 82.0147 49.5061 81.8287 49.5061C81.6427 49.5061 81.4894 49.441 81.3584 49.3124C81.2289 49.1822 81.1634 49.0255 81.1634 48.8407C81.1634 48.6558 81.2289 48.5035 81.3584 48.3734C81.4879 48.2448 81.6456 48.1797 81.8287 48.1797ZM83.8884 48.1797C84.0745 48.1797 84.2322 48.2448 84.3632 48.3734C84.4927 48.5035 84.5582 48.6588 84.5582 48.8407C84.5582 49.0225 84.4927 49.1822 84.3632 49.3124C84.2337 49.441 84.0745 49.5061 83.8884 49.5061C83.7024 49.5061 83.5491 49.441 83.4182 49.3124C83.2887 49.1822 83.2232 49.0255 83.2232 48.8407C83.2232 48.6558 83.2887 48.5035 83.4182 48.3734C83.5476 48.2448 83.7054 48.1797 83.8884 48.1797Z" fill="#1D1D1B"/>
<path d="M93.7259 51.2272L92.8151 52.0893C92.196 51.4387 91.4995 51.1134 90.7241 51.1134C90.0708 51.1134 89.5201 51.3352 89.0721 51.7788C88.6241 52.2224 88.4009 52.7695 88.4009 53.4201C88.4009 53.8726 88.5006 54.2763 88.6986 54.6267C88.8965 54.9786 89.1763 55.2537 89.5394 55.4548C89.9011 55.6559 90.3044 55.7549 90.7479 55.7549C91.1259 55.7549 91.4712 55.6855 91.7838 55.545C92.0963 55.4045 92.4401 55.1502 92.8151 54.779L93.6977 55.6943C93.1917 56.1838 92.7154 56.5239 92.266 56.7131C91.8165 56.9024 91.303 56.997 90.7271 56.997C89.6644 56.997 88.7938 56.6614 88.1167 55.993C87.4395 55.3232 87.1002 54.4641 87.1002 53.4172C87.1002 52.7399 87.2549 52.1381 87.563 51.6102C87.8711 51.0838 88.3131 50.6609 88.8876 50.34C89.462 50.0192 90.0812 49.8595 90.7449 49.8595C91.309 49.8595 91.8522 49.9778 92.3746 50.2143C92.897 50.4509 93.3464 50.7881 93.7259 51.2243V51.2272Z" fill="#1D1D1B"/>
<path d="M95.622 50.0325H96.9421V52.5965H99.2251V50.0325H100.541V56.8285H99.2251V53.8489H96.9421V56.8285H95.622V50.0325Z" fill="#1D1D1B"/>
<path d="M102.861 50.0325H106.595V51.2982H104.154V52.527H106.595V53.7691H104.154V55.5568H106.595V56.827H102.861V50.031V50.0325Z" fill="#1D1D1B"/>
<path d="M112.432 52.6808C112.618 52.6808 112.776 52.7444 112.907 52.873C113.036 53.0017 113.102 53.1584 113.102 53.3432C113.102 53.5281 113.036 53.6819 112.907 53.812C112.777 53.9421 112.618 54.0072 112.432 54.0072C112.246 54.0072 112.093 53.9421 111.962 53.812C111.831 53.6819 111.767 53.5266 111.767 53.3432C111.767 53.1599 111.832 53.0017 111.962 52.873C112.093 52.7444 112.249 52.6808 112.432 52.6808Z" fill="#1D1D1B"/>
<path d="M118.526 56.8285V50.0325H119.602C120.226 50.0325 120.683 50.0724 120.972 50.1522C121.381 50.2602 121.707 50.4598 121.949 50.7526C122.192 51.0454 122.313 51.3899 122.313 51.7877C122.313 52.0464 122.258 52.2815 122.147 52.4915C122.037 52.703 121.859 52.8996 121.61 53.0845C122.025 53.2782 122.329 53.5207 122.521 53.812C122.713 54.1033 122.81 54.4478 122.81 54.8441C122.81 55.2404 122.71 55.5745 122.512 55.888C122.314 56.2015 122.058 56.4366 121.744 56.5919C121.43 56.7471 120.997 56.8255 120.445 56.8255H118.526V56.8285ZM119.829 51.2657V52.6985H120.113C120.43 52.6985 120.667 52.632 120.82 52.5004C120.973 52.3673 121.051 52.1884 121.051 51.9592C121.051 51.7463 120.978 51.5777 120.832 51.4535C120.686 51.3293 120.463 51.2657 120.165 51.2657H119.829ZM119.829 53.8534V55.5953H120.155C120.695 55.5953 121.059 55.5272 121.248 55.3927C121.436 55.2566 121.531 55.06 121.531 54.8012C121.531 54.5084 121.421 54.2778 121.201 54.1077C120.981 53.9377 120.613 53.8534 120.101 53.8534H119.83H119.829Z" fill="#1D1D1B"/>
<path d="M128.032 49.8624C128.999 49.8624 129.831 50.2099 130.528 50.9064C131.224 51.6028 131.573 52.4516 131.573 53.4512C131.573 54.4508 131.229 55.2818 130.543 55.9694C129.855 56.6555 129.022 57 128.042 57C127.063 57 126.163 56.6481 125.484 55.9427C124.805 55.2374 124.465 54.399 124.465 53.429C124.465 52.7799 124.622 52.181 124.939 51.6368C125.256 51.0912 125.691 50.6594 126.245 50.3415C126.798 50.0221 127.395 49.8639 128.033 49.8639L128.032 49.8624ZM128.019 51.1282C127.386 51.1282 126.853 51.347 126.422 51.7847C125.99 52.2224 125.774 52.7784 125.774 53.4527C125.774 54.2038 126.045 54.7982 126.588 55.2359C127.01 55.5775 127.495 55.749 128.041 55.749C128.659 55.749 129.184 55.5272 129.618 55.0836C130.053 54.64 130.27 54.0929 130.27 53.4438C130.27 52.7946 130.052 52.249 129.614 51.801C129.176 51.3529 128.644 51.1282 128.017 51.1282H128.019Z" fill="#1D1D1B"/>
<path d="M133.565 50.0325H135.107C136.101 50.0325 136.84 50.1552 137.323 50.3992C137.807 50.6447 138.204 51.0424 138.517 51.594C138.829 52.1455 138.986 52.7887 138.986 53.5251C138.986 54.0486 138.898 54.5291 138.724 54.9683C138.548 55.4075 138.307 55.7712 137.999 56.061C137.691 56.3509 137.358 56.5505 136.997 56.6614C136.639 56.7723 136.015 56.827 135.13 56.827H133.564V50.031L133.565 50.0325ZM134.857 51.2805V55.5672H135.461C136.057 55.5672 136.488 55.4991 136.756 55.3631C137.024 55.2271 137.243 54.9994 137.414 54.6785C137.584 54.3576 137.67 53.9628 137.67 53.4941C137.67 52.7725 137.468 52.2135 137.061 51.8158C136.695 51.4579 136.109 51.279 135.299 51.279H134.857V51.2805Z" fill="#1D1D1B"/>
<path d="M140.986 50.0325H144.72V51.2982H142.279V52.527H144.72V53.7691H142.279V55.5568H144.72V56.827H140.986V50.031V50.0325Z" fill="#1D1D1B"/>
<path d="M146.69 50.0325H147.939L150.865 54.504V50.0325H152.167V56.8285H150.914L147.991 52.3703V56.8285H146.689V50.0325H146.69Z" fill="#1D1D1B"/>
<path d="M158.359 52.6808C158.545 52.6808 158.702 52.7444 158.833 52.873C158.963 53.0017 159.028 53.1584 159.028 53.3432C159.028 53.5281 158.963 53.6819 158.833 53.812C158.704 53.9421 158.545 54.0072 158.359 54.0072C158.172 54.0072 158.019 53.9421 157.888 53.812C157.757 53.6819 157.693 53.5266 157.693 53.3432C157.693 53.1599 157.759 53.0017 157.888 52.873C158.018 52.7444 158.175 52.6808 158.359 52.6808Z" fill="#1D1D1B"/>
<path d="M164.643 56.8285V50.0325H165.719C166.343 50.0325 166.8 50.0724 167.089 50.1522C167.498 50.2602 167.824 50.4598 168.066 50.7526C168.309 51.0454 168.43 51.3899 168.43 51.7877C168.43 52.0464 168.375 52.2815 168.264 52.4915C168.154 52.703 167.976 52.8996 167.727 53.0845C168.142 53.2782 168.446 53.5207 168.638 53.812C168.83 54.1033 168.927 54.4478 168.927 54.8441C168.927 55.2404 168.827 55.5745 168.629 55.888C168.431 56.2015 168.175 56.4366 167.861 56.5919C167.547 56.7471 167.115 56.8255 166.562 56.8255H164.643V56.8285ZM165.946 51.2657V52.6985H166.23C166.547 52.6985 166.784 52.632 166.937 52.5004C167.092 52.3673 167.168 52.1884 167.168 51.9592C167.168 51.7463 167.095 51.5777 166.949 51.4535C166.803 51.3293 166.58 51.2657 166.282 51.2657H165.946ZM165.946 53.8534V55.5953H166.272C166.812 55.5953 167.176 55.5272 167.365 55.3927C167.553 55.2566 167.648 55.06 167.648 54.8012C167.648 54.5084 167.538 54.2778 167.318 54.1077C167.098 53.9377 166.73 53.8534 166.218 53.8534H165.947H165.946Z" fill="#1D1D1B"/>
<path d="M173.006 50.0325H174.326L176.957 56.8285H175.605L175.069 55.4282H172.278L171.722 56.8285H170.369L173.006 50.0325ZM173.674 51.8335L172.756 54.1669H174.585L173.673 51.8335H173.674Z" fill="#1D1D1B"/>
<path d="M178.73 50.0325H180.272C181.266 50.0325 182.004 50.1552 182.488 50.3992C182.971 50.6447 183.369 51.0424 183.681 51.594C183.994 52.1455 184.15 52.7887 184.15 53.5251C184.15 54.0486 184.062 54.5291 183.888 54.9683C183.713 55.4075 183.472 55.7712 183.163 56.061C182.855 56.3509 182.522 56.5505 182.162 56.6614C181.803 56.7723 181.18 56.827 180.294 56.827H178.728V50.031L178.73 50.0325ZM180.022 51.2805V55.5672H180.626C181.221 55.5672 181.653 55.4991 181.921 55.3631C182.189 55.2271 182.407 54.9994 182.579 54.6785C182.748 54.3576 182.835 53.9628 182.835 53.4941C182.835 52.7725 182.632 52.2135 182.226 51.8158C181.86 51.4579 181.273 51.279 180.464 51.279H180.022V51.2805Z" fill="#1D1D1B"/>
</svg>
