<svg width="185" height="58" viewBox="0 0 185 58" fill="none" xmlns="http://www.w3.org/2000/svg">
<path d="M41.8922 0L32.8242 9.01764L42.4965 18.6346L32.8242 28.2515L41.8922 37.2692L60.634 18.6346L41.8922 0Z" fill="#6CC72B"/>
<path d="M18.7416 0.000206439L0 18.6346L18.7416 37.269L37.4832 18.6346L18.7416 0.000206439Z" fill="#6CC72B"/>
<path d="M71.4907 6.13065H77.7117L82.8046 20.4591L88.2844 6.13065H92.0899L97.4715 20.2964L102.57 6.13065H108.831L99.5893 31.3146H95.562L90.1611 16.9639L84.5964 31.3146H80.6153L71.4893 6.13065H71.4907Z" fill="#1D1D1B"/>
<path d="M111.955 6.13066H118.45L125.03 21.933L132.289 6.13066H138.802L122.939 40.5261H116.375L121.583 29.4339L111.955 6.12918V6.13066Z" fill="#1D1D1B"/>
<path d="M166.366 20.5509H145.95C146.245 22.3414 147.032 23.7649 148.314 24.8215C149.593 25.878 151.228 26.4078 153.214 26.4078C155.59 26.4078 157.63 25.5821 159.337 23.9306L164.692 26.43C163.357 28.3122 161.759 29.7047 159.897 30.6073C158.035 31.51 155.823 31.9613 153.262 31.9613C149.288 31.9613 146.053 30.7153 143.554 28.2234C141.055 25.7315 139.807 22.6107 139.807 18.861C139.807 15.1113 141.052 11.8277 143.544 9.28993C146.035 6.75214 149.157 5.48251 152.914 5.48251C156.902 5.48251 160.145 6.75214 162.644 9.28993C165.143 11.8292 166.392 15.1808 166.392 19.3478L166.368 20.5509H166.366ZM160.011 15.5745C159.592 14.1702 158.764 13.0278 157.527 12.1488C156.291 11.2698 154.858 10.8289 153.225 10.8289C151.452 10.8289 149.899 11.3231 148.561 12.3101C147.721 12.9272 146.944 14.0148 146.229 15.5745H160.01H160.011Z" fill="#1D1D1B"/>
<path d="M171.404 6.13065H176.851V9.30177C177.441 8.05137 178.225 7.10285 179.203 6.45471C180.181 5.80658 181.252 5.48251 182.416 5.48251C183.239 5.48251 184.099 5.69856 185 6.13065L183.02 11.5702C182.276 11.2003 181.661 11.0153 181.181 11.0153C180.203 11.0153 179.377 11.6176 178.701 12.8206C178.026 14.0237 177.689 16.3854 177.689 19.9042L177.713 21.1309V31.3161H171.404V6.13065Z" fill="#1D1D1B"/>
<path d="M73.9434 50.069H75.259V52.413L77.1163 50.069H78.679L76.2904 53.104L78.9112 56.87H77.3679L75.259 53.8483V56.87H73.9434V50.069Z" fill="#1D1D1B"/>
<path d="M80.5454 50.069H81.8521V54.4669C81.8521 54.8457 81.8849 55.1135 81.9519 55.2704C82.0188 55.4272 82.129 55.553 82.2822 55.6462C82.4355 55.7395 82.6216 55.7868 82.8374 55.7868C83.0666 55.7868 83.2645 55.735 83.4297 55.63C83.5949 55.5249 83.7095 55.3917 83.7735 55.2304C83.8375 55.0691 83.8687 54.7599 83.8687 54.3041V50.0676H85.1754V54.1221C85.1754 54.8057 85.1367 55.2807 85.0594 55.5456C84.982 55.8105 84.8331 56.0665 84.6158 56.3136C84.3971 56.5607 84.1456 56.7427 83.8598 56.8611C83.5741 56.9795 83.2437 57.0387 82.8642 57.0387C82.3686 57.0387 81.937 56.9248 81.5694 56.6984C81.2018 56.4719 80.9398 56.1878 80.7806 55.8475C80.6228 55.5071 80.5439 54.9315 80.5439 54.1206V50.0661L80.5454 50.069ZM81.8283 48.2149C82.0144 48.2149 82.1721 48.28 82.3031 48.4088C82.434 48.539 82.498 48.6943 82.498 48.8764C82.498 49.0584 82.4326 49.2182 82.3031 49.3484C82.1721 49.4771 82.0144 49.5422 81.8283 49.5422C81.6423 49.5422 81.489 49.4771 81.358 49.3484C81.2285 49.2182 81.1631 49.0613 81.1631 48.8764C81.1631 48.6914 81.2285 48.539 81.358 48.4088C81.4875 48.28 81.6453 48.2149 81.8283 48.2149ZM83.8881 48.2149C84.0741 48.2149 84.2319 48.28 84.3628 48.4088C84.4923 48.539 84.5578 48.6943 84.5578 48.8764C84.5578 49.0584 84.4923 49.2182 84.3628 49.3484C84.2334 49.4771 84.0741 49.5422 83.8881 49.5422C83.702 49.5422 83.5488 49.4771 83.4178 49.3484C83.2883 49.2182 83.2228 49.0613 83.2228 48.8764C83.2228 48.6914 83.2883 48.539 83.4178 48.4088C83.5473 48.28 83.705 48.2149 83.8881 48.2149Z" fill="#1D1D1B"/>
<path d="M93.7254 51.2647L92.8146 52.1274C92.1955 51.4763 91.4989 51.1507 90.7236 51.1507C90.0702 51.1507 89.5195 51.3727 89.0716 51.8166C88.6236 52.2606 88.4004 52.8081 88.4004 53.4592C88.4004 53.912 88.5001 54.3159 88.698 54.6666C88.896 55.0188 89.1757 55.2941 89.5389 55.4953C89.9005 55.6966 90.3039 55.7957 90.7474 55.7957C91.1254 55.7957 91.4707 55.7261 91.7832 55.5856C92.0957 55.445 92.4395 55.1905 92.8146 54.8191L93.6971 55.735C93.1911 56.2248 92.7149 56.5652 92.2654 56.7546C91.8159 56.944 91.3025 57.0387 90.7265 57.0387C89.6639 57.0387 88.7933 56.7028 88.1161 56.0339C87.4389 55.3636 87.0996 54.5039 87.0996 53.4562C87.0996 52.7785 87.2544 52.1762 87.5625 51.6479C87.8705 51.1211 88.3126 50.6979 88.887 50.3768C89.4615 50.0557 90.0806 49.8959 90.7444 49.8959C91.3084 49.8959 91.8517 50.0143 92.374 50.251C92.8964 50.4878 93.3459 50.8252 93.7254 51.2617V51.2647Z" fill="#1D1D1B"/>
<path d="M95.6211 50.069H96.9412V52.6349H99.2242V50.069H100.54V56.87H99.2242V53.8883H96.9412V56.87H95.6211V50.069Z" fill="#1D1D1B"/>
<path d="M102.86 50.069H106.594V51.3357H104.154V52.5654H106.594V53.8084H104.154V55.5974H106.594V56.8685H102.86V50.0676V50.069Z" fill="#1D1D1B"/>
<path d="M112.432 52.7193C112.618 52.7193 112.776 52.7829 112.907 52.9117C113.036 53.0404 113.102 53.1973 113.102 53.3822C113.102 53.5672 113.036 53.7211 112.907 53.8513C112.777 53.9815 112.618 54.0466 112.432 54.0466C112.246 54.0466 112.093 53.9815 111.962 53.8513C111.831 53.7211 111.767 53.5657 111.767 53.3822C111.767 53.1987 111.832 53.0404 111.962 52.9117C112.093 52.7829 112.249 52.7193 112.432 52.7193Z" fill="#1D1D1B"/>
<path d="M118.526 56.87V50.069H119.602C120.226 50.069 120.683 50.109 120.972 50.1889C121.381 50.2969 121.707 50.4967 121.949 50.7897C122.192 51.0827 122.313 51.4275 122.313 51.8255C122.313 52.0845 122.257 52.3197 122.147 52.5299C122.037 52.7415 121.859 52.9383 121.61 53.1233C122.025 53.3171 122.329 53.5598 122.521 53.8513C122.713 54.1428 122.81 54.4876 122.81 54.8842C122.81 55.2807 122.71 55.6152 122.512 55.9289C122.314 56.2426 122.058 56.4779 121.744 56.6332C121.43 56.7886 120.997 56.867 120.445 56.867H118.526V56.87ZM119.829 51.3032V52.737H120.113C120.43 52.737 120.666 52.6704 120.82 52.5387C120.973 52.4056 121.05 52.2265 121.05 51.9972C121.05 51.7841 120.978 51.6154 120.832 51.4911C120.686 51.3668 120.463 51.3032 120.165 51.3032H119.829ZM119.829 53.8927V55.6359H120.155C120.695 55.6359 121.059 55.5678 121.248 55.4331C121.436 55.297 121.531 55.1002 121.531 54.8412C121.531 54.5483 121.421 54.3174 121.201 54.1472C120.981 53.9771 120.613 53.8927 120.101 53.8927H119.83H119.829Z" fill="#1D1D1B"/>
<path d="M128.032 49.8989C129 49.8989 129.832 50.2466 130.528 50.9436C131.225 51.6405 131.573 52.4899 131.573 53.4902C131.573 54.4906 131.229 55.3222 130.543 56.0103C129.855 56.6969 129.022 57.0417 128.043 57.0417C127.063 57.0417 126.163 56.6895 125.484 55.9836C124.806 55.2778 124.465 54.4388 124.465 53.468C124.465 52.8184 124.623 52.2191 124.94 51.6746C125.257 51.1285 125.691 50.6965 126.245 50.3783C126.798 50.0587 127.395 49.9003 128.034 49.9003L128.032 49.8989ZM128.019 51.1655C127.386 51.1655 126.854 51.3845 126.422 51.8225C125.99 52.2606 125.775 52.8169 125.775 53.4917C125.775 54.2434 126.045 54.8383 126.589 55.2763C127.01 55.6181 127.495 55.7898 128.041 55.7898C128.659 55.7898 129.184 55.5678 129.619 55.1239C130.053 54.68 130.271 54.1324 130.271 53.4828C130.271 52.8332 130.052 52.2872 129.614 51.8388C129.177 51.3905 128.644 51.1655 128.017 51.1655H128.019Z" fill="#1D1D1B"/>
<path d="M133.565 50.069H135.107C136.101 50.069 136.839 50.1919 137.323 50.436C137.807 50.6817 138.204 51.0797 138.516 51.6317C138.829 52.1836 138.985 52.8273 138.985 53.5642C138.985 54.0881 138.897 54.569 138.723 55.0085C138.548 55.448 138.307 55.812 137.999 56.102C137.69 56.392 137.357 56.5918 136.997 56.7028C136.638 56.8138 136.015 56.8685 135.129 56.8685H133.563V50.0676L133.565 50.069ZM134.857 51.318V55.6078H135.461C136.056 55.6078 136.488 55.5397 136.756 55.4036C137.024 55.2674 137.242 55.0395 137.414 54.7184C137.583 54.3973 137.67 54.0022 137.67 53.5332C137.67 52.811 137.467 52.2517 137.061 51.8536C136.695 51.4955 136.108 51.3165 135.299 51.3165H134.857V51.318Z" fill="#1D1D1B"/>
<path d="M140.986 50.069H144.72V51.3357H142.28V52.5654H144.72V53.8084H142.28V55.5974H144.72V56.8685H140.986V50.0676V50.069Z" fill="#1D1D1B"/>
<path d="M146.69 50.069H147.939L150.865 54.5438V50.069H152.167V56.87H150.914L147.991 52.4085V56.87H146.688V50.069H146.69Z" fill="#1D1D1B"/>
<path d="M158.359 52.7193C158.545 52.7193 158.702 52.7829 158.833 52.9117C158.963 53.0404 159.028 53.1973 159.028 53.3822C159.028 53.5672 158.963 53.7211 158.833 53.8513C158.704 53.9815 158.545 54.0466 158.359 54.0466C158.173 54.0466 158.019 53.9815 157.888 53.8513C157.757 53.7211 157.693 53.5657 157.693 53.3822C157.693 53.1987 157.759 53.0404 157.888 52.9117C158.018 52.7829 158.176 52.7193 158.359 52.7193Z" fill="#1D1D1B"/>
<path d="M164.644 56.87V50.069H165.72C166.343 50.069 166.8 50.109 167.089 50.1889C167.498 50.2969 167.824 50.4967 168.067 50.7897C168.309 51.0827 168.43 51.4275 168.43 51.8255C168.43 52.0845 168.375 52.3197 168.264 52.5299C168.154 52.7415 167.976 52.9383 167.727 53.1233C168.142 53.3171 168.446 53.5598 168.638 53.8513C168.83 54.1428 168.927 54.4876 168.927 54.8842C168.927 55.2807 168.827 55.6152 168.629 55.9289C168.431 56.2426 168.175 56.4779 167.861 56.6332C167.547 56.7886 167.116 56.867 166.562 56.867H164.644V56.87ZM165.946 51.3032V52.737H166.23C166.547 52.737 166.784 52.6704 166.937 52.5387C167.092 52.4056 167.168 52.2265 167.168 51.9972C167.168 51.7841 167.095 51.6154 166.949 51.4911C166.803 51.3668 166.58 51.3032 166.282 51.3032H165.946ZM165.946 53.8927V55.6359H166.272C166.812 55.6359 167.177 55.5678 167.366 55.4331C167.553 55.297 167.648 55.1002 167.648 54.8412C167.648 54.5483 167.538 54.3174 167.318 54.1472C167.098 53.9771 166.73 53.8927 166.218 53.8927H165.947H165.946Z" fill="#1D1D1B"/>
<path d="M173.006 50.069H174.326L176.958 56.87H175.605L175.069 55.4687H172.279L171.722 56.87H170.369L173.006 50.069ZM173.675 51.8714L172.756 54.2064H174.585L173.673 51.8714H173.675Z" fill="#1D1D1B"/>
<path d="M178.73 50.069H180.272C181.266 50.069 182.004 50.1919 182.488 50.436C182.972 50.6817 183.369 51.0797 183.681 51.6317C183.994 52.1836 184.15 52.8273 184.15 53.5642C184.15 54.0881 184.062 54.569 183.888 55.0085C183.713 55.448 183.472 55.812 183.164 56.102C182.855 56.392 182.522 56.5918 182.162 56.7028C181.803 56.8138 181.18 56.8685 180.294 56.8685H178.729V50.0676L178.73 50.069ZM180.022 51.318V55.6078H180.626C181.221 55.6078 181.653 55.5397 181.921 55.4036C182.189 55.2674 182.408 55.0395 182.579 54.7184C182.748 54.3973 182.835 54.0022 182.835 53.5332C182.835 52.811 182.632 52.2517 182.226 51.8536C181.86 51.4955 181.273 51.3165 180.464 51.3165H180.022V51.318Z" fill="#1D1D1B"/>
</svg>
