<svg width="1439" height="354" viewBox="0 0 1439 354" fill="none" xmlns="http://www.w3.org/2000/svg">
<mask id="mask0_226_10908" style="mask-type:alpha" maskUnits="userSpaceOnUse" x="0" y="0" width="1440" height="354">
<rect width="1440" height="354" fill="#D9D9D9"/>
</mask>
<g mask="url(#mask0_226_10908)">
<g clip-path="url(#clip0_226_10908)">
<path d="M0.0102572 178.178L7.48877 185.632L13.5598 179.581L14.9778 178.167L14.9989 178.167L22.4773 185.621L14.9883 193.086L22.4773 200.55L14.9883 208.015L22.4773 215.479L29.9664 208.015L22.4773 200.55L29.9664 193.086L37.4552 200.55L29.9664 208.015L37.4552 215.479L44.9443 208.015L37.4552 200.55L44.9443 193.086L37.4552 185.621L44.9338 178.167L44.9547 178.167L52.4332 185.621L44.9443 193.086L52.4332 200.55L44.9443 208.015L52.4332 215.479L59.9222 208.015L52.4332 200.55L59.9222 193.086L52.4332 185.621L59.9119 178.167L59.9327 178.167L61.9495 180.177L67.4114 185.621L59.9222 193.086L67.4114 200.55L74.9003 193.086L82.3893 200.55L74.9003 208.015L82.3893 215.479L89.8783 208.015L82.3893 200.55L89.8783 193.086L82.3893 185.621L89.8678 178.167L89.8888 178.167L97.3673 185.621L97.3779 185.621L104.846 178.167L104.793 178.083L104.867 178.157L104.877 178.157L104.877 178.167L112.366 185.632L119.855 178.167L120.055 178.167L127.544 185.632L135.033 178.167L135.043 178.157L135.117 178.083L135.075 178.157L142.543 185.611L142.564 185.632L150.042 178.178L150.063 178.178L157.542 185.632L150.053 193.096L157.542 200.561L150.053 208.025L157.542 215.489L165.031 208.025L157.542 200.561L165.031 193.096L172.52 200.561L180.009 193.096L172.52 185.632L177.982 180.188L179.999 178.178L180.02 178.178L187.498 185.632L180.009 193.096L187.498 200.561L180.009 208.025L187.498 215.489L194.987 208.025L187.498 200.561L194.987 193.096L187.498 185.632L194.977 178.178L194.998 178.178L202.476 185.632L194.987 193.096L202.476 200.561L194.987 208.025L202.476 215.489L209.965 208.025L202.476 200.561L209.965 193.096L217.454 200.561L209.965 208.025L217.454 215.489L224.943 208.025L217.454 200.561L224.943 193.096L217.454 185.632L224.932 178.178L224.953 178.178L226.372 179.591L232.443 185.642L239.921 178.188L239.932 178.188L247.421 185.642L239.932 193.107L247.421 200.571L254.91 193.107L262.399 200.571L269.888 193.107L277.376 200.571L284.866 193.107L277.376 185.642L269.888 193.107L262.399 185.642L269.888 178.178L269.898 178.178L277.387 185.642L284.876 178.178L284.887 178.178L292.376 185.642L299.865 178.178L299.875 178.178L307.364 185.642L299.875 193.107L307.364 200.571L314.843 193.117L307.364 185.653L314.853 178.188L322.342 185.653L314.864 193.107L322.353 200.571L329.842 193.107L337.331 200.571L344.82 193.107L352.309 200.571L359.798 193.107L352.309 185.642L359.787 178.178L367.276 185.642L359.787 193.107L367.276 200.571L367.35 200.498L374.828 193.044L367.423 185.663L374.902 178.199L382.38 185.653L374.902 193.117L374.891 193.117L374.818 193.044L374.744 193.117L374.818 193.19L382.233 200.582L382.317 200.498L389.733 193.107L389.817 193.023L389.89 193.096L397.379 200.561L389.89 208.025L397.379 215.489L404.868 208.025L397.379 200.561L404.868 193.096L401.969 190.207L397.379 185.632L404.858 178.178L412.336 185.642L404.847 193.107L412.336 200.571L404.847 208.035L412.336 215.5L419.825 208.035L412.336 200.571L419.815 193.117L412.336 185.663L419.825 178.199L427.314 185.663L419.836 193.117L427.314 200.571L434.803 193.107L427.314 185.642L434.793 178.188L434.814 178.188L442.292 185.642L449.771 178.188L449.781 178.188L457.27 185.642L449.781 193.107L442.292 185.642L434.803 193.107L442.292 200.571L434.803 208.035L442.292 215.5L449.781 208.035L442.292 200.571L449.781 193.107L457.27 200.571L464.759 193.107L472.248 200.571L479.737 193.107L472.248 185.642L479.737 178.178L479.748 178.178L487.237 185.642L479.748 193.107L487.237 200.571L494.726 193.107L487.237 185.642L494.726 178.178L502.215 185.653L494.726 193.117L502.215 200.582L509.704 193.117L517.193 200.582L524.682 193.117L517.193 185.653L524.682 178.188L532.171 185.663L524.682 193.128L532.171 200.592L539.66 193.128L547.149 200.592L554.638 193.128L562.127 200.592L554.638 208.056L562.127 215.521L569.616 208.056L562.127 200.592L569.616 193.128L562.127 185.663L554.638 193.128L547.149 185.663L554.638 178.199L562.127 185.663L569.616 178.199L577.105 185.663L569.616 193.128L577.105 200.592L569.616 208.056L577.105 215.521L584.594 208.056L577.105 200.592L584.594 193.128L592.083 200.592L584.594 208.056L592.083 215.521L599.572 208.056L592.083 200.592L599.572 193.128L592.083 185.663L599.572 178.199L607.061 185.663L602.376 190.332L599.572 193.128L607.061 200.592L599.572 208.056L607.061 215.521L614.55 208.056L607.061 200.592L614.55 193.128L614.623 193.054L614.697 193.138L622.112 200.529L622.196 200.613L629.612 193.222L629.685 193.149L629.612 193.075L637.101 200.54L637.174 200.613L644.663 193.149L637.174 185.684L644.663 178.22L652.152 185.695L644.663 193.159L652.152 200.623L659.641 193.159L652.152 185.695L659.641 178.23L667.13 185.695L674.619 178.23L667.13 170.766L674.619 163.301L682.108 170.766L674.619 178.23L682.108 185.705L674.619 193.169L667.13 185.705L659.641 193.169L667.13 200.634L674.619 193.169L682.108 200.634L689.597 193.169L697.086 200.634L704.575 193.169L697.086 185.705L704.575 178.241L712.064 185.705L719.553 178.241L727.042 185.705L734.531 178.241L742.02 185.705L734.531 193.169L727.042 185.705L719.553 193.169L727.042 200.634L734.531 193.169L742.02 200.634L749.509 193.169L756.998 200.634L749.509 208.098L756.998 215.563L764.487 208.098L756.998 200.634L764.487 193.169L756.998 185.705L764.487 178.241L756.998 170.776L764.487 163.312L771.976 170.776L765.422 177.309L764.487 178.241L771.976 185.705L778.047 179.654L779.465 178.241L786.954 185.705L779.465 193.169L786.954 200.634L779.465 208.098L786.954 215.563L794.443 208.098L786.954 200.634L794.443 193.169L801.932 200.634L794.443 208.098L801.932 215.563L809.422 208.098L801.932 200.634L809.422 193.169L801.932 185.705L809.422 178.241L809.19 178.01L801.932 170.776L809.422 163.312L811.396 165.28L816.911 170.776L809.422 178.241L816.911 185.705L809.422 193.169L816.911 200.634L809.422 208.098L816.911 215.563L824.399 208.098L816.911 200.634L824.399 193.169L816.911 185.705L824.399 178.241L826.427 180.261L831.888 185.705L824.399 193.169L831.888 200.634L839.378 193.169L846.866 200.634L839.378 208.098L846.866 215.563L854.355 208.098L846.866 200.634L854.355 193.169L846.866 185.705L854.355 178.241L861.844 185.705L861.855 185.705L869.333 178.241L869.292 178.167L869.365 178.241L869.365 178.251L869.418 178.303L869.47 178.251L873.22 181.989L876.917 185.674L884.354 178.262L876.865 170.797L884.354 163.322L891.843 170.787L884.354 178.251L884.553 178.251L892.042 185.726L899.531 178.262L899.605 178.188L899.563 178.262L907.041 185.715L907.052 185.715L914.541 178.262L922.03 185.726L914.541 193.19L922.03 200.655L914.541 208.119L922.03 215.584L929.519 208.119L922.03 200.655L929.519 193.19L937.008 200.655L944.497 193.19L937.008 185.726L942.47 180.282L944.497 178.262L951.986 185.726L959.475 178.262L951.986 170.797L957.5 165.301L959.475 163.333L966.964 170.797L959.475 178.262L966.964 185.726L959.475 193.19L966.964 200.655L959.475 208.119L966.964 215.584L974.453 208.119L966.964 200.655L974.453 193.19L981.942 200.655L974.453 208.119L981.942 215.584L989.431 208.119L981.942 200.655L989.431 193.19L981.942 185.726L989.431 178.262L990.859 179.675L996.93 185.726L1004.42 178.262L1003.74 177.581L996.93 170.797L1004.42 163.333L1011.91 170.797L1004.42 178.262L1011.91 185.726L1004.42 193.19L1011.91 200.655L1004.42 208.119L1011.91 215.584L1019.4 208.119L1011.91 200.655L1019.4 193.19L1026.89 200.655L1034.38 193.19L1041.86 200.655L1049.35 193.19L1041.86 185.726L1034.38 193.19L1026.89 185.726L1034.38 178.262L1041.86 185.726L1049.35 178.262L1056.84 185.726L1064.33 178.262L1071.82 185.726L1064.33 193.19L1071.82 200.655L1079.31 193.19L1086.8 200.655L1094.29 193.19L1101.78 200.655L1109.27 193.19L1101.78 185.726L1094.29 193.19L1086.8 185.726L1094.29 178.262L1086.8 170.797L1094.29 163.333L1101.78 170.797L1094.29 178.262L1101.78 185.736L1109.27 178.272L1116.75 185.736L1109.27 193.201L1116.75 200.665L1124.24 193.201L1116.75 185.736L1124.24 178.262L1131.73 185.726L1124.24 193.19L1131.73 200.655L1131.81 200.582L1139.29 193.117L1139.21 193.201L1139.28 193.274L1146.7 200.665L1146.78 200.582L1154.2 193.19L1154.28 193.107L1154.36 193.18L1161.85 200.644L1154.36 208.109L1161.85 215.573L1169.33 208.109L1161.85 200.644L1169.33 193.18L1166.38 190.238L1161.85 185.716L1169.33 178.251L1176.82 185.716L1169.33 193.18L1176.82 200.644L1169.33 208.109L1176.82 215.573L1184.31 208.109L1176.82 200.644L1184.31 193.18L1191.8 200.644L1199.29 193.18L1191.8 185.716L1199.29 178.251L1206.78 185.716L1214.27 178.251L1221.76 185.716L1214.27 193.18L1206.78 185.716L1199.29 193.18L1206.78 200.644L1199.29 208.109L1206.78 215.573L1214.27 208.109L1206.78 200.644L1214.27 193.18L1221.76 200.644L1229.25 193.18L1236.74 200.644L1244.22 193.18L1236.74 185.716L1244.22 178.251L1251.71 185.726L1244.22 193.19L1251.71 200.655L1259.2 193.19L1251.71 185.726L1259.2 178.262L1266.69 185.726L1274.18 178.262L1281.67 185.726L1274.18 193.19L1281.67 200.655L1274.18 208.119L1281.67 215.584L1289.16 208.119L1296.65 215.584L1304.14 208.119L1296.65 200.655L1289.16 208.119L1281.67 200.655L1289.16 193.19L1296.65 200.655L1304.14 193.19L1311.63 200.655L1319.11 193.19L1326.6 200.655L1334.09 193.19L1326.6 185.726L1334.09 178.262L1341.58 185.726L1349.07 178.262L1349.09 178.262L1356.58 185.736L1349.09 193.201L1356.58 200.665L1349.09 208.13L1356.58 215.594L1364.07 208.13L1356.58 200.665L1364.07 193.201L1371.56 200.665L1364.07 208.13L1371.56 215.594L1379.05 208.13L1371.56 200.665L1379.04 193.211L1386.52 200.665L1394.01 193.201L1401.49 200.665L1408.98 193.201L1401.49 185.736L1408.98 178.272L1401.49 170.808L1408.98 163.343L1416.47 170.808L1423.96 163.343L1431.45 170.808L1423.97 178.262L1416.49 170.808L1416.48 170.808L1408.99 178.262L1409.01 178.262L1416.49 185.716L1423.97 178.262L1431.46 185.726L1423.97 193.19L1416.49 185.736L1409.01 193.19L1416.5 200.655L1409.01 208.119L1416.5 215.584L1423.99 208.119L1416.5 200.655L1423.99 193.19L1431.48 200.655L1438.97 193.19L1431.48 185.726L1438.97 178.262L1439.7 178.262L1439.7 -130L-9.18575e-05 -130L-0.000118798 178.167L0.0102572 178.178ZM1431.81 155.785L1424.32 163.249L1416.83 155.785L1424.32 148.32L1431.81 155.785ZM1410.18 118.462L1417.67 125.927L1410.18 133.391L1402.69 125.927L1410.18 118.462ZM1379.34 193.117L1371.86 185.663L1379.35 178.199L1386.83 185.653L1379.34 193.117ZM1394.27 178.136L1394.22 178.188L1386.78 170.776L1386.73 170.724L1394.22 163.259L1401.7 170.724L1394.27 178.136ZM1394.27 133.402L1401.76 140.866L1394.27 148.331L1386.78 140.866L1394.27 133.402ZM1379.25 148.331L1386.74 155.795L1379.31 163.197L1379.25 163.259L1371.81 155.847L1371.76 155.795L1379.25 148.331ZM1364.27 163.259L1371.76 170.724L1364.28 178.178L1356.98 170.902L1356.85 170.776L1349.55 178.052L1342.18 170.703L1349.54 163.364L1349.8 163.615L1356.85 170.651L1356.98 170.525L1364.28 163.249L1364.27 163.259ZM1349.41 118.462L1356.9 125.927L1349.41 133.391L1341.92 125.927L1349.41 118.462ZM1334.43 148.331L1341.92 155.795L1334.43 163.259L1326.94 155.795L1334.43 148.331ZM1319.45 148.331L1326.94 155.795L1319.45 163.259L1326.94 170.724L1319.45 178.188L1311.96 170.724L1319.45 163.259L1311.96 155.795L1319.45 148.331ZM1298.02 139.819L1304.46 133.402L1311.95 140.866L1304.46 148.331L1296.97 140.866L1298.02 139.819ZM1304.46 178.188L1296.97 170.724L1304.46 163.259L1311.95 170.724L1304.46 178.188L1311.95 185.663L1304.46 193.128L1296.97 185.663L1304.46 178.199L1304.46 178.188ZM1289.47 163.259L1296.96 170.724L1289.47 178.188L1281.99 170.724L1289.47 163.259ZM1274.5 118.462L1281.99 125.927L1274.5 133.391L1267.01 125.927L1274.5 118.462ZM1274.5 148.331L1281.99 155.795L1274.5 163.259L1267.01 155.795L1274.5 148.331ZM1267 170.724L1259.51 178.188L1252.03 170.724L1259.52 163.249L1267.01 170.713L1267 170.724ZM1244.53 148.331L1252.02 155.795L1244.53 163.259L1237.04 155.795L1244.53 148.331ZM1161.74 185.265L1154.68 192.301L1147.58 185.223L1147.19 184.836L1153.86 178.188L1154.68 177.372L1155.5 178.188L1162.17 184.836L1161.74 185.265ZM1229.52 133.402L1237.01 140.866L1229.52 148.331L1222.03 140.866L1229.52 133.402ZM1229.52 163.259L1237.01 170.724L1229.52 178.188L1222.04 170.734L1222.03 170.734L1229.52 163.259ZM1222.03 170.724L1214.55 178.178L1207.07 170.724L1214.56 163.249L1222.05 170.713L1222.03 170.724ZM1199.57 148.331L1207.06 155.795L1199.57 163.259L1192.09 155.795L1199.57 148.331ZM1192.09 170.724L1184.6 178.188L1177.11 170.724L1184.6 163.259L1192.09 170.724ZM1169.66 133.402L1177.15 140.866L1169.66 148.331L1162.17 140.866L1169.66 133.402ZM1169.62 163.259L1177.11 170.724L1169.62 178.188L1162.13 170.724L1169.62 163.259ZM1154.48 148.341L1161.97 155.805L1154.48 163.27L1146.99 155.805L1154.48 148.341ZM1139.65 178.199L1139.57 178.282L1139.49 178.209L1132.02 170.745L1139.5 163.28L1146.99 170.745L1139.52 178.199L1139.66 178.199L1139.65 178.199ZM1139.5 118.483L1146.99 125.948L1139.5 133.412L1132.02 125.948L1139.5 118.483ZM1124.53 148.351L1132.02 155.816L1124.53 163.28L1117.04 155.816L1124.53 148.351ZM1109.55 148.351L1117.04 155.816L1109.55 163.28L1117.04 170.745L1109.56 178.199L1109.55 178.199L1103.13 171.802L1102.07 170.745L1109.56 163.28L1102.07 155.816L1109.56 148.351L1109.55 148.351ZM1079.58 133.402L1087.07 140.866L1079.58 148.331L1072.09 140.866L1079.58 133.402ZM1079.58 163.27L1087.07 170.734L1079.58 178.199L1072.09 170.734L1079.58 163.27ZM1064.6 148.351L1072.09 155.816L1064.6 163.28L1057.12 155.816L1064.6 148.351ZM1042.14 155.816L1049.63 148.351L1057.12 155.816L1049.63 163.28L1057.12 170.745L1049.63 178.209L1042.14 170.745L1049.63 163.28L1042.14 155.816ZM1042.14 155.816L1034.65 163.28L1027.16 155.816L1034.65 148.351L1042.14 155.816ZM1019.67 118.483L1027.16 125.948L1019.67 133.412L1012.18 125.948L1019.67 118.483ZM1019.67 163.27L1027.16 170.734L1019.67 178.199L1012.18 170.734L1019.67 163.27ZM989.704 148.351L997.193 155.816L991.71 161.281L989.704 163.28L982.215 155.816L989.704 148.351ZM974.726 163.28L982.215 170.745L974.726 178.209L967.237 170.745L974.726 163.28ZM959.748 133.412L967.237 140.866L959.748 148.331L952.259 140.866L959.748 133.402L959.748 133.412ZM929.781 163.28L922.292 155.816L929.781 148.351L937.27 155.816L929.781 163.28L937.27 170.745L929.781 178.209L927.523 175.958L927.166 175.602L927.092 175.529L922.292 170.745L927.586 165.468L929.781 163.28ZM914.803 148.351L922.292 155.816L914.803 163.28L907.314 155.816L914.803 148.351ZM907.272 125.948L907.293 125.958L907.23 126.021L907.283 125.937L907.272 125.948ZM899.783 148.341L899.867 148.247L899.815 148.33L907.293 155.784L907.304 155.805L907.283 155.826L899.815 163.27L899.909 163.416L899.773 163.28L899.794 163.259L892.326 155.816L899.794 148.372L899.773 148.351L899.783 148.341ZM884.606 133.412L885.183 133.988L892.095 140.877L890.645 142.321L884.606 148.341L881.034 144.781L878.682 142.436L877.117 140.877L884.606 133.412ZM862.139 125.948L862.191 126.031L862.128 125.969L862.149 125.948L862.139 125.948ZM862.118 155.784L869.596 148.33L869.544 148.247L869.628 148.33L869.607 148.351L877.075 155.795L869.607 163.238L869.628 163.259L869.491 163.395L869.586 163.249L862.118 155.805L862.097 155.784L862.107 155.784L862.107 155.764L862.118 155.784ZM862.097 155.805L854.608 163.27L847.119 155.805L854.608 148.341L862.097 155.805ZM839.714 118.556L839.787 118.483L847.192 125.864L847.276 125.948L839.787 133.412L832.298 125.948L839.714 118.556ZM839.63 163.27L841.825 165.458L847.119 170.734L842.508 175.33L842.245 175.592L841.888 175.948L839.63 178.199L832.141 170.734L839.63 163.27ZM824.652 148.351L832.141 155.816L824.652 163.28L817.163 155.816L824.652 148.351ZM809.663 133.412L817.152 140.877L809.663 148.341L802.174 140.877L809.663 133.412ZM794.685 163.28L802.174 170.745L794.685 178.209L787.196 170.745L794.685 163.28ZM779.707 148.351L787.196 155.816L779.707 163.28L777.69 161.281L772.208 155.816L779.696 148.351L779.707 148.351ZM749.74 118.483L757.23 125.948L749.74 133.412L742.252 125.948L749.74 118.483ZM749.74 163.27L757.229 170.734L749.74 178.199L742.252 170.734L749.74 163.27ZM734.763 148.351L742.252 155.816L734.763 163.28L727.273 155.816L734.763 148.351ZM719.784 148.351L727.273 155.816L719.784 163.28L727.273 170.745L719.784 178.209L712.295 170.745L719.784 163.28L712.295 155.816L719.784 148.351ZM689.818 163.27L697.307 170.734L689.818 178.199L682.329 170.734L689.818 163.27ZM674.84 133.402L682.329 140.866L674.84 148.33L667.351 140.866L674.84 133.402ZM659.851 148.351L667.34 155.816L659.851 163.28L667.34 170.745L666.385 171.697L659.862 178.199L652.383 170.745L659.873 163.28L652.383 155.816L659.873 148.351L659.851 148.351ZM584.793 178.209L577.304 170.745L584.793 163.27L592.282 170.734L584.793 178.199L584.793 178.209ZM629.906 178.209L629.832 178.293L629.759 178.209L629.906 178.209L622.427 170.755L629.916 163.291L637.405 170.755L629.927 178.209L629.906 178.209ZM644.726 118.494L652.215 125.958L644.726 133.423L637.237 125.958L644.726 118.494ZM614.917 148.362L622.333 155.753L629.748 148.362L637.237 155.826L629.748 163.291L622.333 155.9L614.917 163.291L607.428 155.826L614.917 148.362ZM607.271 185.684L614.76 178.22L622.249 185.684L614.76 193.149L607.271 185.684ZM599.771 163.291L607.26 170.755L599.771 178.22L592.282 170.755L599.771 163.28L599.771 163.291ZM584.793 133.433L592.282 140.897L584.793 148.362L577.304 140.897L584.793 133.433ZM577.304 155.837L569.815 163.301L562.326 155.837L569.815 148.372L577.304 155.837ZM554.848 118.504L562.337 125.969L554.848 133.433L547.359 125.969L554.848 118.504ZM554.848 163.291L562.337 170.755L554.858 178.22L547.38 170.755L554.869 163.291L554.848 163.291ZM539.87 163.291L547.359 170.755L547.348 170.755L539.87 178.22L532.381 170.755L539.87 163.291ZM509.893 193.159L502.404 185.705L509.893 178.241L517.371 185.695L509.882 193.159L509.893 193.159ZM524.871 148.372L532.36 155.837L524.871 163.301L517.382 155.837L524.871 148.372ZM517.392 170.766L509.914 178.23L502.425 170.766L509.914 163.301L517.403 170.766L517.392 170.766ZM494.925 133.443L502.414 140.908L494.925 148.372L487.436 140.908L494.925 133.443ZM479.937 148.362L487.426 155.826L479.937 163.291L472.448 155.826L479.937 148.362ZM449.96 178.209L442.481 170.766L449.97 163.291L457.459 170.755L449.981 178.209L449.96 178.209ZM472.427 170.755L464.938 178.22L457.459 170.776L457.449 170.776L464.938 163.301L472.427 170.766L472.427 170.755ZM449.97 118.515L457.459 125.979L449.97 133.443L442.481 125.979L449.97 118.515ZM434.992 148.372L442.481 155.837L434.992 163.301L427.503 155.837L434.992 148.372ZM427.503 170.766L420.014 178.23L412.525 170.766L420.014 163.301L427.503 170.766ZM405.078 133.443L412.567 140.908L405.078 148.372L397.589 140.908L405.078 133.443ZM405.036 163.301L412.525 170.766L405.036 178.23L397.547 170.766L405.036 163.301ZM374.986 178.314L374.912 178.241L375.049 178.241L374.975 178.314L374.986 178.314ZM389.89 148.383L397.379 155.847L389.89 163.312L382.401 155.847L389.89 148.383ZM374.912 163.312L382.401 170.776L374.912 178.241L367.423 170.776L374.912 163.312ZM359.934 148.383L367.423 155.847L359.934 163.312L352.445 155.847L359.934 148.383ZM344.956 148.383L352.445 155.847L344.956 163.312L352.445 170.776L344.956 178.241L338.58 171.886L337.467 170.776L344.956 163.312L337.467 155.847L344.956 148.383ZM337.467 185.715L329.968 193.18L322.479 185.715L329.968 178.251L337.457 185.715L337.467 185.715ZM329.968 133.443L337.457 140.908L329.968 148.372L322.479 140.908L329.968 133.443ZM329.968 163.312L337.457 170.776L329.968 178.241L322.479 170.776L329.968 163.312ZM314.99 163.312L322.479 170.776L314.99 178.241L307.501 170.776L314.99 163.312ZM300.012 148.393L307.501 155.858L300.012 163.322L292.523 155.858L300.012 148.393ZM277.545 155.858L285.034 148.393L292.523 155.858L285.034 163.322L292.523 170.787L285.034 178.251L277.545 170.787L285.034 163.322L277.545 155.858ZM277.545 155.858L270.056 163.322L262.567 155.858L270.056 148.393L277.545 155.858ZM255.078 118.535L262.567 126L255.078 133.464L247.589 126L255.078 118.535ZM255.078 163.312L262.567 170.776L255.078 178.241L247.589 170.776L255.078 163.312ZM240.1 178.241L239.417 177.56L232.611 170.776L240.1 163.312L247.589 170.776L240.1 178.241ZM240.1 133.464L247.589 140.929L240.1 148.393L232.611 140.929L240.1 133.464ZM225.122 148.383L232.611 155.847L227.128 161.312L225.111 163.312L217.622 155.847L225.111 148.383L225.122 148.383ZM210.144 163.312L217.633 170.776L210.144 178.241L202.655 170.776L210.144 163.312ZM195.166 133.443L202.655 140.897L195.166 148.362L187.677 140.897L195.166 133.433L195.166 133.443ZM193.191 165.28L195.166 163.312L202.655 170.776L195.607 177.801L195.166 178.241L187.677 170.776L193.191 165.28ZM180.188 148.393L187.677 155.858L180.188 163.322L172.698 155.858L180.188 148.393ZM165.209 118.535L172.698 126L165.209 133.464L157.72 126L165.209 118.535ZM163.014 165.5L165.209 163.312L172.698 170.776L165.209 178.241L162.951 175.99L162.594 175.634L162.521 175.56L157.72 170.776L163.014 165.5ZM150.232 148.383L157.72 155.847L150.232 163.312L142.743 155.847L150.232 148.383ZM120.255 178.22L112.776 170.766L120.244 163.322L122.418 165.489L127.723 170.776L120.255 178.22ZM142.701 125.979L142.722 125.989L142.659 126.052L142.711 125.969L142.701 125.979ZM135.212 148.372L135.306 148.278L135.254 148.362L142.732 155.816L142.743 155.837L142.722 155.858L135.254 163.301L135.348 163.448L135.212 163.312L135.233 163.291L127.765 155.847L135.233 148.404L135.212 148.383L135.212 148.372ZM119.551 134.166L120.244 133.475L120.265 133.454L127.754 140.918L120.265 148.383L120.234 148.351L114.194 142.332L112.776 140.918L119.551 134.166ZM97.5564 125.979L97.6089 126.063L97.546 126L97.5669 125.979L97.5564 125.979ZM97.5354 155.816L105.014 148.362L104.961 148.278L105.056 148.372L105.035 148.393L112.503 155.837L105.035 163.28L105.056 163.301L104.919 163.437L105.014 163.291L97.546 155.847L97.5249 155.826L97.5354 155.826L97.5354 155.805L97.5354 155.816ZM90.0253 148.372L97.5144 155.837L90.0253 163.301L82.5364 155.837L90.0253 148.372ZM78.0829 175.194L77.6522 175.623L77.295 175.979L75.0369 178.23L67.5479 170.766L75.0369 163.301L77.2322 165.489L82.5258 170.766L78.0829 175.194ZM75.0369 118.515L82.5258 125.979L75.0369 133.443L67.5479 125.979L75.0369 118.515ZM60.0587 148.372L67.5479 155.837L60.0587 163.301L52.5698 155.837L60.0587 148.372ZM45.0703 178.23L44.6187 177.78L37.5813 170.766L45.0703 163.301L47.045 165.269L52.5592 170.766L45.0703 178.23ZM45.0703 133.433L52.5592 140.897L45.0703 148.362L37.5813 140.897L45.0703 133.433ZM30.0924 163.301L37.5813 170.766L30.0924 178.23L22.6034 170.766L30.0924 163.301ZM15.1144 148.372L22.6034 155.837L15.1144 163.301L13.0977 161.302L7.61475 155.837L15.1039 148.372L15.1144 148.372Z" fill="white"/>
<path d="M7.48902 185.642L1.95769e-06 193.107L7.48901 200.571L6.52562e-07 208.035L7.48901 215.5L14.978 208.035L7.48901 200.571L14.978 193.107L7.48902 185.642Z" fill="white"/>
<path d="M7.47975 245.383L14.9736 237.913L7.47973 230.444L-0.0141601 237.913L7.47975 245.383Z" fill="white"/>
<path d="M644.653 208.046L637.164 200.582L637.154 200.582L629.665 208.046L637.154 215.51L644.653 208.046Z" fill="white"/>
<path d="M629.665 252.854L622.176 245.389L614.687 252.854L622.176 260.318L629.665 252.854L637.154 260.318L644.653 252.854L637.154 245.389L629.665 252.854Z" fill="white"/>
<path d="M614.687 222.985L622.176 230.45L629.665 222.985L637.154 230.45L644.653 222.985L637.154 215.521L629.665 222.985L622.176 215.521L614.687 222.985Z" fill="white"/>
<path d="M532.298 245.387L539.792 237.918L532.298 230.448L524.804 237.918L532.298 245.387Z" fill="white"/>
<path d="M607.195 245.39L614.689 237.921L607.195 230.452L599.701 237.921L607.195 245.39Z" fill="white"/>
<path d="M607.223 275.297L614.717 267.828L607.223 260.358L599.729 267.828L607.223 275.297Z" fill="white"/>
<path d="M599.698 222.996L607.187 230.45L614.676 222.985L607.187 215.521L599.698 222.975L592.209 215.521L584.72 222.985L592.209 230.45L599.698 222.996Z" fill="white"/>
<path d="M592.209 245.389L599.708 237.925L592.209 230.45L584.72 237.925L592.209 245.389L584.72 252.854L592.209 260.318L599.708 252.854L592.209 245.389Z" fill="white"/>
<path d="M577.221 230.462L584.715 222.993L577.221 215.523L569.727 222.993L577.221 230.462Z" fill="white"/>
<path d="M577.267 245.436L584.761 237.967L577.267 230.497L569.773 237.967L577.267 245.436Z" fill="white"/>
<path d="M577.209 275.239L584.705 267.771L577.212 260.301L569.717 267.769L577.209 275.239Z" fill="white"/>
<path d="M562.253 230.45L554.754 237.925L562.253 245.389L554.754 252.854L562.253 260.318L569.742 252.854L562.253 245.389L569.742 237.925L562.253 230.45Z" fill="white"/>
<path d="M547.219 215.459L554.713 207.99L547.219 200.52L539.725 207.99L547.219 215.459Z" fill="white"/>
<path d="M547.311 230.511L554.805 223.041L547.311 215.572L539.817 223.041L547.311 230.511Z" fill="white"/>
<path d="M547.307 260.365L554.801 252.896L547.307 245.426L539.813 252.896L547.307 260.365Z" fill="white"/>
<path d="M532.272 215.512L539.766 208.042L532.272 200.573L524.778 208.042L532.272 215.512Z" fill="white"/>
<path d="M532.299 230.486L539.792 223.016L532.296 215.548L524.804 223.018L532.299 230.486Z" fill="white"/>
<path d="M509.819 222.985L502.33 215.521L494.841 222.985L502.33 230.45L509.819 222.996L517.298 230.46L524.797 222.985L517.298 215.521L509.819 222.985Z" fill="white"/>
<path d="M509.819 237.914L502.33 230.45L494.841 237.925L502.33 245.389L509.819 237.925L517.298 245.389L524.797 237.925L517.298 230.46L509.819 237.914Z" fill="white"/>
<path d="M517.348 275.298L524.842 267.829L517.348 260.36L509.854 267.829L517.348 275.298Z" fill="white"/>
<path d="M502.366 260.373L509.86 252.903L502.366 245.434L494.872 252.903L502.366 260.373Z" fill="white"/>
<path d="M502.285 215.474L509.779 208.004L502.285 200.535L494.791 208.004L502.285 215.474Z" fill="white"/>
<path d="M742.188 275.255L749.682 267.785L742.188 260.316L734.694 267.785L742.188 275.255Z" fill="white"/>
<path d="M607.146 290.15L614.64 282.681L607.146 275.211L599.652 282.681L607.146 290.15Z" fill="white"/>
<path d="M697.235 305.004L704.729 297.534L697.235 290.065L689.741 297.534L697.235 305.004Z" fill="white"/>
<path d="M802.11 305.006L809.604 297.537L802.11 290.068L794.616 297.537L802.11 305.006Z" fill="white"/>
<path d="M892.051 304.996L899.544 297.527L892.05 290.058L884.557 297.527L892.051 304.996Z" fill="white"/>
<path d="M1237.02 305.005L1244.51 297.535L1237.02 290.066L1229.53 297.535L1237.02 305.005Z" fill="white"/>
<path d="M1341.89 305.007L1349.39 297.538L1341.89 290.068L1334.4 297.538L1341.89 305.007Z" fill="white"/>
<path d="M532.301 305L539.795 297.531L532.301 290.062L524.807 297.531L532.301 305Z" fill="white"/>
<path d="M884.553 193.117L877.117 185.705L869.67 193.128L869.617 193.075L869.575 193.117L877.064 200.592L884.553 193.117Z" fill="white"/>
<path d="M824.589 222.996L817.1 215.531L809.6 222.996L817.089 230.46L809.6 237.914L817.1 245.389L824.589 237.914L817.1 230.46L824.589 222.996Z" fill="white"/>
<path d="M877.059 260.333L884.553 252.864L877.059 245.395L869.565 252.864L877.059 260.333Z" fill="white"/>
<path d="M862.044 215.51L862.055 215.51L862.076 215.51L869.565 208.046L862.076 200.582L869.565 193.117L862.076 185.653L862.066 185.653L862.044 185.653L854.555 193.117L862.044 200.582L854.555 208.046L862.044 215.51ZM862.055 200.561L862.076 200.582L862.066 200.582L862.044 200.582L862.055 200.582L862.055 200.561Z" fill="white"/>
<path d="M862.044 245.389L862.055 245.368L862.086 245.4L869.575 237.925L862.086 230.46L869.575 222.996L877.064 230.46L884.553 222.996L877.064 215.531L869.575 222.996L862.086 215.531L862.065 215.542L862.044 215.521L854.545 222.985L862.044 230.45L862.055 230.439L862.076 230.46L862.065 230.481L862.044 230.45L854.545 237.914L862.044 245.389L854.545 252.854L862.044 260.318L854.545 267.782L862.044 275.247L869.533 267.782L862.044 260.318L869.533 252.854L862.044 245.389Z" fill="white"/>
<path d="M839.567 222.985L832.078 215.521L824.589 222.985L832.078 230.45L824.589 237.914L832.078 245.389L839.567 237.914L832.078 230.45L839.567 222.985L847.056 230.45L854.545 222.985L847.056 215.521L839.567 222.985Z" fill="white"/>
<path d="M832.07 260.321L839.564 252.852L832.07 245.382L824.576 252.852L832.07 260.321Z" fill="white"/>
<path d="M817.113 275.278L824.607 267.809L817.113 260.339L809.619 267.809L817.113 275.278Z" fill="white"/>
<path d="M802.082 230.429L809.576 222.96L802.082 215.49L794.588 222.96L802.082 230.429Z" fill="white"/>
<path d="M802.099 260.325L809.593 252.856L802.099 245.386L794.605 252.856L802.099 260.325Z" fill="white"/>
<path d="M787.132 230.464L794.626 222.994L787.132 215.525L779.638 222.994L787.132 230.464Z" fill="white"/>
<path d="M787.125 245.386L794.619 237.916L787.125 230.447L779.631 237.916L787.125 245.386Z" fill="white"/>
<path d="M787.097 275.226L794.591 267.757L787.097 260.288L779.603 267.757L787.097 275.226Z" fill="white"/>
<path d="M772.145 185.653L764.656 193.117L772.145 200.582L764.656 208.046L772.145 215.51L779.634 208.046L772.145 200.582L779.634 193.117L772.145 185.653Z" fill="white"/>
<path d="M772.144 245.389L779.638 237.92L772.144 230.45L764.65 237.92L772.144 245.389Z" fill="white"/>
<path d="M757.167 215.521L749.678 222.985L757.167 230.45L749.678 237.914L757.167 245.389L764.656 237.914L757.167 230.45L764.656 222.985L757.167 215.521Z" fill="white"/>
<path d="M757.158 260.322L764.652 252.853L757.158 245.383L749.664 252.853L757.158 260.322Z" fill="white"/>
<path d="M757.162 290.194L764.656 282.725L757.162 275.255L749.668 282.725L757.162 290.194Z" fill="white"/>
<path d="M832.235 290.19L839.729 282.721L832.235 275.251L824.741 282.721L832.235 290.19Z" fill="white"/>
<path d="M742.204 215.555L749.698 208.086L742.204 200.617L734.71 208.086L742.204 215.555Z" fill="white"/>
<path d="M742.212 230.503L749.706 223.033L742.212 215.564L734.718 223.033L742.212 230.503Z" fill="white"/>
<path d="M727.201 230.461L734.695 222.992L727.201 215.522L719.707 222.992L727.201 230.461Z" fill="white"/>
<path d="M727.195 245.394L734.688 237.924L727.195 230.455L719.701 237.924L727.195 245.394Z" fill="white"/>
<path d="M727.23 275.297L734.724 267.828L727.23 260.358L719.736 267.828L727.23 275.297Z" fill="white"/>
<path d="M712.188 200.543L719.682 193.074L712.188 185.604L704.694 193.074L712.188 200.543Z" fill="white"/>
<path d="M712.251 215.567L719.745 208.097L712.251 200.628L704.757 208.097L712.251 215.567Z" fill="white"/>
<path d="M712.252 230.507L719.746 223.037L712.252 215.568L704.758 223.037L712.252 230.507Z" fill="white"/>
<path d="M697.2 245.348L704.694 237.879L697.2 230.409L689.706 237.879L697.2 245.348Z" fill="white"/>
<path d="M712.206 260.319L719.7 252.85L712.206 245.38L704.712 252.85L712.206 260.319Z" fill="white"/>
<path d="M689.745 208.046L697.234 215.521L704.733 208.046L697.234 200.582L689.745 208.046L682.256 200.582L674.767 208.046L682.256 215.521L689.745 208.046Z" fill="white"/>
<path d="M689.745 222.996L697.234 230.46L704.733 222.996L697.234 215.521L689.745 222.996L682.256 215.521L674.767 222.996L682.256 230.46L674.767 237.925L682.256 245.389L689.745 237.925L682.256 230.46L689.745 222.996Z" fill="white"/>
<path d="M682.285 260.372L689.779 252.903L682.285 245.433L674.791 252.903L682.285 260.372Z" fill="white"/>
<path d="M667.31 215.564L674.804 208.094L667.31 200.625L659.816 208.094L667.31 215.564Z" fill="white"/>
<path d="M667.303 245.425L674.797 237.956L667.303 230.487L659.809 237.956L667.303 245.425Z" fill="white"/>
<path d="M667.307 275.298L674.801 267.828L667.307 260.359L659.813 267.828L667.307 275.298Z" fill="white"/>
<path d="M652.321 215.564L659.815 208.095L652.321 200.625L644.827 208.095L652.321 215.564Z" fill="white"/>
<path d="M652.272 230.431L659.767 222.963L652.274 215.493L644.779 222.961L652.272 230.431Z" fill="white"/>
<path d="M652.332 260.369L659.826 252.899L652.332 245.43L644.838 252.899L652.332 260.369Z" fill="white"/>
<path d="M637.238 230.534L629.822 237.925L637.227 245.316L637.311 245.389L644.8 237.925L637.311 230.46L637.238 230.534Z" fill="white"/>
<path d="M1356.89 260.308L1364.38 252.838L1356.89 245.369L1349.39 252.838L1356.89 260.308Z" fill="white"/>
<path d="M1341.9 260.318L1349.39 252.854L1341.9 245.389L1349.39 237.914L1341.9 230.45L1334.41 237.914L1341.9 245.389L1334.41 252.854L1341.9 260.318Z" fill="white"/>
<path d="M1371.86 230.46L1379.35 222.996L1371.86 215.531L1364.37 222.996L1371.86 230.46L1364.37 237.914L1371.86 245.389L1379.35 237.914L1371.86 230.46Z" fill="white"/>
<path d="M1341.9 230.439L1349.39 222.975L1341.9 215.51L1349.39 208.046L1341.9 200.582L1334.41 208.046L1341.9 215.51L1334.41 222.975L1341.9 230.439Z" fill="white"/>
<path d="M1356.88 230.443L1364.37 222.973L1356.88 215.504L1349.39 222.973L1356.88 230.443Z" fill="white"/>
<path d="M1139.64 208.046L1132.15 200.582L1124.65 208.046L1132.15 215.51L1139.64 208.046Z" fill="white"/>
<path d="M1132.15 230.45L1139.64 222.985L1147.13 230.45L1139.64 237.914L1147.13 245.389L1154.62 237.914L1147.13 230.45L1154.62 222.985L1147.13 215.521L1139.64 222.985L1132.15 215.521L1124.65 222.985L1132.15 230.45Z" fill="white"/>
<path d="M1132.13 260.297L1139.62 252.827L1132.13 245.358L1124.63 252.827L1132.13 260.297Z" fill="white"/>
<path d="M1207.03 260.321L1214.53 252.852L1207.03 245.382L1199.54 252.852L1207.03 260.321Z" fill="white"/>
<path d="M1236.99 275.239L1244.48 267.77L1236.99 260.3L1229.49 267.77L1236.99 275.239Z" fill="white"/>
<path d="M1169.61 222.975L1162.13 215.521L1154.63 222.985L1162.13 230.45L1169.61 222.996L1177.1 230.45L1184.59 222.985L1177.1 215.521L1169.61 222.975Z" fill="white"/>
<path d="M1177.1 230.45L1169.61 237.925L1177.1 245.389L1169.61 252.854L1177.1 260.318L1184.59 252.854L1177.1 245.389L1184.59 237.925L1177.1 230.45Z" fill="white"/>
<path d="M1192.08 215.537L1199.57 208.067L1192.08 200.598L1184.58 208.067L1192.08 215.537Z" fill="white"/>
<path d="M1192.07 230.463L1199.57 222.994L1192.07 215.524L1184.58 222.994L1192.07 230.463Z" fill="white"/>
<path d="M1192.06 245.367L1199.56 237.898L1192.06 230.428L1184.57 237.898L1192.06 245.367Z" fill="white"/>
<path d="M1192.09 275.271L1199.58 267.801L1192.09 260.332L1184.6 267.801L1192.09 275.271Z" fill="white"/>
<path d="M1207.07 245.405L1214.56 237.936L1207.07 230.467L1199.57 237.936L1207.07 245.405Z" fill="white"/>
<path d="M1401.8 260.322L1409.29 252.853L1401.8 245.384L1394.31 252.853L1401.8 260.322Z" fill="white"/>
<path d="M1386.83 215.527L1394.33 208.058L1386.83 200.589L1379.34 208.058L1386.83 215.527Z" fill="white"/>
<path d="M1386.84 230.464L1394.33 222.995L1386.84 215.525L1379.35 222.995L1386.84 230.464Z" fill="white"/>
<path d="M1386.83 245.386L1394.33 237.917L1386.83 230.447L1379.34 237.917L1386.83 245.386Z" fill="white"/>
<path d="M1386.84 275.269L1394.33 267.799L1386.84 260.33L1379.34 267.799L1386.84 275.269Z" fill="white"/>
<path d="M1401.82 215.517L1409.32 208.047L1401.82 200.578L1394.33 208.047L1401.82 215.517Z" fill="white"/>
<path d="M1401.82 245.389L1409.24 237.998L1416.66 245.389L1424.15 237.925L1416.66 230.46L1409.25 237.851L1401.82 230.45L1394.33 237.925L1401.82 245.389Z" fill="white"/>
<path d="M1222.03 215.501L1229.52 208.032L1222.03 200.563L1214.53 208.032L1222.03 215.501Z" fill="white"/>
<path d="M1222.05 230.48L1229.54 223.011L1222.05 215.541L1214.55 223.011L1222.05 230.48Z" fill="white"/>
<path d="M1222.04 260.334L1229.54 252.865L1222.04 245.395L1214.55 252.865L1222.04 260.334Z" fill="white"/>
<path d="M1237.02 215.501L1244.51 208.032L1237.02 200.562L1229.52 208.032L1237.02 215.501Z" fill="white"/>
<path d="M1252.01 230.466L1259.5 222.996L1252.01 215.527L1244.51 222.996L1252.01 230.466Z" fill="white"/>
<path d="M1252 245.387L1259.49 237.918L1252 230.449L1244.5 237.918L1252 245.387Z" fill="white"/>
<path d="M1252.01 275.27L1259.51 267.801L1252.01 260.331L1244.52 267.801L1252.01 275.27Z" fill="white"/>
<path d="M1266.98 200.593L1274.47 193.124L1266.98 185.654L1259.48 193.124L1266.98 200.593Z" fill="white"/>
<path d="M1266.99 215.52L1274.48 208.052L1266.99 200.582L1259.49 208.05L1266.99 215.52Z" fill="white"/>
<path d="M1266.97 230.462L1274.47 222.994L1266.98 215.523L1259.48 222.991L1266.97 230.462Z" fill="white"/>
<path d="M1281.97 245.404L1289.46 237.935L1281.97 230.466L1274.47 237.935L1281.97 245.404Z" fill="white"/>
<path d="M1266.98 260.337L1274.48 252.868L1266.98 245.399L1259.49 252.868L1266.98 260.337Z" fill="white"/>
<path d="M1296.95 215.521L1289.46 222.996L1281.97 215.521L1274.48 222.996L1281.97 230.46L1289.46 222.996L1296.95 230.46L1289.46 237.925L1296.95 245.389L1304.44 237.925L1296.95 230.46L1304.44 222.996L1296.95 215.521Z" fill="white"/>
<path d="M1296.95 260.341L1304.44 252.871L1296.95 245.402L1289.46 252.871L1296.95 260.341Z" fill="white"/>
<path d="M1311.94 215.518L1319.43 208.049L1311.94 200.579L1304.44 208.049L1311.94 215.518Z" fill="white"/>
<path d="M1311.93 245.39L1319.42 237.921L1311.93 230.451L1304.43 237.921L1311.93 245.39Z" fill="white"/>
<path d="M1311.93 275.252L1319.43 267.782L1311.93 260.313L1304.44 267.782L1311.93 275.252Z" fill="white"/>
<path d="M1431.79 215.52L1439.28 208.051L1431.79 200.581L1424.29 208.051L1431.79 215.52Z" fill="white"/>
<path d="M1431.79 245.392L1439.29 237.923L1431.79 230.453L1424.3 237.923L1431.79 245.392Z" fill="white"/>
<path d="M1431.79 275.254L1439.28 267.785L1431.79 260.315L1424.29 267.785L1431.79 275.254Z" fill="white"/>
<path d="M1326.92 215.525L1334.41 208.055L1326.92 200.586L1319.42 208.055L1326.92 215.525Z" fill="white"/>
<path d="M1326.92 230.475L1334.41 223.006L1326.92 215.536L1319.42 223.006L1326.92 230.475Z" fill="white"/>
<path d="M1326.91 260.326L1334.4 252.857L1326.91 245.388L1319.42 252.857L1326.91 260.326Z" fill="white"/>
<path d="M1162.11 260.324L1169.6 252.855L1162.11 245.385L1154.61 252.855L1162.11 260.324Z" fill="white"/>
<path d="M1147.19 275.269L1154.68 267.8L1147.19 260.331L1139.69 267.8L1147.19 275.269Z" fill="white"/>
<path d="M1162.16 290.169L1169.66 282.699L1162.16 275.23L1154.67 282.699L1162.16 290.169Z" fill="white"/>
<path d="M1296.95 290.155L1304.44 282.686L1296.95 275.216L1289.45 282.686L1296.95 290.155Z" fill="white"/>
<path d="M1356.88 290.147L1364.37 282.678L1356.88 275.208L1349.39 282.678L1356.88 290.147Z" fill="white"/>
<path d="M1072.07 305.006L1079.57 297.536L1072.07 290.067L1064.58 297.536L1072.07 305.006Z" fill="white"/>
<path d="M907.262 185.642L907.241 185.663L907.23 185.663L899.741 193.117L907.23 200.582L899.741 208.046L892.252 200.582L899.741 193.117L892.252 185.653L884.763 193.117L892.252 200.582L884.763 208.046L892.252 215.51L899.741 208.046L907.23 215.51L907.251 215.49L907.262 215.49L914.751 208.036L907.262 200.571L914.751 193.107L907.262 185.642ZM907.241 200.602L907.23 200.602L907.251 200.561L907.262 200.561L907.241 200.602Z" fill="white"/>
<path d="M907.262 230.45L914.761 222.985L907.262 215.521L907.241 215.542L907.23 215.531L899.731 222.996L892.242 215.531L884.753 222.996L892.242 230.46L899.731 222.996L907.23 230.46L899.731 237.925L907.23 245.4L907.251 245.368L907.262 245.389L914.761 237.914L907.262 230.45L907.241 230.481L907.23 230.46L907.251 230.439L907.262 230.45Z" fill="white"/>
<path d="M877.186 245.414L884.68 237.944L877.186 230.475L869.692 237.944L877.186 245.414Z" fill="white"/>
<path d="M862.181 185.653L865.931 181.926L862.181 185.653Z" fill="white"/>
<path d="M907.291 275.273L914.785 267.803L907.291 260.334L899.797 267.803L907.291 275.273Z" fill="white"/>
<path d="M937.228 230.45L944.717 222.985L937.228 215.521L929.739 222.985L922.25 215.521L914.761 222.985L922.25 230.45L929.739 222.985L937.228 230.45L929.739 237.914L937.228 245.389L944.717 237.914L937.228 230.45Z" fill="white"/>
<path d="M937.228 245.389L929.739 252.854L922.25 245.389L914.761 252.854L922.25 260.318L929.739 252.854L937.228 260.318L944.717 252.854L937.228 245.389Z" fill="white"/>
<path d="M952.217 185.642L944.728 193.117L952.217 200.582L944.728 208.046L952.217 215.51L959.706 208.046L952.217 200.582L959.706 193.117L952.217 185.642Z" fill="white"/>
<path d="M952.236 245.421L959.73 237.952L952.236 230.483L944.742 237.952L952.236 245.421Z" fill="white"/>
<path d="M952.197 275.242L959.692 267.774L952.199 260.304L944.704 267.772L952.197 275.242Z" fill="white"/>
<path d="M967.193 230.465L974.687 222.995L967.193 215.526L959.699 222.995L967.193 230.465Z" fill="white"/>
<path d="M1237.02 245.389L1244.52 237.925L1237.02 230.46L1244.52 222.985L1237.02 215.521L1229.53 222.985L1237.02 230.46L1229.53 237.925L1237.02 245.389Z" fill="white"/>
<path d="M967.19 260.319L974.684 252.849L967.19 245.38L959.696 252.849L967.19 260.319Z" fill="white"/>
<path d="M982.203 230.485L989.697 223.016L982.203 215.546L974.709 223.016L982.203 230.485Z" fill="white"/>
<path d="M982.154 245.365L989.648 237.896L982.154 230.426L974.66 237.896L982.154 245.365Z" fill="white"/>
<path d="M982.2 275.279L989.694 267.81L982.2 260.34L974.706 267.81L982.2 275.279Z" fill="white"/>
<path d="M997.161 215.51L1004.65 208.046L997.161 200.582L1004.65 193.117L997.161 185.653L989.672 193.117L997.161 200.582L989.672 208.046L997.161 215.51Z" fill="white"/>
<path d="M1004.65 237.925L997.161 230.45L989.672 237.925L997.161 245.389L989.672 252.854L997.161 260.318L1004.65 252.854L997.161 245.389L1004.65 237.925Z" fill="white"/>
<path d="M1012.13 230.468L1019.63 222.998L1012.13 215.529L1004.64 222.998L1012.13 230.468Z" fill="white"/>
<path d="M1012.13 260.322L1019.62 252.852L1012.13 245.383L1004.64 252.852L1012.13 260.322Z" fill="white"/>
<path d="M1012.13 290.194L1019.63 282.725L1012.13 275.255L1004.64 282.725L1012.13 290.194Z" fill="white"/>
<path d="M952.172 290.193L959.666 282.723L952.172 275.254L944.678 282.723L952.172 290.193Z" fill="white"/>
<path d="M1027.11 215.499L1034.6 208.031L1027.11 200.56L1019.61 208.028L1027.11 215.499Z" fill="white"/>
<path d="M1027.13 215.521L1019.63 222.985L1027.12 230.45L1019.63 237.914L1027.12 245.389L1019.63 252.854L1027.12 260.318L1034.62 252.854L1027.13 245.389L1034.62 237.914L1027.13 230.45L1034.62 222.985L1027.13 215.521Z" fill="white"/>
<path d="M1042.11 230.464L1049.6 222.994L1042.11 215.525L1034.61 222.994L1042.11 230.464Z" fill="white"/>
<path d="M1042.1 245.396L1049.59 237.927L1042.1 230.457L1034.6 237.927L1042.1 245.396Z" fill="white"/>
<path d="M1042.12 275.279L1049.62 267.809L1042.12 260.34L1034.63 267.809L1042.12 275.279Z" fill="white"/>
<path d="M1057.07 200.563L1064.57 193.093L1057.07 185.624L1049.58 193.093L1057.07 200.563Z" fill="white"/>
<path d="M1057.07 215.492L1064.57 208.023L1057.07 200.553L1049.58 208.023L1057.07 215.492Z" fill="white"/>
<path d="M1057.07 230.432L1064.57 222.962L1057.07 215.493L1049.58 222.962L1057.07 230.432Z" fill="white"/>
<path d="M1072.05 245.371L1079.54 237.902L1072.05 230.432L1064.55 237.902L1072.05 245.371Z" fill="white"/>
<path d="M1057.07 260.297L1064.56 252.827L1057.07 245.358L1049.58 252.827L1057.07 260.297Z" fill="white"/>
<path d="M1079.56 208.046L1072.07 200.582L1064.58 208.046L1072.07 215.521L1079.56 208.046L1087.05 215.521L1094.54 208.046L1087.05 200.582L1079.56 208.046Z" fill="white"/>
<path d="M1087.05 215.521L1079.56 222.996L1072.07 215.521L1064.58 222.996L1072.07 230.46L1079.56 222.996L1087.05 230.46L1079.56 237.925L1087.05 245.389L1094.54 237.925L1087.05 230.46L1094.54 222.996L1087.05 215.521Z" fill="white"/>
<path d="M1087.06 260.349L1094.55 252.88L1087.06 245.411L1079.57 252.88L1087.06 260.349Z" fill="white"/>
<path d="M1102.03 215.526L1109.53 208.057L1102.03 200.588L1094.54 208.057L1102.03 215.526Z" fill="white"/>
<path d="M1102.03 245.388L1109.52 237.919L1102.03 230.449L1094.53 237.919L1102.03 245.388Z" fill="white"/>
<path d="M1102.03 275.26L1109.53 267.791L1102.03 260.322L1094.54 267.791L1102.03 275.26Z" fill="white"/>
<path d="M1117.02 215.523L1124.51 208.054L1117.02 200.584L1109.52 208.054L1117.02 215.523Z" fill="white"/>
<path d="M1117.03 230.484L1124.52 223.014L1117.03 215.545L1109.53 223.014L1117.03 230.484Z" fill="white"/>
<path d="M1117.01 260.335L1124.5 252.866L1117.01 245.396L1109.52 252.866L1117.01 260.335Z" fill="white"/>
<path d="M1131.99 245.389L1132.08 245.316L1139.48 237.925L1132.07 230.534L1131.99 230.46L1124.51 237.925L1131.99 245.389Z" fill="white"/>
<path d="M1416.8 230.453L1424.3 222.983L1416.8 215.514L1409.31 222.983L1416.8 230.453Z" fill="white"/>
<path d="M1416.81 260.315L1424.3 252.845L1416.81 245.376L1409.31 252.845L1416.81 260.315Z" fill="white"/>
<path d="M112.403 260.319L119.896 252.85L112.403 245.381L104.909 252.85L112.403 260.319Z" fill="white"/>
<path d="M97.3783 215.5L97.3888 215.5L97.4099 215.5L104.899 208.035L112.388 215.5L119.877 208.035L112.388 200.571L119.877 193.107L112.388 185.642L104.899 193.107L112.388 200.571L104.899 208.035L97.4099 200.571L104.899 193.107L97.4099 185.642L97.3993 185.642L97.3783 185.642L89.8893 193.107L97.3783 200.571L89.8893 208.035L97.3783 215.5ZM97.3888 200.55L97.4099 200.571L97.3993 200.571L97.3783 200.571L97.3888 200.571L97.3888 200.55Z" fill="white"/>
<path d="M97.3778 230.439L89.8888 237.904L97.3778 245.379L97.3988 245.358L97.4199 245.389L104.919 237.914L97.4199 230.45L104.919 222.985L112.408 230.45L119.897 222.985L112.408 215.521L104.919 222.985L97.4199 215.521L97.4094 215.531L97.3778 215.51L89.8888 222.975L97.3778 230.439L97.3988 230.429L97.4199 230.45L97.4094 230.471L97.3778 230.439Z" fill="white"/>
<path d="M97.3771 275.236L104.871 267.766L97.3772 260.297L89.8832 267.766L97.3771 275.236Z" fill="white"/>
<path d="M74.9111 222.975L67.4221 215.51L59.9226 222.975L67.4221 230.439L59.9226 237.914L67.4221 245.379L74.9111 237.914L67.4221 230.439L74.9111 222.975L82.4002 230.439L89.8892 222.975L82.4002 215.51L74.9111 222.975Z" fill="white"/>
<path d="M74.9111 252.843L67.4221 245.379L59.9226 252.843L67.4221 260.307L74.9111 252.843L82.4002 260.307L89.8892 252.843L82.4002 245.379L74.9111 252.843Z" fill="white"/>
<path d="M52.4284 245.368L59.9224 237.898L52.4284 230.429L44.9344 237.898L52.4284 245.368Z" fill="white"/>
<path d="M52.4988 275.306L59.9927 267.836L52.4988 260.367L45.0049 267.836L52.4988 275.306Z" fill="white"/>
<path d="M37.3836 230.373L44.8774 222.904L37.3835 215.434L29.8896 222.904L37.3836 230.373Z" fill="white"/>
<path d="M37.4553 260.307L44.9443 252.843L37.4553 245.379L44.9443 237.914L37.4553 230.439L29.9664 237.914L37.4553 245.379L29.9664 252.843L37.4553 260.307Z" fill="white"/>
<path d="M22.4758 230.45L29.9697 222.98L22.4758 215.511L14.9818 222.98L22.4758 230.45Z" fill="white"/>
<path d="M22.4685 245.382L29.9624 237.913L22.4684 230.443L14.9745 237.913L22.4685 245.382Z" fill="white"/>
<path d="M22.4094 275.181L29.9033 267.712L22.4094 260.242L14.9154 267.712L22.4094 275.181Z" fill="white"/>
<path d="M374.986 208.035L367.497 200.571L367.486 200.571L359.997 208.035L367.486 215.5L374.986 208.035Z" fill="white"/>
<path d="M472.409 260.369L479.903 252.9L472.409 245.43L464.915 252.9L472.409 260.369Z" fill="white"/>
<path d="M382.475 215.51L374.986 222.975L367.486 215.51L359.997 222.975L367.486 230.439L374.986 222.975L382.475 230.439L374.986 237.914L382.475 245.379L389.964 237.914L382.475 230.439L389.964 222.975L382.475 215.51Z" fill="white"/>
<path d="M382.473 260.311L389.967 252.841L382.473 245.372L374.979 252.841L382.473 260.311Z" fill="white"/>
<path d="M404.952 222.964L397.463 215.51L389.974 222.975L397.463 230.439L404.952 222.985L412.441 230.439L419.93 222.975L412.441 215.51L404.952 222.964Z" fill="white"/>
<path d="M412.441 230.439L404.942 237.914L412.441 245.379L404.942 252.843L412.441 260.307L419.93 252.843L412.441 245.379L419.93 237.914L412.441 230.439Z" fill="white"/>
<path d="M427.368 215.449L434.862 207.98L427.368 200.511L419.874 207.98L427.368 215.449Z" fill="white"/>
<path d="M427.366 230.397L434.86 222.927L427.366 215.458L419.872 222.927L427.366 230.397Z" fill="white"/>
<path d="M427.411 245.381L434.905 237.912L427.411 230.443L419.917 237.912L427.411 245.381Z" fill="white"/>
<path d="M442.348 245.328L449.842 237.859L442.348 230.39L434.854 237.859L442.348 245.328Z" fill="white"/>
<path d="M457.381 215.508L464.875 208.039L457.381 200.569L449.887 208.039L457.381 215.508Z" fill="white"/>
<path d="M457.386 215.51L449.897 222.975L457.386 230.439L449.897 237.904L457.386 245.379L464.875 237.904L457.386 230.439L464.875 222.975L457.386 215.51Z" fill="white"/>
<path d="M457.386 245.379L449.897 252.843L457.386 260.307L449.897 267.772L457.386 275.247L464.875 267.772L457.386 260.307L464.875 252.843L457.386 245.379Z" fill="white"/>
<path d="M472.318 215.46L479.812 207.99L472.318 200.521L464.824 207.99L472.318 215.46Z" fill="white"/>
<path d="M472.318 230.4L479.812 222.93L472.318 215.461L464.824 222.93L472.318 230.4Z" fill="white"/>
<path d="M487.307 230.399L494.801 222.93L487.307 215.46L479.813 222.93L487.307 230.399Z" fill="white"/>
<path d="M487.352 245.384L494.846 237.914L487.352 230.445L479.858 237.915L487.352 245.384Z" fill="white"/>
<path d="M487.398 275.298L494.892 267.829L487.398 260.359L479.904 267.829L487.398 275.298Z" fill="white"/>
<path d="M397.453 245.389L389.964 252.854L397.442 260.318L389.964 267.772L397.453 275.236L404.942 267.772L397.463 260.318L404.942 252.854L397.453 245.389Z" fill="white"/>
<path d="M367.545 275.296L375.039 267.826L367.545 260.357L360.051 267.826L367.545 275.296Z" fill="white"/>
<path d="M427.463 290.188L434.957 282.718L427.463 275.249L419.969 282.718L427.463 290.188Z" fill="white"/>
<path d="M472.404 290.191L479.898 282.721L472.404 275.252L464.91 282.721L472.404 290.191Z" fill="white"/>
<path d="M322.396 304.999L329.89 297.529L322.396 290.06L314.902 297.529L322.396 304.999Z" fill="white"/>
<path d="M112.609 304.999L120.103 297.53L112.609 290.06L105.115 297.53L112.609 304.999Z" fill="white"/>
<path d="M37.4528 304.992L44.9468 297.523L37.4528 290.054L29.9589 297.523L37.4528 304.992Z" fill="white"/>
<path d="M232.492 304.993L239.986 297.523L232.492 290.054L224.998 297.523L232.492 304.993Z" fill="white"/>
<path d="M127.517 200.504L135.011 193.035L127.517 185.565L120.023 193.035L127.517 200.504Z" fill="white"/>
<path d="M127.525 260.259L135.019 252.79L127.525 245.32L120.031 252.79L127.525 260.259Z" fill="white"/>
<path d="M142.564 200.582L135.075 208.046L142.564 215.51L142.596 215.489L142.606 215.5L150.095 208.035L142.606 200.571L142.585 200.592L142.564 200.582Z" fill="white"/>
<path d="M142.606 185.632L142.585 185.663L142.564 185.642L135.075 193.107L142.564 200.581L142.596 200.55L142.606 200.571L150.095 193.107L142.606 185.632Z" fill="white"/>
<path d="M142.606 230.439L150.095 222.975L142.606 215.51L142.585 215.531L142.564 215.521L135.075 222.985L127.586 215.521L120.097 222.985L127.586 230.45L135.075 222.985L142.564 230.45L135.107 237.893L127.628 230.439L120.139 237.904L127.628 245.379L135.096 237.935L142.564 245.389L142.596 245.358L142.606 245.379L150.095 237.904L142.606 230.439L142.585 230.471L142.564 230.45L142.596 230.429L142.606 230.439Z" fill="white"/>
<path d="M142.666 275.3L150.16 267.831L142.666 260.362L135.172 267.831L142.666 275.3Z" fill="white"/>
<path d="M172.573 215.51L165.084 222.975L157.595 215.51L150.096 222.975L157.595 230.439L165.084 222.975L172.573 230.439L165.084 237.914L172.573 245.379L180.062 237.914L172.573 230.439L180.062 222.975L172.573 215.51Z" fill="white"/>
<path d="M165.084 252.843L157.595 245.379L150.096 252.843L157.595 260.307L165.084 252.843L172.573 260.307L180.062 252.843L172.573 245.379L165.084 252.843Z" fill="white"/>
<path d="M187.611 245.439L195.105 237.969L187.611 230.5L180.117 237.969L187.611 245.439Z" fill="white"/>
<path d="M187.519 275.208L195.015 267.74L187.522 260.269L180.027 267.737L187.519 275.208Z" fill="white"/>
<path d="M202.536 230.45L210.03 222.981L202.536 215.512L195.042 222.981L202.536 230.45Z" fill="white"/>
<path d="M202.539 230.439L195.05 237.914L202.539 245.379L195.05 252.843L202.539 260.307L210.028 252.843L202.539 245.379L210.028 237.914L202.539 230.439Z" fill="white"/>
<path d="M217.462 230.377L224.957 222.907L217.463 215.438L209.969 222.907L217.462 230.377Z" fill="white"/>
<path d="M217.519 245.372L225.013 237.903L217.519 230.433L210.025 237.903L217.519 245.372Z" fill="white"/>
<path d="M217.575 275.297L225.069 267.827L217.575 260.358L210.081 267.827L217.575 275.297Z" fill="white"/>
<path d="M232.454 200.515L239.948 193.045L232.454 185.576L224.96 193.045L232.454 200.515Z" fill="white"/>
<path d="M232.488 215.489L239.982 208.02L232.488 200.55L224.995 208.02L232.488 215.489Z" fill="white"/>
<path d="M232.489 245.369L239.983 237.899L232.489 230.43L224.995 237.899L232.489 245.369Z" fill="white"/>
<path d="M247.523 215.569L255.017 208.1L247.523 200.63L240.029 208.1L247.523 215.569Z" fill="white"/>
<path d="M247.425 230.391L254.919 222.921L247.425 215.452L239.932 222.921L247.425 230.391Z" fill="white"/>
<path d="M247.475 260.318L254.969 252.849L247.475 245.38L239.981 252.849L247.475 260.318Z" fill="white"/>
<path d="M247.479 290.18L254.973 282.711L247.479 275.241L239.985 282.711L247.479 290.18Z" fill="white"/>
<path d="M352.459 290.182L359.953 282.712L352.459 275.243L344.965 282.712L352.459 290.182Z" fill="white"/>
<path d="M157.595 290.184L165.089 282.715L157.595 275.246L150.101 282.715L157.595 290.184Z" fill="white"/>
<path d="M67.5305 290.171L75.0244 282.702L67.5304 275.232L60.0365 282.702L67.5305 290.171Z" fill="white"/>
<path d="M262.43 215.464L269.925 207.996L262.432 200.526L254.937 207.994L262.43 215.464Z" fill="white"/>
<path d="M262.462 215.51L254.973 222.975L262.462 230.439L254.973 237.914L262.462 245.379L254.973 252.843L262.462 260.307L269.951 252.843L262.462 245.379L269.951 237.914L262.462 230.45L269.961 222.975L262.462 215.51Z" fill="white"/>
<path d="M277.438 230.439L284.932 222.97L277.438 215.5L269.944 222.97L277.438 230.439Z" fill="white"/>
<path d="M277.442 245.371L284.936 237.902L277.442 230.433L269.948 237.902L277.442 245.371Z" fill="white"/>
<path d="M277.498 275.306L284.992 267.837L277.498 260.368L270.004 267.837L277.498 275.306Z" fill="white"/>
<path d="M292.419 200.577L299.913 193.108L292.419 185.638L284.925 193.108L292.419 200.577Z" fill="white"/>
<path d="M292.404 215.489L299.899 208.021L292.406 200.551L284.911 208.019L292.404 215.489Z" fill="white"/>
<path d="M292.402 230.42L299.897 222.952L292.405 215.482L284.91 222.95L292.402 230.42Z" fill="white"/>
<path d="M314.906 237.914L307.417 230.45L299.917 237.914L307.406 245.379L299.917 252.843L307.406 260.307L314.906 252.843L307.417 245.379L314.906 237.914Z" fill="white"/>
<path d="M292.469 260.374L299.962 252.904L292.468 245.435L284.975 252.904L292.469 260.374Z" fill="white"/>
<path d="M314.906 208.035L307.417 200.571L299.917 208.035L307.417 215.51L314.906 208.035L322.395 215.51L329.884 208.035L322.395 200.571L314.906 208.035Z" fill="white"/>
<path d="M322.395 215.51L314.906 222.985L307.417 215.51L299.917 222.985L307.417 230.45L314.906 222.985L322.395 230.45L314.906 237.914L322.395 245.379L329.884 237.914L322.395 230.45L329.884 222.985L322.395 215.51Z" fill="white"/>
<path d="M322.447 260.377L329.94 252.908L322.447 245.438L314.953 252.908L322.447 260.377Z" fill="white"/>
<path d="M337.379 215.502L344.873 208.033L337.379 200.563L329.885 208.033L337.379 215.502Z" fill="white"/>
<path d="M337.372 245.374L344.866 237.905L337.372 230.435L329.878 237.905L337.372 245.374Z" fill="white"/>
<path d="M337.376 275.246L344.87 267.777L337.376 260.308L329.882 267.777L337.376 275.246Z" fill="white"/>
<path d="M352.36 215.519L359.854 208.05L352.36 200.581L344.866 208.05L352.36 215.519Z" fill="white"/>
<path d="M352.381 230.478L359.874 223.007L352.378 215.539L344.886 223.009L352.381 230.478Z" fill="white"/>
<path d="M352.312 260.269L359.806 252.799L352.312 245.33L344.818 252.799L352.312 260.269Z" fill="white"/>
<path d="M367.424 245.305L374.829 237.914L367.413 230.523L367.34 230.45L359.851 237.914L367.34 245.379L367.424 245.305Z" fill="white"/>
</g>
</g>
<defs>
<clipPath id="clip0_226_10908">
<rect width="1440" height="435" fill="white" transform="translate(1440 305) rotate(-180)"/>
</clipPath>
</defs>
</svg>
