<svg width="1439" height="341" viewBox="0 0 1439 341" fill="none" xmlns="http://www.w3.org/2000/svg">
<path d="M0.0105013 304.081L7.4906 311.436L13.5629 305.465L14.9812 304.071L15.0022 304.071L22.4823 311.425L14.9917 318.791L22.4823 326.156L14.9917 333.521L22.4823 340.886L29.9729 333.521L22.4823 326.156L29.9729 318.791L37.4634 326.156L29.9729 333.521L37.4634 340.886L44.954 333.521L37.4634 326.156L44.954 318.791L37.4634 311.425L44.9436 304.071L44.9645 304.071L52.4446 311.425L44.954 318.791L52.4446 326.156L44.954 333.521L52.4446 340.886L59.9352 333.521L52.4446 326.156L59.9352 318.791L52.4446 311.425L59.9247 304.071L59.9457 304.071L61.9629 306.054L67.4258 311.425L59.9352 318.791L67.4258 326.156L74.9164 318.791L82.407 326.156L74.9164 333.521L82.407 340.886L89.8976 333.521L82.407 326.156L89.8976 318.791L82.407 311.425L89.8871 304.071L89.9081 304.071L97.3882 311.425L97.3987 311.425L104.868 304.071L104.816 303.988L104.889 304.06L104.9 304.06L104.9 304.071L112.39 311.436L119.881 304.071L120.08 304.071L127.571 311.436L135.062 304.071L135.072 304.06L135.146 303.988L135.104 304.06L142.573 311.415L142.594 311.436L150.074 304.081L150.095 304.081L157.576 311.436L150.085 318.801L157.576 326.166L150.085 333.531L157.576 340.897L165.066 333.531L157.576 326.166L165.066 318.801L172.557 326.166L180.047 318.801L172.557 311.436L178.02 306.064L180.037 304.081L180.058 304.081L187.538 311.436L180.047 318.801L187.538 326.166L180.047 333.531L187.538 340.897L195.029 333.531L187.538 326.166L195.029 318.801L187.538 311.436L195.018 304.081L195.039 304.081L202.519 311.436L195.029 318.801L202.519 326.166L195.029 333.531L202.519 340.897L210.01 333.531L202.519 326.166L210.01 318.801L217.5 326.166L210.01 333.531L217.5 340.897L224.991 333.531L217.5 326.166L224.991 318.801L217.5 311.436L224.98 304.081L225.001 304.081L226.42 305.475L232.492 311.446L239.972 304.091L239.982 304.091L247.473 311.446L239.982 318.811L247.473 326.177L254.964 318.811L262.454 326.177L269.945 318.811L277.435 326.177L284.926 318.811L277.435 311.446L269.945 318.811L262.454 311.446L269.945 304.081L269.955 304.081L277.446 311.446L284.937 304.081L284.947 304.081L292.438 311.446L299.928 304.081L299.939 304.081L307.429 311.446L299.939 318.811L307.429 326.177L314.909 318.822L307.429 311.456L314.92 304.091L322.411 311.456L314.93 318.811L322.421 326.177L329.912 318.811L337.402 326.177L344.893 318.811L352.383 326.177L359.874 318.811L352.383 311.446L359.863 304.081L367.354 311.446L359.863 318.811L367.354 326.177L367.427 326.104L374.908 318.749L367.501 311.467L374.981 304.102L382.461 311.456L374.981 318.822L374.971 318.822L374.897 318.749L374.823 318.822L374.897 318.894L382.314 326.187L382.398 326.104L389.815 318.811L389.899 318.729L389.973 318.801L397.463 326.166L389.973 333.531L397.463 340.897L404.954 333.531L397.463 326.166L404.954 318.801L402.054 315.95L397.463 311.436L404.943 304.081L412.424 311.446L404.933 318.811L412.424 326.177L404.933 333.542L412.424 340.907L419.914 333.542L412.424 326.177L419.904 318.822L412.424 311.467L419.914 304.102L427.405 311.467L419.925 318.822L427.405 326.177L434.895 318.811L427.405 311.446L434.885 304.091L434.906 304.091L442.386 311.446L449.866 304.091L449.877 304.091L457.367 311.446L449.877 318.811L442.386 311.446L434.895 318.811L442.386 326.177L434.895 333.542L442.386 340.907L449.877 333.542L442.386 326.177L449.877 318.811L457.367 326.177L464.858 318.811L472.348 326.177L479.839 318.811L472.348 311.446L479.839 304.081L479.849 304.081L487.34 311.446L479.849 318.811L487.34 326.177L494.831 318.811L487.34 311.446L494.831 304.081L502.321 311.456L494.831 318.822L502.321 326.187L509.812 318.822L517.302 326.187L524.793 318.822L517.302 311.456L524.793 304.091L532.284 311.467L524.793 318.832L532.284 326.197L539.774 318.832L547.265 326.197L554.755 318.832L562.246 326.197L554.755 333.562L562.246 340.928L569.736 333.562L562.246 326.197L569.736 318.832L562.246 311.467L554.755 318.832L547.265 311.467L554.755 304.102L562.246 311.467L569.736 304.102L577.227 311.467L569.736 318.832L577.227 326.197L569.736 333.562L577.227 340.928L584.718 333.562L577.227 326.197L584.718 318.832L592.208 326.197L584.718 333.562L592.208 340.928L599.699 333.562L592.208 326.197L599.699 318.832L592.208 311.467L599.699 304.102L607.189 311.467L602.504 316.074L599.699 318.832L607.189 326.197L599.699 333.562L607.189 340.928L614.68 333.562L607.189 326.197L614.68 318.832L614.753 318.76L614.827 318.842L622.244 326.135L622.328 326.218L629.745 318.925L629.819 318.853L629.745 318.78L637.236 326.146L637.309 326.218L644.8 318.853L637.309 311.487L644.8 304.122L652.29 311.498L644.8 318.863L652.29 326.228L659.781 318.863L652.29 311.498L659.781 304.133L667.272 311.498L674.762 304.133L667.272 296.767L674.762 289.402L682.253 296.767L674.762 304.133L682.253 311.508L674.762 318.873L667.272 311.508L659.781 318.873L667.272 326.239L674.762 318.873L682.253 326.239L689.743 318.873L697.234 326.239L704.725 318.873L697.234 311.508L704.725 304.143L712.215 311.508L719.706 304.143L727.196 311.508L734.687 304.143L742.178 311.508L734.687 318.873L727.196 311.508L719.706 318.873L727.196 326.239L734.687 318.873L742.178 326.239L749.668 318.873L757.159 326.239L749.668 333.604L757.159 340.969L764.649 333.604L757.159 326.239L764.649 318.873L757.159 311.508L764.649 304.143L757.159 296.778L764.649 289.412L772.14 296.778L765.584 303.224L764.649 304.143L772.14 311.508L778.212 305.537L779.63 304.143L787.121 311.508L779.63 318.873L787.121 326.239L779.63 333.604L787.121 340.969L794.612 333.604L787.121 326.239L794.612 318.873L802.102 326.239L794.612 333.604L802.102 340.969L809.593 333.604L802.102 326.239L809.593 318.873L802.102 311.508L809.593 304.143L809.362 303.916L802.102 296.778L809.593 289.413L811.568 291.355L817.083 296.778L809.593 304.143L817.083 311.508L809.593 318.873L817.083 326.239L809.593 333.604L817.083 340.969L824.574 333.604L817.083 326.239L824.574 318.873L817.083 311.508L824.574 304.143L826.602 306.137L832.065 311.508L824.574 318.873L832.065 326.239L839.555 318.873L847.046 326.239L839.555 333.604L847.046 340.969L854.536 333.604L847.046 326.239L854.536 318.873L847.046 311.508L854.536 304.143L862.027 311.508L862.037 311.508L869.518 304.143L869.476 304.071L869.549 304.143L869.549 304.153L869.602 304.205L869.654 304.153L873.405 307.841L877.103 311.477L877.155 311.529L877.103 311.477L884.541 304.164L877.05 296.798L884.541 289.423L892.031 296.788L884.541 304.153L884.74 304.153L892.231 311.529L899.722 304.164L899.795 304.091L899.753 304.164L907.233 311.518L907.244 311.518L914.734 304.164L922.225 311.529L914.734 318.894L922.225 326.259L914.734 333.624L922.225 340.99L929.715 333.624L922.225 326.259L929.715 318.894L937.206 326.259L944.697 318.894L937.206 311.529L942.669 306.157L944.697 304.164L952.187 311.529L959.678 304.164L952.187 296.798L957.703 291.375L959.678 289.433L967.168 296.798L959.678 304.164L967.168 311.529L959.678 318.894L967.168 326.259L959.678 333.624L967.168 340.99L974.659 333.624L967.168 326.259L974.659 318.894L982.15 326.259L974.659 333.624L982.15 340.99L989.64 333.624L982.15 326.259L989.64 318.894L982.15 311.529L989.64 304.164L991.069 305.558L997.141 311.529L1004.63 304.164L1003.95 303.492L997.141 296.798L1004.63 289.433L1012.12 296.798L1004.63 304.164L1012.12 311.529L1004.63 318.894L1012.12 326.259L1004.63 333.624L1012.12 340.99L1019.61 333.624L1012.12 326.259L1019.61 318.894L1027.1 326.259L1034.59 318.894L1042.08 326.259L1049.58 318.894L1042.08 311.529L1034.59 318.894L1027.1 311.529L1034.59 304.164L1042.08 311.529L1049.58 304.164L1057.07 311.529L1064.56 304.164L1072.05 311.529L1064.56 318.894L1072.05 326.259L1079.54 318.894L1087.03 326.259L1094.52 318.894L1102.01 326.259L1109.5 318.894L1102.01 311.529L1094.52 318.894L1087.03 311.529L1094.52 304.164L1087.03 296.798L1094.52 289.433L1102.01 296.798L1094.52 304.164L1102.01 311.539L1109.5 304.174L1116.99 311.539L1109.5 318.904L1116.99 326.27L1124.48 318.904L1116.99 311.539L1124.48 304.164L1131.97 311.529L1124.48 318.894L1131.97 326.259L1132.05 326.187L1139.54 318.822L1139.45 318.904L1139.53 318.977L1146.94 326.27L1147.03 326.187L1154.44 318.894L1154.53 318.811L1154.6 318.884L1162.09 326.249L1154.6 333.614L1162.09 340.979L1169.58 333.614L1162.09 326.249L1169.58 318.884L1166.63 315.981L1162.09 311.518L1169.58 304.153L1177.07 311.518L1169.58 318.884L1177.07 326.249L1169.58 333.614L1177.07 340.979L1184.56 333.614L1177.07 326.249L1184.56 318.884L1192.05 326.249L1199.54 318.884L1192.05 311.518L1199.54 304.153L1207.04 311.518L1214.53 304.153L1222.02 311.518L1214.53 318.884L1207.04 311.518L1199.54 318.884L1207.04 326.249L1199.54 333.614L1207.04 340.979L1214.53 333.614L1207.04 326.249L1214.53 318.884L1222.02 326.249L1229.51 318.884L1237 326.249L1244.49 318.884L1237 311.518L1244.49 304.153L1251.98 311.529L1244.49 318.894L1251.98 326.259L1259.47 318.894L1251.98 311.529L1259.47 304.164L1266.96 311.529L1274.45 304.164L1281.94 311.529L1274.45 318.894L1281.94 326.259L1274.45 333.624L1281.94 340.99L1289.43 333.624L1296.92 340.99L1304.41 333.624L1296.92 326.259L1289.43 333.624L1281.94 326.259L1289.43 318.894L1296.92 326.259L1304.41 318.894L1311.9 326.259L1319.39 318.894L1326.88 326.259L1334.38 318.894L1326.88 311.529L1334.38 304.164L1341.87 311.529L1349.36 304.164L1349.38 304.164L1356.87 311.539L1349.38 318.904L1356.87 326.27L1349.38 333.635L1356.87 341L1364.36 333.635L1356.87 326.27L1364.36 318.904L1371.85 326.27L1364.36 333.635L1371.85 341L1379.34 333.635L1371.85 326.27L1379.33 318.915L1386.81 326.27L1394.3 318.904L1401.79 326.27L1409.28 318.904L1401.79 311.539L1409.28 304.174L1401.79 296.809L1409.28 289.444L1416.77 296.809L1424.26 289.444L1431.75 296.809L1424.27 304.164L1416.79 296.809L1416.78 296.809L1409.29 304.164L1409.31 304.164L1416.79 311.519L1424.27 304.164L1431.76 311.529L1424.27 318.894L1416.79 311.539L1409.31 318.894L1416.8 326.259L1409.31 333.624L1416.8 340.99L1424.29 333.624L1416.8 326.259L1424.29 318.894L1431.78 326.259L1439.28 318.894L1431.78 311.529L1439.28 304.164L1440 304.164L1440 0.00012207L2.98112e-05 -3.81849e-06L3.22847e-06 304.071L0.0105013 304.081ZM1432.11 281.985L1424.62 289.351L1417.13 281.985L1424.62 274.62L1432.11 281.985ZM1410.48 245.159L1417.97 252.525L1410.48 259.89L1402.99 252.525L1410.48 245.159ZM1379.63 318.822L1372.15 311.467L1379.64 304.102L1387.12 311.457L1379.63 318.822ZM1394.56 304.04L1394.51 304.091L1387.07 296.778L1387.02 296.726L1394.51 289.361L1402 296.726L1394.56 304.04ZM1394.56 259.9L1402.05 267.265L1394.56 274.63L1387.07 267.265L1394.56 259.9ZM1379.54 274.63L1387.03 281.996L1379.6 289.299L1379.54 289.361L1372.1 282.047L1372.05 281.996L1379.54 274.63ZM1364.56 289.361L1372.05 296.726L1364.57 304.081L1357.27 296.902L1357.14 296.778L1349.84 303.957L1342.46 296.705L1349.83 289.464L1350.08 289.712L1357.14 296.654L1357.27 296.53L1364.57 289.351L1364.56 289.361ZM1349.69 245.159L1357.18 252.525L1349.69 259.89L1342.2 252.525L1349.69 245.159ZM1334.71 274.63L1342.2 281.996L1334.71 289.361L1327.22 281.996L1334.71 274.63ZM1319.73 274.63L1327.22 281.996L1319.73 289.361L1327.22 296.726L1319.73 304.091L1312.24 296.726L1319.73 289.361L1312.24 281.996L1319.73 274.63ZM1298.3 266.232L1304.74 259.9L1312.23 267.265L1304.74 274.63L1297.25 267.265L1298.3 266.232ZM1304.74 304.091L1297.25 296.726L1304.74 289.361L1312.23 296.726L1304.74 304.091L1312.23 311.467L1304.74 318.832L1297.25 311.467L1304.74 304.102L1304.74 304.091ZM1289.75 289.361L1297.24 296.726L1289.75 304.091L1282.26 296.726L1289.75 289.361ZM1274.77 245.159L1282.26 252.525L1274.77 259.89L1267.28 252.525L1274.77 245.159ZM1274.77 274.63L1282.26 281.996L1274.77 289.361L1267.28 281.996L1274.77 274.63ZM1267.26 296.726L1259.77 304.091L1252.29 296.726L1259.78 289.351L1267.28 296.716L1267.26 296.726ZM1244.79 274.63L1252.28 281.996L1244.79 289.361L1237.3 281.996L1244.79 274.63ZM1161.99 311.074L1154.93 318.016L1147.83 311.033L1147.44 310.651L1154.11 304.091L1154.93 303.286L1155.75 304.091L1162.42 310.651L1161.99 311.074ZM1229.78 259.9L1237.27 267.265L1229.78 274.63L1222.29 267.265L1229.78 259.9ZM1229.78 289.361L1237.27 296.726L1229.78 304.091L1222.3 296.736L1222.29 296.736L1229.78 289.361ZM1222.29 296.726L1214.81 304.081L1207.33 296.726L1214.82 289.351L1222.31 296.716L1222.29 296.726ZM1199.83 274.63L1207.32 281.996L1199.83 289.361L1192.34 281.996L1199.83 274.63ZM1192.34 296.726L1184.85 304.091L1177.36 296.726L1184.85 289.361L1192.34 296.726ZM1169.91 259.9L1177.4 267.265L1169.91 274.63L1162.42 267.265L1169.91 259.9ZM1169.87 289.361L1177.36 296.726L1169.87 304.091L1162.38 296.726L1169.87 289.361ZM1154.73 274.641L1162.22 282.006L1154.73 289.371L1147.24 282.006L1154.73 274.641ZM1139.89 304.102L1139.81 304.184L1139.74 304.112L1132.26 296.747L1139.75 289.382L1147.24 296.747L1139.76 304.102L1139.9 304.102L1139.89 304.102ZM1139.75 245.18L1147.24 252.545L1139.75 259.91L1132.26 252.545L1139.75 245.18ZM1124.76 274.651L1132.26 282.016L1124.76 289.382L1117.27 282.016L1124.76 274.651ZM1109.78 274.651L1117.27 282.016L1109.78 289.382L1117.27 296.747L1109.79 304.102L1109.78 304.102L1103.36 297.79L1102.3 296.747L1109.79 289.382L1102.3 282.016L1109.79 274.651L1109.78 274.651ZM1079.81 259.9L1087.3 267.265L1079.81 274.63L1072.32 267.265L1079.81 259.9ZM1079.81 289.371L1087.3 296.736L1079.81 304.102L1072.32 296.736L1079.81 289.371ZM1064.83 274.651L1072.32 282.016L1064.83 289.382L1057.34 282.016L1064.83 274.651ZM1042.36 282.016L1049.85 274.651L1057.34 282.016L1049.85 289.382L1057.34 296.747L1049.85 304.112L1042.36 296.747L1049.85 289.382L1042.36 282.016ZM1042.36 282.016L1034.87 289.382L1027.38 282.016L1034.87 274.651L1042.36 282.016ZM1019.89 245.18L1027.38 252.545L1019.89 259.91L1012.4 252.545L1019.89 245.18ZM1019.89 289.371L1027.38 296.736L1019.89 304.102L1012.4 296.736L1019.89 289.371ZM989.913 274.651L997.404 282.016L991.92 287.409L989.913 289.382L982.423 282.016L989.913 274.651ZM974.932 289.382L982.423 296.747L974.932 304.112L967.442 296.747L974.932 289.382ZM959.951 259.91L967.442 267.265L959.951 274.63L952.46 267.265L959.951 259.9L959.951 259.91ZM929.978 289.382L922.487 282.016L929.978 274.651L937.469 282.016L929.978 289.382L937.469 296.747L929.978 304.112L927.719 301.891L927.362 301.54L927.289 301.467L922.487 296.747L927.782 291.54L929.978 289.382ZM914.997 274.651L922.487 282.016L914.997 289.382L907.506 282.016L914.997 274.651ZM907.464 252.545L907.485 252.555L907.422 252.617L907.475 252.535L907.464 252.545ZM899.974 274.641L900.058 274.548L900.005 274.63L907.485 281.985L907.496 282.006L907.475 282.027L900.005 289.371L900.1 289.516L899.963 289.382L899.984 289.361L892.515 282.016L899.984 274.672L899.963 274.651L899.974 274.641ZM884.793 259.91L885.371 260.478L892.284 267.276L890.834 268.701L884.793 274.641L881.221 271.129L878.868 268.815L877.302 267.276L884.793 259.91ZM862.321 252.545L862.374 252.628L862.311 252.566L862.332 252.545L862.321 252.545ZM862.3 281.985L869.78 274.63L869.728 274.548L869.812 274.63L869.791 274.651L877.26 281.996L869.791 289.34L869.812 289.361L869.675 289.495L869.77 289.351L862.3 282.006L862.279 281.985L862.29 281.985L862.29 281.965L862.3 281.985ZM862.279 282.006L854.789 289.371L847.298 282.006L854.789 274.641L862.279 282.006ZM839.891 245.252L839.965 245.18L847.371 252.463L847.456 252.545L839.965 259.91L832.474 252.545L839.891 245.252ZM839.807 289.371L842.003 291.53L847.298 296.736L842.686 301.271L842.423 301.529L842.066 301.881L839.807 304.102L832.317 296.736L839.807 289.371ZM824.826 274.651L832.317 282.016L824.826 289.382L817.336 282.016L824.826 274.651ZM809.834 259.91L817.325 267.276L809.834 274.641L802.344 267.276L809.834 259.91ZM794.853 289.382L802.344 296.747L794.853 304.112L787.363 296.747L794.853 289.382ZM779.872 274.651L787.363 282.016L779.872 289.382L777.855 287.409L772.371 282.016L779.862 274.651L779.872 274.651ZM749.899 245.18L757.39 252.545L749.899 259.91L742.409 252.545L749.899 245.18ZM749.899 289.371L757.39 296.736L749.899 304.102L742.409 296.736L749.899 289.371ZM734.918 274.651L742.409 282.016L734.918 289.382L727.427 282.016L734.918 274.651ZM719.937 274.651L727.427 282.016L719.937 289.382L727.427 296.747L719.937 304.112L712.446 296.747L719.937 289.382L712.446 282.016L719.937 274.651ZM689.964 289.371L697.455 296.736L689.964 304.102L682.474 296.736L689.964 289.371ZM674.983 259.9L682.474 267.265L674.983 274.63L667.492 267.265L674.983 259.9ZM659.991 274.651L667.482 282.016L659.991 289.382L667.482 296.747L666.526 297.687L660.002 304.102L652.522 296.747L660.012 289.382L652.522 282.016L660.012 274.651L659.991 274.651ZM584.917 304.112L577.427 296.747L584.917 289.371L592.408 296.736L584.917 304.102L584.917 304.112ZM630.039 304.112L629.966 304.195L629.892 304.112L630.039 304.112L622.559 296.757L630.05 289.392L637.54 296.757L630.06 304.112L630.039 304.112ZM644.863 245.19L652.354 252.555L644.863 259.921L637.372 252.555L644.863 245.19ZM615.048 274.661L622.465 281.954L629.882 274.661L637.372 282.027L629.882 289.392L622.465 282.099L615.048 289.392L607.557 282.027L615.048 274.661ZM607.399 311.487L614.89 304.122L622.381 311.487L614.89 318.853L607.399 311.487ZM599.898 289.392L607.389 296.757L599.898 304.122L592.408 296.757L599.898 289.381L599.898 289.392ZM584.917 259.931L592.408 267.296L584.917 274.661L577.427 267.296L584.917 259.931ZM577.427 282.037L569.936 289.402L562.446 282.037L569.936 274.672L577.427 282.037ZM554.965 245.201L562.456 252.566L554.965 259.931L547.475 252.566L554.965 245.201ZM554.965 289.392L562.456 296.757L554.976 304.122L547.496 296.757L554.986 289.392L554.965 289.392ZM539.984 289.392L547.475 296.757L547.464 296.757L539.984 304.122L532.494 296.757L539.984 289.392ZM510.001 318.863L502.51 311.508L510.001 304.143L517.481 311.498L509.99 318.863L510.001 318.863ZM524.982 274.672L532.473 282.037L524.982 289.402L517.491 282.037L524.982 274.672ZM517.502 296.767L510.022 304.133L502.531 296.767L510.022 289.402L517.512 296.767L517.502 296.767ZM495.03 259.941L502.521 267.307L495.03 274.672L487.54 267.307L495.03 259.941ZM480.039 274.661L487.529 282.027L480.039 289.392L472.548 282.027L480.039 274.661ZM450.055 304.112L442.575 296.767L450.066 289.392L457.556 296.757L450.076 304.112L450.055 304.112ZM472.527 296.757L465.036 304.122L457.556 296.778L457.546 296.778L465.036 289.402L472.527 296.767L472.527 296.757ZM450.066 245.211L457.556 252.576L450.066 259.941L442.575 252.576L450.066 245.211ZM435.084 274.672L442.575 282.037L435.084 289.402L427.594 282.037L435.084 274.672ZM427.594 296.767L420.103 304.133L412.613 296.767L420.103 289.402L427.594 296.767ZM405.164 259.941L412.655 267.307L405.164 274.672L397.673 267.307L405.164 259.941ZM405.122 289.402L412.613 296.767L405.122 304.133L397.631 296.767L405.122 289.402ZM375.065 304.215L374.992 304.143L375.128 304.143L375.055 304.215L375.065 304.215ZM389.973 274.682L397.463 282.047L389.973 289.412L382.482 282.047L389.973 274.682ZM374.992 289.412L382.482 296.778L374.992 304.143L367.501 296.778L374.992 289.412ZM360.011 274.682L367.501 282.047L360.011 289.412L352.52 282.047L360.011 274.682ZM345.029 274.682L352.52 282.047L345.029 289.412L352.52 296.778L345.029 304.143L338.652 297.873L337.539 296.778L345.029 289.412L337.539 282.047L345.029 274.682ZM337.539 311.518L330.038 318.884L322.547 311.518L330.038 304.153L337.528 311.518L337.539 311.518ZM330.038 259.941L337.528 267.306L330.038 274.672L322.547 267.306L330.038 259.941ZM330.038 289.412L337.528 296.778L330.038 304.143L322.547 296.778L330.038 289.412ZM315.057 289.412L322.547 296.778L315.057 304.143L307.566 296.778L315.057 289.412ZM300.075 274.692L307.566 282.058L300.075 289.423L292.585 282.058L300.075 274.692ZM277.604 282.058L285.094 274.692L292.585 282.058L285.094 289.423L292.585 296.788L285.094 304.153L277.604 296.788L285.094 289.423L277.604 282.058ZM277.604 282.058L270.113 289.423L262.622 282.058L270.113 274.692L277.604 282.058ZM255.132 245.232L262.622 252.597L255.132 259.962L247.641 252.597L255.132 245.232ZM255.132 289.412L262.622 296.778L255.132 304.143L247.641 296.778L255.132 289.412ZM240.151 304.143L239.468 303.471L232.66 296.778L240.151 289.412L247.641 296.778L240.151 304.143ZM240.151 259.962L247.641 267.327L240.151 274.692L232.66 267.327L240.151 259.962ZM225.169 274.682L232.66 282.047L227.176 287.439L225.159 289.412L217.668 282.047L225.159 274.682L225.169 274.682ZM210.188 289.412L217.679 296.778L210.188 304.143L202.698 296.778L210.188 289.412ZM195.207 259.941L202.698 267.296L195.207 274.661L187.716 267.296L195.207 259.931L195.207 259.941ZM193.232 291.354L195.207 289.412L202.698 296.778L195.648 303.709L195.207 304.143L187.716 296.778L193.232 291.354ZM180.226 274.692L187.716 282.058L180.226 289.423L172.735 282.058L180.226 274.692ZM165.245 245.232L172.735 252.597L165.245 259.962L157.754 252.597L165.245 245.232ZM163.049 291.571L165.245 289.412L172.735 296.778L165.245 304.143L162.986 301.922L162.629 301.571L162.555 301.498L157.754 296.778L163.049 291.571ZM150.264 274.682L157.754 282.047L150.264 289.412L142.773 282.047L150.264 274.682ZM120.28 304.122L112.8 296.767L120.27 289.423L122.444 291.561L127.75 296.778L120.28 304.122ZM142.731 252.576L142.752 252.586L142.689 252.648L142.741 252.566L142.731 252.576ZM135.24 274.672L135.335 274.579L135.282 274.661L142.762 282.016L142.773 282.037L142.752 282.058L135.282 289.402L135.377 289.547L135.24 289.412L135.261 289.392L127.792 282.047L135.261 274.703L135.24 274.682L135.24 274.672ZM119.576 260.654L120.27 259.972L120.291 259.952L127.781 267.317L120.291 274.682L120.259 274.651L114.218 268.711L112.8 267.317L119.576 260.654ZM97.5773 252.576L97.6298 252.659L97.5668 252.597L97.5878 252.576L97.5773 252.576ZM97.5563 282.016L105.036 274.661L104.984 274.579L105.078 274.672L105.057 274.692L112.527 282.037L105.057 289.381L105.078 289.402L104.942 289.536L105.036 289.392L97.5668 282.047L97.5458 282.027L97.5563 282.027L97.5563 282.006L97.5563 282.016ZM90.0447 274.672L97.5353 282.037L90.0447 289.402L82.5541 282.037L90.0447 274.672ZM78.0996 301.137L77.6688 301.56L77.3116 301.912L75.053 304.133L67.5624 296.767L75.053 289.402L77.2488 291.561L82.5436 296.767L78.0996 301.137ZM75.053 245.211L82.5436 252.576L75.053 259.941L67.5624 252.576L75.053 245.211ZM60.0718 274.672L67.5624 282.037L60.0718 289.402L52.5812 282.037L60.0718 274.672ZM45.0801 304.133L44.6284 303.688L37.5896 296.767L45.0801 289.402L47.0552 291.344L52.5707 296.767L45.0801 304.133ZM45.0801 259.931L52.5707 267.296L45.0801 274.661L37.5896 267.296L45.0801 259.931ZM30.099 289.402L37.5896 296.767L30.099 304.133L22.6084 296.767L30.099 289.402ZM15.1178 274.672L22.6084 282.037L15.1178 289.402L13.1007 287.429L7.6167 282.037L15.1073 274.672L15.1178 274.672Z" fill="#6CC72B"/>
</svg>
