<svg width="64" height="63" viewBox="0 0 64 63" fill="none" xmlns="http://www.w3.org/2000/svg">
<path d="M16.8047 3.58108L16.8047 3.58105C16.3295 2.98007 15.7287 2.48368 15.0409 2.12613C14.3531 1.76855 13.5948 1.55839 12.8164 1.51053C12.0379 1.46267 11.2585 1.57829 10.5299 1.84918C9.80168 2.11996 9.14193 2.53933 8.59368 3.07811C8.59351 3.07828 8.59333 3.07845 8.59316 3.07862L4.45809 7.14939C1.86042 9.70667 0.779281 13.4664 2.00631 16.9042L16.8047 3.58108ZM16.8047 3.58108L23.9841 12.6609C23.9842 12.6611 23.9844 12.6612 23.9845 12.6614C25.012 13.9622 25.3717 15.6518 24.9672 17.2447L24.9671 17.245M16.8047 3.58108L24.9671 17.245M24.9671 17.245L22.7792 25.8685L22.779 25.8692M24.9671 17.245L22.779 25.8692M22.779 25.8692C22.6014 26.5704 22.6111 27.3053 22.8069 28.0016L24.2509 27.5956M22.779 25.8692L24.2509 27.5956M24.2509 27.5956L22.8069 28.0016C23.0027 28.6979 23.3773 29.3299 23.8918 29.8373L23.8928 29.8383L33.7205 39.5132L33.721 39.5137M24.2509 27.5956L33.721 39.5137M33.721 39.5137C34.2369 40.0211 34.8754 40.3863 35.5731 40.5761C36.2708 40.766 37.0061 40.7747 37.708 40.6015L46.4628 38.4478L46.463 38.4478M33.721 39.5137L46.463 38.4478M46.463 38.4478C47.2719 38.2487 48.1166 38.2332 48.9326 38.4025C49.7486 38.5719 50.5132 38.9214 51.1689 39.423L60.3919 46.4866C62.9877 48.4749 63.2186 52.2323 60.9043 54.5074L60.9036 54.5082M46.463 38.4478L60.9036 54.5082M60.9036 54.5082L56.7678 58.5797C54.1687 61.1384 50.3307 62.2181 46.8037 60.9956L46.8034 60.9955M60.9036 54.5082L46.8034 60.9955M46.8034 60.9955C36.4585 57.4122 27.0678 51.5827 19.3271 43.9409L19.3241 43.9379M46.8034 60.9955L19.3241 43.9379M19.3241 43.9379C11.5623 36.3189 5.64409 27.0792 2.00654 16.9048L19.3241 43.9379Z" stroke="#6CC72B" stroke-width="3"/>
</svg>
